<svg width="280" height="280" viewBox="0 0 280 280" fill="none" xmlns="http://www.w3.org/2000/svg">
<path d="M136.494 245.202V262.595H161.93H189.986V245.202H136.494Z" fill="#F5F5F5"/>
<path d="M134.249 240.335V245.202H191.856V240.335H161.93H134.249Z" fill="#EBEBEB"/>
<path d="M163.05 262.595H189.986V245.202H191.856V240.335H161.93V244.748L163.05 262.595Z" fill="#EBEBEB"/>
<path d="M154.823 248.002H143.976V250.623H154.823V248.002Z" fill="#E0E0E0"/>
<path d="M156.509 253.898H142.576V259.426H156.509V253.898Z" fill="white"/>
<path d="M144.721 222.964V240.358H170.162H198.218V222.964H144.721Z" fill="#F5F5F5"/>
<path d="M142.475 218.098V222.964H200.088V218.098H170.162H142.475Z" fill="#EBEBEB"/>
<path d="M171.282 240.358H198.218V222.964H200.088V218.098H170.162V222.516L171.282 240.358Z" fill="#EBEBEB"/>
<path d="M163.05 225.77H152.202V228.39H163.05V225.77Z" fill="#E0E0E0"/>
<path d="M164.741 231.661H150.808V237.188H164.741V231.661Z" fill="white"/>
<path d="M259.879 262.73C259.879 262.808 206.203 262.875 140.006 262.875C73.808 262.875 20.1208 262.808 20.1208 262.73C20.1208 262.651 73.7856 262.584 140.006 262.584C206.226 262.584 259.879 262.64 259.879 262.73Z" fill="#263238"/>
<path d="M223.322 137.603H139.871C137.898 137.603 136.298 139.203 136.298 141.176V184.374C136.298 186.348 137.898 187.947 139.871 187.947H223.322C225.296 187.947 226.895 186.348 226.895 184.374V141.176C226.895 139.203 225.296 137.603 223.322 137.603Z" fill="white"/>
<path d="M223.328 187.947C223.328 187.947 223.569 187.947 224.028 187.863C224.709 187.716 225.333 187.376 225.826 186.883C226.185 186.521 226.462 186.085 226.638 185.606C226.738 185.33 226.806 185.042 226.839 184.75C226.839 184.447 226.839 184.122 226.839 183.786C226.839 182.442 226.839 180.891 226.839 179.15C226.839 172.166 226.811 162.075 226.794 149.604C226.794 148.042 226.794 146.446 226.794 144.816V142.341C226.794 141.506 226.878 140.661 226.537 139.888C226.301 139.303 225.91 138.793 225.406 138.414C224.901 138.035 224.303 137.801 223.675 137.738C223.261 137.71 222.802 137.738 222.365 137.738H216.961H193.542H139.882C139.311 137.737 138.748 137.878 138.245 138.15C137.743 138.422 137.316 138.816 137.004 139.294C136.686 139.769 136.494 140.316 136.444 140.885C136.416 141.445 136.444 142.061 136.444 142.643V163.352C136.444 167.832 136.444 172.237 136.444 176.568V182.974C136.444 183.501 136.444 184.033 136.444 184.548C136.47 185.052 136.603 185.545 136.836 185.993C137.075 186.433 137.405 186.816 137.805 187.116C138.205 187.417 138.666 187.628 139.154 187.734C139.652 187.814 140.157 187.841 140.661 187.813H162.54H182.946L212.492 187.858L220.522 187.886H222.611H223.328H222.611H220.522L212.492 187.914L182.946 187.958H162.54H140.661C140.139 187.986 139.615 187.957 139.098 187.874C138.571 187.761 138.074 187.533 137.643 187.209C137.211 186.884 136.856 186.469 136.601 185.993C136.344 185.512 136.196 184.981 136.17 184.436C136.17 183.876 136.17 183.383 136.17 182.851C136.17 180.74 136.17 178.601 136.17 176.445V163.352C136.17 158.872 136.17 154.308 136.17 149.66V142.66C136.17 142.066 136.17 141.495 136.17 140.879C136.211 140.267 136.404 139.674 136.73 139.154C137.07 138.637 137.531 138.21 138.074 137.911C138.622 137.619 139.233 137.464 139.854 137.458H193.514H216.933H222.337C222.785 137.458 223.21 137.458 223.67 137.458C224.119 137.505 224.555 137.634 224.958 137.838C225.757 138.244 226.383 138.924 226.722 139.754C226.885 140.16 226.973 140.593 226.979 141.03C226.979 141.45 226.979 141.87 226.979 142.29V144.766C226.979 146.393 226.979 147.989 226.979 149.554C226.979 162.025 226.94 172.116 226.929 179.099C226.929 180.841 226.929 182.392 226.929 183.736C226.929 184.072 226.929 184.391 226.929 184.705C226.893 185.003 226.822 185.297 226.716 185.578C226.535 186.065 226.251 186.507 225.882 186.872C225.377 187.368 224.739 187.705 224.045 187.841C223.871 187.873 223.695 187.892 223.518 187.897L223.328 187.947Z" fill="#263238"/>
<path d="M167.866 155.394V156.022H165.245V152.662H167.798V153.289H166.023V154H167.591V154.61H166.023V155.394H167.866Z" fill="#263238"/>
<path d="M171.595 152.639V155.999H170.951L169.271 153.944V155.999H168.498V152.639H169.12L170.8 154.694V152.639H171.595Z" fill="#263238"/>
<path d="M173.102 153.278H172.015V152.639H174.966V153.278H173.88V156.022H173.102V153.278Z" fill="#263238"/>
<path d="M178.007 155.394V156.022H175.386V152.662H177.946V153.289H176.165V154H177.738V154.61H176.165V155.394H178.007Z" fill="#263238"/>
<path d="M180.79 156.022L180.135 155.081H179.418V156.022H178.64V152.662H180.107C181.009 152.662 181.574 153.126 181.574 153.888C181.581 154.116 181.518 154.34 181.394 154.531C181.27 154.722 181.091 154.871 180.88 154.958L181.636 156.044L180.79 156.022ZM180.057 153.278H179.418V154.454H180.057C180.533 154.454 180.774 154.235 180.774 153.866C180.774 153.496 180.533 153.278 180.057 153.278Z" fill="#263238"/>
<path d="M183.344 154.33C183.366 153.965 183.495 153.615 183.714 153.323C183.934 153.03 184.234 152.809 184.578 152.686C184.923 152.563 185.296 152.544 185.651 152.631C186.006 152.719 186.327 152.908 186.575 153.177L186.071 153.642C185.967 153.518 185.836 153.418 185.689 153.349C185.542 153.281 185.382 153.245 185.22 153.244C184.946 153.264 184.69 153.386 184.503 153.587C184.316 153.789 184.212 154.053 184.212 154.328C184.212 154.602 184.316 154.867 184.503 155.068C184.69 155.269 184.946 155.391 185.22 155.411C185.383 155.414 185.544 155.379 185.691 155.31C185.839 155.241 185.969 155.14 186.071 155.014L186.575 155.478C186.329 155.749 186.007 155.941 185.652 156.03C185.297 156.119 184.923 156.101 184.578 155.979C184.233 155.856 183.931 155.634 183.712 155.341C183.492 155.048 183.364 154.696 183.344 154.33Z" fill="#263238"/>
<path d="M186.822 154.33C186.801 153.96 186.893 153.592 187.084 153.274C187.275 152.956 187.558 152.703 187.894 152.547C188.231 152.391 188.607 152.34 188.973 152.401C189.339 152.461 189.679 152.629 189.948 152.885C190.217 153.14 190.404 153.47 190.483 153.833C190.563 154.195 190.531 154.573 190.394 154.918C190.256 155.262 190.018 155.557 189.711 155.765C189.403 155.973 189.041 156.084 188.67 156.083C188.431 156.097 188.193 156.062 187.969 155.98C187.745 155.898 187.54 155.771 187.366 155.607C187.193 155.442 187.056 155.244 186.962 155.025C186.868 154.805 186.82 154.569 186.822 154.33ZM189.728 154.33C189.724 154.122 189.658 153.92 189.539 153.749C189.42 153.577 189.253 153.445 189.059 153.369C188.866 153.292 188.654 153.274 188.45 153.318C188.246 153.361 188.059 153.463 187.914 153.612C187.768 153.761 187.669 153.95 187.63 154.154C187.591 154.359 187.613 154.571 187.694 154.763C187.775 154.955 187.91 155.119 188.084 155.234C188.258 155.35 188.461 155.411 188.67 155.411C188.811 155.414 188.952 155.388 189.084 155.335C189.215 155.281 189.334 155.202 189.433 155.1C189.532 154.999 189.61 154.878 189.66 154.746C189.711 154.613 189.734 154.472 189.728 154.33Z" fill="#263238"/>
<path d="M191.117 152.639H192.64C193.086 152.639 193.513 152.816 193.828 153.131C194.143 153.446 194.32 153.874 194.32 154.319C194.32 154.765 194.143 155.192 193.828 155.507C193.513 155.822 193.086 155.999 192.64 155.999H191.106L191.117 152.639ZM192.612 155.378C192.89 155.378 193.156 155.267 193.352 155.071C193.549 154.875 193.659 154.608 193.659 154.33C193.659 154.053 193.549 153.786 193.352 153.59C193.156 153.394 192.89 153.283 192.612 153.283H191.901V155.378H192.612Z" fill="#263238"/>
<path d="M197.73 155.394V156.022H195.11V152.662H197.68V153.289H195.888V154H197.462V154.61H195.888V155.394H197.73Z" fill="#263238"/>
<path d="M155.019 161.426H146.793C145.571 161.426 144.581 162.416 144.581 163.638V176.445C144.581 177.667 145.571 178.657 146.793 178.657H155.019C156.241 178.657 157.231 177.667 157.231 176.445V163.638C157.231 162.416 156.241 161.426 155.019 161.426Z" fill="#EBEBEB"/>
<path d="M170.817 161.426H162.59C161.369 161.426 160.378 162.416 160.378 163.638V176.445C160.378 177.667 161.369 178.657 162.59 178.657H170.817C172.038 178.657 173.029 177.667 173.029 176.445V163.638C173.029 162.416 172.038 161.426 170.817 161.426Z" fill="#EBEBEB"/>
<path d="M186.614 161.426H178.388C177.166 161.426 176.176 162.416 176.176 163.638V176.445C176.176 177.667 177.166 178.657 178.388 178.657H186.614C187.836 178.657 188.826 177.667 188.826 176.445V163.638C188.826 162.416 187.836 161.426 186.614 161.426Z" fill="#EBEBEB"/>
<path d="M202.406 161.426H194.18C192.958 161.426 191.968 162.416 191.968 163.638V176.445C191.968 177.667 192.958 178.657 194.18 178.657H202.406C203.628 178.657 204.618 177.667 204.618 176.445V163.638C204.618 162.416 203.628 161.426 202.406 161.426Z" fill="#EBEBEB"/>
<path d="M218.204 161.426H209.978C208.756 161.426 207.766 162.416 207.766 163.638V176.445C207.766 177.667 208.756 178.657 209.978 178.657H218.204C219.426 178.657 220.416 177.667 220.416 176.445V163.638C220.416 162.416 219.426 161.426 218.204 161.426Z" fill="#EBEBEB"/>
<path d="M153.664 171.36C153.664 172.587 152.712 173.387 151.424 173.387C149.654 173.387 148.719 172.116 148.719 170.027C148.719 167.754 149.934 166.578 151.71 166.578C152.241 166.554 152.769 166.674 153.238 166.925L153.037 167.317C152.631 167.094 152.172 166.988 151.71 167.009C150.203 167.009 149.212 168 149.212 169.954C149.212 170.224 149.231 170.494 149.268 170.761C149.426 170.328 149.721 169.958 150.108 169.709C150.495 169.459 150.953 169.343 151.413 169.378C152.757 169.378 153.664 170.162 153.664 171.36ZM153.171 171.36C153.171 170.403 152.482 169.775 151.346 169.775C151.116 169.75 150.884 169.772 150.663 169.84C150.442 169.908 150.238 170.022 150.063 170.172C149.888 170.323 149.746 170.509 149.646 170.717C149.546 170.925 149.489 171.152 149.481 171.383C149.481 172.172 150.142 172.956 151.402 172.956C151.625 172.981 151.852 172.957 152.066 172.888C152.28 172.819 152.477 172.705 152.644 172.555C152.811 172.404 152.945 172.22 153.035 172.014C153.126 171.808 153.173 171.585 153.171 171.36Z" fill="#F2575D"/>
<path d="M169.288 171.489H167.877V173.354H167.395V171.489H163.559V171.136L167.21 166.628H167.77L164.186 171.058H167.418V169.417H167.888V171.058H169.299L169.288 171.489Z" fill="#F2575D"/>
<path d="M185.578 174.311C183.629 174.505 181.665 174.505 179.715 174.311C181.665 174.117 183.629 174.117 185.578 174.311Z" fill="#F2575D"/>
<path d="M142.05 144.004C142.807 144.004 143.422 143.39 143.422 142.632C143.422 141.874 142.807 141.26 142.05 141.26C141.292 141.26 140.678 141.874 140.678 142.632C140.678 143.39 141.292 144.004 142.05 144.004Z" fill="#263238"/>
<path d="M147.375 142.632C147.375 142.903 147.295 143.169 147.144 143.394C146.993 143.62 146.779 143.796 146.528 143.9C146.278 144.003 146.002 144.031 145.736 143.978C145.469 143.925 145.225 143.794 145.033 143.602C144.841 143.41 144.711 143.166 144.658 142.9C144.605 142.634 144.632 142.358 144.736 142.107C144.839 141.856 145.015 141.642 145.241 141.491C145.467 141.34 145.732 141.26 146.003 141.26C146.367 141.26 146.716 141.405 146.973 141.662C147.231 141.919 147.375 142.268 147.375 142.632Z" fill="#263238"/>
<path d="M149.884 144.004C150.642 144.004 151.256 143.39 151.256 142.632C151.256 141.874 150.642 141.26 149.884 141.26C149.126 141.26 148.512 141.874 148.512 142.632C148.512 143.39 149.126 144.004 149.884 144.004Z" fill="#263238"/>
<path d="M227.035 146.496C227.035 146.574 206.746 146.642 181.731 146.642C156.716 146.642 136.427 146.574 136.427 146.496C136.427 146.418 156.705 146.35 181.731 146.35C206.758 146.35 227.035 146.412 227.035 146.496Z" fill="#263238"/>
<path d="M210.398 27.0424H110.359C108.33 27.0424 106.686 28.6871 106.686 30.716V122.752C106.686 124.781 108.33 126.426 110.359 126.426H210.398C212.426 126.426 214.071 124.781 214.071 122.752V30.716C214.071 28.6871 212.426 27.0424 210.398 27.0424Z" fill="white"/>
<path d="M210.398 126.426H210.661C210.921 126.404 211.178 126.355 211.428 126.28C211.916 126.131 212.368 125.88 212.754 125.546C213.14 125.211 213.451 124.799 213.668 124.337C213.97 123.643 214.089 122.883 214.015 122.13C214.015 121.296 214.015 120.378 214.015 119.386C214.015 117.404 214.015 115.114 214.015 112.538C214.015 102.234 213.987 87.3376 213.965 68.9024C213.965 59.6904 213.965 49.6048 213.965 38.7688C213.965 36.0659 213.965 33.3163 213.965 30.52C213.923 29.8364 213.684 29.1795 213.276 28.629C212.869 28.0784 212.31 27.6576 211.669 27.4176C211.002 27.2067 210.299 27.1305 209.602 27.1936H189.616H110.37C109.529 27.1985 108.718 27.5022 108.08 28.0504C107.421 28.6067 106.991 29.3862 106.87 30.24C106.832 30.6682 106.819 31.0983 106.831 31.528V66.0072C106.831 79.2624 106.831 92.0472 106.831 104.227C106.831 110.32 106.831 116.254 106.831 122.03C106.831 122.388 106.831 122.758 106.831 123.099C106.864 123.443 106.945 123.781 107.072 124.102C107.331 124.745 107.773 125.298 108.343 125.692C108.908 126.086 109.576 126.304 110.264 126.319H120.63H150.763L194.398 126.37H206.259H209.345H210.398H209.345H206.259L194.398 126.398L150.763 126.442H120.63H110.258C109.519 126.424 108.8 126.189 108.192 125.767C107.584 125.345 107.113 124.755 106.837 124.068C106.699 123.724 106.611 123.362 106.574 122.993C106.546 122.612 106.574 122.265 106.574 121.901C106.574 116.125 106.574 110.191 106.574 104.098C106.574 91.9184 106.574 79.1336 106.574 65.8784C106.574 59.248 106.574 52.5075 106.574 45.6568V31.5C106.558 31.0571 106.573 30.6137 106.618 30.1728C106.742 29.2621 107.196 28.4286 107.895 27.832C108.582 27.2318 109.459 26.8945 110.37 26.88H189.616H209.569C210.297 26.8172 211.03 26.901 211.725 27.1264C212.411 27.3835 213.009 27.8339 213.445 28.4231C213.882 29.0124 214.138 29.7154 214.183 30.4472C214.183 33.2472 214.183 36.0024 214.183 38.7128C214.183 49.5488 214.183 59.6344 214.183 68.8464C214.183 87.2704 214.15 102.178 214.138 112.482C214.138 115.058 214.138 117.348 214.138 119.33C214.138 120.322 214.138 121.24 214.138 122.074C214.21 122.84 214.082 123.612 213.769 124.314C213.488 124.903 213.055 125.406 212.514 125.771C211.974 126.137 211.345 126.351 210.694 126.392L210.398 126.426Z" fill="#263238"/>
<path d="M114.8 33.9304C114.8 34.2984 114.691 34.6581 114.486 34.9639C114.282 35.2698 113.991 35.5081 113.651 35.6487C113.311 35.7892 112.937 35.8257 112.576 35.7535C112.215 35.6813 111.884 35.5037 111.624 35.2431C111.364 34.9825 111.188 34.6507 111.117 34.2897C111.046 33.9287 111.083 33.5547 111.225 33.2151C111.366 32.8754 111.605 32.5855 111.912 32.3818C112.218 32.1782 112.578 32.0701 112.946 32.0712C113.19 32.0712 113.432 32.1194 113.657 32.2129C113.882 32.3064 114.087 32.4434 114.259 32.6161C114.431 32.7888 114.568 32.9938 114.661 33.2194C114.753 33.4449 114.801 33.6866 114.8 33.9304Z" fill="#263238"/>
<path d="M118.356 35.784C119.38 35.784 120.21 34.9542 120.21 33.9304C120.21 32.9067 119.38 32.0768 118.356 32.0768C117.332 32.0768 116.502 32.9067 116.502 33.9304C116.502 34.9542 117.332 35.784 118.356 35.784Z" fill="#263238"/>
<path d="M123.777 35.784C124.801 35.784 125.63 34.9542 125.63 33.9304C125.63 32.9067 124.801 32.0768 123.777 32.0768C122.753 32.0768 121.923 32.9067 121.923 33.9304C121.923 34.9542 122.753 35.784 123.777 35.784Z" fill="#263238"/>
<path d="M214.071 39.2C214.071 39.284 190.03 39.3456 160.378 39.3456C130.726 39.3456 106.686 39.284 106.686 39.2C106.686 39.116 130.721 39.0544 160.378 39.0544C190.036 39.0544 214.071 39.116 214.071 39.2Z" fill="#263238"/>
<path d="M175.549 76.6361C175.549 76.6361 175.588 76.5744 175.678 76.4624L175.75 76.3672L175.823 76.2384C175.885 76.1343 175.939 76.0257 175.986 75.9136C175.986 75.852 176.042 75.7848 176.064 75.712L176.131 75.4768C176.156 75.3905 176.174 75.3025 176.187 75.2136C176.187 75.1184 176.221 75.0232 176.226 74.9224C176.263 74.4567 176.24 73.9881 176.159 73.528C175.923 72.2687 175.493 71.0538 174.882 69.9272C174.096 68.4236 173.175 66.9936 172.133 65.6544C170.878 64.0257 169.51 62.4875 168.039 61.0512C166.355 59.3981 164.557 57.8655 162.658 56.4648C161.655 55.7256 160.597 55.0088 159.482 54.3368C158.346 53.6427 157.166 53.0236 155.949 52.4832C154.698 51.9123 153.381 51.4985 152.029 51.2512C151.337 51.1281 150.631 51.1111 149.934 51.2008C149.585 51.2505 149.244 51.3485 148.921 51.492C148.604 51.6475 148.318 51.8579 148.075 52.1136C147.844 52.3819 147.665 52.6916 147.549 53.0264C147.444 53.3641 147.385 53.7145 147.375 54.068C147.366 54.771 147.462 55.4713 147.661 56.1456C148.062 57.4649 148.627 58.7291 149.341 59.9088C150.014 61.0565 150.762 62.1584 151.581 63.2072C152.376 64.2376 153.21 65.212 154.056 66.1248C155.664 67.8526 157.394 69.4638 159.23 70.9464C160.824 72.246 162.509 73.4306 164.27 74.4912C165.72 75.3726 167.245 76.1223 168.829 76.7312C170.019 77.2062 171.275 77.497 172.553 77.5936C173.018 77.6166 173.484 77.5846 173.942 77.4984C174.042 77.4984 174.132 77.448 174.222 77.4256C174.309 77.4027 174.395 77.3746 174.479 77.3416L174.703 77.2464L174.899 77.1456C175.006 77.0877 175.107 77.0202 175.202 76.944L175.319 76.86L175.409 76.7761C175.51 76.6753 175.566 76.6304 175.566 76.6304L175.414 76.7816L175.325 76.8656L175.213 76.9552C175.117 77.0326 175.014 77.1001 174.905 77.1568L174.72 77.28L174.49 77.3752C174.409 77.4099 174.325 77.4379 174.238 77.4593C174.145 77.4913 174.05 77.5175 173.953 77.5377C173.493 77.6319 173.022 77.6658 172.553 77.6384C171.272 77.5514 170.011 77.2661 168.818 76.7929C167.229 76.1845 165.697 75.4349 164.242 74.5528C162.481 73.4919 160.796 72.3074 159.202 71.008C157.361 69.5273 155.627 67.9159 154.017 66.1864C153.171 65.2736 152.337 64.2992 151.536 63.2688C150.719 62.2147 149.971 61.1092 149.296 59.9592C148.581 58.774 148.017 57.5042 147.616 56.1792C147.412 55.4963 147.314 54.7863 147.325 54.0736C147.337 53.7144 147.397 53.3584 147.504 53.0152C147.631 52.6681 147.821 52.3474 148.064 52.0688C148.312 51.8027 148.609 51.5861 148.938 51.4304C149.268 51.2832 149.616 51.1815 149.974 51.128C150.68 51.0382 151.395 51.0552 152.096 51.1784C153.458 51.4277 154.785 51.8453 156.044 52.4216C157.263 52.9626 158.446 53.5837 159.583 54.2808C160.703 54.9528 161.762 55.6696 162.764 56.4144C164.666 57.8176 166.465 59.356 168.146 61.0176C169.62 62.4563 170.99 63.9984 172.245 65.632C173.284 66.975 174.201 68.4088 174.983 69.916C175.592 71.0487 176.021 72.2691 176.254 73.5336C176.332 73.9979 176.351 74.4702 176.31 74.9393C176.302 75.0353 176.287 75.1307 176.266 75.2248C176.257 75.3144 176.238 75.4027 176.21 75.488L176.142 75.7288C176.119 75.7978 176.091 75.8651 176.058 75.9304C176.016 76.0453 175.96 76.1545 175.89 76.2552C175.871 76.3006 175.846 76.3438 175.818 76.384L175.745 76.4793L175.549 76.6361Z" fill="#F2575D"/>
<path d="M180.628 64.3608V64.148V64.0304C180.628 63.9856 180.628 63.9408 180.6 63.8848C180.581 63.7642 180.549 63.646 180.505 63.532C180.505 63.4704 180.46 63.3976 180.432 63.3304L180.32 63.1064C180.284 63.0252 180.239 62.9482 180.186 62.8768C180.137 62.7928 180.083 62.7123 180.023 62.636C179.744 62.2617 179.417 61.9264 179.049 61.6392C178.03 60.8572 176.897 60.2376 175.689 59.8024C174.102 59.2024 172.464 58.7469 170.794 58.4416C168.762 58.0602 166.706 57.8244 164.64 57.736C162.282 57.6211 159.918 57.6716 157.567 57.8872C156.33 58.0048 155.064 58.1784 153.782 58.4192C152.472 58.6555 151.179 58.9791 149.912 59.388C148.595 59.7868 147.334 60.3514 146.16 61.068C145.562 61.4351 145.023 61.8922 144.564 62.4232C144.337 62.6925 144.148 62.9922 144.004 63.3136C143.866 63.6401 143.79 63.9896 143.78 64.344C143.791 64.6977 143.865 65.0467 143.998 65.3744C144.145 65.6947 144.333 65.9941 144.558 66.2648C145.021 66.7962 145.561 67.2549 146.16 67.6256C147.336 68.339 148.597 68.9034 149.912 69.3056C151.18 69.7093 152.473 70.0328 153.782 70.2744C155.064 70.5152 156.33 70.6832 157.567 70.8008C159.918 71.0208 162.282 71.0732 164.64 70.9576C166.706 70.875 168.764 70.6505 170.8 70.2856C172.469 69.9803 174.107 69.5249 175.694 68.9248C176.9 68.4852 178.033 67.8659 179.054 67.088C179.421 66.7994 179.749 66.4643 180.029 66.0912C180.089 66.0131 180.143 65.9307 180.191 65.8448C180.244 65.7734 180.289 65.6964 180.326 65.6152L180.438 65.3968C180.466 65.324 180.488 65.2568 180.51 65.1896C180.555 65.0758 180.587 64.9575 180.606 64.8368C180.606 64.7864 180.606 64.7416 180.634 64.6968V64.5792V64.3608C180.634 64.3608 180.634 64.4336 180.634 64.5792V64.6968C180.634 64.7416 180.634 64.7864 180.634 64.8424C180.616 64.9629 180.586 65.0811 180.544 65.1952C180.544 65.2624 180.499 65.3296 180.471 65.4024L180.365 65.6264C180.325 65.7077 180.28 65.7862 180.23 65.8616C180.181 65.9448 180.127 66.0252 180.068 66.1024C179.79 66.4805 179.462 66.8195 179.094 67.1104C178.077 67.899 176.943 68.5244 175.734 68.964C174.145 69.5708 172.505 70.0319 170.834 70.3416C168.8 70.7244 166.741 70.9639 164.674 71.0584C162.314 71.178 159.948 71.1294 157.595 70.9128C156.352 70.7952 155.081 70.6272 153.798 70.3864C152.486 70.1442 151.19 69.8206 149.918 69.4176C148.596 69.0177 147.33 68.4533 146.149 67.7376C145.543 67.3652 144.997 66.9026 144.53 66.3656C144.303 66.0881 144.115 65.781 143.97 65.4528C143.819 65.1185 143.741 64.7558 143.741 64.3888C143.741 64.0219 143.819 63.6592 143.97 63.3248C144.117 62.9977 144.305 62.6909 144.53 62.412C145.002 61.8757 145.551 61.4132 146.16 61.04C147.343 60.3253 148.611 59.761 149.934 59.36C151.203 58.9518 152.498 58.6281 153.81 58.3912C155.098 58.1504 156.363 57.9824 157.606 57.8648C159.944 57.6375 162.294 57.5757 164.64 57.68C166.708 57.7735 168.767 58.0149 170.8 58.4024C172.472 58.7093 174.112 59.1685 175.7 59.7744C176.909 60.2141 178.043 60.8395 179.06 61.628C179.427 61.9204 179.755 62.2592 180.034 62.636C180.094 62.7142 180.149 62.7965 180.197 62.8824C180.248 62.9571 180.293 63.0357 180.331 63.1176L180.438 63.336C180.466 63.4088 180.488 63.4816 180.51 63.5432C180.553 63.6592 180.583 63.7793 180.6 63.9016C180.6 63.952 180.6 64.0024 180.6 64.0416V64.1648C180.628 64.288 180.628 64.3608 180.628 64.3608Z" fill="#F2575D"/>
<path d="M173.897 49.0896L173.712 48.972L173.611 48.9048C173.57 48.8811 173.527 48.8605 173.482 48.8432C173.376 48.7849 173.263 48.738 173.146 48.7032C173.079 48.7032 173.012 48.6528 172.939 48.636L172.698 48.5856C172.612 48.5667 172.524 48.5536 172.435 48.5464C172.338 48.5407 172.241 48.5407 172.144 48.5464C171.676 48.5405 171.21 48.5932 170.755 48.7032C169.516 49.0322 168.334 49.5477 167.25 50.232C165.803 51.1173 164.44 52.1333 163.178 53.2672C161.639 54.6311 160.198 56.102 158.866 57.6688C157.331 59.4613 155.926 61.3608 154.661 63.3528C154 64.4 153.35 65.52 152.757 66.64C152.141 67.8204 151.604 69.0401 151.15 70.2912C150.668 71.5817 150.346 72.9265 150.192 74.2952C150.117 74.9942 150.149 75.7004 150.287 76.3896C150.364 76.7347 150.486 77.0681 150.651 77.3808C150.825 77.6897 151.054 77.9632 151.329 78.1872C151.614 78.3947 151.935 78.5484 152.275 78.6408C152.618 78.7238 152.97 78.7596 153.322 78.7472C154.025 78.7081 154.718 78.5627 155.378 78.316C156.666 77.8273 157.889 77.1802 159.018 76.3896C160.115 75.6374 161.163 74.8144 162.154 73.9256C163.128 73.0576 164.041 72.1616 164.892 71.2544C166.503 69.5299 167.991 67.6942 169.344 65.7608C170.531 64.0816 171.597 62.3207 172.536 60.4912C173.319 58.9865 173.963 57.4139 174.462 55.7928C174.854 54.5709 175.056 53.2961 175.062 52.0128C175.06 51.5472 174.996 51.0839 174.871 50.6352C174.871 50.5344 174.81 50.4448 174.782 50.3552C174.754 50.2656 174.72 50.1872 174.681 50.1088L174.574 49.8904C174.535 49.8232 174.49 49.7616 174.457 49.7056C174.393 49.6005 174.318 49.5028 174.233 49.4144L174.143 49.3024L174.054 49.224L173.897 49.0784L174.059 49.2184L174.149 49.2968C174.183 49.3297 174.215 49.3653 174.244 49.4032C174.328 49.4924 174.403 49.59 174.468 49.6944C174.507 49.756 174.552 49.812 174.591 49.8792L174.698 50.1032C174.741 50.1818 174.776 50.2643 174.804 50.3496C174.832 50.4392 174.871 50.5288 174.894 50.6296C175.023 51.0795 175.091 51.5448 175.095 52.0128C175.097 53.2994 174.899 54.5785 174.507 55.804C174.01 57.4296 173.369 59.0076 172.592 60.5192C171.654 62.3524 170.587 64.1171 169.4 65.8C168.05 67.7395 166.562 69.5792 164.948 71.3048C164.097 72.2176 163.184 73.1192 162.204 73.9872C161.211 74.8775 160.162 75.7024 159.062 76.4568C157.929 77.2534 156.701 77.9044 155.406 78.3944C154.739 78.6435 154.038 78.7907 153.328 78.8312C152.966 78.8434 152.605 78.8076 152.253 78.7248C151.902 78.626 151.572 78.4647 151.278 78.2488C150.995 78.0187 150.758 77.7376 150.578 77.42C150.409 77.1003 150.283 76.7594 150.203 76.4064C150.067 75.7093 150.037 74.9957 150.114 74.2896C150.265 72.9125 150.589 71.5599 151.077 70.2632C151.532 69.0103 152.068 67.7887 152.684 66.6064C153.283 65.4416 153.927 64.3328 154.594 63.28C155.866 61.2888 157.277 59.3895 158.816 57.596C160.15 56.0294 161.595 54.5603 163.139 53.2C164.408 52.0674 165.776 51.0515 167.227 50.1648C168.317 49.4835 169.505 48.9736 170.75 48.6528C171.206 48.5401 171.674 48.4874 172.144 48.496C172.245 48.496 172.34 48.496 172.435 48.496C172.526 48.5028 172.615 48.5159 172.704 48.5352L172.945 48.5856L173.152 48.6584C173.269 48.6949 173.381 48.7437 173.488 48.804C173.532 48.8213 173.575 48.8419 173.617 48.8656L173.718 48.9384L173.897 49.0896Z" fill="#F2575D"/>
<path d="M143.556 71.9712C143.651 72.0669 143.716 72.1887 143.742 72.3211C143.768 72.4535 143.754 72.5907 143.702 72.7153C143.651 72.8399 143.563 72.9464 143.451 73.0213C143.338 73.0963 143.207 73.1362 143.072 73.1362C142.937 73.1362 142.805 73.0963 142.692 73.0213C142.58 72.9464 142.493 72.8399 142.441 72.7153C142.389 72.5907 142.375 72.4535 142.401 72.3211C142.427 72.1887 142.492 72.0669 142.587 71.9712C142.651 71.9074 142.726 71.8568 142.809 71.8222C142.892 71.7876 142.982 71.7698 143.072 71.7698C143.162 71.7698 143.251 71.7876 143.334 71.8222C143.417 71.8568 143.493 71.9074 143.556 71.9712Z" fill="#F2575D"/>
<path d="M182.19 50.7528C182.191 50.8893 182.152 51.023 182.077 51.137C182.002 51.251 181.895 51.3402 181.769 51.3932C181.643 51.4461 181.505 51.4606 181.371 51.4346C181.237 51.4087 181.113 51.3435 181.017 51.2474C180.92 51.1513 180.853 51.0286 180.826 50.8949C180.799 50.7611 180.813 50.6223 180.865 50.4961C180.917 50.3699 181.005 50.262 181.118 50.1861C181.232 50.1101 181.365 50.0696 181.502 50.0696C181.592 50.0689 181.681 50.086 181.765 50.12C181.848 50.154 181.924 50.2042 181.988 50.2677C182.052 50.3312 182.103 50.4068 182.138 50.4901C182.173 50.5733 182.19 50.6626 182.19 50.7528Z" fill="#F2575D"/>
<path d="M147.879 74.2224C147.879 74.2568 147.869 74.2903 147.85 74.3189C147.831 74.3474 147.804 74.3697 147.772 74.3828C147.74 74.396 147.705 74.3994 147.672 74.3927C147.638 74.386 147.607 74.3695 147.583 74.3452C147.559 74.3209 147.542 74.29 147.535 74.2563C147.529 74.2226 147.532 74.1877 147.545 74.156C147.558 74.1243 147.581 74.0972 147.609 74.0781C147.638 74.059 147.671 74.0488 147.706 74.0488C147.752 74.0488 147.796 74.0671 147.828 74.0997C147.861 74.1322 147.879 74.1764 147.879 74.2224Z" fill="#F2575D"/>
<path d="M151.592 55.0368C151.592 55.0712 151.582 55.1047 151.563 55.1333C151.544 55.1618 151.517 55.1841 151.485 55.1972C151.453 55.2103 151.418 55.2138 151.385 55.2071C151.351 55.2004 151.32 55.1839 151.296 55.1596C151.271 55.1353 151.255 55.1044 151.248 55.0707C151.241 55.037 151.245 55.0021 151.258 54.9704C151.271 54.9387 151.293 54.9116 151.322 54.8925C151.351 54.8734 151.384 54.8632 151.418 54.8632C151.464 54.8632 151.509 54.8815 151.541 54.9141C151.574 54.9466 151.592 54.9908 151.592 55.0368Z" fill="#F2575D"/>
<path d="M178.746 64.3608C178.746 64.4068 178.728 64.451 178.696 64.4836C178.663 64.5161 178.619 64.5344 178.573 64.5344C178.527 64.5344 178.483 64.5161 178.45 64.4836C178.418 64.451 178.399 64.4068 178.399 64.3608C178.399 64.3148 178.418 64.2706 178.45 64.238C178.483 64.2055 178.527 64.1872 178.573 64.1872C178.619 64.1872 178.663 64.2055 178.696 64.238C178.728 64.2706 178.746 64.3148 178.746 64.3608Z" fill="#F2575D"/>
<path d="M181.166 56.252C181.166 56.2981 181.147 56.3422 181.115 56.3748C181.082 56.4073 181.038 56.4256 180.992 56.4256C180.946 56.4256 180.902 56.4073 180.869 56.3748C180.837 56.3422 180.818 56.2981 180.818 56.252C180.818 56.206 180.837 56.1618 180.869 56.1293C180.902 56.0967 180.946 56.0784 180.992 56.0784C181.038 56.0784 181.082 56.0967 181.115 56.1293C181.147 56.1618 181.166 56.206 181.166 56.252Z" fill="#F2575D"/>
<path d="M169.439 68.1856H167.289V56.476C167.289 55.1497 166.762 53.8778 165.824 52.9399C164.886 52.0021 163.614 51.4752 162.288 51.4752C160.962 51.4752 159.69 52.0021 158.752 52.9399C157.814 53.8778 157.287 55.1497 157.287 56.476V68.1856H155.12V56.476C155.12 54.5794 155.873 52.7605 157.215 51.4194C158.556 50.0783 160.375 49.3248 162.271 49.3248C164.168 49.3248 165.987 50.0783 167.328 51.4194C168.669 52.7605 169.422 54.5794 169.422 56.476L169.439 68.1856Z" fill="#F2575D"/>
<g opacity="0.3">
<path opacity="0.3" d="M169.439 68.1856H167.289V56.476C167.289 55.1497 166.762 53.8778 165.824 52.9399C164.886 52.0021 163.614 51.4752 162.288 51.4752C160.962 51.4752 159.69 52.0021 158.752 52.9399C157.814 53.8778 157.287 55.1497 157.287 56.476V68.1856H155.12V56.476C155.12 54.5794 155.873 52.7605 157.215 51.4194C158.556 50.0783 160.375 49.3248 162.271 49.3248C164.168 49.3248 165.987 50.0783 167.328 51.4194C168.669 52.7605 169.422 54.5794 169.422 56.476L169.439 68.1856Z" fill="black"/>
</g>
<path d="M170.666 62.9777H153.91C153.215 62.9777 152.65 63.5418 152.65 64.2377V74.0825C152.65 74.7783 153.215 75.3425 153.91 75.3425H170.666C171.361 75.3425 171.926 74.7783 171.926 74.0825V64.2377C171.926 63.5418 171.361 62.9777 170.666 62.9777Z" fill="#F2575D"/>
<g opacity="0.3">
<path opacity="0.3" d="M163.901 67.5528C163.903 67.2521 163.821 66.9568 163.665 66.7001C163.508 66.4434 163.283 66.2356 163.014 66.1002C162.746 65.9648 162.445 65.9072 162.145 65.9338C161.846 65.9604 161.56 66.0703 161.319 66.2509C161.079 66.4315 160.894 66.6758 160.785 66.956C160.676 67.2363 160.647 67.5415 160.703 67.837C160.758 68.1326 160.895 68.4068 161.098 68.6287C161.301 68.8506 161.562 69.0113 161.851 69.0928V71.5008H162.725V69.0928C163.062 68.9998 163.36 68.7989 163.572 68.5208C163.784 68.2427 163.9 67.9027 163.901 67.5528Z" fill="black"/>
</g>
<path d="M153.681 74.172C153.636 74.172 153.597 72.1112 153.597 69.5688C153.597 67.0264 153.636 64.96 153.681 64.96C153.726 64.96 153.759 67.0208 153.759 69.5688C153.759 72.1168 153.72 74.172 153.681 74.172Z" fill="#FAFAFA"/>
<path d="M161.028 69.6136C161.028 69.6136 160.95 69.6136 160.838 69.5072C160.679 69.3891 160.539 69.2475 160.423 69.0872C160.219 68.8232 160.077 68.517 160.006 68.1909C159.936 67.8647 159.939 67.527 160.016 67.2023C160.092 66.8776 160.241 66.5741 160.45 66.3141C160.659 66.054 160.923 65.844 161.224 65.6992C161.399 65.6052 161.588 65.5391 161.784 65.5032C161.856 65.4897 161.93 65.4897 162.002 65.5032C161.755 65.5872 161.514 65.6883 161.28 65.8056C161.007 65.9564 160.768 66.1627 160.579 66.4112C160.39 66.6597 160.255 66.945 160.183 67.2487C160.11 67.5524 160.103 67.8679 160.159 68.1748C160.216 68.4818 160.337 68.7735 160.513 69.0312C160.669 69.2389 160.841 69.4337 161.028 69.6136Z" fill="#FAFAFA"/>
<path d="M190.904 85.9432H131.561C128.678 85.9432 126.342 88.2799 126.342 91.1624V91.8008C126.342 94.6833 128.678 97.02 131.561 97.02H190.904C193.786 97.02 196.123 94.6833 196.123 91.8008V91.1624C196.123 88.2799 193.786 85.9432 190.904 85.9432Z" fill="#F5F5F5"/>
<path d="M191.414 101.13H132.07C129.188 101.13 126.851 103.467 126.851 106.35V106.988C126.851 109.871 129.188 112.207 132.07 112.207H191.414C194.296 112.207 196.633 109.871 196.633 106.988V106.35C196.633 103.467 194.296 101.13 191.414 101.13Z" fill="#F5F5F5"/>
<path d="M137.368 91.392V89.7904H138.034V91.3696C138.034 91.9296 138.27 92.1368 138.673 92.1368C139.076 92.1368 139.311 91.9128 139.311 91.3696V89.7904H139.966V91.392C139.966 91.7366 139.829 92.067 139.586 92.3107C139.342 92.5543 139.012 92.6912 138.667 92.6912C138.323 92.6912 137.992 92.5543 137.749 92.3107C137.505 92.067 137.368 91.7366 137.368 91.392Z" fill="#263238"/>
<path d="M140.364 92.4504L140.571 91.9912C140.803 92.1294 141.068 92.2029 141.338 92.204C141.635 92.204 141.742 92.1256 141.742 92.0024C141.742 91.644 140.414 92.0024 140.414 91.1344C140.414 90.7145 140.79 90.4177 141.434 90.4177C141.727 90.4129 142.018 90.4802 142.279 90.6136L142.066 91.0672C141.874 90.9574 141.655 90.9013 141.434 90.9048C141.148 90.9048 141.025 90.9944 141.025 91.1064C141.025 91.4816 142.352 91.1064 142.352 91.9856C142.352 92.3944 141.977 92.6856 141.316 92.6856C140.983 92.693 140.655 92.6119 140.364 92.4504Z" fill="#263238"/>
<path d="M144.894 91.7336H143.214C143.249 91.8713 143.332 91.9919 143.448 92.0732C143.564 92.1545 143.706 92.191 143.847 92.176C143.95 92.1806 144.053 92.164 144.149 92.1274C144.245 92.0909 144.333 92.035 144.407 91.9632L144.749 92.3328C144.632 92.4536 144.49 92.5476 144.334 92.6085C144.177 92.6694 144.009 92.6957 143.842 92.6856C143.683 92.7056 143.522 92.6914 143.37 92.6442C143.217 92.5969 143.077 92.5176 142.957 92.4115C142.838 92.3054 142.743 92.1751 142.678 92.0292C142.613 91.8833 142.58 91.7252 142.582 91.5656C142.581 91.4137 142.612 91.2633 142.672 91.1237C142.732 90.984 142.819 90.8579 142.929 90.7532C143.039 90.6484 143.169 90.5671 143.312 90.5142C143.454 90.4614 143.606 90.438 143.758 90.4456C143.907 90.4419 144.056 90.4681 144.195 90.5227C144.334 90.5773 144.461 90.6592 144.568 90.7636C144.675 90.868 144.76 90.9927 144.818 91.1304C144.876 91.2682 144.906 91.4161 144.906 91.5656C144.906 91.6104 144.894 91.6776 144.894 91.7336ZM143.214 91.3584H144.295C144.263 91.2398 144.193 91.1351 144.095 91.0604C143.997 90.9857 143.878 90.9453 143.755 90.9453C143.632 90.9453 143.512 90.9857 143.415 91.0604C143.317 91.1351 143.247 91.2398 143.214 91.3584Z" fill="#263238"/>
<path d="M146.72 90.4176V91.0112H146.574C146.496 91.0108 146.418 91.0269 146.346 91.0585C146.274 91.0901 146.21 91.1364 146.157 91.1945C146.104 91.2526 146.064 91.3211 146.04 91.3957C146.015 91.4702 146.007 91.5491 146.014 91.6272V92.6632H145.376V90.4624H145.986V90.72C146.076 90.6156 146.19 90.5339 146.317 90.4813C146.445 90.4288 146.583 90.407 146.72 90.4176Z" fill="#263238"/>
<path d="M149.33 91.3921V92.6521H148.691V91.4929C148.691 91.1345 148.529 90.9721 148.243 90.9721C147.958 90.9721 147.717 91.1625 147.717 91.5657V92.6521H147.078V90.4513H147.689V90.7201C147.783 90.6237 147.897 90.5481 148.022 90.498C148.148 90.4479 148.282 90.4243 148.417 90.4289C148.543 90.4206 148.67 90.4402 148.788 90.4864C148.906 90.5326 149.012 90.6042 149.099 90.6962C149.186 90.7881 149.252 90.8982 149.292 91.0184C149.332 91.1387 149.345 91.2663 149.33 91.3921Z" fill="#263238"/>
<path d="M151.855 91.3976V92.652H151.256V92.4C151.182 92.5071 151.081 92.5923 150.962 92.6465C150.844 92.7007 150.713 92.7219 150.584 92.708C150.069 92.708 149.761 92.4224 149.761 92.0416C149.761 91.6608 150.035 91.3808 150.707 91.3808H151.2C151.2 91.112 151.038 90.9496 150.69 90.9496C150.463 90.9488 150.241 91.0215 150.058 91.1568L149.828 90.7088C150.111 90.5257 150.443 90.432 150.78 90.44C151.463 90.4176 151.855 90.72 151.855 91.3976ZM151.217 91.9576V91.7336H150.78C150.478 91.7336 150.388 91.8456 150.388 91.9912C150.388 92.1368 150.522 92.26 150.746 92.26C150.844 92.2629 150.94 92.2354 151.021 92.1812C151.103 92.127 151.165 92.0489 151.2 91.9576H151.217Z" fill="#263238"/>
<path d="M156.15 91.392V92.652H155.512V91.4928C155.512 91.1344 155.355 90.972 155.098 90.972C154.84 90.972 154.61 91.1568 154.61 91.532V92.652H154V91.4928C154 91.1344 153.849 90.972 153.58 90.972C153.311 90.972 153.098 91.1568 153.098 91.532V92.652H152.432V90.4512H153.042V90.72C153.129 90.6241 153.236 90.5484 153.355 90.4981C153.474 90.4477 153.602 90.4241 153.731 90.4288C153.874 90.4223 154.015 90.4523 154.143 90.516C154.27 90.5797 154.379 90.675 154.459 90.7928C154.554 90.6744 154.676 90.5798 154.814 90.5166C154.952 90.4534 155.103 90.4233 155.254 90.4288C155.38 90.4211 155.506 90.4412 155.623 90.4879C155.739 90.5346 155.844 90.6065 155.93 90.6986C156.016 90.7907 156.08 90.9007 156.118 91.0206C156.156 91.1405 156.167 91.2673 156.15 91.392Z" fill="#263238"/>
<path d="M158.894 91.7336H157.214C157.243 91.8734 157.324 91.9969 157.44 92.0792C157.557 92.1614 157.7 92.196 157.842 92.176C157.944 92.1802 158.047 92.1636 158.143 92.127C158.24 92.0904 158.327 92.0347 158.402 91.9632L158.738 92.3328C158.621 92.4542 158.48 92.5486 158.323 92.6096C158.166 92.6705 157.998 92.6965 157.83 92.6856C157.672 92.7047 157.512 92.6899 157.36 92.6423C157.209 92.5946 157.069 92.5151 156.95 92.4092C156.831 92.3032 156.737 92.1731 156.672 92.0277C156.608 91.8822 156.575 91.7247 156.576 91.5656C156.576 91.4137 156.607 91.2633 156.666 91.1237C156.726 90.984 156.814 90.8579 156.924 90.7532C157.034 90.6484 157.164 90.5671 157.306 90.5142C157.449 90.4614 157.6 90.438 157.752 90.4456C158.049 90.4456 158.334 90.5636 158.544 90.7737C158.754 90.9837 158.872 91.2686 158.872 91.5656C158.906 91.6104 158.9 91.6776 158.894 91.7336ZM157.214 91.3584H158.301C158.283 91.2258 158.215 91.105 158.111 91.0208C158.007 90.9365 157.874 90.895 157.741 90.9048C157.613 90.9025 157.489 90.9476 157.393 91.0314C157.297 91.1152 157.235 91.2317 157.22 91.3584H157.214Z" fill="#263238"/>
<path d="M163.117 91.532C163.117 92.2656 162.781 92.6856 162.277 92.6856C162.157 92.6935 162.039 92.663 161.938 92.5985C161.837 92.534 161.76 92.4389 161.717 92.3272C161.642 92.4437 161.538 92.5383 161.415 92.6013C161.292 92.6643 161.155 92.6934 161.017 92.6856C160.761 92.6589 160.523 92.5383 160.351 92.347C160.179 92.1556 160.083 91.9072 160.083 91.6496C160.083 91.3921 160.179 91.1436 160.351 90.9523C160.523 90.7609 160.761 90.6403 161.017 90.6136C161.135 90.6081 161.254 90.63 161.362 90.6776C161.471 90.7252 161.568 90.7972 161.644 90.888V90.6472H162.204V91.9688C162.204 92.1648 162.288 92.232 162.4 92.232C162.512 92.232 162.702 92.0136 162.702 91.5432C162.705 91.3478 162.666 91.1541 162.589 90.9746C162.512 90.7951 162.397 90.6338 162.254 90.5013C162.11 90.3688 161.94 90.2679 161.755 90.2053C161.57 90.1426 161.374 90.1196 161.179 90.1376C160.786 90.1376 160.408 90.294 160.13 90.5723C159.852 90.8506 159.695 91.228 159.695 91.6216C159.695 92.0152 159.852 92.3927 160.13 92.671C160.408 92.9493 160.786 93.1056 161.179 93.1056C161.458 93.1053 161.733 93.0441 161.986 92.9264L162.114 93.3016C161.821 93.4357 161.502 93.5027 161.179 93.4976C160.925 93.5116 160.67 93.4734 160.43 93.3856C160.191 93.2977 159.972 93.162 159.787 92.9867C159.602 92.8114 159.454 92.6002 159.354 92.3659C159.253 92.1317 159.201 91.8794 159.201 91.6244C159.201 91.3694 159.253 91.1171 159.354 90.8829C159.454 90.6487 159.602 90.4375 159.787 90.2622C159.972 90.0868 160.191 89.9511 160.43 89.8633C160.67 89.7754 160.925 89.7373 161.179 89.7512C161.426 89.7311 161.673 89.7622 161.907 89.8425C162.141 89.9229 162.355 90.0507 162.537 90.2179C162.719 90.3851 162.865 90.5882 162.965 90.8144C163.064 91.0405 163.116 91.2849 163.117 91.532ZM161.655 91.6496C161.663 91.5779 161.656 91.5054 161.633 91.4368C161.611 91.3682 161.574 91.3053 161.525 91.2522C161.476 91.1991 161.417 91.1571 161.35 91.1291C161.284 91.101 161.212 91.0876 161.14 91.0896C160.991 91.0896 160.849 91.1486 160.744 91.2536C160.639 91.3587 160.58 91.5011 160.58 91.6496C160.58 91.7981 160.639 91.9406 160.744 92.0456C160.849 92.1506 160.991 92.2096 161.14 92.2096C161.212 92.2117 161.284 92.1982 161.35 92.1702C161.417 92.1421 161.476 92.1002 161.525 92.0471C161.574 91.994 161.611 91.931 161.633 91.8625C161.656 91.7939 161.663 91.7213 161.655 91.6496Z" fill="#263238"/>
<path d="M167.289 91.392V92.652H166.65V91.4928C166.65 91.1344 166.494 90.972 166.236 90.972C165.978 90.972 165.749 91.1568 165.749 91.532V92.652H165.11V91.4928C165.11 91.1344 164.959 90.972 164.69 90.972C164.422 90.972 164.209 91.1568 164.209 91.532V92.652H163.57V90.4512H164.181V90.72C164.267 90.6241 164.374 90.5484 164.493 90.4981C164.612 90.4478 164.74 90.4241 164.87 90.4288C165.012 90.4223 165.154 90.4523 165.281 90.516C165.408 90.5797 165.517 90.675 165.598 90.7928C165.692 90.6748 165.812 90.5804 165.949 90.5173C166.086 90.4541 166.236 90.4238 166.387 90.4288C166.513 90.4202 166.64 90.4397 166.757 90.486C166.875 90.5323 166.98 90.6041 167.067 90.6963C167.153 90.7885 167.218 90.8988 167.256 91.0191C167.295 91.1395 167.306 91.2668 167.289 91.392Z" fill="#263238"/>
<path d="M169.809 91.3976V92.652H169.215V92.4C169.141 92.5071 169.04 92.5923 168.922 92.6465C168.803 92.7007 168.673 92.7219 168.543 92.708C168.028 92.708 167.72 92.4224 167.72 92.0416C167.72 91.6608 167.994 91.3808 168.666 91.3808H169.17C169.17 91.112 169.008 90.9496 168.666 90.9496C168.438 90.9467 168.216 91.0196 168.034 91.1568L167.804 90.7088C168.086 90.5268 168.415 90.4332 168.75 90.44C169.422 90.4176 169.809 90.72 169.809 91.3976ZM169.17 91.9576V91.7336H168.734C168.437 91.7336 168.342 91.8456 168.342 91.9912C168.342 92.1368 168.476 92.26 168.7 92.26C168.8 92.2666 168.9 92.2407 168.985 92.1863C169.07 92.1319 169.135 92.0517 169.17 91.9576Z" fill="#263238"/>
<path d="M170.313 89.7904C170.313 89.7401 170.324 89.6905 170.345 89.6446C170.366 89.5988 170.396 89.5577 170.433 89.5241C170.47 89.4904 170.514 89.4648 170.562 89.449C170.61 89.4331 170.66 89.4273 170.71 89.432C170.779 89.4395 170.844 89.4668 170.898 89.5105C170.951 89.5542 170.991 89.6124 171.012 89.6782C171.033 89.744 171.035 89.8145 171.017 89.8813C170.999 89.948 170.962 90.0082 170.911 90.0544C170.86 90.1007 170.796 90.1312 170.728 90.1421C170.66 90.1531 170.59 90.144 170.526 90.1161C170.463 90.0882 170.409 90.0426 170.372 89.9848C170.334 89.927 170.313 89.8595 170.313 89.7904ZM170.391 90.4512H171.024V92.652H170.391V90.4512Z" fill="#263238"/>
<path d="M171.623 89.6H172.262V92.6352H171.623V89.6Z" fill="#263238"/>
<path d="M172.698 92.2881C172.698 92.1826 172.74 92.0815 172.815 92.0069C172.889 91.9323 172.991 91.8904 173.096 91.8904C173.201 91.8904 173.303 91.9323 173.377 92.0069C173.452 92.0815 173.494 92.1826 173.494 92.2881C173.494 92.3935 173.452 92.4946 173.377 92.5692C173.303 92.6438 173.201 92.6857 173.096 92.6857C172.991 92.6857 172.889 92.6438 172.815 92.5692C172.74 92.4946 172.698 92.3935 172.698 92.2881Z" fill="#263238"/>
<path d="M173.734 91.5544C173.734 91.398 173.766 91.2431 173.829 91.0998C173.891 90.9564 173.984 90.8279 174.099 90.7224C174.215 90.6168 174.351 90.5367 174.499 90.4871C174.648 90.4375 174.805 90.4196 174.961 90.4344C175.162 90.4174 175.364 90.4618 175.54 90.5617C175.716 90.6617 175.858 90.8125 175.946 90.9944L175.454 91.2576C175.397 91.1742 175.32 91.1068 175.229 91.0618C175.139 91.0168 175.039 90.9959 174.938 91.0009C174.837 91.0059 174.739 91.0368 174.654 91.0905C174.569 91.1443 174.499 91.219 174.45 91.3077C174.402 91.3964 174.378 91.4959 174.379 91.5968C174.381 91.6977 174.408 91.7964 174.459 91.8836C174.51 91.9709 174.582 92.0436 174.669 92.0948C174.756 92.146 174.854 92.174 174.955 92.176C175.058 92.1763 175.159 92.1482 175.247 92.0948C175.335 92.0415 175.406 91.9649 175.454 91.8736L175.946 92.1424C175.857 92.3234 175.715 92.4733 175.539 92.5731C175.364 92.6729 175.162 92.7179 174.961 92.7024C174.803 92.7176 174.643 92.6989 174.493 92.6477C174.342 92.5965 174.204 92.5138 174.088 92.4052C173.973 92.2966 173.881 92.1646 173.82 92.0179C173.759 91.8713 173.73 91.7133 173.734 91.5544Z" fill="#263238"/>
<path d="M176.126 91.5544C176.108 91.3121 176.163 91.0701 176.284 90.8597C176.406 90.6494 176.588 90.4805 176.807 90.3751C177.026 90.2696 177.271 90.2325 177.511 90.2686C177.752 90.3046 177.975 90.4122 178.154 90.5772C178.332 90.7423 178.456 90.9571 178.511 91.1939C178.565 91.4306 178.547 91.6783 178.459 91.9046C178.37 92.1308 178.216 92.3253 178.016 92.4626C177.815 92.5999 177.578 92.6737 177.335 92.6744C177.181 92.6868 177.025 92.667 176.879 92.6163C176.733 92.5656 176.598 92.485 176.485 92.3798C176.371 92.2745 176.28 92.1468 176.219 92.0047C176.157 91.8627 176.125 91.7093 176.126 91.5544ZM177.895 91.5544C177.885 91.4463 177.844 91.3434 177.777 91.2582C177.71 91.1729 177.62 91.1091 177.517 91.0743C177.414 91.0395 177.303 91.0354 177.198 91.0624C177.093 91.0893 176.998 91.1462 176.925 91.2262C176.851 91.3062 176.803 91.4057 176.785 91.5127C176.767 91.6198 176.781 91.7297 176.824 91.8291C176.868 91.9285 176.939 92.0132 177.03 92.0728C177.121 92.1324 177.227 92.1643 177.335 92.1648C177.413 92.1651 177.49 92.1491 177.562 92.1179C177.633 92.0866 177.697 92.0408 177.75 91.9834C177.803 91.9259 177.843 91.8581 177.868 91.7842C177.893 91.7103 177.902 91.632 177.895 91.5544Z" fill="#263238"/>
<path d="M182.689 91.392V92.652H182.05V91.4928C182.05 91.1344 181.888 90.972 181.63 90.972C181.373 90.972 181.143 91.1568 181.143 91.532V92.652H180.505V91.4928C180.505 91.1344 180.354 90.972 180.09 90.972C179.827 90.972 179.609 91.1568 179.609 91.532V92.652H178.97V90.4512H179.575V90.72C179.663 90.624 179.77 90.5482 179.89 90.4979C180.01 90.4476 180.14 90.424 180.27 90.4288C180.411 90.4216 180.552 90.4514 180.679 90.5152C180.806 90.579 180.913 90.6747 180.992 90.7928C181.088 90.675 181.209 90.5809 181.347 90.5178C181.485 90.4546 181.636 90.4242 181.787 90.4288C181.913 90.4202 182.04 90.4397 182.157 90.486C182.275 90.5323 182.38 90.6041 182.467 90.6963C182.553 90.7885 182.618 90.8988 182.656 91.0191C182.695 91.1395 182.706 91.2668 182.689 91.392Z" fill="#263238"/>
<path d="M145.919 106.73L146.955 107.29L146.49 108.069L145.443 107.453V108.606H144.547V107.442L143.534 108.08L143.074 107.302L144.116 106.742L143.074 106.182L143.534 105.403L144.581 106.03V104.871H145.477V106.03L146.524 105.403L146.989 106.182L145.919 106.73Z" fill="#263238"/>
<path d="M150.237 106.73L151.273 107.29L150.808 108.08L149.761 107.464V108.618H148.87V107.453L147.84 108.08L147.381 107.302L148.417 106.742L147.381 106.182L147.84 105.403L148.887 106.03V104.871H149.778V106.03L150.825 105.403L151.29 106.182L150.237 106.73Z" fill="#263238"/>
<path d="M154.56 106.73L155.596 107.29L155.12 108.08L154.078 107.464V108.618H153.182V107.453L152.163 108.08L151.71 107.302L152.746 106.742L151.71 106.182L152.163 105.403L153.21 106.03V104.871H154.106V106.03L155.148 105.403L155.618 106.182L154.56 106.73Z" fill="#263238"/>
<path d="M158.866 106.73L159.902 107.29L159.438 108.069L158.39 107.453V108.606H157.494V107.442L156.481 108.08L156.022 107.302L157.063 106.742L156.022 106.182L156.481 105.403L157.528 106.03V104.871H158.424V106.03L159.471 105.403L159.936 106.182L158.866 106.73Z" fill="#263238"/>
<path d="M163.184 106.73L164.22 107.29L163.755 108.069L162.708 107.453V108.606H161.84V107.442L160.798 108.08L160.339 107.302L161.375 106.742L160.339 106.182L160.798 105.403L161.84 106.008V104.849H162.73V106.008L163.778 105.381L164.242 106.159L163.184 106.73Z" fill="#263238"/>
<path d="M167.502 106.73L168.538 107.29L168.073 108.069L167.026 107.453V108.606H166.13V107.442L165.11 108.08L164.657 107.302L165.693 106.742L164.657 106.182L165.11 105.403L166.158 106.03V104.871H167.054V106.03L168.101 105.403L168.566 106.182L167.502 106.73Z" fill="#263238"/>
<path d="M171.814 106.73L172.85 107.29L172.385 108.069L171.338 107.453V108.606H170.442V107.442L169.428 108.08L168.969 107.302L170.01 106.742L168.969 106.182L169.428 105.403L170.475 106.03V104.871H171.36V106.03L172.407 105.403L172.872 106.182L171.814 106.73Z" fill="#263238"/>
<path d="M176.131 106.73L177.167 107.29L176.702 108.069L175.655 107.453V108.606H174.765V107.442L173.746 108.08L173.286 107.302L174.322 106.742L173.286 106.182L173.746 105.403L174.793 106.03V104.871H175.683V106.03L176.73 105.403L177.195 106.182L176.131 106.73Z" fill="#263238"/>
<path d="M125.272 75.796H81.648C81.3497 75.796 81.0543 75.8549 80.7788 75.9692C80.5032 76.0835 80.253 76.2511 80.0423 76.4623C79.8316 76.6735 79.6647 76.9242 79.551 77.2C79.4374 77.4758 79.3793 77.7713 79.38 78.0696V97.9384C79.3762 98.2373 79.4323 98.5339 79.545 98.8108C79.6576 99.0876 79.8245 99.3391 80.0359 99.5505C80.2473 99.7619 80.4988 99.9288 80.7756 100.041C81.0525 100.154 81.3491 100.21 81.648 100.206H99.9488L103.835 105.196L107.078 100.206H125.272C125.57 100.206 125.865 100.148 126.14 100.034C126.415 99.9198 126.665 99.7527 126.876 99.5421C127.086 99.3315 127.253 99.0815 127.367 98.8063C127.481 98.5312 127.54 98.2362 127.54 97.9384V78.0696C127.54 77.4676 127.301 76.8901 126.876 76.4639C126.451 76.0377 125.874 75.7975 125.272 75.796Z" fill="white"/>
<path d="M125.272 75.796H125.485C125.697 75.8144 125.906 75.8615 126.106 75.936C126.433 76.0533 126.729 76.245 126.969 76.496C127.312 76.8652 127.523 77.338 127.568 77.84C127.613 80.0016 127.602 83.1488 127.618 87.136C127.618 89.1296 127.618 91.3304 127.618 93.716C127.618 94.9144 127.618 96.152 127.618 97.44C127.634 97.7692 127.619 98.0991 127.574 98.4256C127.505 98.7654 127.363 99.0863 127.159 99.3664C126.95 99.6536 126.678 99.8902 126.365 100.059C126.052 100.227 125.706 100.324 125.35 100.341H107.05L107.162 100.285C106.142 101.847 105.045 103.544 103.925 105.269L103.818 105.431L103.695 105.28L99.8088 100.296L99.9208 100.352H82.32C82.0008 100.352 81.704 100.352 81.3624 100.352C80.8654 100.293 80.3989 100.081 80.0269 99.7464C79.655 99.4115 79.3957 98.9697 79.2848 98.4816C79.229 98.1676 79.2083 97.8483 79.2232 97.5296V89.3256C79.2232 86.94 79.2232 84.6011 79.2232 82.3088V78.0696C79.2234 77.7746 79.2785 77.4821 79.3856 77.2072C79.5932 76.6608 79.9909 76.2075 80.5056 75.9304C80.7627 75.7989 81.0417 75.7154 81.3288 75.684C81.6049 75.6702 81.8815 75.6702 82.1576 75.684H86.9232H92.96H103.79L119.47 75.7288L123.732 75.7568H124.852H125.233H124.852H123.732L119.47 75.7848L103.79 75.8296H92.96H82.2024C81.9336 75.8296 81.6424 75.8296 81.4016 75.8296C81.1472 75.8588 80.9004 75.9347 80.6736 76.0536C80.2105 76.2909 79.85 76.6892 79.66 77.1736C79.5639 77.418 79.5146 77.6782 79.5144 77.9408V78.7808C79.5144 79.9008 79.5144 81.0208 79.5144 82.18V89.1968C79.5144 91.5787 79.5144 94.0054 79.5144 96.4768V97.4064C79.4967 97.7042 79.5136 98.003 79.5648 98.2968C79.6635 98.7258 79.8925 99.1138 80.2203 99.4075C80.5481 99.7013 80.9588 99.8864 81.396 99.9376C81.6816 99.9656 82.012 99.9376 82.32 99.9376H100.016L100.061 99.9936L103.947 104.978H103.718L106.96 99.9936L106.999 99.932H107.078H125.367C125.689 99.9213 126.005 99.837 126.289 99.6855C126.573 99.5341 126.819 99.3196 127.008 99.0584C127.197 98.807 127.328 98.516 127.389 98.2072C127.432 97.8937 127.447 97.577 127.434 97.2608C127.434 95.9728 127.434 94.7352 127.434 93.5368C127.434 91.1512 127.434 88.9504 127.434 86.9568C127.434 82.9808 127.434 79.8336 127.462 77.6664C127.412 77.198 127.216 76.7571 126.902 76.4064C126.672 76.1496 126.386 75.9485 126.067 75.8184C125.805 75.7731 125.537 75.7656 125.272 75.796Z" fill="#263238"/>
<path d="M95.2896 81.4072V82.1408H94.8136V81.4016L94.0072 80.08H94.5168L95.0768 80.9984L95.6368 80.08H96.1072L95.2896 81.4072Z" fill="#263238"/>
<path d="M96.0848 81.1048C96.0748 80.8815 96.1318 80.6602 96.2486 80.4695C96.3654 80.2788 96.5366 80.1274 96.7401 80.0349C96.9437 79.9423 97.1703 79.9128 97.3908 79.9502C97.6113 79.9875 97.8155 80.09 97.9772 80.2445C98.1389 80.3989 98.2507 80.5982 98.2982 80.8167C98.3456 81.0353 98.3266 81.263 98.2435 81.4706C98.1604 81.6782 98.0171 81.8562 97.832 81.9816C97.6469 82.107 97.4284 82.1742 97.2048 82.1744C97.0602 82.1813 96.9156 82.1586 96.78 82.108C96.6444 82.0573 96.5204 81.9796 96.4157 81.8796C96.311 81.7795 96.2277 81.6593 96.1708 81.5261C96.1139 81.393 96.0847 81.2496 96.0848 81.1048ZM97.8656 81.1048C97.8645 80.9766 97.8255 80.8516 97.7534 80.7455C97.6814 80.6394 97.5795 80.557 97.4608 80.5087C97.342 80.4604 97.2115 80.4483 97.0859 80.474C96.9602 80.4997 96.845 80.562 96.7547 80.6531C96.6644 80.7442 96.6031 80.8599 96.5785 80.9858C96.5539 81.1116 96.5671 81.2419 96.6164 81.3603C96.6657 81.4787 96.749 81.5798 96.8557 81.6509C96.9624 81.7221 97.0878 81.76 97.216 81.76C97.3024 81.7624 97.3884 81.747 97.4687 81.7148C97.5489 81.6827 97.6217 81.6344 97.6826 81.573C97.7435 81.5116 97.7911 81.4384 97.8226 81.3579C97.8541 81.2774 97.8687 81.1912 97.8656 81.1048Z" fill="#263238"/>
<path d="M98.7 81.228V80.08H99.1816V81.2C99.1816 81.592 99.3552 81.76 99.6408 81.76C99.9264 81.76 100.106 81.5976 100.106 81.2V80.08H100.582V81.2392C100.582 81.4887 100.482 81.728 100.306 81.9045C100.13 82.0809 99.8903 82.18 99.6408 82.18C99.3913 82.18 99.152 82.0809 98.9756 81.9045C98.7991 81.728 98.7 81.4887 98.7 81.2392V81.228Z" fill="#263238"/>
<path d="M102.379 82.1408L101.982 81.5808H101.539V82.1408H101.058V80.08H101.954C102.514 80.08 102.855 80.3656 102.855 80.8304C102.861 80.9704 102.824 81.1087 102.747 81.2262C102.671 81.3437 102.56 81.4344 102.43 81.4856L102.894 82.152L102.379 82.1408ZM101.931 80.4608H101.539V81.2H101.931C102.222 81.2 102.368 81.06 102.368 80.836C102.368 80.612 102.222 80.4552 101.92 80.4552L101.931 80.4608Z" fill="#263238"/>
<path d="M103.947 81.1048C103.949 80.8751 104.021 80.6516 104.155 80.4645C104.288 80.2773 104.475 80.1356 104.692 80.0586C104.908 79.9816 105.143 79.973 105.364 80.0339C105.586 80.0948 105.783 80.2224 105.93 80.3992L105.622 80.6848C105.558 80.6066 105.478 80.5439 105.387 80.5012C105.296 80.4585 105.196 80.4371 105.095 80.4384C104.93 80.4536 104.776 80.5301 104.664 80.6529C104.552 80.7757 104.49 80.9358 104.49 81.102C104.49 81.2682 104.552 81.4284 104.664 81.5511C104.776 81.6739 104.93 81.7504 105.095 81.7656C105.195 81.768 105.295 81.7476 105.386 81.7059C105.477 81.6642 105.558 81.6023 105.622 81.5248L105.93 81.8048C105.783 81.9813 105.587 82.1087 105.366 82.1698C105.145 82.2309 104.91 82.2227 104.694 82.1464C104.478 82.0701 104.291 81.9293 104.157 81.743C104.023 81.5568 103.95 81.334 103.947 81.1048Z" fill="#263238"/>
<path d="M106.081 81.1048C106.071 80.8815 106.128 80.6602 106.245 80.4695C106.361 80.2788 106.533 80.1274 106.736 80.0349C106.94 79.9423 107.166 79.9128 107.387 79.9502C107.607 79.9875 107.811 80.09 107.973 80.2445C108.135 80.3989 108.247 80.5982 108.294 80.8167C108.342 81.0353 108.323 81.263 108.239 81.4706C108.156 81.6782 108.013 81.8562 107.828 81.9816C107.643 82.107 107.424 82.1742 107.201 82.1744C107.056 82.1813 106.912 82.1586 106.776 82.108C106.64 82.0573 106.516 81.9796 106.412 81.8796C106.307 81.7795 106.224 81.6593 106.167 81.5261C106.11 81.393 106.081 81.2496 106.081 81.1048ZM107.862 81.1048C107.859 80.9769 107.819 80.8524 107.747 80.7471C107.674 80.6417 107.572 80.5602 107.453 80.5127C107.334 80.4653 107.204 80.454 107.079 80.4803C106.953 80.5066 106.839 80.5694 106.749 80.6606C106.659 80.7519 106.598 80.8677 106.574 80.9934C106.55 81.1191 106.563 81.2491 106.613 81.3672C106.662 81.4852 106.746 81.586 106.852 81.6569C106.959 81.7278 107.084 81.7656 107.212 81.7656C107.299 81.768 107.385 81.7525 107.466 81.72C107.547 81.6875 107.62 81.6387 107.681 81.5767C107.742 81.5147 107.789 81.4408 107.82 81.3596C107.851 81.2784 107.865 81.1917 107.862 81.1048Z" fill="#263238"/>
<path d="M108.713 80.0801H109.659C109.804 80.065 109.951 80.0805 110.09 80.1257C110.228 80.1709 110.356 80.2447 110.464 80.3423C110.573 80.44 110.659 80.5594 110.719 80.6926C110.778 80.8259 110.809 80.9702 110.809 81.1161C110.809 81.262 110.778 81.4062 110.719 81.5395C110.659 81.6728 110.573 81.7921 110.464 81.8898C110.356 81.9875 110.228 82.0613 110.09 82.1065C109.951 82.1516 109.804 82.1672 109.659 82.1521H108.713V80.0801ZM109.631 81.7601C109.802 81.7601 109.966 81.6922 110.087 81.5714C110.207 81.4507 110.275 81.2869 110.275 81.1161C110.275 80.9453 110.207 80.7815 110.087 80.6607C109.966 80.5399 109.802 80.4721 109.631 80.4721H109.2V81.7601H109.631Z" fill="#263238"/>
<path d="M112.773 81.76V82.1464H111.166V80.08H112.734V80.4608H111.642V80.9144H112.605V81.2896H111.642V81.76H112.773Z" fill="#263238"/>
<path d="M121.016 84.3192H85.9096C84.8117 84.3192 83.9216 85.2093 83.9216 86.3072V93.7216C83.9216 94.8196 84.8117 95.7096 85.9096 95.7096H121.016C122.114 95.7096 123.004 94.8196 123.004 93.7216V86.3072C123.004 85.2093 122.114 84.3192 121.016 84.3192Z" fill="#F5F5F5"/>
<path d="M91.84 90.7201C91.841 90.9545 91.793 91.1866 91.6989 91.4014C91.6048 91.6161 91.4669 91.8088 91.2939 91.9671C91.1208 92.1253 90.9166 92.2456 90.6944 92.3201C90.4721 92.3947 90.2366 92.4219 90.0032 92.4001C88.5584 92.4001 87.7912 91.3585 87.7912 89.6337C87.7912 87.7633 88.7824 86.8057 90.244 86.8057C90.6777 86.7868 91.1086 86.8835 91.4928 87.0857L91.3304 87.4105C90.9982 87.2285 90.6224 87.1413 90.244 87.1585C89.0064 87.1585 88.1944 87.9705 88.1944 89.5721C88.1927 89.7931 88.2076 90.014 88.2392 90.2329C88.3707 89.8804 88.6135 89.5804 88.9308 89.3783C89.2481 89.1762 89.6226 89.083 89.9976 89.1129C91.1232 89.0737 91.84 89.7177 91.84 90.7201ZM91.4368 90.7201C91.4368 89.9305 90.8768 89.4208 89.9416 89.4208C89.7538 89.4016 89.564 89.4209 89.3839 89.4774C89.2038 89.534 89.0371 89.6267 88.894 89.7499C88.7509 89.873 88.6345 90.0241 88.5517 90.1938C88.469 90.3635 88.4217 90.5483 88.4128 90.7369C88.4128 91.3809 88.9728 92.0304 89.992 92.0304C90.1769 92.0537 90.3647 92.037 90.5427 91.9815C90.7206 91.9261 90.8846 91.8331 91.0237 91.709C91.1627 91.5848 91.2735 91.4323 91.3486 91.2617C91.4237 91.0911 91.4615 90.9064 91.4592 90.7201H91.4368Z" fill="#F2575D"/>
<path d="M99.1816 90.8096H98.028V92.3384H97.6304V90.8096H94.4888V90.5184L97.4848 86.8224H97.9328L94.9928 90.4512H97.6416V89.1072H98.028V90.4512H99.1816V90.8096Z" fill="#F2575D"/>
<path d="M105.308 90.7816C105.308 91.7 104.647 92.3776 103.376 92.3776C103.019 92.3914 102.662 92.3325 102.328 92.2045C101.994 92.0765 101.689 91.882 101.433 91.6328L101.634 91.3248C101.863 91.5505 102.136 91.727 102.435 91.8436C102.735 91.9601 103.055 92.0142 103.376 92.0024C104.367 92.0024 104.899 91.532 104.899 90.7816C104.899 90.0312 104.395 89.5608 103.292 89.5608H102.945V89.2696L104.574 87.1808H101.634V86.8H105.095V87.08L103.415 89.2024C104.72 89.2528 105.308 89.8856 105.308 90.7816Z" fill="#F2575D"/>
<path d="M112 86.8V87.08L109.631 92.316H109.189L111.535 87.1584H108.438V88.2168H108.046V86.8H112Z" fill="#F2575D"/>
<path d="M114.8 89.6C114.8 87.8752 115.69 86.8 116.956 86.8C118.222 86.8 119.118 87.8696 119.118 89.6C119.118 91.3304 118.227 92.4 116.956 92.4C115.685 92.4 114.8 91.28 114.8 89.6ZM118.72 89.6C118.72 88.0656 118.003 87.1752 116.962 87.1752C115.92 87.1752 115.203 88.0656 115.203 89.6C115.203 91.1344 115.92 92.0248 116.962 92.0248C118.003 92.0248 118.72 91.112 118.72 89.6Z" fill="#F2575D"/>
<path d="M234.864 233.811C242.194 230.698 250.684 224.577 254.464 217.067C246.329 220.443 239.47 226.304 234.864 233.811Z" fill="#263238"/>
<path d="M236.426 222.158C243.757 219.05 252.246 212.929 256.026 205.419C247.89 208.79 241.03 214.649 236.426 222.158Z" fill="#263238"/>
<path d="M238.56 210.829C245.896 207.715 254.38 201.594 258.16 194.09C250.025 197.463 243.164 203.321 238.56 210.829Z" fill="#263238"/>
<path d="M241.203 198.968C248.119 194.88 255.83 187.6 258.72 179.659C251.035 184.137 244.922 190.881 241.22 198.968" fill="#263238"/>
<path d="M244.048 189.89C249.088 183.299 253.786 173.488 253.725 164.987C248.123 172.157 244.757 180.819 244.048 189.89Z" fill="#263238"/>
<path d="M242.637 194.208C241.618 185.293 238.157 174.087 232.266 167.401C233.26 177.104 236.842 186.362 242.637 194.208Z" fill="#263238"/>
<path d="M240.268 203.958C238.476 194.768 233.94 183.4 227.254 176.954C229.084 186.962 233.58 196.291 240.268 203.958Z" fill="#263238"/>
<path d="M237.546 215.846C235.76 206.64 231.213 195.289 224.56 188.843C226.391 198.851 230.887 208.18 237.574 215.846" fill="#263238"/>
<path d="M235.362 230.446C233.565 221.256 229.029 209.888 222.348 203.442C224.179 213.45 228.675 222.779 235.362 230.446Z" fill="#263238"/>
<path d="M244.39 188.16C244.362 188.203 244.343 188.25 244.334 188.3C244.294 188.406 244.25 188.541 244.194 188.709C244.07 189.095 243.897 189.627 243.684 190.299C243.242 191.682 242.648 193.693 241.948 196.19C241.248 198.688 240.475 201.673 239.68 205.005C238.885 208.337 238.101 212.027 237.362 215.914C236.622 219.8 236.046 223.53 235.558 226.923C235.071 230.317 234.724 233.386 234.472 235.962C234.22 238.538 234.041 240.632 233.951 242.082C233.906 242.788 233.873 243.342 233.845 243.762C233.845 243.942 233.845 244.082 233.845 244.199C233.837 244.247 233.837 244.296 233.845 244.345C233.862 244.298 233.871 244.249 233.873 244.199C233.873 244.087 233.873 243.942 233.918 243.768C233.957 243.365 234.013 242.81 234.08 242.088C234.203 240.649 234.41 238.56 234.69 235.984C234.97 233.408 235.357 230.35 235.838 226.962C236.32 223.574 236.958 219.856 237.664 215.97C238.37 212.083 239.187 208.404 239.954 205.066C240.722 201.729 241.483 198.744 242.161 196.241C242.838 193.738 243.398 191.722 243.807 190.333L244.266 188.726C244.311 188.558 244.345 188.418 244.378 188.306C244.388 188.258 244.392 188.209 244.39 188.16Z" fill="#263238"/>
<path d="M231.28 238.661C234.388 232.154 236.65 222.981 235.127 215.852C231.652 222.918 230.315 230.846 231.28 238.661Z" fill="#455A64"/>
<path d="M226.122 230.233C229.23 223.72 231.493 214.553 229.964 207.424C226.487 214.49 225.152 222.418 226.122 230.233Z" fill="#455A64"/>
<path d="M221.486 221.659C224.594 215.146 226.856 205.979 225.327 198.85C221.851 205.916 220.515 213.844 221.486 221.659Z" fill="#455A64"/>
<path d="M216.916 212.414C219.229 205.526 220.388 196.129 218.036 189.258C215.427 196.705 215.038 204.749 216.916 212.414Z" fill="#455A64"/>
<path d="M213.92 204.842C213.69 197.512 211.534 188.328 206.982 182.913C207.083 190.747 209.497 198.376 213.92 204.842Z" fill="#455A64"/>
<path d="M215.314 208.477C209.922 203.392 201.723 198.335 194.354 197.674C200.118 203.27 207.412 207.029 215.314 208.477Z" fill="#455A64"/>
<path d="M218.96 216.194C212.918 211.4 203.935 206.909 196.174 206.892C202.68 212.181 210.611 215.419 218.96 216.194Z" fill="#455A64"/>
<path d="M223.496 225.495C217.454 220.707 208.477 216.21 200.715 216.194C207.22 221.482 215.149 224.719 223.496 225.495Z" fill="#455A64"/>
<path d="M229.83 236.202C223.787 231.409 214.805 226.918 207.043 226.895C213.548 232.188 221.479 235.428 229.83 236.202Z" fill="#455A64"/>
<path d="M213.237 203.515C213.237 203.515 213.237 203.554 213.27 203.633L213.394 203.98L213.898 205.296C214.34 206.416 215.018 208.096 215.874 210.101C217.599 214.127 220.158 219.621 223.334 225.523C224.924 228.463 226.52 231.23 228.01 233.71C229.499 236.191 230.916 238.398 232.131 240.223C233.346 242.049 234.371 243.51 235.066 244.507L235.894 245.627L236.113 245.918C236.163 245.986 236.191 246.019 236.197 246.014C236.179 245.975 236.158 245.937 236.135 245.902L235.939 245.594C235.743 245.308 235.486 244.916 235.155 244.423C234.461 243.41 233.475 241.931 232.294 240.094C231.112 238.258 229.718 236.04 228.228 233.559C226.738 231.078 225.165 228.306 223.574 225.366C220.399 219.52 217.84 214.032 216.054 210C215.169 207.995 214.469 206.366 213.998 205.234L213.438 203.935L213.287 203.599C213.273 203.57 213.256 203.541 213.237 203.515Z" fill="#263238"/>
<path d="M216.485 239.45H247.374V245.403H244.199L241.528 262.382H222.432L219.682 245.403H216.485V239.45Z" fill="#F2575D"/>
<path d="M216.485 245.28C216.485 245.202 223.35 245.134 231.818 245.134C240.285 245.134 247.15 245.202 247.15 245.28C247.15 245.358 240.29 245.42 231.818 245.42C223.345 245.42 216.485 245.358 216.485 245.28Z" fill="#263238"/>
<path d="M39.5416 262.394H34.5296L32.6704 239.82H38.5728L39.5416 262.394Z" fill="#263238"/>
<path d="M82.9976 262.394H88.0096L89.8688 239.82H83.9664L82.9976 262.394Z" fill="#263238"/>
<path d="M93.3128 242.682L28.7784 244.194L26.8184 202.513C26.7722 201.546 26.9227 200.58 27.261 199.672C27.5993 198.765 28.1182 197.936 28.7863 197.236C29.4544 196.535 30.2578 195.978 31.1478 195.597C32.0378 195.216 32.9959 195.02 33.964 195.02H88.9504C89.9318 195.02 90.9027 195.222 91.8027 195.613C92.7028 196.004 93.5128 196.576 94.1825 197.293C94.8521 198.011 95.367 198.858 95.6953 199.783C96.0235 200.708 96.158 201.691 96.0904 202.67L93.3128 242.682Z" fill="#F2575D"/>
<path d="M96.6224 202.373H96.4432H95.9112L93.8784 202.406H86.3968C80.08 202.406 71.3552 202.35 61.7232 202.574C52.0856 202.894 43.3496 202.838 37.0384 202.742C33.88 202.692 31.3208 202.63 29.5568 202.574L27.524 202.507H26.9976C26.9381 202.515 26.8779 202.515 26.8184 202.507H26.9976H27.524H29.5568L37.0384 202.58C43.3552 202.625 52.08 202.647 61.7176 202.322C71.3552 202.104 80.08 202.205 86.3968 202.25L93.8784 202.311L95.9112 202.339H96.4432L96.6224 202.373Z" fill="#263238"/>
<path d="M50.3552 195.67C48.9047 195.882 47.4933 196.306 46.1664 196.93C44.8816 197.636 43.7095 198.531 42.6888 199.584C42.8943 199.194 43.1652 198.841 43.4896 198.542C44.9782 197.011 46.9313 196.015 49.0448 195.709C49.4759 195.619 49.9195 195.605 50.3552 195.67Z" fill="#263238"/>
<path d="M76.8992 119.885L84.784 134.294L96.32 127.831L101.92 129.685C101.92 129.685 87.7856 145.04 85.484 145.841C83.1824 146.642 78.8256 146.77 76.3392 143.651C74.0992 140.812 67.4688 125.916 67.4688 125.916L76.8992 119.885Z" fill="#FFBE9D"/>
<path d="M109.374 110.477C109.272 110.353 109.141 110.256 108.992 110.198C108.843 110.139 108.681 110.119 108.522 110.141L103.04 110.88C102.802 110.916 102.574 111.002 102.372 111.133C102.17 111.265 101.999 111.438 101.87 111.642L90.44 129.198L91.3136 129.685L97.3952 129.494L109.547 110.695L109.374 110.477Z" fill="#263238"/>
<path d="M105.482 112.756C105.525 112.825 105.59 112.879 105.666 112.91C105.742 112.941 105.826 112.947 105.906 112.928C105.986 112.908 106.058 112.864 106.111 112.801C106.165 112.739 106.197 112.661 106.204 112.579C106.211 112.497 106.192 112.415 106.149 112.345C106.107 112.275 106.044 112.219 105.968 112.187C105.893 112.154 105.809 112.146 105.728 112.164C105.648 112.182 105.576 112.224 105.521 112.286C105.456 112.345 105.416 112.426 105.409 112.513C105.402 112.6 105.428 112.687 105.482 112.756Z" fill="white"/>
<path d="M109.547 110.695C109.199 110.793 108.843 110.862 108.483 110.902L105.571 111.356L103.561 111.647C103.39 111.662 103.225 111.716 103.078 111.803C102.931 111.89 102.805 112.009 102.71 112.151L102.06 113.159C101.158 114.542 100.178 116.06 99.148 117.639C97.0704 120.82 95.1776 123.693 93.7888 125.765L92.1368 128.24C91.9447 128.547 91.7294 128.839 91.4928 129.114C91.6505 128.784 91.8379 128.469 92.0528 128.173L93.6208 125.675C94.9592 123.57 96.8184 120.68 98.896 117.499C99.9376 115.914 100.929 114.402 101.83 113.019C102.06 112.678 102.284 112.342 102.497 112.011C102.616 111.84 102.772 111.696 102.953 111.592C103.134 111.487 103.336 111.424 103.544 111.406L105.566 111.149L108.494 110.802C108.842 110.738 109.194 110.703 109.547 110.695Z" fill="#455A64"/>
<path d="M103.449 116.962C103.449 116.962 102.962 116.878 102.693 118.216C102.424 119.554 101.573 123.396 101.573 123.396L99.008 122.035L95.7936 122.455C95.7936 122.455 95.0936 123.099 95.6088 123.452C96.124 123.805 98.1512 124.163 98.1512 124.163L99.6464 126.319L95.3512 124.247C95.3512 124.247 93.9176 124.622 94.3376 125.496C94.7576 126.37 97.6528 129.108 97.6528 129.108L95.5024 128.946L92.96 127.389C92.96 127.389 92.176 127.428 92.4672 128.094C92.7584 128.761 95.424 131.18 95.424 131.18L98.6496 132.748C98.6496 132.748 100.414 132.608 100.582 132.087C100.696 131.678 100.767 131.257 100.794 130.833C100.794 130.833 101.73 130.581 101.914 130.127C102.017 129.746 102.038 129.347 101.976 128.957C101.976 128.957 103.443 129.214 103.628 128.397C103.756 127.378 103.715 126.345 103.505 125.339C103.359 124.706 104.132 118.854 104.065 118.681C103.998 118.507 104.373 116.575 103.449 116.962Z" fill="#FFBE9D"/>
<path d="M100.666 132.098C100.411 132.251 100.122 132.34 99.8256 132.356C98.3946 132.564 96.9384 132.217 95.7544 131.387C95.312 131.068 95.0936 130.827 95.1216 130.777C95.1496 130.726 96.2024 131.578 97.7704 131.942C99.3384 132.306 100.649 131.998 100.666 132.098Z" fill="#EB996E"/>
<path d="M99.904 130.939C99.8536 131.012 99.2768 130.715 98.6664 130.211C98.056 129.707 97.6528 129.209 97.7144 129.147C97.776 129.086 98.2744 129.466 98.8792 129.959C99.484 130.452 99.9544 130.861 99.904 130.939Z" fill="#EB996E"/>
<path d="M101.601 128.156C101.55 128.229 100.979 127.938 100.408 127.406C99.8368 126.874 99.5008 126.336 99.568 126.286C99.6352 126.235 100.083 126.661 100.632 127.17C101.181 127.68 101.651 128.078 101.601 128.156Z" fill="#EB996E"/>
<path d="M103.387 125.91C103.298 125.95 102.973 125.35 102.463 124.684C101.954 124.018 101.455 123.564 101.511 123.474C101.567 123.385 102.183 123.777 102.721 124.482C103.089 124.875 103.323 125.376 103.387 125.91Z" fill="#EB996E"/>
<path d="M105.566 229.768C105.608 229.593 105.608 229.411 105.566 229.236C105.475 228.752 105.284 228.292 105.006 227.886C104.915 227.746 104.807 227.616 104.686 227.5C104.607 227.425 104.509 227.373 104.403 227.349C104.296 227.326 104.185 227.331 104.082 227.366C104.021 227.387 103.965 227.421 103.92 227.467C103.874 227.512 103.839 227.568 103.818 227.629C103.779 227.745 103.779 227.871 103.818 227.987C103.895 228.182 103.989 228.369 104.098 228.547C104.306 228.9 104.479 229.247 104.748 229.667C104.826 229.78 104.934 229.869 105.059 229.926C105.185 229.982 105.323 230.003 105.459 229.986C105.71 229.942 105.946 229.838 106.148 229.684C106.519 229.412 106.857 229.098 107.156 228.749C107.3 228.583 107.435 228.409 107.559 228.228C107.695 228.051 107.796 227.849 107.856 227.634C107.889 227.508 107.878 227.374 107.822 227.255C107.767 227.136 107.672 227.041 107.554 226.985C107.443 226.952 107.325 226.948 107.213 226.974C107.1 226.999 106.996 227.053 106.91 227.13C106.654 227.354 106.428 227.61 106.238 227.892C105.956 228.288 105.731 228.721 105.571 229.18C105.497 229.342 105.459 229.517 105.459 229.695C105.725 229.106 106.045 228.544 106.417 228.015C106.607 227.763 106.825 227.534 107.066 227.332C107.195 227.242 107.352 227.181 107.447 227.231C107.502 227.264 107.545 227.314 107.567 227.375C107.59 227.435 107.591 227.501 107.57 227.562C107.512 227.737 107.423 227.9 107.307 228.043C107.19 228.211 107.061 228.374 106.926 228.536C106.637 228.862 106.314 229.156 105.963 229.415C105.799 229.542 105.607 229.626 105.403 229.662C105.32 229.672 105.235 229.658 105.159 229.623C105.082 229.587 105.018 229.531 104.972 229.46C104.754 229.141 104.541 228.743 104.334 228.413C104.238 228.239 104.121 228.071 104.065 227.931C104.009 227.791 104.065 227.679 104.149 227.634C104.39 227.539 104.63 227.814 104.793 228.043C105.157 228.564 105.419 229.149 105.566 229.768Z" fill="#263238"/>
<path d="M91.8064 230.238L84.9744 245.05L73.948 239.954L81.0152 221.626L91.8064 230.238Z" fill="#FFBE9D"/>
<path d="M86.24 244.059L82.2472 251.675C82.2472 251.675 92.4672 262.242 91.5096 264.606L67.4856 253.086L74.0824 237.815L86.24 244.059Z" fill="#455A64"/>
<path d="M75.3424 247.072C75.0784 247.039 74.8111 247.1 74.5885 247.246C74.3658 247.392 74.2023 247.612 74.1272 247.867C74.0765 248.13 74.1291 248.403 74.2741 248.628C74.4191 248.853 74.6452 249.014 74.9056 249.077C75.1861 249.119 75.4723 249.056 75.7091 248.9C75.9459 248.744 76.1165 248.506 76.188 248.231C76.2118 247.951 76.1259 247.672 75.9483 247.454C75.7707 247.235 75.5154 247.095 75.236 247.061" fill="#E0E0E0"/>
<g opacity="0.6">
<path opacity="0.6" d="M67.508 253.086L68.5048 251.171L91.168 262.931C91.168 262.931 92.0136 263.906 91.532 264.611L67.508 253.086Z" fill="white"/>
</g>
<path d="M82.7176 251.737C82.6616 251.854 82.0456 251.625 81.2896 251.737C80.5336 251.849 79.9848 252.185 79.9008 252.084C79.8168 251.983 80.3152 251.395 81.2336 251.289C82.152 251.182 82.796 251.642 82.7176 251.737Z" fill="#263238"/>
<path d="M84.7392 253.988C84.7392 254.117 84.1064 254.072 83.4736 254.374C82.8408 254.677 82.4712 255.153 82.3536 255.091C82.236 255.03 82.4824 254.33 83.2832 253.971C84.084 253.613 84.7896 253.876 84.7392 253.988Z" fill="#263238"/>
<path d="M84.7224 257.69C84.6048 257.69 84.7224 257.001 85.3328 256.502C85.9432 256.004 86.6152 256.01 86.6152 256.133C86.6152 256.256 86.1168 256.435 85.6184 256.85C85.12 257.264 84.8456 257.734 84.7224 257.69Z" fill="#263238"/>
<path d="M83.8656 248.808C83.7648 248.892 83.3056 248.472 82.6224 248.198C81.9392 247.923 81.3176 247.884 81.3064 247.755C81.2952 247.626 81.9896 247.447 82.7904 247.755C83.5912 248.063 83.9664 248.741 83.8656 248.808Z" fill="#263238"/>
<path d="M88.5136 242.082L106.529 197.008C106.529 197.008 106.12 189.314 104.703 186.889C103.286 184.464 60.3792 170.29 60.3792 170.29C60.3792 170.29 49.4536 167.658 42.1624 170.29C34.8712 172.922 29.4112 182.05 30.4024 187.09C31.3936 192.13 35.6832 195.866 35.6832 195.866L67.2392 196.806L84.4368 203.078L72.856 236.27L88.5136 242.082Z" fill="#263238"/>
<path d="M104.535 211.282L104.944 227.584L92.7976 227.886L91.0504 208.32L104.535 211.282Z" fill="#FFBE9D"/>
<path d="M105.666 226.128L105.442 234.724C105.442 234.724 119.274 239.691 119.442 242.239L92.8032 242.508L91.98 225.893L105.666 226.128Z" fill="#455A64"/>
<path d="M97.1936 233.654C96.9381 233.735 96.7214 233.907 96.5849 234.137C96.4485 234.368 96.402 234.641 96.4544 234.903C96.5256 235.161 96.693 235.382 96.9221 235.521C97.1513 235.659 97.4248 235.705 97.6864 235.648C97.9564 235.561 98.1847 235.378 98.3274 235.133C98.4701 234.888 98.517 234.598 98.4592 234.321C98.3585 234.058 98.1594 233.845 97.9043 233.727C97.6492 233.609 97.3581 233.595 97.0928 233.688" fill="#E0E0E0"/>
<g opacity="0.6">
<path opacity="0.6" d="M92.82 242.508L92.8704 240.346L118.395 240.906C118.395 240.906 119.582 241.41 119.459 242.25L92.82 242.508Z" fill="white"/>
</g>
<path d="M105.874 234.584C105.874 234.713 105.218 234.78 104.586 235.206C103.953 235.631 103.611 236.18 103.494 236.13C103.376 236.079 103.561 235.323 104.339 234.825C105.118 234.326 105.902 234.466 105.874 234.584Z" fill="#263238"/>
<path d="M108.679 235.71C108.713 235.838 108.147 236.062 107.71 236.617C107.274 237.171 107.15 237.737 107.027 237.737C106.904 237.737 106.803 236.998 107.363 236.314C107.923 235.631 108.674 235.586 108.679 235.71Z" fill="#263238"/>
<path d="M110.32 239.042C110.202 239.07 110.018 238.42 110.32 237.703C110.622 236.986 111.255 236.701 111.311 236.807C111.367 236.914 110.992 237.3 110.751 237.888C110.51 238.476 110.426 239.025 110.32 239.042Z" fill="#263238"/>
<path d="M105.605 231.448C105.554 231.566 104.955 231.392 104.222 231.448C103.488 231.504 102.917 231.745 102.844 231.633C102.771 231.521 103.32 231.073 104.188 231C105.056 230.927 105.672 231.342 105.605 231.448Z" fill="#263238"/>
<path d="M97.44 166.012C97.44 166.012 104.72 165.452 105.526 173.326C106.333 181.199 107.128 218.058 107.128 218.058L90.16 219.475L87.528 181.826L60.4072 170.29C60.4072 170.29 92.5848 165.004 97.44 166.012Z" fill="#263238"/>
<path d="M67.4576 155.361C67.4576 155.361 71.8704 167.742 71.0304 169.12C70.1904 170.498 58.8392 176.176 58.8392 176.176L30.4248 187.09C30.4248 187.09 27.5072 182.448 27.5072 175.33C27.5072 168.213 37.3912 155.372 37.3912 155.372L67.4576 155.361Z" fill="#263238"/>
<path d="M59.0352 169.68C59.0774 169.709 59.1224 169.733 59.1696 169.753L59.5728 169.938L61.1464 170.638L67.0544 173.214L87.444 181.989L87.3488 181.86C87.6064 185.578 87.9088 189.594 88.172 193.749C88.8664 203.465 89.5048 212.419 90.0088 219.509V219.638H90.1376L102.525 218.551L105.935 218.232L106.826 218.142L107.128 218.098C107.026 218.089 106.922 218.089 106.82 218.098L105.93 218.154L102.514 218.406L90.1152 219.38L90.2552 219.498C89.768 212.414 89.1352 203.454 88.4856 193.738C88.1944 189.582 87.9256 185.567 87.6456 181.849V181.759L87.5616 181.72L67.1272 173.04L61.1856 170.554L59.5952 169.898L59.1808 169.736C59.1338 169.714 59.0851 169.695 59.0352 169.68Z" fill="#455A64"/>
<path d="M36.4392 170.895C36.7129 170.853 36.9813 170.781 37.24 170.682L39.3792 169.988C41.7139 169.199 44.1069 168.594 46.536 168.179C48.9663 167.783 51.4472 167.815 53.8664 168.274C55.7144 168.661 56.7784 169.187 56.8008 169.126C56.5712 168.97 56.3228 168.844 56.0616 168.75C55.3677 168.458 54.6502 168.226 53.9168 168.056C51.4722 167.523 48.9487 167.459 46.48 167.866C44.0313 168.279 41.6261 168.919 39.2952 169.775C38.3992 170.094 37.6824 170.369 37.184 170.565C36.9271 170.654 36.678 170.765 36.4392 170.895Z" fill="#455A64"/>
<path d="M40.4544 164.371C41.2824 164.321 42.1128 164.321 42.9408 164.371C43.708 164.422 44.6208 164.539 45.6288 164.657C46.6368 164.774 47.7512 164.914 48.9048 165.133C50.8786 165.447 52.7706 166.149 54.4712 167.199C55.1498 167.672 55.7953 168.19 56.4032 168.75C56.2917 168.554 56.1521 168.375 55.9888 168.218C55.5689 167.766 55.1014 167.361 54.5944 167.009C52.8944 165.885 50.9734 165.139 48.9608 164.819C47.796 164.601 46.676 164.472 45.6624 164.366C44.6488 164.259 43.7304 164.17 42.952 164.147C42.3386 164.12 41.7241 164.146 41.1152 164.226C40.8891 164.242 40.6666 164.291 40.4544 164.371Z" fill="#455A64"/>
<path d="M53.004 64.8928C49.7392 64.3328 46.844 65.5928 44.1056 67.4352C41.3029 69.4052 39.1671 72.1825 37.9826 75.3969C36.798 78.6114 36.621 82.1104 37.4752 85.428C37.9481 87.114 38.7576 88.6868 39.8548 90.0516C40.9519 91.4163 42.3141 92.5447 43.8592 93.3688C48.1096 95.5248 53.5472 94.7744 57.3552 91.896C61.1632 89.0176 63.3304 84.2632 63.5152 79.4976C63.6916 76.1925 62.8258 72.9155 61.04 70.1288C60.1346 68.7521 58.9553 67.5766 57.5756 66.6758C56.1959 65.7749 54.6454 65.168 53.0208 64.8928" fill="#263238"/>
<path d="M43.708 76.0088C44.1896 74.7544 43.9992 73.36 44.1896 72.0328C44.6096 69.1152 46.9896 66.7744 49.6776 65.6376C52.2088 64.5792 55.2776 64.8088 58.3464 65.7944C60.4632 66.436 62.3533 67.6675 63.7952 69.3448C64.7128 70.4828 65.3442 71.8241 65.6365 73.2564C65.9288 74.6887 65.8735 76.1703 65.4752 77.5768L50.5456 75.404C49.1456 76.5576 47.712 77.7392 46.0152 78.3832C45.526 78.5977 44.9899 78.6826 44.4584 78.6296C44.1936 78.5981 43.9435 78.491 43.738 78.3212C43.5324 78.1514 43.3801 77.926 43.2992 77.672C43.1648 77.1064 43.5008 76.552 43.708 76.0088Z" fill="#263238"/>
<path d="M58.6656 69.916L45.6288 72.6824C45.0246 72.7225 44.457 72.9862 44.0366 73.4221C43.6163 73.8579 43.3734 74.4347 43.3552 75.04L43.512 103.258C43.5252 105.185 44.1705 107.054 45.3488 108.578L46.592 110.18C49.4312 113.837 55.1712 113.467 57.3384 109.379C57.471 109.147 57.5726 108.899 57.6408 108.64C57.68 108.388 57.7472 108.22 57.7584 108.007L58.0104 105.252C58.1336 102.743 58.156 100.212 58.156 100.212C58.156 100.212 63.4928 99.54 64.876 92.6632C65.5536 89.2472 65.5984 83.5968 65.4864 78.9768C65.3688 74.8384 62.8208 69.6416 58.6656 69.916Z" fill="#FFBE9D"/>
<path d="M63.4872 84.2968C63.4799 84.5275 63.3827 84.7463 63.2164 84.9064C63.05 85.0664 62.8277 85.1552 62.5968 85.1536C62.4834 85.1589 62.3702 85.1413 62.2638 85.1018C62.1573 85.0624 62.06 85.002 61.9774 84.9241C61.8948 84.8462 61.8288 84.7525 61.7832 84.6486C61.7376 84.5447 61.7134 84.4327 61.712 84.3192C61.7207 84.0884 61.8181 83.8698 61.984 83.7092C62.1499 83.5485 62.3715 83.4581 62.6024 83.4568C62.716 83.4523 62.8294 83.4706 62.9359 83.5107C63.0423 83.5507 63.1397 83.6117 63.2221 83.69C63.3046 83.7683 63.3706 83.8623 63.4161 83.9666C63.4616 84.0708 63.4858 84.1831 63.4872 84.2968Z" fill="#263238"/>
<path d="M64.1368 81.8832C64.0192 81.9952 63.3696 81.4744 62.412 81.4408C61.4544 81.4072 60.732 81.8552 60.6424 81.732C60.5528 81.6088 60.7096 81.4744 61.0232 81.2672C61.4478 80.9944 61.9471 80.8613 62.4512 80.8864C62.9463 80.9033 63.4231 81.0779 63.812 81.3848C64.0976 81.6256 64.1928 81.8384 64.1368 81.8832Z" fill="#263238"/>
<path d="M54.9304 84.0784C54.9245 84.3102 54.828 84.5303 54.6615 84.6916C54.4949 84.8529 54.2718 84.9424 54.04 84.9408C53.9271 84.9453 53.8144 84.9272 53.7087 84.8874C53.6029 84.8476 53.5062 84.787 53.4242 84.7092C53.3423 84.6315 53.2767 84.5381 53.2315 84.4345C53.1862 84.331 53.1622 84.2194 53.1608 84.1064C53.1666 83.8757 53.2624 83.6563 53.4277 83.4952C53.593 83.3341 53.8148 83.2439 54.0456 83.244C54.1588 83.2395 54.2717 83.2577 54.3778 83.2974C54.4839 83.3371 54.5809 83.3976 54.6633 83.4753C54.7457 83.553 54.8118 83.6464 54.8577 83.7499C54.9035 83.8535 54.9282 83.9652 54.9304 84.0784Z" fill="#263238"/>
<path d="M55.0704 81.6536C54.9528 81.7656 54.3032 81.2392 53.3456 81.2056C52.388 81.172 51.6656 81.62 51.576 81.5024C51.4864 81.3848 51.6432 81.2448 51.9624 81.032C52.3868 80.7634 52.883 80.6305 53.3848 80.6512C53.882 80.6712 54.3601 80.8475 54.7512 81.1552C55.0312 81.3904 55.1264 81.6032 55.0704 81.6536Z" fill="#263238"/>
<path d="M57.932 88.9112C58.4429 88.7796 58.967 88.7063 59.4944 88.6928C59.7408 88.6928 59.9704 88.6368 60.0208 88.4744C60.0496 88.2238 60.0028 87.9703 59.8864 87.7464C59.6792 87.1472 59.4608 86.52 59.2368 85.8592C58.3352 83.1768 57.6968 80.976 57.8032 80.9424C57.9096 80.9088 58.7328 83.0536 59.6288 85.736C59.8416 86.3968 60.0488 87.024 60.2448 87.6288C60.3886 87.9289 60.4204 88.2705 60.3344 88.592C60.2949 88.6761 60.2373 88.7503 60.1656 88.8094C60.0939 88.8685 60.0101 88.9109 59.92 88.9336C59.7837 88.9618 59.6448 88.9749 59.5056 88.9728C58.9807 89.022 58.4515 89.0013 57.932 88.9112Z" fill="#263238"/>
<path d="M58.156 100.24C54.8972 100.166 51.7232 99.1864 48.9888 97.412C48.9888 97.412 51.128 102.29 58.0776 101.892L58.156 100.24Z" fill="#EB996E"/>
<path d="M57.4392 91.196C57.2664 90.9605 57.0362 90.7731 56.7706 90.6516C56.505 90.5301 56.2128 90.4784 55.9216 90.5016C55.7064 90.513 55.496 90.5686 55.3033 90.665C55.1106 90.7613 54.9398 90.8963 54.8016 91.0616C54.6705 91.2141 54.5885 91.4027 54.5666 91.6025C54.5446 91.8024 54.5836 92.0043 54.6784 92.1816C54.8254 92.3581 55.0215 92.4869 55.2419 92.5517C55.4622 92.6165 55.6968 92.6144 55.916 92.5456C56.3742 92.4047 56.799 92.1723 57.1648 91.8624C57.2767 91.7924 57.3737 91.7011 57.4504 91.5936C57.4855 91.5405 57.5043 91.4782 57.5043 91.4144C57.5043 91.3507 57.4855 91.2884 57.4504 91.2352" fill="#EB996E"/>
<path d="M55.0984 89.4656C55.2552 89.4656 55.216 90.496 56.0728 91.2688C56.9296 92.0416 58.0384 91.9688 58.044 92.1144C58.044 92.176 57.7864 92.3048 57.3216 92.2992C56.7134 92.2834 56.1303 92.0533 55.6752 91.6496C55.2426 91.2681 54.9739 90.7346 54.9248 90.16C54.88 89.7064 55.0256 89.4544 55.0984 89.4656Z" fill="#263238"/>
<path d="M55.0144 78.82C54.9136 79.0776 53.9616 78.9152 52.836 79.0048C51.7104 79.0944 50.7976 79.3688 50.6576 79.128C50.596 79.016 50.7584 78.7752 51.1336 78.54C51.631 78.2456 52.1918 78.0747 52.7688 78.0416C53.3418 77.9929 53.9182 78.0831 54.4488 78.3048C54.88 78.484 55.0592 78.6968 55.0144 78.82Z" fill="#263238"/>
<path d="M64.0192 77.7C63.8456 77.9128 63.196 77.6608 62.4064 77.616C61.6168 77.5712 60.9392 77.7056 60.7936 77.476C60.7264 77.364 60.844 77.1512 61.1408 76.9552C61.5427 76.718 62.0087 76.6123 62.4736 76.6528C62.937 76.6778 63.3812 76.8461 63.7448 77.1344C64.0136 77.3696 64.0976 77.5992 64.0192 77.7Z" fill="#263238"/>
<path d="M41.3168 73.9928C42.672 70.0224 48.5968 64.6128 52.752 64.988L59.36 69.1264C59.1195 70.2628 58.5762 71.3129 57.7875 72.1657C56.9988 73.0185 55.9942 73.642 54.88 73.9704C53.6872 74.3064 52.2648 74.3792 51.52 75.3816C50.7752 76.384 51.1728 77.924 50.484 78.9768C49.5264 80.444 47.0008 80.3208 46.2728 81.9112C45.9592 82.6056 46.0992 83.4456 45.7688 84.1512C45.332 85.0696 42.9688 86.1952 42 85.8704C41.0312 85.5456 41.0648 83.8936 40.768 83.02C40.386 82.0372 40.3583 80.9521 40.6896 79.9512C41.1712 77.9856 40.6728 75.8856 41.3168 73.9928Z" fill="#263238"/>
<path d="M44.8672 86.7272C44.8672 86.212 44.3072 84.9744 43.8312 84.8736C42.4816 84.6104 40.0288 84.6272 39.872 88.0768C39.6592 92.792 44.436 92.0304 44.4528 91.896C44.4696 91.7616 44.8 88.508 44.8672 86.7272Z" fill="#FFBE9D"/>
<path d="M43.12 90.048C43.12 90.048 43.036 90.0984 42.8904 90.1544C42.6946 90.2332 42.4758 90.2332 42.28 90.1544C41.7872 89.9472 41.4064 89.1352 41.4176 88.2896C41.4268 87.8833 41.5242 87.484 41.7032 87.1192C41.755 86.9742 41.8411 86.844 41.9543 86.7396C42.0674 86.6353 42.2042 86.5599 42.3528 86.52C42.4477 86.4983 42.5472 86.5112 42.6335 86.5564C42.7197 86.6016 42.787 86.676 42.8232 86.7664C42.8792 86.9008 42.8232 86.996 42.8736 87.0016C42.924 87.0072 42.9744 86.9288 42.9464 86.7328C42.9288 86.615 42.8691 86.5076 42.7784 86.4304C42.7162 86.3772 42.6441 86.3369 42.5662 86.3119C42.4884 86.2869 42.4063 86.2777 42.3248 86.2848C42.1297 86.3155 41.9456 86.3954 41.7898 86.5169C41.6341 86.6383 41.5118 86.7974 41.4344 86.9792C41.2168 87.3781 41.0996 87.824 41.0928 88.2784C41.0928 89.2304 41.524 90.1432 42.2128 90.3728C42.3376 90.4147 42.4701 90.4283 42.6009 90.4128C42.7316 90.3974 42.8573 90.3531 42.9688 90.2832C43.0752 90.16 43.12 90.0536 43.12 90.048Z" fill="#EB996E"/>
<path d="M40.32 72.8C40.32 71.3216 38.4944 70.3584 37.0552 70C35.5868 69.7478 34.0768 70.0362 32.8048 70.812C32.0488 71.2264 31.2872 71.82 31.1248 72.6656C30.9624 73.5112 31.7688 74.5192 32.5752 74.2168C32.1811 74.3457 31.8206 74.5606 31.5196 74.8459C31.2187 75.1311 30.9848 75.4796 30.835 75.8663C30.6852 76.2529 30.6231 76.668 30.6532 77.0816C30.6834 77.4951 30.805 77.8968 31.0093 78.2577C31.2136 78.6185 31.4955 78.9294 31.8347 79.168C32.1738 79.4066 32.5617 79.5669 32.9703 79.6374C33.379 79.7078 33.7981 79.6866 34.1976 79.5752C34.597 79.4639 34.9667 79.2652 35.28 78.9936C34.8709 80.3613 34.0052 81.5472 32.8272 82.3536C34.0457 82.5285 35.2888 82.3792 36.4312 81.9208C37.5737 81.4624 38.5752 80.711 39.3348 79.7424C40.0945 78.7738 40.5856 77.6221 40.7585 76.4033C40.9315 75.1846 40.7802 73.9417 40.32 72.8Z" fill="#263238"/>
<path d="M37.0384 80.2704C36.8982 79.8118 36.8376 79.3327 36.8592 78.8536C36.8404 76.524 37.6057 74.2557 39.032 72.4136C39.3013 72.0175 39.6388 71.6724 40.0288 71.3944C39.0439 72.6519 38.2582 74.0534 37.6992 75.5496C36.8312 78.0696 37.1448 80.276 37.0384 80.2704Z" fill="#F2575D"/>
<path d="M57.9824 67.704C58.4136 69.6248 61.3424 72.0832 62.6136 73.5784C65.0552 76.4288 65.5368 77.3752 65.5144 83.7536C66.668 81.5528 67.5528 79.3912 67.4632 76.9104C67.4089 74.3974 66.4368 71.9912 64.7304 70.1456C63.8766 69.2451 62.8248 68.5557 61.6585 68.132C60.4921 67.7082 59.2432 67.5617 58.0104 67.704" fill="#263238"/>
<path d="M77.98 120.165C77.98 120.165 72.8952 111.692 71.484 109.978C70.3509 108.654 68.9268 107.609 67.3232 106.926C66.6898 106.653 66.0263 106.456 65.3464 106.338L58.0328 104.72C58.0328 104.72 58.0328 109.71 52.7968 110.018C47.5608 110.326 43.1704 103.04 43.1704 103.04C43.1704 103.04 34.72 104.35 32.704 105.392C30.688 106.434 27.5072 107.75 25.76 116.48L24.5336 125.037L39.0936 126.381L40.488 148.019L47.7064 153.059C47.7064 153.059 67.7264 158.262 68.9864 158.603C70.2464 158.945 70.6664 126.392 70.6664 126.392C70.6664 126.392 75.852 123.082 77.98 120.165Z" fill="#263238"/>
<path d="M68.3928 116.525C68.5108 116.723 68.6066 116.933 68.6784 117.152C68.8408 117.561 69.0536 118.16 69.2888 118.91C70.513 122.842 71.0176 126.963 70.7784 131.074C70.7336 131.858 70.672 132.49 70.6048 132.927C70.59 133.155 70.5506 133.38 70.4872 133.599C70.4605 133.372 70.4605 133.143 70.4872 132.916C70.5152 132.479 70.5488 131.846 70.5656 131.062C70.6202 129.024 70.5266 126.984 70.2856 124.958C70.0331 122.936 69.6325 120.935 69.0872 118.972C68.88 118.216 68.6952 117.606 68.5608 117.191C68.4815 116.976 68.4252 116.752 68.3928 116.525Z" fill="#455A64"/>
<path d="M67.76 151.967L40.32 145.998L39.0544 126.398L26.8632 125.278C26.8632 125.278 27.3168 138.673 27.7816 142.638C28.4592 148.366 31.8416 156.184 33.824 157.758C35.8064 159.331 68.964 158.614 68.964 158.614L67.76 151.967Z" fill="#FFBE9D"/>
<path d="M83.3336 155.518C83.2424 155.707 83.0966 155.865 82.9149 155.971C82.7333 156.076 82.5241 156.125 82.3144 156.111C82.225 156.105 82.1366 156.088 82.0512 156.061C81.4408 155.865 81.4912 154.627 81.4912 154.627L78.5904 154.157C78.5904 154.157 74.8104 156.593 73.4664 158.206C72.1224 159.818 68.6952 158.514 68.6952 158.514L67.508 152.32L72.856 147.487C72.856 147.487 72.5312 147.773 72.9008 146.871C73.2704 145.97 74.9448 146.311 74.9448 146.311C75.208 145.863 76.3056 145.706 76.3056 145.706L80.9984 146.266C81.4752 146.322 81.9335 146.483 82.3396 146.739C82.7456 146.995 83.0892 147.339 83.3448 147.745L85.3328 150.886C85.3328 150.886 86.38 153.126 86.212 153.686C86.1372 153.911 85.9803 154.1 85.7727 154.214C85.565 154.328 85.3219 154.36 85.092 154.302C85.092 154.302 84.8624 155.792 84.4704 155.842C84.07 155.822 83.677 155.727 83.3112 155.562L83.3336 155.518Z" fill="#FFBE9D"/>
<path d="M73.36 151.071C73.36 151.122 73.9872 151.071 74.9896 151.105C76.2913 151.168 77.5782 151.409 78.8144 151.822C79.4948 152.05 80.1559 152.333 80.7912 152.667C81.3512 152.986 81.9448 153.227 82.1296 153.658C82.1713 153.748 82.1886 153.847 82.1798 153.945C82.1709 154.044 82.1362 154.138 82.0792 154.218C81.9943 154.351 81.8713 154.454 81.7264 154.515C81.5934 154.562 81.4528 154.583 81.312 154.577C81.312 154.577 81.4576 154.706 81.76 154.627C81.9426 154.577 82.1026 154.467 82.2136 154.314C82.2942 154.212 82.347 154.09 82.3666 153.962C82.3863 153.833 82.3721 153.701 82.3256 153.58C82.2063 153.311 82.0118 153.081 81.7656 152.919C81.508 152.757 81.2392 152.583 80.9424 152.421C80.2992 152.068 79.6266 151.772 78.932 151.536C77.6692 151.109 76.345 150.892 75.012 150.892C74.4553 150.864 73.8978 150.925 73.36 151.071Z" fill="#EB996E"/>
<path d="M73.024 154.062C73.024 154.151 74.9392 154.062 77.2856 154.207C79.632 154.353 81.5136 154.633 81.5304 154.543C81.1388 154.389 80.7281 154.289 80.3096 154.246C79.3144 154.078 78.3103 153.965 77.3024 153.91C76.2933 153.854 75.2819 153.854 74.2728 153.91C73.8516 153.903 73.4313 153.954 73.024 154.062Z" fill="#EB996E"/>
<path d="M83.3056 155.4C83.3469 155.237 83.3676 155.07 83.3672 154.902C83.3958 154.443 83.3958 153.983 83.3672 153.524C83.3513 153.204 83.3082 152.885 83.2384 152.572C83.154 152.205 82.9979 151.859 82.7792 151.553C82.3169 150.844 81.7194 150.233 81.0208 149.755C80.3311 149.277 79.5769 148.9 78.7808 148.635C78.1205 148.449 77.4395 148.345 76.7536 148.327C76.1936 148.327 75.712 148.327 75.3872 148.327C75.2176 148.316 75.0473 148.333 74.8832 148.378C75.4994 148.466 76.1202 148.518 76.7424 148.534C77.4072 148.579 78.0648 148.699 78.7024 148.893C79.4663 149.172 80.191 149.548 80.8584 150.013C81.519 150.476 82.0885 151.057 82.5384 151.726C82.9067 152.271 83.1179 152.907 83.1488 153.563C83.272 154.678 83.244 155.4 83.3056 155.4Z" fill="#EB996E"/>
<path d="M76.5352 146.888C76.5352 146.933 77.2352 146.955 78.3552 147.084C79.4752 147.213 81.1552 147.325 82.1464 148.814C83.1001 149.926 83.8954 151.164 84.5096 152.494C84.7129 153.065 84.8629 153.653 84.9576 154.252C84.9906 154.088 84.9906 153.918 84.9576 153.754C84.9289 153.299 84.8366 152.85 84.6832 152.421C84.1155 151.039 83.3268 149.758 82.348 148.63C82.0866 148.284 81.7817 147.973 81.4408 147.706C81.1046 147.462 80.7241 147.287 80.3208 147.19C79.6708 147.016 79.0047 146.909 78.3328 146.871C77.735 146.806 77.1316 146.811 76.5352 146.888Z" fill="#EB996E"/>
<path d="M74.48 157.209C74.5793 157.146 74.673 157.075 74.76 156.996L75.544 156.363C76.5305 155.597 77.5608 154.888 78.6296 154.241H78.5624L81.4632 154.734L81.3624 154.61C81.3532 154.849 81.372 155.088 81.4184 155.322C81.4566 155.583 81.5716 155.826 81.7488 156.022C81.8552 156.118 81.9877 156.18 82.1296 156.201C82.2647 156.226 82.4033 156.226 82.5384 156.201C82.8204 156.159 83.0775 156.016 83.2608 155.798C83.3099 155.747 83.3531 155.69 83.3896 155.63L83.4176 155.579L83.2496 155.641L83.3392 155.674C83.4624 155.725 83.5856 155.77 83.7144 155.809C83.8432 155.848 83.972 155.882 84.112 155.91C84.1847 155.916 84.2577 155.916 84.3304 155.91C84.4228 155.915 84.5152 155.898 84.5992 155.859C84.7266 155.759 84.8236 155.625 84.8792 155.473C84.9384 155.344 84.9871 155.212 85.0248 155.075C85.1036 154.805 85.1653 154.53 85.2096 154.252L85.0416 154.37C85.2384 154.411 85.4425 154.398 85.6327 154.333C85.8228 154.268 85.992 154.153 86.1224 154C86.2519 153.842 86.323 153.644 86.324 153.44C86.3084 153.251 86.2746 153.063 86.2232 152.88C86.0033 152.167 85.7358 151.469 85.4224 150.791L84.364 149.111L83.692 148.053C83.4878 147.682 83.2417 147.337 82.9584 147.022C82.6583 146.72 82.3002 146.482 81.9056 146.322C81.5211 146.18 81.1169 146.096 80.7072 146.076L76.2888 145.578H76.2552C75.9894 145.62 75.7286 145.69 75.4768 145.785C75.2081 145.865 74.9724 146.03 74.8048 146.255L74.9672 146.205C74.7284 146.094 74.4662 146.044 74.2036 146.059C73.9409 146.074 73.6859 146.153 73.4608 146.289C73.0689 146.574 72.8022 146.999 72.716 147.476L72.7496 147.414L69.0648 150.73L68.0736 151.642C67.9515 151.742 67.8406 151.855 67.7432 151.978C67.8746 151.892 67.9983 151.795 68.1128 151.687L69.1488 150.819L72.8952 147.582H72.9232V147.543C73.0033 147.128 73.2373 146.758 73.5784 146.507C73.771 146.398 73.9868 146.337 74.2079 146.328C74.429 146.319 74.649 146.363 74.8496 146.457L74.9504 146.496L75.012 146.406C75.1581 146.233 75.3534 146.108 75.572 146.048C75.8062 145.963 76.0481 145.901 76.2944 145.863H76.2552L80.6736 146.384C81.0565 146.407 81.434 146.486 81.7936 146.619C82.1511 146.762 82.4752 146.978 82.7456 147.252C83.013 147.552 83.2459 147.88 83.44 148.232L84.112 149.296C84.476 149.856 84.8344 150.416 85.1704 150.976C85.482 151.636 85.7459 152.317 85.96 153.014C86.0095 153.177 86.0415 153.344 86.0552 153.513C86.0582 153.658 86.0085 153.799 85.9152 153.91C85.82 154.022 85.6961 154.105 85.557 154.152C85.4179 154.198 85.2687 154.206 85.1256 154.174H84.9744V154.314C84.9317 154.58 84.8737 154.844 84.8008 155.103C84.7533 155.334 84.6494 155.55 84.4984 155.73C84.4595 155.737 84.4198 155.737 84.3808 155.73H84.2016C84.084 155.73 83.9608 155.674 83.8376 155.641L83.4792 155.518L83.3952 155.484L83.2216 155.546V155.579C83.1945 155.627 83.1626 155.672 83.1264 155.714C82.9841 155.884 82.7853 155.997 82.5664 156.033C82.4612 156.055 82.3524 156.055 82.2472 156.033C82.1484 156.023 82.0547 155.984 81.9784 155.921C81.7327 155.566 81.6215 155.135 81.6648 154.706V154.599H81.564L78.652 154.146H78.6184H78.5904C77.5251 154.812 76.5055 155.549 75.5384 156.352C75.2024 156.638 74.9504 156.867 74.7824 157.024C74.6753 157.075 74.5739 157.137 74.48 157.209Z" fill="#EB996E"/>
<path d="M118.899 137.502L82.796 137.799C81.62 137.799 80.5056 138.359 80.3264 139.518L76.4064 165.838H57.7808C57.5069 165.858 57.2506 165.981 57.0635 166.182C56.8764 166.383 56.7723 166.647 56.7723 166.922C56.7723 167.197 56.8764 167.461 57.0635 167.662C57.2506 167.863 57.5069 167.986 57.7808 168.006H117.186L121.246 140.23C121.296 139.892 121.274 139.547 121.179 139.219C121.084 138.891 120.92 138.587 120.697 138.328C120.475 138.069 120.199 137.862 119.888 137.719C119.578 137.577 119.241 137.503 118.899 137.502Z" fill="#E0E0E0"/>
<path d="M118.899 137.502C119.088 137.495 119.276 137.513 119.459 137.558C119.94 137.672 120.373 137.932 120.7 138.302C121.027 138.672 121.231 139.134 121.285 139.625C121.299 140.123 121.253 140.621 121.15 141.109L120.63 144.777C119.834 150.293 118.692 158.245 117.27 168.022V168.118H117.174L59.5448 168.151H57.9936C57.7117 168.178 57.428 168.124 57.176 167.994C56.9833 167.889 56.8225 167.733 56.7105 167.544C56.5986 167.355 56.5395 167.139 56.5395 166.919C56.5395 166.699 56.5986 166.484 56.7105 166.294C56.8225 166.105 56.9833 165.95 57.176 165.844C57.4288 165.718 57.7122 165.665 57.9936 165.693H76.384L76.244 165.816C77.6608 156.391 78.988 147.599 80.164 139.709C80.2028 139.182 80.4435 138.69 80.836 138.337C81.2278 138.006 81.7057 137.795 82.2136 137.726C82.6974 137.679 83.1837 137.663 83.6696 137.676H85.0864L90.524 137.642L100.184 137.581L113.938 137.508H118.888C118.888 137.508 118.782 137.508 118.569 137.508H117.617L113.938 137.558L100.184 137.71L90.524 137.81L85.0864 137.861H83.6696C83.1967 137.852 82.7238 137.869 82.2528 137.911C81.7876 137.973 81.3501 138.167 80.9928 138.471C80.8186 138.628 80.6769 138.817 80.576 139.029C80.4751 139.24 80.4169 139.469 80.4048 139.703C79.2288 147.594 77.9184 156.386 76.4848 165.81V165.934H58.0048C57.7746 165.904 57.541 165.943 57.3328 166.046C57.1433 166.154 56.997 166.325 56.9185 166.529C56.8399 166.733 56.834 166.958 56.9016 167.166C56.9816 167.376 57.132 167.552 57.3272 167.664C57.5376 167.766 57.7724 167.807 58.0048 167.782H59.556L117.186 167.815L117.074 167.91C118.524 158.138 119.7 150.192 120.518 144.676C120.725 143.304 120.91 142.078 121.078 141.019C121.182 140.539 121.232 140.049 121.229 139.558C121.182 139.078 120.988 138.625 120.675 138.259C120.361 137.893 119.943 137.633 119.476 137.514C119.284 137.5 119.092 137.496 118.899 137.502Z" fill="#263238"/>
<path d="M99.316 154.683C100.566 154.683 101.578 153.67 101.578 152.421C101.578 151.171 100.566 150.158 99.316 150.158C98.0665 150.158 97.0536 151.171 97.0536 152.421C97.0536 153.67 98.0665 154.683 99.316 154.683Z" fill="white"/>
<path d="M77.84 167.759C77.8904 167.759 79.0384 161.067 80.4048 152.796C81.7712 144.525 82.8408 137.805 82.7904 137.799C82.74 137.794 81.5864 144.491 80.22 152.762C78.8536 161.034 77.7952 167.754 77.84 167.759Z" fill="#263238"/>
</svg>
