<svg width="21" height="20" viewBox="0 0 21 20" fill="none" xmlns="http://www.w3.org/2000/svg">
<g clip-path="url(#clip0)">
<path d="M19.5909 8.96851H6.88342C6.44684 8.96851 6.0929 8.61461 6.0929 8.17799V6.42505C6.0929 5.98847 6.4468 5.63452 6.88342 5.63452H19.5909C20.0275 5.63452 20.3815 5.98843 20.3815 6.42505V8.17799C20.3814 8.61457 20.0275 8.96851 19.5909 8.96851Z" fill="#44C4A1"/>
<path d="M2.52371 5.39648C2.39217 5.39648 2.26379 5.40982 2.13976 5.43518C2.07772 5.44789 2.01687 5.46359 1.95719 5.48211C1.83789 5.51925 1.72361 5.56774 1.61561 5.6264C1.45364 5.71439 1.30585 5.82517 1.17659 5.95448C1.04732 6.08379 0.936498 6.23153 0.848507 6.39351C0.819177 6.44748 0.792379 6.50306 0.768282 6.56003C0.720087 6.67398 0.682654 6.79362 0.65729 6.91765C0.631927 7.04169 0.618591 7.17006 0.618591 7.30161C0.618591 7.43315 0.631927 7.56153 0.65729 7.68556C0.679278 7.79296 0.7119 7.89628 0.751148 7.99625C0.779887 8.06943 0.811327 8.14126 0.84855 8.20971C0.909869 8.3226 0.982836 8.4281 1.06483 8.52576C1.21815 8.70828 1.4046 8.86215 1.61561 8.97681C1.68406 9.01399 1.75585 9.04548 1.82907 9.07422C1.92905 9.11342 2.03236 9.14609 2.13976 9.16807C2.26379 9.19344 2.39217 9.20677 2.52371 9.20677C3.57589 9.20677 4.42883 8.35383 4.42883 7.30165C4.42883 6.24943 3.57589 5.39648 2.52371 5.39648Z" fill="#44C4A1"/>
<path d="M2.52371 14.6035C3.57588 14.6035 4.42883 13.7505 4.42883 12.6983C4.42883 11.6462 3.57588 10.7932 2.52371 10.7932C1.47154 10.7932 0.618591 11.6462 0.618591 12.6983C0.618591 13.7505 1.47154 14.6035 2.52371 14.6035Z" fill="#E56353"/>
<path d="M19.5909 14.3655H6.88342C6.44684 14.3655 6.0929 14.0116 6.0929 13.575V11.822C6.0929 11.3854 6.4468 11.0315 6.88342 11.0315H19.5909C20.0275 11.0315 20.3815 11.3854 20.3815 11.822V13.575C20.3814 14.0115 20.0275 14.3655 19.5909 14.3655Z" fill="#E56353"/>
<path d="M2.52371 20.0002C3.57588 20.0002 4.42883 19.1472 4.42883 18.0951C4.42883 17.0429 3.57588 16.1899 2.52371 16.1899C1.47154 16.1899 0.618591 17.0429 0.618591 18.0951C0.618591 19.1472 1.47154 20.0002 2.52371 20.0002Z" fill="#27A2DB"/>
<path d="M19.5909 19.7627H6.88342C6.44684 19.7627 6.0929 19.4088 6.0929 18.9722V17.2192C6.0929 16.7827 6.4468 16.4287 6.88342 16.4287H19.5909C20.0275 16.4287 20.3815 16.7826 20.3815 17.2192V18.9722C20.3814 19.4088 20.0275 19.7627 19.5909 19.7627Z" fill="#27A2DB"/>
<path d="M2.52371 3.81024C3.57588 3.81024 4.42883 2.95729 4.42883 1.90512C4.42883 0.852952 3.57588 0 2.52371 0C1.47154 0 0.618591 0.852952 0.618591 1.90512C0.618591 2.95729 1.47154 3.81024 2.52371 3.81024Z" fill="#FCD462"/>
<path d="M19.5909 3.57154H6.88342C6.44684 3.57154 6.0929 3.21764 6.0929 2.78102V1.02808C6.0929 0.591496 6.4468 0.237549 6.88342 0.237549H19.5909C20.0275 0.237549 20.3815 0.591454 20.3815 1.02808V2.78102C20.3814 3.2176 20.0275 3.57154 19.5909 3.57154Z" fill="#FCD462"/>
</g>
<defs>
<clipPath id="clip0">
<rect width="20" height="20" fill="white" transform="translate(0.5)"/>
</clipPath>
</defs>
</svg>
