<svg width="25" height="24" viewBox="0 0 25 24" fill="none" xmlns="http://www.w3.org/2000/svg">
<path d="M23.1294 16.1119C22.8019 17.094 22.8019 18.156 23.1294 19.1381C23.2921 19.6262 23.375 20.1373 23.375 20.6517V21.5494C23.375 21.8116 23.2972 22.0678 23.1515 22.2858C23.0059 22.5038 22.7988 22.6737 22.5566 22.7741C22.3144 22.8744 22.0478 22.9007 21.7907 22.8496C21.5335 22.7985 21.2973 22.6722 21.1119 22.4869L20.75 22.125L20.5302 22.3448C20.1906 22.6843 19.7301 22.875 19.25 22.875C18.7699 22.875 18.3094 22.6843 17.9698 22.3448L17.75 22.125L17.3881 22.4869C17.2027 22.6722 16.9665 22.7985 16.7093 22.8496C16.4522 22.9007 16.1856 22.8744 15.9434 22.7741C15.7012 22.6737 15.4941 22.5038 15.3485 22.2858C15.2028 22.0678 15.125 21.8116 15.125 21.5494V20.6517C15.1251 20.1373 15.208 19.6262 15.3706 19.1381C15.6981 18.156 15.6981 17.094 15.3706 16.1119C15.2106 15.6324 15.1279 15.1305 15.1255 14.625C15.125 14.6161 15.125 14.6072 15.125 14.5983V9.375C15.125 8.89941 15.2187 8.42848 15.4007 7.9891C15.5827 7.54972 15.8495 7.1505 16.1858 6.81422L16.6892 6.31078C17.2764 5.72294 17.6439 4.95133 17.7303 4.125C17.7435 4.00043 17.75 3.87526 17.75 3.75V3H20.75V3.75C20.75 3.87526 20.7565 4.00043 20.7697 4.125C20.8561 4.95133 21.2236 5.72294 21.8108 6.31078L22.3142 6.81422C22.9934 7.49339 23.3749 8.41452 23.375 9.375V14.5983C23.375 14.6072 23.375 14.6161 23.3745 14.625C23.3736 14.873 23.3531 15.1204 23.3131 15.3652C23.2721 15.6186 23.2106 15.8683 23.1294 16.1119Z" fill="#EBEBE9"/>
<path d="M23.1294 16.1119C22.8019 17.094 22.8019 18.156 23.1294 19.1381C23.2921 19.6262 23.375 20.1373 23.375 20.6517V21.5494C23.375 21.8116 23.2972 22.0678 23.1515 22.2858C23.0059 22.5038 22.7988 22.6737 22.5566 22.7741C22.3144 22.8744 22.0478 22.9007 21.7907 22.8496C21.5335 22.7985 21.2973 22.6722 21.1119 22.4869L20.75 22.125L20.5302 22.3448C20.1906 22.6843 19.7301 22.875 19.25 22.875C18.7699 22.875 18.3094 22.6843 17.9698 22.3448L17.75 22.125L17.3881 22.4869C17.2027 22.6722 16.9665 22.7985 16.7093 22.8496C16.4522 22.9007 16.1856 22.8744 15.9434 22.7741C15.7012 22.6737 15.4941 22.5038 15.3485 22.2858C15.2028 22.0678 15.125 21.8116 15.125 21.5494V20.6517C15.1251 20.1373 15.208 19.6262 15.3706 19.1381C15.6977 18.1559 15.6977 17.0941 15.3706 16.1119C15.2106 15.6324 15.1279 15.1305 15.1255 14.625H15.125V9.375C15.125 8.89941 15.2187 8.42849 15.4007 7.9891C15.5827 7.54972 15.8495 7.1505 16.1858 6.81422L16.6892 6.31078C16.996 6.00423 17.245 5.64489 17.4242 5.25H21.0758C21.255 5.64489 21.504 6.00423 21.8108 6.31078L22.3142 6.81422C22.8908 7.39058 23.2558 8.14476 23.3502 8.95453C23.3667 9.09408 23.375 9.23448 23.375 9.375V14.625H23.3745C23.3736 14.873 23.3531 15.1204 23.3131 15.3652C23.2721 15.6186 23.2106 15.8683 23.1294 16.1119Z" fill="#7EB457"/>
<path d="M23.1294 16.1117C22.8019 17.0939 22.8019 18.1558 23.1294 19.1379C23.2921 19.626 23.375 20.1371 23.375 20.6515V21.5492C23.375 21.8114 23.2972 22.0677 23.1515 22.2857C23.0059 22.5036 22.7988 22.6736 22.5566 22.7739C22.3144 22.8742 22.0478 22.9005 21.7907 22.8494C21.5335 22.7983 21.2973 22.672 21.1119 22.4867L20.75 22.1248L20.5302 22.3447C20.1906 22.6841 19.7301 22.8748 19.25 22.8748C18.7699 22.8748 18.3094 22.6841 17.9698 22.3447L17.75 22.1248L17.3881 22.4867C17.2027 22.672 16.9665 22.7983 16.7093 22.8494C16.4522 22.9005 16.1856 22.8742 15.9434 22.7739C15.7012 22.6736 15.4941 22.5036 15.3485 22.2857C15.2028 22.0677 15.125 21.8114 15.125 21.5492V20.6515C15.1251 20.1371 15.208 19.626 15.3706 19.1379C15.6021 18.4444 15.6712 17.7071 15.5727 16.9826C18.5375 15.2487 21.2347 12.6603 23.3502 8.95435C23.3667 9.09389 23.375 9.23429 23.375 9.37481V14.6248H23.3745C23.3736 14.8728 23.3531 15.1203 23.3131 15.365C23.2721 15.6184 23.2106 15.8681 23.1294 16.1117Z" fill="#79AD54"/>
<path d="M15.125 9.375H23.375V14.625H15.125V9.375Z" fill="#D0D24B"/>
<path d="M23.375 9.375V14.625H18.8155C20.3971 13.2159 21.8474 11.4834 23.1055 9.375H23.375Z" fill="#C7C934"/>
<path d="M16.25 10.5H17V11.25H16.25V10.5Z" fill="#DEE051"/>
<path d="M16.25 12H17V13.5H16.25V12Z" fill="#DEE051"/>
<path d="M20.7698 4.125H17.7304C17.7436 4.00043 17.7502 3.87526 17.7501 3.75V3H20.7501V3.75C20.7501 3.87526 20.7567 4.00043 20.7698 4.125Z" fill="#E0E0DE"/>
<path d="M18.125 1.125H20.375C20.4745 1.125 20.5698 1.16451 20.6402 1.23483C20.7105 1.30516 20.75 1.40054 20.75 1.5V3H17.75V1.5C17.75 1.40054 17.7895 1.30516 17.8598 1.23483C17.9302 1.16451 18.0255 1.125 18.125 1.125Z" fill="#7EB457"/>
<path d="M17.375 2.625H21.125V3.375H17.375V2.625Z" fill="#EBEBE9"/>
<path d="M9.62937 16.1119C9.30187 17.094 9.30187 18.156 9.62937 19.1381C9.79207 19.6262 9.87501 20.1373 9.875 20.6517V21.5494C9.87497 21.8116 9.7972 22.0678 9.65152 22.2858C9.50585 22.5038 9.29882 22.6737 9.05659 22.7741C8.81437 22.8744 8.54783 22.9007 8.29068 22.8496C8.03353 22.7985 7.7973 22.6722 7.61188 22.4869L7.25 22.125L7.03016 22.3448C6.69061 22.6843 6.23013 22.875 5.75 22.875C5.26987 22.875 4.80939 22.6843 4.46984 22.3448L4.25 22.125L3.88812 22.4869C3.7027 22.6722 3.46647 22.7985 3.20932 22.8496C2.95217 22.9007 2.68563 22.8744 2.44341 22.7741C2.20118 22.6737 1.99415 22.5038 1.84848 22.2858C1.7028 22.0678 1.62503 21.8116 1.625 21.5494V20.6517C1.62505 20.1373 1.70799 19.6262 1.87062 19.1381C2.03322 18.6502 2.11616 18.1393 2.11625 17.625C2.11616 17.1107 2.03322 16.5998 1.87062 16.1119C1.71065 15.6324 1.6279 15.1305 1.62547 14.625C1.625 14.6161 1.625 14.6072 1.625 14.5983V9.375C1.62501 8.89941 1.71869 8.42848 1.9007 7.9891C2.08271 7.54972 2.34948 7.1505 2.68578 6.81422L3.18922 6.31078C3.49598 6.00423 3.74496 5.64489 3.92422 5.25C4.08672 4.89413 4.19011 4.51415 4.23031 4.125C4.24346 4.00043 4.25004 3.87526 4.25 3.75V3H7.25V3.75C7.24996 3.87526 7.25654 4.00043 7.26969 4.125C7.35613 4.95133 7.72364 5.72294 8.31078 6.31078L8.81422 6.81422C9.49337 7.49339 9.87494 8.41452 9.875 9.375V14.5983C9.875 14.6072 9.875 14.6161 9.87453 14.625C9.87359 14.873 9.85306 15.1204 9.81312 15.3652C9.77207 15.6186 9.71062 15.8683 9.62937 16.1119Z" fill="#EBEBE9"/>
<path d="M9.62937 16.1119C9.30187 17.094 9.30187 18.156 9.62937 19.1381C9.79207 19.6262 9.87501 20.1373 9.875 20.6517V21.5494C9.87497 21.8116 9.7972 22.0678 9.65152 22.2858C9.50585 22.5038 9.29882 22.6737 9.05659 22.7741C8.81437 22.8744 8.54783 22.9007 8.29068 22.8496C8.03353 22.7985 7.7973 22.6722 7.61188 22.4869L7.25 22.125L7.03016 22.3448C6.69061 22.6843 6.23013 22.875 5.75 22.875C5.26987 22.875 4.80939 22.6843 4.46984 22.3448L4.25 22.125L3.88812 22.4869C3.7027 22.6722 3.46647 22.7985 3.20932 22.8496C2.95217 22.9007 2.68563 22.8744 2.44341 22.7741C2.20118 22.6737 1.99415 22.5038 1.84848 22.2858C1.7028 22.0678 1.62503 21.8116 1.625 21.5494V20.6517C1.62505 20.1373 1.70799 19.6262 1.87062 19.1381C2.03322 18.6502 2.11616 18.1393 2.11625 17.625C2.11625 17.4102 2.10168 17.1956 2.07266 16.9828C2.03251 16.6869 1.96488 16.3953 1.87062 16.1119C1.71065 15.6324 1.6279 15.1305 1.62547 14.625H1.625V9.375C1.62501 8.89941 1.71869 8.42849 1.9007 7.9891C2.08271 7.54972 2.34948 7.1505 2.68578 6.81422L3.18922 6.31078C3.49598 6.00423 3.74496 5.64489 3.92422 5.25H7.57578C7.75504 5.64489 8.00402 6.00423 8.31078 6.31078L8.81422 6.81422C9.39079 7.39058 9.75582 8.14476 9.85016 8.95453C9.86667 9.09408 9.87497 9.23448 9.875 9.375V14.625H9.87453C9.87359 14.873 9.85306 15.1204 9.81312 15.3652C9.77207 15.6186 9.71062 15.8683 9.62937 16.1119Z" fill="#FA6D00"/>
<path d="M9.62937 16.1117C9.30187 17.0939 9.30187 18.1558 9.62937 19.1379C9.79207 19.626 9.87501 20.1371 9.875 20.6515V21.5492C9.87497 21.8114 9.7972 22.0677 9.65152 22.2857C9.50585 22.5036 9.29882 22.6736 9.05659 22.7739C8.81437 22.8742 8.54783 22.9005 8.29068 22.8494C8.03353 22.7983 7.7973 22.672 7.61188 22.4867L7.25 22.1248L7.03016 22.3447C6.69061 22.6841 6.23013 22.8748 5.75 22.8748C5.26987 22.8748 4.80939 22.6841 4.46984 22.3447L4.25 22.1248L3.88812 22.4867C3.7027 22.672 3.46647 22.7983 3.20932 22.8494C2.95217 22.9005 2.68563 22.8742 2.44341 22.7739C2.20118 22.6736 1.99415 22.5036 1.84848 22.2857C1.7028 22.0677 1.62503 21.8114 1.625 21.5492V20.6515C1.62505 20.1371 1.70799 19.626 1.87062 19.1379C2.03322 18.65 2.11616 18.1391 2.11625 17.6248C2.11625 17.41 2.10168 17.1955 2.07266 16.9826C5.0375 15.2487 7.73469 12.6603 9.85016 8.95435C9.86667 9.09389 9.87497 9.23429 9.875 9.37481V14.6248H9.87453C9.87359 14.8728 9.85306 15.1203 9.81312 15.365C9.77207 15.6184 9.71062 15.8681 9.62937 16.1117Z" fill="#F86400"/>
<path d="M1.625 9.375H9.875V14.625H1.625V9.375Z" fill="#F98500"/>
<path d="M9.87503 9.375V14.625H5.31549C6.89706 13.2159 8.34737 11.4834 9.6055 9.375H9.87503Z" fill="#F77C00"/>
<path d="M7.26972 4.125H4.23035C4.2435 4.00043 4.25007 3.87526 4.25003 3.75V3H7.25003V3.75C7.25 3.87526 7.25657 4.00043 7.26972 4.125Z" fill="#E0E0DE"/>
<path d="M4.625 1.125H6.875C6.97446 1.125 7.06984 1.16451 7.14017 1.23483C7.21049 1.30516 7.25 1.40054 7.25 1.5V3H4.25V1.5C4.25 1.40054 4.28951 1.30516 4.35984 1.23483C4.43016 1.16451 4.52554 1.125 4.625 1.125Z" fill="#FA6D00"/>
<path d="M3.875 2.625H7.625V3.375H3.875V2.625Z" fill="#EBEBE9"/>
<path d="M16.3794 16.1119C16.0519 17.094 16.0519 18.156 16.3794 19.1381C16.5421 19.6262 16.625 20.1373 16.625 20.6517V21.5494C16.625 21.8116 16.5472 22.0678 16.4015 22.2858C16.2559 22.5038 16.0488 22.6737 15.8066 22.7741C15.5644 22.8744 15.2978 22.9007 15.0407 22.8496C14.7835 22.7985 14.5473 22.6722 14.3619 22.4869L14 22.125L13.7802 22.3448C13.4406 22.6843 12.9801 22.875 12.5 22.875C12.0199 22.875 11.5594 22.6843 11.2198 22.3448L11 22.125L10.6381 22.4869C10.4527 22.6722 10.2165 22.7985 9.95932 22.8496C9.70217 22.9007 9.43563 22.8744 9.19341 22.7741C8.95118 22.6737 8.74415 22.5038 8.59848 22.2858C8.4528 22.0678 8.37503 21.8116 8.375 21.5494V20.6517C8.37505 20.1373 8.45799 19.6262 8.62063 19.1381C8.94813 18.156 8.94813 17.094 8.62063 16.1119C8.46065 15.6324 8.3779 15.1305 8.37547 14.625C8.375 14.6161 8.375 14.6072 8.375 14.5983V9.375C8.37501 8.89941 8.46869 8.42848 8.6507 7.9891C8.83271 7.54972 9.09948 7.1505 9.43578 6.81422L9.93922 6.31078C10.5264 5.72294 10.8939 4.95133 10.9803 4.125C10.9935 4.00043 11 3.87526 11 3.75V3H14V3.75C14 3.87526 14.0065 4.00043 14.0197 4.125C14.1061 4.95133 14.4736 5.72294 15.0608 6.31078L15.5642 6.81422C16.2434 7.49339 16.6249 8.41452 16.625 9.375V14.5983C16.625 14.6072 16.625 14.6161 16.6245 14.625C16.6236 14.873 16.6031 15.1204 16.5631 15.3652C16.5221 15.6186 16.4606 15.8683 16.3794 16.1119Z" fill="#EBEBE9"/>
<path d="M16.3794 16.1119C16.0519 17.094 16.0519 18.156 16.3794 19.1381C16.5421 19.6262 16.625 20.1373 16.625 20.6517V21.5494C16.625 21.8116 16.5472 22.0678 16.4015 22.2858C16.2559 22.5038 16.0488 22.6737 15.8066 22.7741C15.5644 22.8744 15.2978 22.9007 15.0407 22.8496C14.7835 22.7985 14.5473 22.6722 14.3619 22.4869L14 22.125L13.7802 22.3448C13.4406 22.6843 12.9801 22.875 12.5 22.875C12.0199 22.875 11.5594 22.6843 11.2198 22.3448L11 22.125L10.6381 22.4869C10.4527 22.6722 10.2165 22.7985 9.95932 22.8496C9.70217 22.9007 9.43563 22.8744 9.19341 22.7741C8.95118 22.6737 8.74415 22.5038 8.59848 22.2858C8.4528 22.0678 8.37503 21.8116 8.375 21.5494V20.6517C8.37505 20.1373 8.45799 19.6262 8.62063 19.1381C8.94766 18.1559 8.94766 17.0941 8.62063 16.1119C8.46065 15.6324 8.3779 15.1305 8.37547 14.625H8.375V9.375C8.37501 8.89941 8.46869 8.42849 8.6507 7.9891C8.83271 7.54972 9.09948 7.1505 9.43578 6.81422L9.93922 6.31078C10.246 6.00423 10.495 5.64489 10.6742 5.25H14.3258C14.505 5.64489 14.754 6.00423 15.0608 6.31078L15.5642 6.81422C16.1408 7.39058 16.5058 8.14476 16.6002 8.95453C16.6167 9.09408 16.625 9.23448 16.625 9.375V14.625H16.6245C16.6236 14.873 16.6031 15.1204 16.5631 15.3652C16.5221 15.6186 16.4606 15.8683 16.3794 16.1119Z" fill="#693924"/>
<path d="M16.3794 16.1117C16.0519 17.0939 16.0519 18.1558 16.3794 19.1379C16.5421 19.626 16.625 20.1371 16.625 20.6515V21.5492C16.625 21.8114 16.5472 22.0677 16.4015 22.2857C16.2559 22.5036 16.0488 22.6736 15.8066 22.7739C15.5644 22.8742 15.2978 22.9005 15.0407 22.8494C14.7835 22.7983 14.5473 22.672 14.3619 22.4867L14 22.1248L13.7802 22.3447C13.4406 22.6841 12.9801 22.8748 12.5 22.8748C12.0199 22.8748 11.5594 22.6841 11.2198 22.3447L11 22.1248L10.6381 22.4867C10.4527 22.672 10.2165 22.7983 9.95932 22.8494C9.70217 22.9005 9.43563 22.8742 9.19341 22.7739C8.95118 22.6736 8.74415 22.5036 8.59848 22.2857C8.4528 22.0677 8.37503 21.8114 8.375 21.5492V20.6515C8.37505 20.1371 8.45799 19.626 8.62063 19.1379C8.85211 18.4444 8.92123 17.7071 8.82266 16.9826C11.7875 15.2487 14.4847 12.6603 16.6002 8.95435C16.6167 9.09389 16.625 9.23429 16.625 9.37481V14.6248H16.6245C16.6236 14.8728 16.6031 15.1203 16.5631 15.365C16.5221 15.6184 16.4606 15.8681 16.3794 16.1117Z" fill="#5C2E1A"/>
<path d="M8.375 9.375H16.625V14.625H8.375V9.375Z" fill="#F35244"/>
<path d="M16.625 9.375V14.625H12.0655C13.647 13.2159 15.0974 11.4834 16.3555 9.375H16.625Z" fill="#E64C3F"/>
<path d="M14.0197 4.125H10.9803C10.9935 4.00043 11.0001 3.87526 11 3.75V3H14V3.75C14 3.87526 14.0066 4.00043 14.0197 4.125Z" fill="#E0E0DE"/>
<path d="M11.375 1.125H13.625C13.7245 1.125 13.8198 1.16451 13.8902 1.23483C13.9605 1.30516 14 1.40054 14 1.5V3H11V1.5C11 1.40054 11.0395 1.30516 11.1098 1.23483C11.1802 1.16451 11.2755 1.125 11.375 1.125Z" fill="#F35244"/>
<path d="M10.625 2.625H14.375V3.375H10.625V2.625Z" fill="#EBEBE9"/>
<path d="M20.375 11.625V14.3752C20.3751 15.2793 20.1645 16.171 19.76 16.9795C19.4235 17.6537 19.2206 18.3865 19.1624 19.1377L18.875 22.875H14.375L14.0877 19.1377C14.0296 18.3865 13.8266 17.6536 13.49 16.9795C13.0852 16.1711 12.8746 15.2793 12.875 14.3752V11.625H20.375Z" fill="#EBEBE9"/>
<path d="M20.375 13.5V14.3752C20.375 14.5434 20.3675 14.7112 20.3535 14.8781C20.2899 15.6097 20.0886 16.3228 19.76 16.9795C19.4235 17.6537 19.2206 18.3865 19.1624 19.1377L18.875 22.875H14.375L14.2273 20.955L14.0877 19.1377C14.0296 18.3865 13.8266 17.6536 13.49 16.9795C13.0852 16.1711 12.8746 15.2793 12.875 14.3752V13.5H20.375Z" fill="#F98500"/>
<path d="M20.3534 14.8777C20.2899 15.6093 20.0886 16.3223 19.76 16.9791C19.4235 17.6532 19.2206 18.386 19.1624 19.1372L18.875 22.8746H14.375L14.2274 20.9546C16.4445 19.5211 18.5286 17.5378 20.3534 14.8777Z" fill="#F77C00"/>
<path d="M23.446 7.8458C23.2455 7.36065 22.951 6.91994 22.5795 6.54905L22.0761 6.04561C21.4678 5.43642 21.1258 4.6109 21.1251 3.75V3.375H21.5001V2.625H21.1251V1.5C21.1249 1.30116 21.0458 1.11053 20.9052 0.96993C20.7646 0.829329 20.574 0.750236 20.3751 0.75H18.1251C17.9263 0.750236 17.7356 0.829329 17.595 0.96993C17.4544 1.11053 17.3754 1.30116 17.3751 1.5V2.625H17.0001V3.375H17.3751V3.75C17.3745 4.61091 17.0325 5.43643 16.4242 6.04561L16.9545 6.57595C17.7035 5.82612 18.1245 4.80982 18.1251 3.75V3.375H20.3751V3.75C20.3758 4.80982 20.7968 5.82611 21.5457 6.57595L22.0492 7.07939C22.5667 7.59636 22.894 8.27331 22.9777 9H17.7501V9.75H23.0001V14.25H21.5001V15H22.9814C22.972 15.1021 22.9597 15.204 22.9433 15.3047C22.9054 15.5384 22.8487 15.7686 22.7739 15.9932C22.4207 17.0523 22.4207 18.1974 22.7739 19.2566C22.9239 19.7064 23.0003 20.1775 23.0001 20.6517V21.5494C23.0001 21.7374 22.9443 21.9212 22.8399 22.0775C22.7354 22.2338 22.5869 22.3557 22.4132 22.4276C22.2395 22.4996 22.0484 22.5184 21.864 22.4818C21.6795 22.4451 21.5101 22.3546 21.3772 22.2217L21.0153 21.8598C20.9805 21.825 20.9391 21.7974 20.8936 21.7785C20.8481 21.7597 20.7994 21.75 20.7501 21.75C20.7009 21.75 20.6521 21.7597 20.6066 21.7785C20.5611 21.7974 20.5198 21.825 20.485 21.8598L20.2651 22.0797C20.2211 22.1237 20.1743 22.1648 20.125 22.2027L20.582 22.7974C20.6402 22.7526 20.696 22.705 20.7494 22.6547L20.8468 22.752C21.0846 22.9899 21.3877 23.1519 21.7176 23.2176C22.0475 23.2832 22.3895 23.2495 22.7003 23.1208C23.0111 22.9921 23.2767 22.7741 23.4636 22.4943C23.6505 22.2146 23.7502 21.8858 23.7501 21.5494V20.6517C23.7503 20.097 23.6609 19.5459 23.4853 19.0197C23.1835 18.1146 23.1835 17.136 23.4853 16.2309C23.5728 15.9682 23.6391 15.6989 23.6835 15.4256C23.726 15.1647 23.7481 14.9008 23.7497 14.6365C23.7497 14.6326 23.7503 14.6289 23.7503 14.625V9.375C23.7506 8.85019 23.6472 8.33048 23.446 7.8458ZM18.1251 2.625V1.5H20.3751V2.625H18.1251Z" fill="black"/>
<path d="M6.76498 22.0797C6.49577 22.3488 6.1307 22.5 5.75004 22.5C5.3696 22.4989 5.00491 22.3479 4.73511 22.0797L4.51522 21.8598C4.48039 21.825 4.43905 21.7974 4.39356 21.7785C4.34806 21.7597 4.29929 21.75 4.25004 21.75C4.2008 21.75 4.15203 21.7597 4.10653 21.7785C4.06104 21.7974 4.0197 21.825 3.98487 21.8598L3.623 22.2217C3.49003 22.3546 3.32063 22.4451 3.13621 22.4818C2.9518 22.5184 2.76066 22.4996 2.58695 22.4276C2.41325 22.3557 2.26477 22.2338 2.16031 22.0775C2.05584 21.9212 2.00007 21.7374 2.00005 21.5494V20.6517C2.0001 20.1775 2.07655 19.7065 2.22645 19.2566C2.40192 18.7305 2.49135 18.1796 2.4913 17.625C2.49134 17.0704 2.40191 16.5194 2.22645 15.9932C2.11909 15.6713 2.04941 15.338 2.0188 15H7.25004V14.25H2.00005V9.75H7.25004V9H2.02222C2.1047 8.27289 2.43226 7.59553 2.951 7.07939L3.45444 6.57595C3.73462 6.29577 3.97131 5.97524 4.15662 5.625H7.34351C7.52881 5.97524 7.76548 6.29577 8.04565 6.57595L8.576 6.04561C7.96769 5.43642 7.62572 4.6109 7.62504 3.75V3.375H8.00004V2.625H7.62504V1.5C7.62481 1.30116 7.54572 1.11053 7.40511 0.96993C7.26451 0.829329 7.07388 0.750236 6.87504 0.75H4.62504C4.4262 0.750236 4.23558 0.829329 4.09498 0.96993C3.95437 1.11053 3.87528 1.30116 3.87505 1.5V2.625H3.50005V3.375H3.87505V3.75C3.87577 4.21416 3.77609 4.67298 3.58283 5.09498C3.42233 5.44897 3.19916 5.77102 2.92409 6.04561L2.42065 6.54905C2.04837 6.91929 1.75322 7.35969 1.55228 7.84477C1.35135 8.32984 1.24862 8.84996 1.25005 9.375V14.625C1.25005 14.6288 1.25051 14.6325 1.25061 14.6363C1.25408 15.1782 1.34327 15.7161 1.51489 16.2301C1.66491 16.6799 1.74136 17.1509 1.7413 17.625C1.74136 18.0988 1.66495 18.5696 1.51503 19.0191C1.33964 19.5456 1.25017 20.0968 1.25005 20.6517V21.5494C1.25002 21.8858 1.34975 22.2146 1.53663 22.4943C1.7235 22.774 1.98912 22.992 2.2999 23.1207C2.61067 23.2495 2.95264 23.2832 3.28257 23.2175C3.61249 23.1519 3.91554 22.9899 4.15339 22.752L4.25075 22.6546C4.65718 23.0356 5.19295 23.2484 5.75004 23.25C6.3296 23.2499 6.88542 23.0197 7.29537 22.6101L7.51522 22.3902L6.98487 21.8598L6.76498 22.0797ZM4.62504 3.375H6.87504V3.75C6.87463 4.13081 6.92903 4.50969 7.03658 4.875H4.46351C4.57107 4.5097 4.62547 4.13081 4.62504 3.75V3.375ZM4.62504 1.5H6.87504V2.625H4.62504V1.5Z" fill="black"/>
<path d="M2.75 10.5H3.5V11.25H2.75V10.5Z" fill="black"/>
<path d="M2.75 12H3.5V13.5H2.75V12Z" fill="black"/>
<path d="M12.5 22.5C12.1196 22.4989 11.7549 22.3479 11.4851 22.0797L11.2652 21.8598C11.2303 21.825 11.189 21.7974 11.1435 21.7785C11.098 21.7597 11.0492 21.75 11 21.75C10.9508 21.75 10.902 21.7597 10.8565 21.7785C10.811 21.7974 10.7697 21.825 10.7348 21.8598L10.373 22.2217C10.24 22.3547 10.0706 22.4452 9.88617 22.4819C9.70173 22.5186 9.51056 22.4998 9.33682 22.4279C9.16309 22.3559 9.0146 22.234 8.91014 22.0776C8.80569 21.9213 8.74996 21.7374 8.75 21.5494V20.6517C8.75006 20.1775 8.82651 19.7065 8.97641 19.2566C9.32953 18.1975 9.32953 17.0524 8.97641 15.9932C8.86904 15.6713 8.79936 15.338 8.76875 15H11.75V14.25H8.75V9.75H16.25V10.5H17V9.375C17.0002 8.49497 16.7096 7.63955 16.1733 6.94181C16.0695 6.80564 15.326 6.04561 15.326 6.04561C14.7176 5.43642 14.3757 4.6109 14.375 3.75V3.375H14.75V2.625H14.375V1.5C14.3748 1.30116 14.2957 1.11053 14.1551 0.96993C14.0145 0.829329 13.8238 0.750236 13.625 0.75H11.375C11.1762 0.750236 10.9855 0.829329 10.8449 0.96993C10.7043 1.11053 10.6252 1.30116 10.625 1.5V2.625H10.25V3.375H10.625V3.75C10.6244 4.61092 10.2824 5.43646 9.67405 6.04561L9.17061 6.54905C9.04775 6.67176 8.9332 6.80251 8.82772 6.94045C8.29235 7.63927 8.00152 8.49468 8 9.375V14.625C8 14.6288 8.00047 14.6326 8.00056 14.6364C8.00405 15.1783 8.09325 15.7162 8.26484 16.2301C8.56662 17.1352 8.56662 18.1138 8.26484 19.0189C8.08948 19.5454 8.00006 20.0968 8 20.6517V21.5494C8.00107 21.869 8.0917 22.182 8.26162 22.4528C8.43153 22.7235 8.67393 22.9413 8.96131 23.0812C9.27915 23.2347 9.63684 23.2854 9.98481 23.2265C10.3328 23.1675 10.6538 23.0018 10.9033 22.7522L11.0007 22.6548C11.4072 23.0357 11.9429 23.2484 12.5 23.25C12.787 23.2502 13.0712 23.1937 13.3362 23.0836L13.0494 22.3907C12.8753 22.463 12.6886 22.5002 12.5 22.5ZM11.375 3.375H13.625V3.75C13.6246 4.13081 13.679 4.5097 13.7865 4.875H11.2135C11.321 4.5097 11.3754 4.13081 11.375 3.75V3.375ZM11.375 1.5H13.625V2.625H11.375V1.5ZM9.42327 7.39636C9.5068 7.28677 10.2044 6.57605 10.2044 6.57605C10.4846 6.29584 10.7213 5.97527 10.9066 5.625H14.0935C14.2788 5.97524 14.5154 6.29577 14.7956 6.57595C14.7956 6.57595 15.4932 7.28677 15.5781 7.39814C15.936 7.86321 16.1605 8.41698 16.2275 9H8.77245C8.84118 8.41664 9.06602 7.86263 9.42327 7.39636Z" fill="black"/>
<path d="M9.5 10.5H10.25V11.25H9.5V10.5Z" fill="black"/>
<path d="M9.5 12H10.25V13.5H9.5V12Z" fill="black"/>
<path d="M20.75 11.625C20.75 11.5255 20.7105 11.4302 20.6402 11.3598C20.5699 11.2895 20.4745 11.25 20.375 11.25H12.875C12.7755 11.25 12.6802 11.2895 12.6098 11.3598C12.5395 11.4302 12.5 11.5255 12.5 11.625V14.3752C12.4997 15.3375 12.7238 16.2866 13.1545 17.1471C13.4701 17.7776 13.66 18.4634 13.7138 19.1664L14.0011 22.9037C14.0083 22.9979 14.0509 23.0859 14.1202 23.1501C14.1895 23.2143 14.2805 23.25 14.375 23.25H18.875C18.9695 23.25 19.0605 23.2143 19.1298 23.1501C19.1992 23.0859 19.2417 22.9979 19.2489 22.9037L19.5362 19.1666C19.5907 18.4638 19.7806 17.7781 20.0954 17.1473C20.5248 16.2863 20.7489 15.3374 20.75 14.3752V11.625ZM20 12V13.125H13.25V12H20ZM19.4245 16.812C19.0664 17.5294 18.8504 18.3094 18.7884 19.1089L18.5278 22.5H14.7223L14.4616 19.1087C14.4004 18.3091 14.1843 17.529 13.8253 16.8118C13.4466 16.0554 13.2496 15.2211 13.25 14.3752V13.875H20V14.3752C19.999 15.221 19.8021 16.0551 19.4245 16.812Z" fill="black"/>
<path d="M15.5 19.875H16.25V20.625H15.5V19.875Z" fill="black"/>
<path d="M16.625 18.375H17.375V19.125H16.625V18.375Z" fill="black"/>
<path d="M15.875 15.75H16.625V16.5H15.875V15.75Z" fill="black"/>
</svg>
