<svg width="25" height="24" viewBox="0 0 25 24" fill="none" xmlns="http://www.w3.org/2000/svg">
<g clip-path="url(#clip0)">
<path d="M16.8687 4.02462C16.2673 4.62605 15.1694 6.71248 15.1694 6.71248L15.086 6.67498L11.6078 5.10555C10.8873 3.05235 11.1254 1.26405 11.8389 1.26405C12.5411 1.26405 13.3015 3.00646 13.3254 3.06083C13.3155 2.99474 12.925 0.417969 14.0988 0.417969C14.6356 0.417969 14.9299 0.821109 15.0917 1.26363C15.2881 1.80177 15.2881 2.39804 15.2881 2.39804C15.2881 2.39804 16.1778 0.376248 17.2499 0.673447C18.3214 0.970645 17.4706 3.42319 16.8687 4.02462Z" fill="#95D6A4"/>
<path d="M14.9019 5.97277C15.0289 6.24981 15.0866 6.48232 15.0861 6.67498L11.6079 5.10555C10.8874 3.05235 11.1255 1.26405 11.839 1.26405C12.5412 1.26405 13.3016 3.00646 13.3255 3.06083C13.3156 2.99474 12.9251 0.417969 14.0989 0.417969C14.6357 0.417969 14.93 0.821109 15.0918 1.26363L15.0913 1.26409C14.6787 0.417969 13.4745 2.85692 14.9019 5.97277Z" fill="#78C2A4"/>
<path d="M20.3944 11.9318C23.7834 8.5428 25.1216 4.38628 23.3833 2.64798C21.645 0.909669 17.4884 2.24783 14.0994 5.63684C10.7104 9.02586 9.37225 13.1824 11.1106 14.9207C12.8489 16.659 17.0054 15.3208 20.3944 11.9318Z" fill="#E49542"/>
<path d="M11.1126 14.9204C9.37403 13.1819 10.7125 9.02465 14.1017 5.63542C17.4913 2.24586 21.6485 0.907385 23.387 2.64595C22.6552 1.91406 19.314 4.06861 15.9244 7.45817C12.5352 10.8474 10.3807 14.1886 11.1126 14.9204Z" fill="#E28424"/>
<path d="M21.599 6.9882L19.0448 4.43403C18.7506 4.13983 18.2737 4.13983 17.9795 4.43403C17.6853 4.72823 17.6853 5.2052 17.9795 5.49939L20.5336 8.05356C20.8278 8.34776 21.3048 8.34776 21.599 8.05356C21.8932 7.75936 21.8932 7.28239 21.599 6.9882Z" fill="#E28424"/>
<path d="M11.2216 6.37261C11.1898 6.88591 11.1068 7.93501 10.923 8.91281C10.8508 9.29486 10.5911 9.61268 10.2325 9.76222C9.91049 9.89629 9.5636 10.119 9.5636 10.4537C9.5636 10.5605 9.58469 10.6562 9.62219 10.7415H4.68518C4.72268 10.6562 4.74378 10.5605 4.74378 10.4537C4.74378 10.119 4.39689 9.89629 4.07485 9.76222C3.71624 9.61268 3.45654 9.29486 3.38482 8.91281C3.2006 7.93496 3.11763 6.88586 3.08575 6.37261C3.07169 6.14994 3.12184 5.92775 3.23294 5.73415C4.05985 4.29691 5.73283 3.3889 5.73283 3.3889V1.07788H8.57492V3.3889C8.57492 3.3889 10.248 4.29691 11.0744 5.73415C11.186 5.92775 11.2357 6.14994 11.2216 6.37261Z" fill="#80B4FB"/>
<path d="M6.52877 2.07031V3.38849C6.52877 3.38849 5.32169 4.29696 4.8323 5.7342C4.7662 5.92733 4.73667 6.14999 4.74511 6.37266C4.76433 6.88549 4.81308 7.93459 4.9223 8.91286C4.96449 9.29444 5.11825 9.61273 5.33107 9.76227C5.52139 9.89634 5.72671 10.119 5.72671 10.4537C5.72671 10.5606 5.71452 10.6562 5.69202 10.7415H4.68511C4.72261 10.6562 4.7437 10.5606 4.7437 10.4537C4.7437 10.119 4.39681 9.89634 4.07477 9.76227C3.71616 9.61273 3.45647 9.29444 3.38475 8.91286C3.20005 7.93501 3.11755 6.88544 3.08567 6.37266C3.07161 6.14999 3.1213 5.92733 3.23287 5.7342C4.0593 4.29696 5.73275 3.38849 5.73275 3.38849V2.07031H6.52877Z" fill="#61A2F9"/>
<path d="M8.2468 0.458984H6.06057C5.71893 0.458984 5.44199 0.735932 5.44199 1.07757V2.07023H8.86539V1.07762C8.86539 0.735932 8.58844 0.458984 8.2468 0.458984Z" fill="#DB5B6F"/>
<path d="M7.28683 0.459229C6.94524 0.459229 6.66815 0.735895 6.66815 1.07749V2.07029H5.44199V1.07749C5.44199 0.735895 5.71908 0.459229 6.06067 0.459229H7.28683Z" fill="#D54653"/>
<path d="M22.8103 12.8472C22.8103 12.8472 22.7897 13.5306 22.7217 14.5938C22.6233 16.129 22.4264 18.4559 22.0505 20.6601C21.7631 22.3458 20.3071 23.5814 18.5971 23.5814H6.40272C4.69265 23.5814 3.23671 22.3457 2.94936 20.6601C2.5734 18.4559 2.37652 16.129 2.27808 14.5938C2.21011 13.5306 2.18948 12.8472 2.18948 12.8472H22.8103Z" fill="#DB5B6F"/>
<path d="M22.8103 12.8472C22.8103 12.8472 22.7897 13.5306 22.7217 14.5938C22.6134 14.6172 22.5019 14.6304 22.388 14.6327C15.7957 14.7593 9.20401 14.7593 2.61178 14.6327C2.49787 14.6304 2.3863 14.6172 2.27802 14.5938C2.21005 13.5306 2.18942 12.8472 2.18942 12.8472H22.8103Z" fill="#D54653"/>
<path d="M7.90928 23.5813H6.40266C4.69259 23.5813 3.23665 22.3457 2.94929 20.66C2.31318 16.9301 2.18942 12.8472 2.18942 12.8472H4.73717C4.73717 12.8472 4.83046 16.9301 5.30907 20.66C5.52564 22.3457 6.62162 23.5813 7.90928 23.5813Z" fill="#D54653"/>
<path d="M15.652 5.45882C12.9559 5.16893 10.2598 5.03369 7.56369 5.32358C7.2671 7.95894 7.2671 10.5943 7.56369 13.2297C10.2598 13.5196 12.9559 13.5196 15.652 13.2297C15.9485 10.5944 15.9485 8.09423 15.652 5.45882Z" fill="#ECECEC"/>
<path d="M8.5119 13.3195C8.19595 13.2938 7.87953 13.2638 7.56358 13.2295C7.26685 10.5942 7.26685 7.95877 7.56358 5.3234C7.87953 5.28965 8.19595 5.25965 8.5119 5.2334C8.21892 7.92876 8.21892 10.6241 8.5119 13.3195Z" fill="#DADADA"/>
<path d="M22.3878 13.6811C15.7959 13.8078 9.2039 13.8078 2.612 13.6811C1.79236 13.6653 1.09277 13.0819 0.929783 12.2785C0.824919 11.7616 0.824919 11.2448 0.929783 10.7279C1.09277 9.92443 1.79241 9.34101 2.612 9.32526C9.2039 9.19855 15.7959 9.19855 22.3878 9.32526C23.2074 9.34101 23.907 9.92443 24.07 10.7279C24.1748 11.2447 24.1748 11.7616 24.07 12.2785C23.907 13.0819 23.2074 13.6653 22.3878 13.6811Z" fill="#FFD064"/>
<path d="M4.29683 13.7103C3.73525 13.7018 3.17319 13.692 2.61161 13.6812C1.79221 13.6653 1.09234 13.0821 0.929675 12.2787C0.824671 11.7616 0.824671 11.245 0.929675 10.728C1.09234 9.92453 1.79221 9.34092 2.61161 9.32545C3.17319 9.31467 3.73525 9.30482 4.29683 9.29639C3.6279 9.46233 3.09585 10.0005 2.95475 10.6985C2.84553 11.2352 2.84553 11.7715 2.95475 12.3077C3.09585 13.0058 3.6279 13.5444 4.29683 13.7103Z" fill="#FFC250"/>
<path d="M7.85182 15.6826C7.84446 15.6826 7.83715 15.6826 7.82979 15.6826C7.21838 15.6841 6.71951 16.1773 6.70119 16.7883C6.67268 17.7391 6.67268 18.6898 6.70119 19.6405C6.71951 20.2516 7.21842 20.7448 7.82979 20.7462H7.85182C8.46324 20.7448 8.9621 20.2516 8.98043 19.6405C9.00893 18.6898 9.00893 17.7391 8.98043 16.7883C8.9621 16.1772 8.46319 15.6841 7.85182 15.6826Z" fill="#365E7D"/>
<path d="M12.5109 15.6826C12.5035 15.6826 12.4962 15.6826 12.4888 15.6826C11.8774 15.6841 11.3786 16.1773 11.3602 16.7883C11.3317 17.7391 11.3317 18.6898 11.3602 19.6405C11.3786 20.2516 11.8775 20.7448 12.4888 20.7462H12.5109C13.1223 20.7448 13.6212 20.2516 13.6395 19.6405C13.668 18.6898 13.668 17.7391 13.6395 16.7883C13.6212 16.1772 13.1223 15.6841 12.5109 15.6826Z" fill="#365E7D"/>
<path d="M17.1698 15.6826C17.1625 15.6826 17.1551 15.6826 17.1478 15.6826C16.5363 15.6841 16.0375 16.1773 16.0191 16.7883C15.9906 17.7391 15.9906 18.6898 16.0191 19.6405C16.0375 20.2516 16.5364 20.7448 17.1478 20.7462H17.1698C17.7812 20.7448 18.2801 20.2516 18.2984 19.6405C18.3269 18.6898 18.3269 17.7391 18.2984 16.7883C18.2801 16.1772 17.7812 15.6841 17.1698 15.6826Z" fill="#365E7D"/>
<path d="M6.61529 10.8832C6.3682 10.7584 6.10987 10.6643 5.84033 10.6012C5.28371 10.4708 4.71744 10.778 4.5086 11.3102C3.46578 13.9678 2.48972 16.6496 1.58026 19.3557C1.39814 19.8976 1.6344 20.4971 2.14466 20.755C2.39174 20.8799 2.65008 20.9739 2.91962 21.037C3.47624 21.1674 4.04251 20.8602 4.25134 20.328C5.29416 17.6704 6.27023 14.9886 7.17969 12.2825C7.36176 11.7405 7.1255 11.1411 6.61529 10.8832Z" fill="#407093"/>
<path d="M2.46633 20.8982C2.35682 20.8564 2.24943 20.8088 2.14456 20.7557C1.63422 20.4981 1.39805 19.8983 1.58026 19.3565C2.48981 16.6506 3.46588 13.9689 4.5086 11.3109C4.71725 10.7788 5.28352 10.4716 5.84019 10.6019C5.95466 10.6286 6.06693 10.6615 6.17723 10.6996C5.81543 10.7959 5.506 11.0609 5.36125 11.4298C4.27492 14.1995 3.25784 16.994 2.3099 19.8136C2.18347 20.1897 2.25051 20.5922 2.46633 20.8982Z" fill="#365E7D"/>
<path d="M19.1592 10.6007C18.8896 10.6638 18.6313 10.7579 18.3842 10.8828C17.8739 11.1406 17.6377 11.74 17.8198 12.282C18.7292 14.9881 19.7053 17.67 20.7481 20.3275C20.957 20.8597 21.5232 21.167 22.0799 21.0366C22.3494 20.9734 22.6077 20.8794 22.8548 20.7545C23.3651 20.4966 23.6013 19.8972 23.4192 19.3553C22.5098 16.6492 21.5337 13.9673 20.4909 11.3098C20.2821 10.7776 19.7158 10.4702 19.1592 10.6007Z" fill="#407093"/>
<path d="M22.4179 20.9392C22.3071 20.9775 22.1943 21.0101 22.0798 21.0368C21.5233 21.1675 20.9569 20.8599 20.7482 20.3277C19.7056 17.6702 18.7296 14.9885 17.8199 12.2821C17.6377 11.7404 17.874 11.1411 18.3842 10.883C18.489 10.8299 18.5961 10.7829 18.7052 10.7412C18.4899 11.0476 18.4232 11.4494 18.5494 11.825C19.4975 14.6451 20.5146 17.4396 21.6009 20.2089C21.7458 20.5782 22.0558 20.8435 22.4179 20.9392Z" fill="#365E7D"/>
<path d="M17.7309 4.18562C17.5222 4.39431 17.4072 4.67178 17.4072 4.96691C17.4072 5.26205 17.5222 5.53951 17.7308 5.74821L20.285 8.30238C20.4937 8.51108 20.7712 8.62597 21.0662 8.62597C21.3614 8.62597 21.6389 8.51103 21.8475 8.30238C22.0562 8.09368 22.1711 7.81622 22.1711 7.52109C22.1711 7.22595 22.0562 6.94849 21.8475 6.73979L19.2934 4.18557C18.8626 3.75482 18.1616 3.75491 17.7309 4.18562ZM21.3504 7.23701C21.4262 7.31286 21.468 7.41378 21.468 7.52109C21.468 7.62839 21.4262 7.72926 21.3503 7.80516C21.2745 7.88105 21.1735 7.92282 21.0662 7.92282C20.9589 7.92282 20.8581 7.88105 20.7822 7.80516L18.228 5.25094C18.1521 5.17509 18.1103 5.07417 18.1103 4.96687C18.1103 4.85956 18.1521 4.75869 18.228 4.68279C18.3063 4.60446 18.4092 4.56532 18.5121 4.56532C18.615 4.56532 18.7179 4.60446 18.7962 4.68279L21.3504 7.23701Z" fill="black"/>
<path d="M24.4144 10.6584C24.2674 9.93216 23.7431 9.34962 23.0724 9.10235C24.7356 6.32748 24.9663 3.72891 23.6356 2.39823C23.0519 1.81456 22.2065 1.51572 21.1891 1.53447C20.995 1.53804 20.8405 1.69831 20.844 1.89243C20.8475 2.08439 21.0042 2.23758 21.1954 2.23758C21.1976 2.23758 21.1998 2.23758 21.202 2.23753C22.0344 2.22211 22.6867 2.44365 23.1384 2.8954C23.8371 3.594 23.8559 4.65543 23.7487 5.42285C23.5971 6.50814 23.1062 7.73205 22.3273 8.97288C20.2996 8.9342 18.2631 8.90748 16.2233 8.89286C16.2101 7.69544 16.136 6.48344 16.0013 5.28447C15.9829 5.12078 15.8533 4.99177 15.6895 4.97415C15.5847 4.9629 15.4797 4.95287 15.3748 4.94246C16.8589 3.68743 18.4457 2.80338 19.9062 2.42654C20.0943 2.37802 20.2073 2.1863 20.1588 1.99827C20.1104 1.81025 19.9185 1.69714 19.7306 1.7457C19.1708 1.89013 18.5952 2.10314 18.0149 2.37769C18.1279 1.88628 18.1818 1.29718 17.9661 0.857621C17.8361 0.592721 17.621 0.412105 17.3439 0.335274C16.9334 0.221551 16.2958 0.281272 15.5873 1.21201C15.553 1.25706 15.5199 1.30243 15.488 1.34758C15.4842 1.33422 15.4803 1.3209 15.4763 1.30754C15.337 0.844308 14.9731 0.0671387 14.0988 0.0671387C13.7952 0.0671387 13.5305 0.188174 13.3331 0.41712C13.0756 0.716053 12.9629 1.18037 12.9224 1.64313C12.6148 1.23849 12.242 0.913264 11.8389 0.913264C11.577 0.913264 11.3382 1.04668 11.1665 1.28893C10.7141 1.92711 10.7075 3.31017 11.1277 4.75922C11.0225 4.76053 10.9173 4.76292 10.8121 4.76513C10.1233 3.96138 9.29068 3.40823 8.9265 3.18688V2.41623C9.09155 2.3873 9.21704 2.24363 9.21704 2.07028V1.07766C9.21704 0.542703 8.78184 0.1075 8.24688 0.1075H6.06064C5.52569 0.1075 5.09048 0.542703 5.09048 1.07766V2.07028C5.09048 2.24363 5.21607 2.3873 5.38112 2.41623L5.38084 3.18674C4.90616 3.47503 3.63815 4.32477 2.92848 5.55861C2.78373 5.80921 2.71669 6.09807 2.73483 6.39456C2.76887 6.93491 2.85338 7.98542 3.03709 8.96641C2.89314 8.96903 2.74904 8.97142 2.60517 8.97419C1.62864 8.99261 0.779136 9.70096 0.585347 10.6583C0.471437 11.2192 0.471437 11.788 0.5853 12.3486C0.727524 13.0522 1.22596 13.6329 1.8843 13.8893C1.92293 14.6049 1.98907 15.6227 2.09736 16.7794C1.80714 17.6014 1.52288 18.4237 1.24715 19.2443C1.00991 19.9511 1.32755 20.7356 1.98645 21.0693C2.23714 21.1958 2.50073 21.294 2.77051 21.3623C3.02266 22.0773 3.47267 22.6941 4.08245 23.1552C4.75578 23.6642 5.55813 23.9333 6.40275 23.9333H18.5971C19.4417 23.9333 20.2441 23.6642 20.9174 23.1552C21.5272 22.6941 21.9773 22.0772 22.2294 21.3621C22.5005 21.2932 22.764 21.1949 23.0136 21.0688C23.6726 20.7357 23.9903 19.9511 23.7527 19.2438C23.4767 18.4227 23.1925 17.6005 22.9026 16.7791C23.0108 15.6224 23.0769 14.6047 23.1156 13.8891C23.7747 13.6321 24.2725 13.0517 24.4145 12.3489C24.5283 11.7879 24.5283 11.2191 24.4144 10.6584ZM15.3329 5.64425C15.4454 6.72382 15.5079 7.8123 15.5202 8.88873C12.9125 8.87359 10.3005 8.87786 7.69533 8.90195C7.70728 7.82135 7.76986 6.72842 7.88279 5.64421C10.356 5.39745 12.8596 5.39745 15.3329 5.64425ZM11.7401 1.69554C11.7657 1.65945 11.8036 1.61641 11.8389 1.61641C12.092 1.61641 12.623 2.3386 13.0006 3.19635C13.0627 3.34832 13.2228 3.43767 13.386 3.4094C13.5545 3.38015 13.6775 3.23399 13.6775 3.06298C13.6775 3.04161 13.6754 3.02019 13.6715 2.99909C13.4958 1.81109 13.6911 1.07883 13.8659 0.876091C13.9298 0.801885 13.9995 0.770243 14.0989 0.770243C14.9094 0.770243 14.9365 2.3829 14.9366 2.39874C14.9366 2.56492 15.053 2.70827 15.2155 2.74258C15.3784 2.77694 15.5426 2.69261 15.6098 2.54059C15.8612 1.97202 16.5691 0.850355 17.1559 1.01292C17.2395 1.03608 17.293 1.0823 17.3347 1.16743C17.4843 1.47222 17.4042 2.14636 17.1423 2.83516C16.2125 3.3697 15.2851 4.05344 14.4057 4.85911C13.5596 4.7971 12.711 4.76325 11.8622 4.75763C11.3723 3.22185 11.487 2.05256 11.7401 1.69554ZM8.22335 3.03701H6.08408L6.08432 2.42185H8.22339V3.03701H8.22335ZM6.06064 0.810604H8.24688C8.39412 0.810604 8.51389 0.930374 8.51389 1.07761V1.71856H5.79363V1.07766C5.79363 0.930421 5.9134 0.810604 6.06064 0.810604ZM3.73031 8.84809C3.55204 7.90141 3.46977 6.87683 3.43662 6.35101C3.42701 6.19341 3.46184 6.04102 3.53769 5.90971C4.20826 4.7438 5.50431 3.92997 5.82635 3.74012H8.48098C8.68644 3.86106 9.28947 4.2365 9.87322 4.79602C9.08897 4.83155 8.30604 4.89043 7.52629 4.9742C7.36246 4.99177 7.23284 5.12078 7.21447 5.28452C7.07923 6.48906 7.00512 7.7065 6.99232 8.90908C5.91284 8.92056 4.83463 8.93509 3.75871 8.95333C3.74718 8.91901 3.73715 8.88404 3.73031 8.84809ZM2.59645 14.0325C2.59941 14.0326 2.60231 14.0329 2.60527 14.0329L2.61652 14.0331C2.77416 14.0361 2.93181 14.0387 3.0895 14.0415C2.94859 14.4202 2.80866 14.7994 2.67038 15.1792C2.63939 14.7509 2.6152 14.3645 2.59645 14.0325ZM18.5971 23.2301H6.4027C5.16117 23.2301 4.03693 22.4849 3.53253 21.3732C3.99441 21.258 4.39493 20.9256 4.57878 20.4567C4.78138 19.9403 4.96546 19.4645 5.14158 19.0022C5.21072 18.8207 5.11969 18.6176 4.93823 18.5485C4.75677 18.4794 4.55365 18.5704 4.48451 18.7518C4.30919 19.212 4.1259 19.6856 3.92414 20.2C3.77845 20.5716 3.38131 20.7845 2.99945 20.6947C2.75954 20.6388 2.52529 20.5536 2.30366 20.4417C1.95438 20.2649 1.78675 19.8462 1.91369 19.4681C2.81509 16.7857 3.79833 14.0844 4.83604 11.4392C4.98196 11.0675 5.37938 10.8545 5.76021 10.9437C6.00247 11.0005 6.23676 11.0858 6.45694 11.1974C6.80631 11.3739 6.9738 11.7923 6.84658 12.1709C6.25668 13.9261 5.62872 15.6985 4.98004 17.4389C4.91221 17.6208 5.00475 17.8232 5.18667 17.8911C5.36865 17.959 5.57106 17.8664 5.63889 17.6844C6.08094 16.4984 6.51305 15.2976 6.93054 14.0973C8.77917 14.1174 10.6393 14.1278 12.4999 14.1278C14.3605 14.1278 16.2209 14.1175 18.0697 14.0973C18.8119 16.2312 19.5996 18.3633 20.421 20.4564C20.6049 20.9252 21.0054 21.2577 21.4673 21.3729C20.963 22.4848 19.8387 23.2301 18.5971 23.2301ZM22.6964 20.4412C22.4753 20.5529 22.2409 20.6382 21.9998 20.6947C21.6188 20.784 21.2214 20.5711 21.0755 20.1995C20.0399 17.5603 19.0567 14.859 18.1532 12.1704C18.026 11.792 18.1936 11.3735 18.5429 11.197C18.7639 11.0853 18.9983 11 19.2394 10.9435C19.2979 10.9298 19.3567 10.9232 19.4149 10.9232C19.7365 10.9232 20.0402 11.124 20.1637 11.4387C21.1993 14.0778 22.1825 16.7792 23.086 19.4678C23.2132 19.8462 23.0457 20.2646 22.6964 20.4412ZM21.9106 14.0415C22.068 14.0387 22.2254 14.0361 22.3828 14.0331L22.3954 14.0329C22.3981 14.0328 22.4007 14.0326 22.4034 14.0325C22.3846 14.3643 22.3604 14.7506 22.3295 15.1787C22.1912 14.799 22.0513 14.42 21.9106 14.0415ZM23.7253 12.2092C23.6189 12.7353 23.2135 13.1588 22.6903 13.2887C22.5917 13.3138 22.4874 13.3277 22.3814 13.3299L22.3697 13.3301C22.1294 13.3346 21.8892 13.3388 21.6489 13.3429C21.3761 12.619 21.0993 11.898 20.8182 11.1818C20.5457 10.4872 19.7978 10.0904 19.079 10.2589C18.7836 10.3281 18.4964 10.4326 18.2257 10.5695C17.5667 10.9026 17.2489 11.6871 17.4866 12.3945C17.5988 12.7284 17.7123 13.0624 17.8269 13.3966C14.289 13.4333 10.7104 13.4333 7.17251 13.3966C7.28717 13.0624 7.40099 12.7283 7.51298 12.3949C7.75088 11.6874 7.4331 10.9027 6.77425 10.57C6.50461 10.4334 6.21749 10.3288 5.92067 10.2591C5.20191 10.0907 4.45418 10.4876 4.1814 11.1823C3.90028 11.8988 3.62357 12.6197 3.35098 13.3429C3.1105 13.3388 2.86998 13.3346 2.6295 13.3302L2.61914 13.33C2.51222 13.3277 2.40806 13.3138 2.30736 13.2882C1.78619 13.1589 1.3807 12.7353 1.27434 12.209C1.17932 11.7409 1.17932 11.2663 1.27439 10.798C1.40339 10.1609 1.96863 9.68953 2.61848 9.67725C9.17527 9.55138 15.8244 9.55138 22.3812 9.67725C23.031 9.68953 23.5962 10.1609 23.7253 10.7983C23.8204 11.2662 23.8204 11.7409 23.7253 12.2092Z" fill="black"/>
<path d="M7.8527 15.3315H7.82898C7.02382 15.3335 6.37406 15.969 6.34978 16.7783C6.32123 17.7316 6.32123 18.6983 6.34978 19.6515C6.37406 20.4608 7.02378 21.0963 7.82926 21.0983H7.8527C8.65786 21.0963 9.30762 20.4609 9.3319 19.6515C9.36045 18.6983 9.36045 17.7316 9.3319 16.7783C9.30757 15.9689 8.65786 15.3335 7.8527 15.3315ZM8.62903 19.6304C8.61642 20.0511 8.26737 20.3941 7.85129 20.3951H7.83067C7.41426 20.3941 7.06521 20.051 7.05261 19.6304C7.02443 18.6911 7.02443 17.7387 7.05261 16.7994C7.06521 16.3787 7.41426 16.0357 7.8309 16.0347H7.85073H7.85096C8.26737 16.0357 8.61642 16.3787 8.62903 16.7994C8.6572 17.7387 8.6572 18.6911 8.62903 19.6304Z" fill="black"/>
<path d="M12.5118 15.3315H12.488C11.6829 15.3335 11.0331 15.969 11.0088 16.7783C10.9803 17.7316 10.9803 18.6983 11.0088 19.6515C11.0331 20.4608 11.6828 21.0963 12.4883 21.0983H12.5118C13.317 21.0963 13.9667 20.4608 13.9909 19.6515C14.0195 18.6983 14.0195 17.7316 13.9909 16.7783C13.9667 15.969 13.317 15.3335 12.5118 15.3315ZM13.2881 19.6304C13.2755 20.0511 12.9265 20.3941 12.5104 20.3951H12.4898C12.0734 20.3941 11.7243 20.051 11.7117 19.6304C11.6835 18.6911 11.6835 17.7387 11.7117 16.7994C11.7243 16.3787 12.0734 16.0357 12.49 16.0347H12.5098H12.5101C12.9265 16.0357 13.2755 16.3787 13.2881 16.7994C13.3163 17.7387 13.3163 18.6911 13.2881 19.6304Z" fill="black"/>
<path d="M17.1706 15.3315H17.147C16.3418 15.3335 15.6921 15.969 15.6678 16.7783C15.6392 17.7316 15.6392 18.6983 15.6678 19.6515C15.6921 20.4608 16.3418 21.0964 17.1472 21.0983H17.1707C17.9759 21.0963 18.6256 20.4608 18.6499 19.6515C18.6784 18.6983 18.6784 17.7316 18.6499 16.7783C18.6256 15.969 17.9759 15.3335 17.1706 15.3315ZM17.947 19.6304C17.9344 20.0511 17.5854 20.3941 17.1693 20.3951H17.1487C16.7323 20.3941 16.3833 20.051 16.3707 19.6304C16.3425 18.6911 16.3425 17.7387 16.3707 16.7994C16.3833 16.3787 16.7323 16.0357 17.1489 16.0347H17.1688H17.169C17.5855 16.0357 17.9345 16.3787 17.9471 16.7994C17.9752 17.7387 17.9752 18.6911 17.947 19.6304Z" fill="black"/>
</g>
<defs>
<clipPath id="clip0">
<rect width="24" height="24" fill="white" transform="translate(0.5)"/>
</clipPath>
</defs>
</svg>
