<svg width="25" height="24" viewBox="0 0 25 24" fill="none" xmlns="http://www.w3.org/2000/svg">
<g clip-path="url(#clip0)">
<path d="M21.2346 14.5831C20.0282 14.5831 19.0502 13.6051 19.0502 12.3987C19.0502 13.6051 18.0722 14.5831 16.8657 14.5831C15.6593 14.5831 14.6813 13.6051 14.6813 12.3987C14.6813 13.6051 13.7033 14.5831 12.4969 14.5831C11.329 14.5831 10.3752 13.6666 10.3155 12.5136C10.2557 13.6666 9.30194 14.5831 8.13409 14.5831C6.92765 14.5831 5.94965 13.6051 5.94965 12.3987H5.94358C5.94358 13.6051 4.96558 14.5831 3.75914 14.5831C3.20099 14.5831 2.69202 14.3735 2.30591 14.0291V23.6364H22.6879V14.0291C22.3017 14.3735 21.7927 14.5831 21.2346 14.5831Z" fill="#F05475"/>
<path d="M21.7171 14.5284V23.6357H22.688V14.0283C22.4166 14.2704 22.0844 14.4455 21.7171 14.5284Z" fill="#1B0D01"/>
<path d="M21.9628 5.84497H3.031L1.57471 11.6701V12.3983C1.57471 13.6047 2.5527 14.5827 3.75915 14.5827C4.96559 14.5827 5.94359 13.6047 5.94359 12.3983H5.94965C5.94965 13.6047 6.92765 14.5827 8.13409 14.5827C9.30194 14.5827 10.2557 13.6662 10.3155 12.5132C10.3753 13.6662 11.329 14.5827 12.4969 14.5827C13.7033 14.5827 14.6813 13.6047 14.6813 12.3983C14.6813 13.6047 15.6593 14.5827 16.8657 14.5827C18.0722 14.5827 19.0502 13.6047 19.0502 12.3983C19.0502 13.6047 20.0282 14.5827 21.2346 14.5827C22.4411 14.5827 23.4191 13.6047 23.4191 12.3983V11.6701L21.9628 5.84497Z" fill="white"/>
<path d="M10.3125 5.84497V12.5529C10.3134 12.5397 10.3148 12.5265 10.3155 12.5132C10.3753 13.6662 11.329 14.5827 12.4969 14.5827C13.7033 14.5827 14.6813 13.6047 14.6813 12.3983V5.84497H10.3125Z" fill="#B6E6FA"/>
<path d="M3.75915 14.5827C2.5527 14.5827 1.57471 13.6047 1.57471 12.3983V11.6701L3.031 5.84497H6.67173L5.94567 12.4804C5.94465 12.4531 5.94359 12.4259 5.94359 12.3983C5.94359 13.6047 4.96554 14.5827 3.75915 14.5827Z" fill="#B6E6FA"/>
<path d="M5.70095 5.84497L4.97484 12.4804C4.97382 12.4531 4.97275 12.4259 4.97275 12.3983C4.97275 13.4378 4.2464 14.3071 3.27374 14.5279C3.42995 14.5633 3.59223 14.5827 3.75917 14.5827C4.96562 14.5827 5.94361 13.6047 5.94361 12.3983C5.94361 12.4258 5.94468 12.4531 5.9457 12.4804L6.67176 5.84497H5.70095Z" fill="#54C9F3"/>
<path d="M21.2348 14.5827C22.4412 14.5827 23.4192 13.6047 23.4192 12.3983V11.6701L21.9629 5.84497H18.3222L19.0483 12.4804C19.0493 12.4531 19.0504 12.4259 19.0504 12.3983C19.0504 13.6047 20.0283 14.5827 21.2348 14.5827Z" fill="#B6E6FA"/>
<path d="M21.9629 5.84497H20.992L22.4483 11.6701V12.3983C22.4483 13.4378 21.722 14.3071 20.7493 14.5279C20.9055 14.5633 21.0678 14.5827 21.2348 14.5827C22.4412 14.5827 23.4192 13.6047 23.4192 12.3983V11.6701L21.9629 5.84497Z" fill="#54C9F3"/>
<path d="M12.4999 12.0085C15.7154 12.0085 18.322 9.40185 18.322 6.18638C18.322 2.97091 15.7154 0.364258 12.4999 0.364258C9.28444 0.364258 6.6778 2.97091 6.6778 6.18638C6.6778 9.40185 9.28444 12.0085 12.4999 12.0085Z" fill="#FEE95D"/>
<path d="M12.5 0.364258C12.3365 0.364258 12.1747 0.371345 12.0146 0.384549C15.0029 0.631245 17.3513 3.13442 17.3513 6.18638C17.3513 9.23834 15.0028 11.7415 12.0146 11.9882C12.1747 12.0014 12.3365 12.0085 12.5 12.0085C15.7155 12.0085 18.3221 9.40183 18.3221 6.18633C18.3221 2.97083 15.7155 0.364258 12.5 0.364258Z" fill="#FCAD42"/>
<path d="M2.30597 15.969H9.58743V20.7232H2.30597V15.969Z" fill="#8AD8F6"/>
<path d="M8.61652 15.969H9.58737V20.7232H8.61652V15.969Z" fill="#00ADEB"/>
<path d="M15.4094 15.969H22.6909V20.7232H15.4094V15.969Z" fill="#8AD8F6"/>
<path d="M21.72 15.969H22.6909V20.7232H21.72V15.969Z" fill="#00ADEB"/>
<path d="M9.58746 15.969H15.4066V23.6358H9.58746V15.969Z" fill="#FEE95D"/>
<path d="M14.4357 15.969V22.6649H9.58746V23.6357H15.4066V15.969H14.4357Z" fill="#FCAD42"/>
<path d="M10.8023 7.30103H9.83146C9.29525 7.30103 8.8606 6.86637 8.8606 6.33016V5.11353H11.7732V6.33016C11.7732 6.86637 11.3385 7.30103 10.8023 7.30103Z" fill="white"/>
<path d="M16.1392 5.99985C16.1392 7.30013 15.4872 7.79595 14.6829 7.79595C13.8785 7.79595 13.2266 7.30013 13.2266 5.99985C13.2266 4.69957 13.8785 3.64551 14.6829 3.64551C15.4872 3.64551 16.1392 4.69957 16.1392 5.99985Z" fill="white"/>
<path d="M7.49992 17.8864H6.77178V17.1582H7.49992V17.8864ZM6.04363 17.8864H5.31549V17.1582H6.04363V17.8864ZM4.58734 17.8864H3.85919V17.1582H4.58734V17.8864Z" fill="white"/>
<path d="M23.0519 23.2719V19.2898H22.3238V20.3593H15.7735V16.3332H22.3238V18.5632H23.0519V14.1825C23.5038 13.7225 23.7831 13.0925 23.7831 12.3982V11.6252L22.247 5.48081H18.6462C18.4645 3.88005 17.668 2.41453 16.3988 1.38304L15.9396 1.94813C17.2223 2.99055 17.958 4.53528 17.958 6.18619C17.958 8.27655 16.7765 10.0959 15.0466 11.0124L15.0469 8.12961C15.9659 7.97228 16.5032 7.20142 16.5032 5.99983C16.5032 4.47548 15.7036 3.28142 14.6829 3.28142C13.6621 3.28142 12.8625 4.47548 12.8625 5.99983C12.8625 7.20137 13.3998 7.97223 14.3187 8.12956L14.3184 11.3323C13.7493 11.534 13.1373 11.6442 12.4999 11.6442C11.8617 11.6442 11.249 11.5337 10.6793 11.3316L10.6809 7.66515H10.8024C11.5385 7.66515 12.1374 7.06632 12.1374 6.33021V3.65918H11.4092V4.7496H10.6811V3.66039H9.95292V4.7496H9.22478V3.65918H8.49663V6.33026C8.49663 7.06637 9.09546 7.6652 9.83157 7.6652H9.95278L9.95127 11.0114C8.22236 10.0944 7.04189 8.27572 7.04189 6.18619C7.04184 3.17661 9.49031 0.728146 12.4999 0.728146C13.5222 0.728146 14.5187 1.01237 15.3818 1.55013L15.7669 0.932125C14.7882 0.322326 13.6585 0 12.4999 0C9.3273 0 6.70539 2.4007 6.35413 5.48081H2.7467L1.21061 11.6252V12.3982C1.21061 13.0925 1.48997 13.7225 1.94176 14.1825V23.2719H0.8526V24H24.1472V23.2719H23.0519ZM23.055 12.3982C23.055 13.402 22.2384 14.2186 21.2346 14.2186C20.2309 14.2186 19.4143 13.402 19.4143 12.3982H19.4054L19.3657 12.0356H23.055V12.3982ZM21.6785 6.20895L22.9532 11.3075H19.286L18.7281 6.20895H21.6785ZM18.2443 8.48164L18.5535 11.3075H15.9663C16.9815 10.6182 17.7817 9.63517 18.2443 8.48164ZM18.6332 12.0356L18.6835 12.4951C18.6329 13.454 17.837 14.2186 16.8658 14.2186C15.8817 14.2186 15.0781 13.4336 15.0469 12.457L15.0467 12.0357H18.6332V12.0356ZM13.5906 5.99988C13.5906 5.05848 14.0391 4.00961 14.6828 4.00961C15.3265 4.00961 15.775 5.05848 15.775 5.99988C15.775 6.95011 15.4076 7.4319 14.6828 7.4319C13.9581 7.4319 13.5906 6.95006 13.5906 5.99988ZM12.4999 12.3724C13.1325 12.3724 13.7433 12.2767 14.3186 12.0995L14.3187 12.3982H14.3172C14.3172 13.402 13.5006 14.2186 12.4969 14.2186C11.5298 14.2186 10.7329 13.4645 10.6795 12.5008L10.6793 12.0989C11.2551 12.2765 11.8665 12.3724 12.4999 12.3724ZM9.83152 6.93705C9.49691 6.93705 9.22473 6.66487 9.22473 6.33026V5.4777H11.4092V6.33026C11.4092 6.66487 11.137 6.93705 10.8024 6.93705H9.83152ZM10.3154 13.718C10.763 14.4569 11.5747 14.9468 12.4969 14.9468C13.4228 14.9468 14.235 14.4504 14.6813 13.7098C15.1277 14.4504 15.9398 14.9468 16.8658 14.9468C17.7917 14.9468 18.6038 14.4504 19.0502 13.7098C19.4965 14.4504 20.3087 14.9468 21.2346 14.9468C21.6241 14.9468 21.9934 14.8587 22.3238 14.7017V15.6051H2.66991V14.7017C3.00039 14.8586 3.36961 14.9468 3.75912 14.9468C4.68716 14.9468 5.50089 14.4482 5.94657 13.7048C6.39224 14.4482 7.20602 14.9468 8.13406 14.9468C9.05614 14.9467 9.86788 14.4569 10.3154 13.718ZM6.3137 12.3637L6.35015 12.0356H8.13406V11.3075H6.43108L6.74728 8.46155C7.33937 9.95318 8.49547 11.1618 9.95108 11.8226L9.95137 12.5009C9.89793 13.4646 9.10104 14.2186 8.13406 14.2186C7.13029 14.2186 6.3137 13.402 6.3137 12.3982V12.3637ZM3.31524 6.20895H6.26496L5.69846 11.3075H2.0406L3.31524 6.20895ZM1.93875 12.3982V12.0356H5.57948V12.3982C5.57948 13.402 4.76289 14.2186 3.75912 14.2186C2.75534 14.2186 1.93875 13.402 1.93875 12.3982ZM9.22322 23.2719H2.66991V21.0874H9.22322V23.2719ZM9.22322 20.3593H2.66991V16.3332H9.22322V20.3593ZM15.0423 23.2719H9.95137V21.0874V16.3332H15.0423V23.2719ZM22.3238 23.2719H15.7705V21.0874H22.3238V23.2719Z" fill="black"/>
<path d="M11.4046 18.9043H12.1327V20.3606H11.4046V18.9043Z" fill="black"/>
<path d="M12.8609 18.9043H13.589V20.3606H12.8609V18.9043Z" fill="black"/>
</g>
<defs>
<clipPath id="clip0">
<rect width="24" height="24" fill="white" transform="translate(0.5)"/>
</clipPath>
</defs>
</svg>
