<svg width="300" height="300" viewBox="0 0 300 300" fill="none" xmlns="http://www.w3.org/2000/svg">
<path d="M288.756 68.658H259.566V76.38H288.756V68.658Z" fill="#EBEBEB"/>
<path d="M137.49 247.422C137.493 244.83 136.898 242.272 135.751 239.947C134.605 237.622 132.938 235.593 130.88 234.017C128.821 232.441 126.428 231.361 123.884 230.861C121.341 230.36 118.716 230.453 116.214 231.132C113.713 231.811 111.401 233.057 109.46 234.775C107.518 236.492 105.998 238.634 105.019 241.034C104.04 243.434 103.627 246.028 103.813 248.613C103.999 251.199 104.779 253.707 106.092 255.942L106.14 256.002C106.788 257.094 107.598 257.874 108.42 259.002L118.2 271.986C118.483 272.362 118.85 272.668 119.272 272.878C119.694 273.088 120.159 273.198 120.63 273.198C121.101 273.198 121.566 273.088 121.988 272.878C122.409 272.668 122.776 272.362 123.06 271.986L132.66 259.23C133.537 258.196 134.355 257.112 135.108 255.984L135.144 255.942C136.672 253.362 137.482 250.42 137.49 247.422ZM120.6 254.76C119.132 254.76 117.696 254.325 116.476 253.509C115.255 252.693 114.304 251.533 113.742 250.177C113.181 248.82 113.034 247.328 113.321 245.888C113.608 244.448 114.315 243.125 115.354 242.088C116.392 241.05 117.715 240.344 119.155 240.058C120.596 239.772 122.088 239.92 123.444 240.483C124.8 241.045 125.959 241.998 126.774 243.219C127.589 244.44 128.023 245.876 128.022 247.344C128.022 248.318 127.83 249.283 127.457 250.183C127.084 251.083 126.537 251.901 125.848 252.59C125.158 253.279 124.34 253.825 123.44 254.197C122.539 254.569 121.574 254.761 120.6 254.76Z" fill="#E0E0E0"/>
<path d="M74.9039 31.95H45.7139V39.672H74.9039V31.95Z" fill="#EBEBEB"/>
<path d="M62.184 47.808C62.1814 47.762 62.1814 47.716 62.184 47.67V47.274C62.184 46.908 62.184 46.404 62.184 45.75C62.184 44.418 62.184 42.504 62.136 40.086L62.226 40.176L33 40.236L33.15 40.086V42.06C33.15 42.714 33.15 43.368 33.15 44.01V47.808L33 47.664L53.802 47.73L59.94 47.772H61.602H62.034H62.19C62.19 47.772 62.148 47.772 62.058 47.772H61.638H60.012L53.904 47.814L33 47.952H32.856V47.808C32.856 46.564 32.856 45.298 32.856 44.01V40.098L33.006 39.948L62.196 40.008H62.286V40.098C62.286 42.54 62.25 44.472 62.238 45.816C62.238 46.458 62.238 46.962 62.238 47.316C62.238 47.472 62.238 47.598 62.238 47.7C62.238 47.802 62.19 47.814 62.184 47.808Z" fill="#E0E0E0"/>
<path d="M285.522 235.98H256.332V243.702H285.522V235.98Z" fill="#EBEBEB"/>
<path d="M272.802 251.832C272.797 251.786 272.797 251.74 272.802 251.694C272.802 251.592 272.802 251.46 272.802 251.298C272.802 250.932 272.802 250.428 272.802 249.78C272.802 248.442 272.772 246.528 272.754 244.11L272.844 244.2L243.654 244.26C243.72 244.194 243.504 244.41 243.798 244.11V251.826L243.654 251.682L264.456 251.748L270.594 251.79H272.256H272.688H272.844H272.706H272.292H270.66L264.558 251.832L243.6 252H243.45V244.116C243.744 243.822 243.534 244.038 243.6 243.966L272.79 244.026H272.88V244.116C272.88 246.558 272.844 248.49 272.832 249.84C272.832 250.476 272.832 250.98 272.832 251.34C272.832 251.496 272.832 251.616 272.832 251.718C272.825 251.757 272.815 251.795 272.802 251.832Z" fill="#E0E0E0"/>
<path d="M208.2 35.55C208.197 35.504 208.197 35.458 208.2 35.412V35.016C208.2 34.65 208.2 34.146 208.2 33.498C208.2 32.166 208.2 30.246 208.152 27.828L208.242 27.918L179.052 27.978L179.202 27.828V31.746C179.202 33.034 179.202 34.3 179.202 35.544L179.058 35.4L199.86 35.466L205.998 35.508H207.66H208.098H208.2C208.2 35.508 208.158 35.508 208.068 35.508H207.648H206.022L199.914 35.55L179.01 35.616H178.866V35.466C178.866 34.224 178.866 32.958 178.866 31.668V27.834L179.016 27.69L208.206 27.744H208.296V27.834C208.296 30.276 208.26 32.208 208.248 33.558C208.248 34.2 208.248 34.698 208.248 35.058V35.436C208.2 35.514 208.2 35.556 208.2 35.55Z" fill="#E0E0E0"/>
<path d="M212.16 27.828C212.155 27.7801 212.155 27.7319 212.16 27.684V27.276C212.16 26.892 212.16 26.376 212.16 25.728C212.16 24.372 212.124 22.458 212.1 20.106L212.208 20.214L194.67 20.256C194.538 20.388 194.85 20.076 194.814 20.106V24.078C194.814 25.374 194.814 26.622 194.814 27.822L194.676 27.684L207.222 27.75L210.876 27.786H211.86H212.214C212.108 27.7946 212.002 27.7946 211.896 27.786H210.936L207.336 27.828L194.694 27.894H194.55V27.75C194.55 26.55 194.55 25.302 194.55 24.006V20.112L194.7 19.962L212.238 20.004H212.346V20.112C212.346 22.512 212.298 24.426 212.286 25.794C212.286 26.436 212.286 26.946 212.286 27.318C212.286 27.69 212.166 27.84 212.16 27.828Z" fill="#E0E0E0"/>
<path d="M43.4639 255.234C43.4639 255.234 43.4639 255.18 43.4639 255.09V254.694C43.4639 254.334 43.4639 253.824 43.4639 253.176C43.4639 251.844 43.4639 249.924 43.4099 247.512L43.4999 247.602L14.3099 247.656L14.4599 247.512V251.424C14.4599 252.708 14.4599 253.98 14.4599 255.222L14.3159 255.072L35.1179 255.144L41.2559 255.18H42.9179H43.3559H43.5059H43.3739H42.9539H41.3279L35.2199 255.222L14.3159 255.288H14.1719V255.144C14.1719 253.902 14.1719 252.63 14.1719 251.346V247.434L14.3219 247.284L43.5119 247.344H43.6019V247.434C43.6019 249.87 43.5659 251.808 43.5539 253.152C43.5539 253.794 43.5539 254.292 43.5539 254.652V255.03C43.5393 255.104 43.5086 255.174 43.4639 255.234Z" fill="#E0E0E0"/>
<path d="M47.3998 247.512C47.3954 247.462 47.3954 247.412 47.3998 247.362C47.3998 247.254 47.3998 247.116 47.3998 246.954C47.3998 246.576 47.3998 246.06 47.3998 245.406C47.3998 244.05 47.3638 242.136 47.3398 239.79L47.4478 239.892L29.9098 239.934L30.0538 239.79V243.756C30.0538 245.046 30.0538 246.3 30.0538 247.5L29.9158 247.356L42.4618 247.422L46.1158 247.464H47.0998H47.4538C47.348 247.473 47.2416 247.473 47.1358 247.464H46.1758L42.5758 247.5L29.9338 247.566H29.7898V247.428C29.7898 246.228 29.7898 244.974 29.7898 243.684V239.718L29.9398 239.568L47.4778 239.61H47.5858V239.718C47.5858 242.118 47.5378 244.026 47.5258 245.4C47.5258 246.042 47.5258 246.546 47.5258 246.924C47.5258 247.302 47.4298 247.518 47.3998 247.512Z" fill="#E0E0E0"/>
<path d="M274.164 277.566C274.164 277.65 216.702 277.722 145.836 277.722C74.9701 277.722 17.4961 277.65 17.4961 277.566C17.4961 277.482 74.9461 277.41 145.836 277.41C216.726 277.41 274.164 277.482 274.164 277.566Z" fill="#263238"/>
<path d="M261.912 50.994H29.7839C25.5324 50.994 22.0859 54.4405 22.0859 58.692V215.778C22.0859 220.029 25.5324 223.476 29.7839 223.476H261.912C266.163 223.476 269.61 220.029 269.61 215.778V58.692C269.61 54.4405 266.163 50.994 261.912 50.994Z" fill="#263238"/>
<path d="M269.61 58.692L269.574 58.152C269.564 57.9304 269.538 57.7098 269.496 57.492C269.451 57.1852 269.383 56.8823 269.292 56.586C269.004 55.5831 268.515 54.6496 267.854 53.8428C267.192 53.0359 266.373 52.3728 265.446 51.894C264.8 51.5634 264.111 51.3231 263.4 51.18C262.607 51.0495 261.803 51.0012 261 51.036H255.426H241.524L152.934 51.09H91.7339H30.7379C29.9838 51.0602 29.2286 51.1003 28.4819 51.21C27.7391 51.336 27.0205 51.5768 26.3519 51.924C25.001 52.6174 23.8891 53.7 23.1599 55.032C22.806 55.7028 22.5475 56.4197 22.3919 57.162C22.2682 57.9194 22.22 58.6871 22.2479 59.454V73.572C22.2479 79.904 22.2479 86.304 22.2479 92.772V132.372C22.2479 159.282 22.2479 187.14 22.2479 215.676C22.2428 217.432 22.8526 219.135 23.9716 220.488C25.0906 221.842 26.6481 222.761 28.3739 223.086C29.2416 223.215 30.1197 223.259 30.9959 223.218H101.004H178.608H248.808H261.018C261.679 223.24 262.341 223.209 262.998 223.128C264.601 222.906 266.089 222.173 267.242 221.038C268.395 219.903 269.152 218.427 269.4 216.828C269.474 216.189 269.5 215.545 269.478 214.902C269.478 214.254 269.478 213.612 269.478 212.964V209.118C269.478 198.914 269.478 189.128 269.478 179.76C269.478 142.362 269.52 112.092 269.532 91.17C269.532 80.718 269.532 72.57 269.562 67.086C269.562 64.338 269.562 62.238 269.562 60.822C269.562 59.406 269.562 58.692 269.562 58.692C269.562 58.692 269.562 59.412 269.562 60.822C269.562 62.232 269.562 64.338 269.562 67.086C269.562 72.594 269.562 80.718 269.562 91.17C269.562 112.092 269.598 142.362 269.622 179.76C269.622 189.112 269.622 198.898 269.622 209.118C269.622 210.396 269.622 211.674 269.622 212.964V214.902C269.642 215.557 269.614 216.213 269.538 216.864C269.349 218.195 268.822 219.456 268.007 220.525C267.192 221.595 266.116 222.437 264.882 222.972C264.258 223.235 263.602 223.419 262.932 223.518C262.263 223.601 261.589 223.633 260.916 223.614H248.832H178.632H101.028H31.0079C30.1116 223.654 29.2134 223.608 28.3259 223.476C26.5201 223.136 24.8902 222.174 23.7188 220.758C22.5473 219.343 21.9081 217.562 21.9119 215.724C21.9119 187.188 21.9119 159.324 21.9119 132.42C21.9119 118.968 21.9119 105.768 21.9119 92.82V59.514C21.8861 58.7268 21.9384 57.9389 22.0679 57.162C22.2299 56.3886 22.4985 55.6415 22.8659 54.942C23.6316 53.5554 24.7902 52.4261 26.1959 51.696C26.8935 51.3371 27.6423 51.0882 28.4159 50.958C29.1804 50.8446 29.9537 50.8025 30.7259 50.832H57.6599H91.7399H152.94L241.53 50.886H255.432H261C261.803 50.8589 262.607 50.9111 263.4 51.042C264.119 51.1864 264.814 51.4329 265.464 51.774C266.397 52.2593 267.22 52.9309 267.882 53.7473C268.545 54.5636 269.033 55.5074 269.316 56.52C269.404 56.8165 269.468 57.1194 269.508 57.426C269.548 57.6459 269.572 57.8685 269.58 58.092C269.61 58.506 269.61 58.692 269.61 58.692Z" fill="#263238"/>
<path d="M257.172 130.614C258.477 130.614 259.753 131.001 260.839 131.726C261.924 132.452 262.77 133.482 263.27 134.688C263.769 135.894 263.9 137.221 263.645 138.502C263.391 139.782 262.762 140.958 261.839 141.881C260.916 142.804 259.74 143.433 258.46 143.687C257.179 143.942 255.852 143.811 254.646 143.312C253.44 142.812 252.41 141.966 251.684 140.881C250.959 139.795 250.572 138.519 250.572 137.214C250.572 135.464 251.267 133.785 252.505 132.547C253.743 131.309 255.422 130.614 257.172 130.614Z" fill="#455A64"/>
<path d="M35.166 119.562V154.8C35.1667 155.123 35.1039 155.443 34.9809 155.741C34.8579 156.039 34.6773 156.311 34.4493 156.539C34.2214 156.768 33.9506 156.949 33.6524 157.073C33.3543 157.196 33.0347 157.26 32.712 157.26C32.3889 157.26 32.069 157.196 31.7706 157.073C31.4721 156.949 31.2009 156.768 30.9725 156.539C30.744 156.311 30.5628 156.04 30.4392 155.741C30.3156 155.443 30.252 155.123 30.252 154.8V119.58C30.252 118.928 30.5111 118.302 30.9725 117.841C31.4338 117.379 32.0595 117.12 32.712 117.12C33.3607 117.12 33.9831 117.377 34.443 117.835C34.9028 118.292 35.1628 118.913 35.166 119.562Z" fill="#455A64"/>
<path d="M246.456 56.58H39.7439V218.184H246.456V56.58Z" fill="#EBEBEB"/>
<path d="M173.022 173.238L189.006 201.408L228.306 200.826L226.08 170.256L173.022 173.238Z" fill="#E0E0E0"/>
<path d="M121.074 78.108L115.302 122.634L127.224 125.478L150.534 123.162L146.256 74.52L121.074 78.108Z" fill="#E0E0E0"/>
<path d="M84.8638 169.236H57.3118V136.062L87.2518 136.362L84.8638 169.236Z" fill="#F5F5F5"/>
<path d="M198.288 170.256C198.288 169.314 203.142 136.362 203.142 136.362C203.142 136.362 222.138 131.16 222.21 131.904C222.282 132.648 225.99 169.38 225.99 169.38L198.288 170.256Z" fill="#F5F5F5"/>
<path d="M60.48 85.86C60.534 86.664 73.638 113.016 73.638 113.016L88.812 108.996V78.678L73.164 78.318L60.48 85.86Z" fill="#E0E0E0"/>
<path d="M153.144 140.844H132.162V150.744H153.144V140.844Z" fill="#E0E0E0"/>
<path d="M153.24 154.026L132.108 155.094L131.034 175.158L155.166 173.238L153.24 154.026Z" fill="#E0E0E0"/>
<path d="M237.888 116.82L234.954 76.092H246.402L246.456 116.01L237.888 116.82Z" fill="#E0E0E0"/>
<path d="M191.004 69.42L195.774 120.174L220.8 117.93L216.432 74.64L196.62 69.42H191.004Z" fill="#E0E0E0"/>
<path d="M76.0199 78.498L39.8879 77.952L39.9239 75.552L74.0639 76.068L78.0059 56.598L80.3639 57.072L76.0199 78.498Z" fill="white"/>
<path d="M57.1379 117.702L39.6299 78.438L40.1759 78.192L57.4799 116.988L88.7399 108.702L88.8899 109.284L57.1379 117.702Z" fill="white"/>
<path d="M87.2579 135.762H39.9119V136.962H87.2579V135.762Z" fill="white"/>
<path d="M57.6059 117.348H57.0059V169.242H57.6059V117.348Z" fill="white"/>
<path d="M85.0259 168.972H39.9119V169.572H85.0259V168.972Z" fill="white"/>
<path d="M82.686 216.186L39.72 206.706L40.236 204.36L80.496 213.246L87.402 117.156L88.44 77.19L90.054 56.742L92.442 56.928L90.834 77.346L89.802 117.276L82.686 216.186Z" fill="white"/>
<path d="M89.5379 79.956L74.9219 78.48L75.1679 76.092L88.0859 77.4L90.2219 72.84L109.476 77.508L196.056 67.638L226.218 75.474L246.366 74.892L246.438 77.286L225.948 77.886L195.882 70.074L109.326 79.938L91.5659 75.636L89.5379 79.956Z" fill="white"/>
<path d="M190.2 172.122L187.818 171.81L194.562 120.162L189.378 69.468V56.58H191.778V69.408L196.98 120.192L190.2 172.122Z" fill="white"/>
<path d="M83.844 179.226L83.7 176.832L225.222 168.228L244.482 129.012L246.636 130.068L226.764 170.538L226.068 170.58L83.844 179.226Z" fill="white"/>
<path d="M154.704 174.684L145.656 74.574L145.164 56.856L146.364 56.82L146.856 74.508L155.898 174.576L154.704 174.684Z" fill="white"/>
<path d="M135.708 217.542L125.244 174.81V126.474L113.466 123.546L118.578 77.664L118.104 56.604L120.504 56.55L120.984 77.772L120.978 77.85L116.082 121.722L127.644 124.602V174.516L138.042 216.972L135.708 217.542Z" fill="white"/>
<path d="M126.444 136.062H87.252V136.662H126.444V136.062Z" fill="white"/>
<path d="M88.6556 116.945L88.5347 117.533L114.71 122.92L114.831 122.332L88.6556 116.945Z" fill="white"/>
<path d="M126.378 156.228L117.066 154.17V136.362H117.666V153.69L126.51 155.64L126.378 156.228Z" fill="white"/>
<path d="M111.84 217.512L106.608 200.718H82.6619V198.318H108.372L114.132 216.798L111.84 217.512Z" fill="white"/>
<path d="M188.832 201.714L172.764 173.382L173.286 173.088L189.18 201.108L246.324 200.256L246.336 200.856L188.832 201.714Z" fill="white"/>
<path d="M216.948 201.408H216.348V217.584H216.948V201.408Z" fill="white"/>
<path d="M228.006 200.85L225.78 170.28L214.308 56.61L214.908 56.55L226.38 170.226L228.606 200.802L228.006 200.85Z" fill="white"/>
<path d="M246.434 115.699L126.422 125.229L126.469 125.827L246.482 116.297L246.434 115.699Z" fill="white"/>
<path d="M235.546 77.0798L234.351 77.1871L237.915 116.885L239.11 116.778L235.546 77.0798Z" fill="white"/>
<path d="M236.911 99.3809L219.328 103.732L219.472 104.315L237.055 99.9634L236.911 99.3809Z" fill="white"/>
<path d="M229.182 101.382L226.068 83.73L217.29 82.8L217.35 82.206L226.578 83.184L229.77 101.274L229.182 101.382Z" fill="white"/>
<path d="M169.755 72.4712L168.559 72.5737L172.727 121.187L173.922 121.085L169.755 72.4712Z" fill="white"/>
<path d="M193.067 99.0523L171.802 103.732L171.931 104.318L193.196 99.6383L193.067 99.0523Z" fill="white"/>
<path d="M188.425 201.338L186.241 218.273L187.431 218.427L189.615 201.491L188.425 201.338Z" fill="white"/>
<path d="M89.64 137.382L87.252 174.63L124.482 172.818V158.202L114.732 156.048V138.984L89.64 137.382Z" fill="#E0E0E0"/>
<path d="M79.3858 146.454C79.3865 145.154 79.0874 143.871 78.5118 142.704C77.9361 141.538 77.0994 140.521 76.0666 139.731C75.0338 138.94 73.8327 138.399 72.5567 138.148C71.2807 137.897 69.964 137.944 68.7091 138.285C67.4541 138.626 66.2945 139.251 65.3205 140.113C64.3465 140.975 63.5842 142.049 63.0929 143.253C62.6016 144.457 62.3944 145.758 62.4875 147.055C62.5807 148.352 62.9715 149.611 63.6298 150.732V150.762C63.9538 151.308 64.3558 151.698 64.7698 152.274L69.6778 158.778C69.8204 158.967 70.0049 159.12 70.2168 159.226C70.4287 159.331 70.6621 159.386 70.8988 159.386C71.1355 159.386 71.369 159.331 71.5808 159.226C71.7927 159.12 71.9772 158.967 72.1198 158.778L76.9198 152.382C77.359 151.863 77.7696 151.32 78.1498 150.756C78.9433 149.46 79.3705 147.973 79.3858 146.454ZM70.9258 150.138C70.1884 150.139 69.4672 149.922 68.8535 149.513C68.2399 149.104 67.7614 148.522 67.4786 147.841C67.1958 147.16 67.1215 146.41 67.2651 145.687C67.4087 144.963 67.7637 144.299 68.2851 143.777C68.8066 143.256 69.4711 142.901 70.1944 142.757C70.9177 142.614 71.6674 142.688 72.3485 142.971C73.0296 143.254 73.6114 143.732 74.0204 144.346C74.4293 144.959 74.647 145.681 74.6458 146.418C74.6442 147.404 74.2518 148.349 73.5545 149.047C72.8572 149.744 71.9119 150.136 70.9258 150.138Z" fill="#F2575D"/>
<path d="M159 116.688C159.003 115.386 158.706 114.102 158.131 112.934C157.557 111.766 156.721 110.746 155.688 109.954C154.655 109.162 153.453 108.619 152.176 108.367C150.899 108.115 149.581 108.162 148.325 108.502C147.069 108.843 145.908 109.469 144.934 110.332C143.959 111.194 143.196 112.27 142.705 113.475C142.214 114.681 142.008 115.983 142.102 117.281C142.197 118.58 142.589 119.838 143.25 120.96V120.996C143.574 121.542 143.982 121.932 144.396 122.508L149.316 129C149.458 129.189 149.643 129.342 149.855 129.448C150.067 129.553 150.3 129.608 150.537 129.608C150.774 129.608 151.007 129.553 151.219 129.448C151.431 129.342 151.615 129.189 151.758 129L156.6 122.61C157.03 122.091 157.431 121.548 157.8 120.984C158.58 119.686 158.994 118.202 159 116.688ZM150.54 120.372C149.803 120.372 149.082 120.153 148.47 119.744C147.857 119.335 147.379 118.753 147.097 118.072C146.815 117.391 146.742 116.642 146.885 115.919C147.029 115.196 147.384 114.532 147.905 114.011C148.426 113.49 149.09 113.135 149.813 112.992C150.536 112.848 151.285 112.922 151.966 113.204C152.647 113.486 153.228 113.963 153.638 114.576C154.047 115.189 154.266 115.909 154.266 116.646C154.266 117.136 154.169 117.621 153.982 118.073C153.794 118.526 153.519 118.937 153.172 119.283C152.826 119.629 152.414 119.903 151.962 120.09C151.509 120.277 151.024 120.373 150.534 120.372H150.54Z" fill="#F2575D"/>
<path d="M123.876 189.972C123.879 189.079 123.676 188.197 123.282 187.396C122.888 186.594 122.315 185.895 121.607 185.351C120.898 184.807 120.074 184.434 119.198 184.261C118.322 184.088 117.418 184.12 116.556 184.354C115.694 184.587 114.898 185.017 114.229 185.608C113.56 186.2 113.037 186.938 112.7 187.765C112.364 188.592 112.222 189.486 112.287 190.377C112.353 191.267 112.622 192.131 113.076 192.9C113.298 193.272 113.58 193.542 113.862 193.932L117.228 198.396C117.326 198.524 117.452 198.628 117.597 198.699C117.741 198.771 117.901 198.808 118.062 198.808C118.223 198.808 118.382 198.771 118.527 198.699C118.672 198.628 118.798 198.524 118.896 198.396L122.208 194.01C122.509 193.653 122.792 193.281 123.054 192.894C123.584 192.011 123.868 191.002 123.876 189.972ZM118.074 192.498C117.568 192.499 117.073 192.35 116.652 192.07C116.231 191.79 115.903 191.391 115.708 190.924C115.514 190.457 115.462 189.943 115.56 189.447C115.658 188.951 115.901 188.495 116.258 188.137C116.616 187.779 117.071 187.535 117.567 187.436C118.063 187.336 118.577 187.387 119.045 187.58C119.512 187.773 119.912 188.101 120.193 188.521C120.474 188.942 120.624 189.436 120.624 189.942C120.625 190.277 120.559 190.61 120.432 190.92C120.304 191.23 120.116 191.512 119.879 191.749C119.642 191.986 119.361 192.175 119.051 192.303C118.741 192.432 118.409 192.498 118.074 192.498Z" fill="#F2575D"/>
<path d="M229.122 84.66C229.116 83.2147 228.57 81.8237 227.593 80.7594C226.615 79.6951 225.275 79.034 223.835 78.9057C222.396 78.7773 220.96 79.1909 219.809 80.0655C218.659 80.94 217.876 82.2126 217.614 83.634C217.366 84.9942 217.618 86.3982 218.322 87.588C218.544 87.96 218.826 88.23 219.108 88.626L222.474 93.084C222.572 93.2121 222.698 93.316 222.843 93.3874C222.987 93.4589 223.147 93.4961 223.308 93.4961C223.469 93.4961 223.628 93.4589 223.773 93.3874C223.918 93.316 224.044 93.2121 224.142 93.084L227.454 88.698C227.755 88.3412 228.038 87.9686 228.3 87.582C228.83 86.6988 229.114 85.6899 229.122 84.66ZM223.32 87.186C222.814 87.1872 222.319 87.0381 221.898 86.7577C221.476 86.4773 221.148 86.0782 220.954 85.6109C220.759 85.1436 220.708 84.6292 220.807 84.1328C220.905 83.6364 221.149 83.1804 221.507 82.8226C221.864 82.4648 222.32 82.2212 222.817 82.1228C223.313 82.0244 223.828 82.0755 224.295 82.2697C224.762 82.4639 225.161 82.7924 225.442 83.2137C225.722 83.6349 225.871 84.1299 225.87 84.636C225.87 85.3123 225.601 85.9609 225.123 86.4391C224.645 86.9173 223.996 87.186 223.32 87.186Z" fill="#F2575D"/>
<path d="M105.6 87.42C105.602 85.8389 105.239 84.2786 104.54 82.8605C103.84 81.4424 102.824 80.2046 101.568 79.2433C100.313 78.282 98.8529 77.6231 97.3015 77.3179C95.7501 77.0126 94.1492 77.0692 92.6232 77.4832C91.0973 77.8972 89.6873 78.6575 88.5029 79.705C87.3186 80.7524 86.3917 82.0589 85.7943 83.5228C85.1969 84.9868 84.9451 86.5688 85.0585 88.1458C85.1718 89.7229 85.6473 91.2526 86.448 92.616L86.478 92.652C86.868 93.318 87.366 93.792 87.864 94.488L93.834 102.402C94.0074 102.631 94.2315 102.816 94.4886 102.944C94.7457 103.072 95.0289 103.138 95.316 103.138C95.6031 103.138 95.8862 103.072 96.1433 102.944C96.4004 102.816 96.6245 102.631 96.798 102.402L102.672 94.602C103.207 93.9708 103.706 93.3097 104.166 92.622C105.099 91.0469 105.594 89.2508 105.6 87.42ZM95.31 91.896C94.4138 91.896 93.5377 91.6302 92.7926 91.1321C92.0475 90.6341 91.4669 89.9263 91.1242 89.0982C90.7815 88.2701 90.6922 87.3589 90.8675 86.48C91.0427 85.6011 91.4748 84.794 92.1089 84.1607C92.743 83.5274 93.5508 83.0964 94.4299 82.9223C95.309 82.7482 96.2201 82.8388 97.0477 83.1825C97.8753 83.5263 98.5824 84.1079 99.0795 84.8536C99.5765 85.5994 99.8412 86.4758 99.84 87.372C99.8384 88.5724 99.3604 89.7231 98.511 90.5713C97.6617 91.4196 96.5104 91.896 95.31 91.896Z" fill="#F2575D"/>
<path d="M50.3999 251.742C50.3999 251.742 36.8879 236.232 31.7999 220.716C26.7119 205.2 29.1359 207 29.1359 207C29.1359 207 35.9999 222.054 41.2139 229.332C46.4279 236.61 55.7099 247.296 55.7099 247.296L50.3999 251.742Z" fill="#455A64"/>
<path d="M53.0579 209.4C52.9684 209.239 52.8253 209.115 52.6536 209.049C52.4819 208.983 52.2925 208.979 52.1183 209.039C51.9442 209.098 51.7963 209.216 51.7005 209.373C51.6047 209.53 51.567 209.716 51.5939 209.898C52.4159 215.352 54.1919 228.138 54.1199 236.43C54.0299 247.23 54.1199 251.37 54.1199 251.37H59.7299C59.7299 251.37 58.7339 229.098 57.4679 222.306C56.5859 217.548 54.6959 212.262 53.0579 209.4Z" fill="#455A64"/>
<path d="M56.1118 249.558C58.4654 244.233 60.0221 238.591 60.7318 232.812C61.1938 228.846 60.3718 223.482 59.1418 216.33C58.6693 213.715 58.4324 211.062 58.4338 208.404C58.442 208.11 58.5471 207.826 58.7327 207.598C58.9184 207.369 59.1743 207.208 59.4607 207.14C59.7471 207.071 60.0481 207.1 60.317 207.22C60.5858 207.34 60.8076 207.545 60.9478 207.804C61.6258 209.004 63.5818 213.138 64.0798 215.73C65.4418 222.792 66.9778 226.32 65.8018 233.022C64.6258 239.724 60.2818 250.044 60.2818 250.044L56.1118 249.558Z" fill="#455A64"/>
<path d="M61.2 250.014C61.2 250.014 75.996 218.214 77.022 213.492C78.048 208.77 81.534 197.892 81.948 198.492C82.362 199.092 82.974 204.852 80.304 211.416C77.634 217.98 66.252 250.956 66.252 250.956H61.2" fill="#455A64"/>
<path d="M54.492 248.592C54.3467 248.507 54.2082 248.411 54.078 248.304C53.814 248.106 53.418 247.824 52.932 247.428C51.948 246.654 50.568 245.478 48.954 243.918C44.7865 239.808 41.1776 235.169 38.22 230.118C35.2703 225.081 32.8148 219.77 30.888 214.26C30.144 212.148 29.604 210.42 29.25 209.22C29.07 208.62 28.944 208.152 28.854 207.834C28.8051 207.673 28.767 207.508 28.74 207.342C28.8127 207.495 28.8729 207.653 28.92 207.816C29.028 208.152 29.178 208.608 29.37 209.184C29.754 210.384 30.33 212.088 31.098 214.188C33.08 219.663 35.5541 224.946 38.49 229.974C41.4408 234.999 45.0085 239.635 49.11 243.774C50.694 245.346 52.05 246.546 53.01 247.374C53.484 247.788 53.868 248.082 54.12 248.298C54.2531 248.384 54.3777 248.482 54.492 248.592Z" fill="#263238"/>
<path d="M56.1118 233.334C56.044 233.026 55.9999 232.713 55.9798 232.398C55.9078 231.738 55.8178 230.88 55.7098 229.848C55.4758 227.7 55.1098 224.73 54.5818 221.448C54.0538 218.166 53.4778 215.256 53.0218 213.138C52.8058 212.124 52.6258 211.278 52.4818 210.63C52.398 210.326 52.3437 210.014 52.3198 209.7C52.4363 209.992 52.5305 210.293 52.6018 210.6C52.7698 211.2 52.9918 212.034 53.2438 213.09C53.7538 215.196 54.3718 218.13 54.8938 221.394C55.4158 224.658 55.7518 227.646 55.9318 229.794C56.0218 230.874 56.0758 231.75 56.1058 232.356C56.1387 232.681 56.1407 233.009 56.1118 233.334Z" fill="#263238"/>
<path d="M59.5799 207.522C59.6516 207.652 59.7099 207.788 59.7539 207.93L60.1979 209.13C60.3959 209.64 60.6179 210.27 60.8339 211.02C61.0499 211.77 61.3379 212.61 61.5539 213.57C61.6679 214.044 61.7939 214.542 61.9199 215.064C62.0459 215.586 62.1299 216.138 62.2439 216.702C62.4839 217.83 62.6339 219.054 62.8439 220.338C63.1623 223.136 63.2807 225.953 63.1979 228.768C63.0811 231.587 62.7623 234.394 62.2439 237.168C61.9739 238.44 61.7339 239.652 61.4159 240.768C61.2599 241.32 61.1339 241.866 60.9719 242.376C60.8099 242.886 60.6479 243.372 60.4979 243.84C60.2159 244.782 59.8979 245.598 59.5979 246.33C59.2979 247.062 59.0639 247.674 58.8299 248.172L58.3019 249.318C58.2496 249.456 58.1811 249.587 58.0979 249.708C58.1353 249.567 58.1834 249.428 58.2419 249.294L58.7159 248.124C58.9319 247.62 59.1839 247.002 59.4359 246.264C59.6879 245.526 60.0359 244.71 60.2879 243.774L60.7379 242.304C60.8939 241.794 61.0139 241.254 61.1579 240.702C61.4699 239.592 61.6919 238.386 61.9559 237.102C62.4532 234.346 62.7639 231.56 62.8859 228.762C62.9648 225.958 62.8546 223.151 62.5559 220.362C62.3879 219.084 62.2439 217.86 62.0159 216.762C61.9079 216.198 61.8299 215.646 61.7099 215.13L61.3679 213.636C61.1639 212.676 60.8999 211.836 60.6959 211.086C60.4919 210.336 60.2879 209.7 60.0959 209.178C59.9039 208.656 59.8019 208.284 59.7059 207.978C59.6465 207.831 59.6042 207.678 59.5799 207.522Z" fill="#263238"/>
<path d="M81.7498 199.152C81.7525 199.2 81.7525 199.248 81.7498 199.296C81.7498 199.41 81.7078 199.542 81.6838 199.71C81.6178 200.07 81.5338 200.61 81.3898 201.294C81.1018 202.662 80.6278 204.63 79.8898 207.018C79.1518 209.406 78.1378 212.208 76.9378 215.286C75.7378 218.364 74.3578 221.718 73.0438 225.288C71.7298 228.858 70.6858 232.338 69.7198 235.488C68.7538 238.638 67.8539 241.488 66.9719 243.828C66.2956 245.682 65.5163 247.497 64.6379 249.264C64.3379 249.894 64.0379 250.362 63.8879 250.686L63.6779 251.052C63.6558 251.094 63.6297 251.135 63.5999 251.172C63.5999 251.172 63.5999 251.124 63.6539 251.034L63.8279 250.656C63.9899 250.326 64.2419 249.846 64.5299 249.21C65.1299 247.95 65.9279 246.096 66.7679 243.75C67.6079 241.404 68.4959 238.566 69.4379 235.404C70.3799 232.242 71.4119 228.75 72.7499 225.174C74.0878 221.598 75.4618 218.244 76.6678 215.172C77.8738 212.1 78.9118 209.316 79.6678 206.946C80.4238 204.576 80.9398 202.614 81.2638 201.258C81.4258 200.58 81.5278 200.058 81.6118 199.692C81.6539 199.53 81.6838 199.392 81.7078 199.284C81.7149 199.238 81.729 199.194 81.7498 199.152Z" fill="#263238"/>
<path d="M36.1139 192.126C35.9089 191.932 35.6457 191.812 35.3651 191.783C35.0846 191.755 34.8025 191.82 34.5628 191.969C34.3232 192.117 34.1394 192.341 34.0401 192.605C33.9408 192.869 33.9316 193.158 34.0139 193.428C34.5193 195.07 35.1409 196.674 35.8739 198.228C37.9079 202.548 43.8839 218.064 46.6739 226.584C49.4639 235.104 53.3999 250.98 53.3999 250.98L59.3999 250.014C59.3999 250.014 53.9339 223.896 48.5999 214.488C44.2979 206.928 40.0079 195.996 36.1139 192.126Z" fill="#455A64"/>
<path d="M48.3179 231.894C48.4413 232.124 48.5438 232.365 48.6239 232.614C48.8039 233.082 49.0439 233.766 49.3139 234.618C49.8659 236.322 50.5139 238.704 51.2159 241.344C51.9179 243.984 52.4579 246.396 52.8479 248.142L53.2979 250.212C53.3572 250.464 53.3913 250.721 53.3999 250.98C53.2901 250.744 53.2076 250.497 53.1539 250.242C53.0099 249.696 52.8239 249.012 52.6079 248.196C52.1519 246.396 51.5519 244.038 50.8859 241.422C50.2199 238.806 49.5719 236.4 49.0859 234.684L48.4859 232.65C48.4012 232.405 48.3448 232.152 48.3179 231.894Z" fill="#263238"/>
<path d="M56.3999 250.5C56.3804 250.448 56.3683 250.393 56.3639 250.338C56.3639 250.212 56.3219 250.056 56.2979 249.87C56.2319 249.456 56.1779 248.838 56.0519 248.07C55.8359 246.498 55.4519 244.242 54.7979 241.47C54.0357 238.241 53.1023 235.054 52.0019 231.924C50.8019 228.384 49.2419 224.562 47.5019 220.602C43.9859 212.694 40.4759 205.686 38.1659 200.496C37.0019 197.91 36.0959 195.798 35.5019 194.328C35.2019 193.596 34.9859 193.02 34.8299 192.63L34.6679 192.186C34.6454 192.136 34.6293 192.084 34.6199 192.03C34.6199 192.03 34.6199 192.072 34.6979 192.174L34.8899 192.606L35.6159 194.28C36.2699 195.738 37.1999 197.832 38.3999 200.4C40.7579 205.56 44.2979 212.55 47.8199 220.47C49.5659 224.436 51.0959 228.27 52.3079 231.822C53.3994 234.969 54.3148 238.174 55.0499 241.422C55.5434 243.602 55.9278 245.804 56.2019 248.022C56.3099 248.808 56.3459 249.426 56.3879 249.822C56.3879 250.02 56.3879 250.176 56.4299 250.296C56.4317 250.365 56.4216 250.434 56.3999 250.5Z" fill="#263238"/>
<path d="M59.3999 250.014C59.31 249.683 59.2438 249.346 59.2019 249.006C59.0819 248.31 58.9259 247.38 58.7339 246.264C58.3259 243.948 57.6959 240.762 56.7899 237.264C55.8839 233.766 54.8879 230.706 54.1139 228.486L53.1779 225.858C53.0476 225.542 52.9413 225.218 52.8599 224.886C53.0304 225.183 53.1749 225.494 53.2919 225.816C53.5499 226.416 53.8919 227.304 54.3239 228.408C55.4032 231.283 56.3285 234.213 57.0959 237.186C57.8672 240.153 58.488 243.157 58.9559 246.186C59.1239 247.35 59.2559 248.292 59.3219 248.952C59.3803 249.303 59.4064 249.658 59.3999 250.014Z" fill="#263238"/>
<path d="M71.6519 249.156H48.3359V277.566H71.6519V249.156Z" fill="#F2575D"/>
<g opacity="0.3">
<path opacity="0.3" d="M71.6519 249.156H48.3359V277.566H71.6519V249.156Z" fill="black"/>
</g>
<path d="M64.2178 249.156H43.5298V277.566H64.2178V249.156Z" fill="#F2575D"/>
<path d="M154.074 189.306C154.074 189.306 154.074 210.402 153.81 211.59C153.546 212.778 152.928 219.102 154.47 222.036C156.012 224.97 159.678 230.916 162.87 231.744C166.062 232.572 167.868 231.744 167.868 231.744C167.868 231.744 169.83 218.004 169.188 214.062C168.546 210.12 167.088 201.516 167.088 201.516L157.2 190.296L154.074 189.306Z" fill="#FFBE9D"/>
<path d="M178.926 160.35L188.244 157.488L205.866 156.312L216.528 158.334L204.948 176.892L188.244 175.632L178.926 160.35Z" fill="#FFBE9D"/>
<path d="M215.814 122.052C215.913 126.514 215.066 130.946 213.328 135.057C211.591 139.167 209.003 142.864 205.734 145.902C204.23 141.554 202.728 137.202 201.228 132.846" fill="#263238"/>
<path d="M181.842 96.084C185.712 93.972 190.386 93.684 194.706 94.536C199.026 95.388 203.058 97.356 206.874 99.564C209.01 100.8 211.146 102.162 212.688 104.1C215.496 107.634 218.268 113.436 218.544 117.942C218.76 121.584 217.344 130.704 215.826 134.016C214.41 137.052 207.798 139.362 204.534 140.112L174.6 105.276C175.138 103.34 176.055 101.531 177.298 99.9528C178.541 98.3748 180.086 97.0597 181.842 96.084Z" fill="#263238"/>
<path d="M176.676 100.8L183.876 99.516C179.952 108.864 178.89 130.236 176.64 140.124C173.994 136.284 167.85 124.59 168.18 119.934C168.51 115.278 168.144 99.99 176.676 100.8Z" fill="#263238"/>
<path d="M210.726 116.346C210.598 113.724 209.633 111.213 207.972 109.18C206.311 107.148 204.042 105.702 201.498 105.054L184.962 100.854C177.816 100.086 173.04 108.876 172.572 116.052C172.056 124.02 171.732 132.426 172.662 138.378C174.534 150.336 183.696 151.884 183.696 151.884C183.696 151.884 183.696 157.572 183.696 161.064L198.468 172.77L207.06 159.336L210.756 116.514C210.768 116.286 210.744 116.616 210.726 116.346Z" fill="#FFBE9D"/>
<path d="M176.166 125.058C176.161 125.458 176.312 125.845 176.588 126.135C176.864 126.425 177.242 126.596 177.642 126.612C177.837 126.627 178.033 126.604 178.219 126.543C178.405 126.481 178.576 126.383 178.724 126.255C178.872 126.126 178.992 125.97 179.078 125.794C179.164 125.618 179.215 125.427 179.226 125.232C179.231 124.832 179.079 124.445 178.804 124.155C178.528 123.865 178.15 123.694 177.75 123.678C177.555 123.662 177.358 123.685 177.172 123.746C176.986 123.807 176.814 123.904 176.666 124.033C176.518 124.162 176.398 124.319 176.312 124.495C176.226 124.671 176.176 124.862 176.166 125.058Z" fill="#263238"/>
<path d="M174.366 120.708C174.558 120.912 175.722 120.054 177.366 120.06C179.01 120.066 180.222 120.9 180.402 120.696C180.492 120.606 180.3 120.246 179.772 119.862C179.06 119.365 178.211 119.101 177.342 119.106C176.481 119.099 175.641 119.365 174.942 119.868C174.45 120.258 174.276 120.6 174.366 120.708Z" fill="#263238"/>
<path d="M190.554 125.058C190.55 125.452 190.699 125.832 190.968 126.119C191.237 126.406 191.607 126.578 192 126.6C192.195 126.616 192.392 126.593 192.578 126.532C192.764 126.471 192.936 126.374 193.084 126.245C193.232 126.116 193.352 125.959 193.438 125.783C193.524 125.607 193.573 125.416 193.584 125.22C193.591 124.82 193.44 124.434 193.166 124.143C192.891 123.853 192.514 123.682 192.114 123.666C191.92 123.653 191.725 123.679 191.541 123.742C191.357 123.805 191.187 123.905 191.042 124.034C190.896 124.164 190.778 124.321 190.695 124.497C190.611 124.673 190.563 124.864 190.554 125.058Z" fill="#263238"/>
<path d="M190.038 120.708C190.23 120.912 191.394 120.054 193.038 120.06C194.682 120.066 195.9 120.9 196.074 120.696C196.164 120.606 195.972 120.246 195.444 119.862C194.732 119.365 193.883 119.101 193.014 119.106C192.154 119.099 191.313 119.366 190.614 119.868C190.122 120.258 189.948 120.6 190.038 120.708Z" fill="#263238"/>
<path d="M184.884 133.674C184.884 133.578 183.864 133.398 182.202 133.182C181.782 133.14 181.38 133.05 181.314 132.768C181.277 132.331 181.376 131.893 181.596 131.514L182.85 128.31C184.59 123.744 185.85 119.994 185.67 119.91C185.49 119.826 183.924 123.51 182.184 128.052L180.984 131.28C180.722 131.788 180.643 132.371 180.762 132.93C180.825 133.076 180.921 133.206 181.041 133.31C181.162 133.414 181.304 133.489 181.458 133.53C181.69 133.595 181.93 133.629 182.172 133.632C183.84 133.758 184.878 133.764 184.884 133.674Z" fill="#263238"/>
<path d="M199.56 147.6C199.56 147.6 195.666 155.814 183.702 154.668V151.86C189.28 151.935 194.77 150.461 199.56 147.6Z" fill="#EB996E"/>
<path d="M190.56 114.744C190.722 115.194 192.36 114.984 194.304 115.224C196.248 115.464 197.802 115.992 198.06 115.59C198.18 115.398 197.904 114.99 197.274 114.54C196.437 113.998 195.482 113.663 194.49 113.562C193.501 113.437 192.497 113.552 191.562 113.898C190.848 114.18 190.488 114.534 190.56 114.744Z" fill="#263238"/>
<path d="M174.906 115.662C175.194 116.04 176.334 115.662 177.702 115.662C179.07 115.662 180.228 115.92 180.492 115.524C180.612 115.338 180.426 114.96 179.922 114.606C179.244 114.177 178.454 113.96 177.653 113.982C176.851 114.005 176.074 114.266 175.422 114.732C174.936 115.092 174.78 115.476 174.906 115.662Z" fill="#263238"/>
<path d="M175.8 105.102C176.532 103.302 178.506 102.222 180.444 102.102C182.398 102.099 184.312 102.657 185.958 103.71C193.08 107.826 196.758 117.768 203.778 122.028C205.512 123.078 207.762 122.118 209.232 123.504C210.702 124.89 211.662 127.104 210.846 128.958C211.854 127.707 212.677 126.316 213.288 124.83C213.59 124.084 213.729 123.282 213.694 122.478C213.66 121.673 213.454 120.886 213.09 120.168C212.49 119.112 211.404 118.308 211.11 117.126C210.852 116.088 211.26 115.002 211.218 113.928C211.097 112.84 210.721 111.795 210.12 110.88C207.366 106.002 203.574 101.598 198.69 98.88C195.505 97.0352 191.876 96.0954 188.196 96.162C184.501 96.2493 180.96 97.6561 178.212 100.128C176.634 101.592 174.984 103.128 175.812 105.102" fill="#263238"/>
<path d="M209.088 125.01C209.214 124.668 215.448 122.418 215.532 129.048C215.61 135.486 209.112 134.22 209.1 134.034C209.088 133.848 209.088 125.01 209.088 125.01Z" fill="#FFBE9D"/>
<path d="M211.062 131.574C211.092 131.574 211.176 131.652 211.368 131.736C211.638 131.843 211.938 131.843 212.208 131.736C212.886 131.478 213.45 130.392 213.468 129.234C213.481 128.68 213.368 128.13 213.138 127.626C213.076 127.426 212.965 127.243 212.817 127.095C212.669 126.946 212.486 126.836 212.286 126.774C212.156 126.747 212.021 126.763 211.902 126.821C211.782 126.878 211.685 126.973 211.626 127.092C211.542 127.272 211.584 127.398 211.554 127.41C211.524 127.422 211.41 127.302 211.464 127.038C211.495 126.877 211.583 126.733 211.71 126.63C211.882 126.501 212.096 126.441 212.31 126.462C212.578 126.509 212.829 126.624 213.039 126.796C213.25 126.969 213.412 127.192 213.51 127.446C213.792 128.003 213.933 128.621 213.918 129.246C213.918 130.542 213.234 131.766 212.304 132.042C212.132 132.093 211.95 132.106 211.773 132.078C211.595 132.05 211.426 131.982 211.278 131.88C211.08 131.73 211.044 131.586 211.062 131.574Z" fill="#EB996E"/>
<path d="M211.65 121.698C211.513 121.639 211.383 121.567 211.26 121.482C211.014 121.326 210.63 121.116 210.18 120.798C208.913 119.866 207.747 118.804 206.7 117.63C205.182 115.869 203.764 114.024 202.452 112.104C200.865 109.761 199.087 107.554 197.136 105.504C196.093 104.481 194.942 103.574 193.704 102.798C192.541 102.087 191.296 101.521 189.996 101.112C187.795 100.404 185.48 100.121 183.174 100.278C181.617 100.371 180.079 100.672 178.602 101.172C178.074 101.334 177.684 101.508 177.402 101.616C177.265 101.677 177.122 101.725 176.976 101.76C177.105 101.684 177.239 101.618 177.378 101.562C177.767 101.37 178.168 101.204 178.578 101.064C180.055 100.516 181.603 100.181 183.174 100.068C185.509 99.8849 187.858 100.152 190.092 100.854C191.414 101.263 192.681 101.831 193.866 102.546C195.123 103.335 196.292 104.256 197.352 105.294C199.317 107.36 201.1 109.593 202.68 111.966C203.981 113.887 205.383 115.737 206.88 117.51C207.902 118.688 209.038 119.764 210.27 120.72C210.714 121.056 211.08 121.278 211.314 121.452C211.433 121.525 211.545 121.607 211.65 121.698Z" fill="#455A64"/>
<path d="M211.8 132.714C212.116 132.659 212.442 132.726 212.71 132.902C212.979 133.077 213.171 133.349 213.247 133.661C213.323 133.972 213.278 134.302 213.121 134.581C212.964 134.861 212.706 135.071 212.4 135.168C212.09 135.276 211.751 135.26 211.453 135.122C211.155 134.985 210.922 134.738 210.803 134.432C210.684 134.126 210.689 133.786 210.815 133.484C210.942 133.181 211.181 132.94 211.482 132.81" fill="white"/>
<path d="M211.494 132.81C211.209 133.029 211 133.331 210.894 133.674C210.847 133.851 210.846 134.036 210.89 134.213C210.934 134.39 211.022 134.554 211.146 134.688C211.29 134.857 211.482 134.979 211.695 135.039C211.909 135.1 212.136 135.096 212.347 135.028C212.559 134.96 212.745 134.831 212.884 134.657C213.022 134.484 213.107 134.273 213.126 134.052C213.148 133.872 213.125 133.69 213.059 133.521C212.993 133.353 212.886 133.203 212.748 133.086C212.467 132.866 212.126 132.736 211.77 132.714C211.77 132.714 211.872 132.648 212.076 132.642C212.259 132.645 212.44 132.685 212.607 132.76C212.775 132.836 212.925 132.944 213.048 133.08C213.172 133.215 213.267 133.374 213.326 133.548C213.386 133.721 213.41 133.905 213.396 134.088C213.376 134.365 213.274 134.629 213.102 134.847C212.931 135.064 212.698 135.226 212.433 135.31C212.169 135.394 211.886 135.397 211.62 135.318C211.354 135.239 211.118 135.082 210.942 134.868C210.796 134.699 210.696 134.496 210.652 134.277C210.608 134.058 210.621 133.832 210.69 133.62C210.776 133.341 210.948 133.098 211.182 132.924C211.38 132.81 211.488 132.792 211.494 132.81Z" fill="#263238"/>
<path d="M210.03 123.522C210.132 125.28 210.21 127.122 209.4 128.7C208.59 130.278 206.532 131.328 205.008 130.452C203.76 129.744 203.382 128.142 203.172 126.72C202.572 122.622 202.284 118.47 201.636 114.372L210.03 123.522Z" fill="#263238"/>
<path d="M177.408 102.042C177.408 102.078 177.978 101.934 179.01 101.898C180.468 101.875 181.915 102.14 183.27 102.678C184.206 103.041 185.101 103.502 185.94 104.052C186.9 104.7 187.822 105.403 188.7 106.158C190.726 107.874 192.538 109.825 194.1 111.972C194.922 113.118 195.648 114.3 196.428 115.398C197.172 116.463 198.04 117.436 199.014 118.296C200.68 119.717 202.507 120.939 204.456 121.938C206.106 122.814 207.456 123.42 208.434 123.846L209.532 124.314C209.658 124.375 209.791 124.422 209.928 124.452C209.816 124.368 209.692 124.299 209.562 124.248L208.494 123.714C207.558 123.258 206.202 122.61 204.576 121.716C202.669 120.691 200.878 119.462 199.236 118.05C198.289 117.198 197.445 116.237 196.722 115.188C195.948 114.108 195.222 112.926 194.4 111.762C192.823 109.589 190.983 107.62 188.922 105.9C188.032 105.143 187.096 104.442 186.12 103.8C185.257 103.246 184.335 102.789 183.372 102.438C181.984 101.909 180.499 101.678 179.016 101.76C178.612 101.781 178.211 101.836 177.816 101.922C177.676 101.945 177.539 101.986 177.408 102.042Z" fill="#455A64"/>
<path d="M210.204 119.544C210.388 119.695 210.59 119.824 210.804 119.928L212.436 120.888L212.988 121.2C213.203 121.328 213.442 121.407 213.69 121.434C213.843 121.449 213.997 121.413 214.128 121.332C214.196 121.282 214.252 121.218 214.293 121.145C214.335 121.071 214.36 120.99 214.368 120.906C214.352 120.609 214.245 120.324 214.062 120.09C213.462 119.16 212.862 118.14 212.172 117.06L211.914 117.3C213.176 118.23 214.723 118.691 216.288 118.602C216.492 118.601 216.695 118.567 216.888 118.5C216.998 118.469 217.099 118.414 217.185 118.339C217.271 118.265 217.34 118.172 217.386 118.068C217.423 117.959 217.433 117.842 217.414 117.727C217.395 117.613 217.349 117.506 217.278 117.414C217.168 117.269 217.046 117.135 216.912 117.012C216.063 116.189 215.325 115.26 214.716 114.246C214.182 113.291 213.717 112.298 213.324 111.276C213.352 111.574 213.42 111.867 213.528 112.146C213.776 112.918 214.1 113.664 214.494 114.372C215.085 115.428 215.82 116.398 216.678 117.252C216.918 117.48 217.158 117.738 217.062 117.942C216.966 118.146 216.624 118.248 216.282 118.248C214.8 118.32 213.337 117.884 212.136 117.012L211.368 116.448L211.884 117.252L213.816 120.252C213.96 120.423 214.054 120.631 214.086 120.852C214.083 120.895 214.07 120.937 214.049 120.975C214.029 121.012 214 121.045 213.965 121.071C213.93 121.097 213.89 121.114 213.848 121.123C213.806 121.132 213.762 121.132 213.72 121.122C213.306 121.043 212.913 120.882 212.562 120.648L210.876 119.784C210.663 119.676 210.437 119.595 210.204 119.544Z" fill="#455A64"/>
<path d="M191.16 136.716C191.039 136.226 190.75 135.794 190.343 135.494C189.937 135.195 189.438 135.048 188.934 135.078C188.567 135.126 188.217 135.263 187.915 135.478C187.612 135.692 187.367 135.977 187.2 136.308C187.042 136.643 186.953 137.006 186.936 137.375C186.92 137.745 186.977 138.114 187.104 138.462L187.14 138.618C187.482 138.99 187.931 139.247 188.425 139.355C188.919 139.462 189.434 139.414 189.9 139.218C190.357 138.998 190.728 138.634 190.955 138.181C191.183 137.729 191.255 137.214 191.16 136.716Z" fill="#EB996E"/>
<path d="M185.94 138.654C185.94 138.402 187.608 138.48 188.868 137.112C190.128 135.744 190.026 133.956 190.26 133.956C190.368 133.956 190.566 134.37 190.548 135.12C190.513 136.098 190.135 137.033 189.48 137.76C188.853 138.465 187.974 138.896 187.032 138.96C186.33 138.972 185.928 138.768 185.94 138.654Z" fill="#263238"/>
<path d="M167.1 228.252L167.88 232.794L167.148 235.266C167.148 235.266 159.606 244.866 157.188 251.934C154.77 259.002 154.584 277.62 154.584 277.62L240.504 277.566C240.504 277.566 237.504 249.912 226.704 241.206V239.22L229.374 235.266C229.374 235.266 230.274 232.206 226.374 232.662C224.826 232.842 167.1 228.252 167.1 228.252Z" fill="#455A64"/>
<path d="M227.184 238.548H226.584L224.838 238.506C223.326 238.47 221.136 238.44 218.424 238.458C215.712 238.476 212.49 238.536 208.908 238.608C205.326 238.68 201.39 238.752 197.25 238.686C193.358 238.633 189.471 238.385 185.604 237.942C182.446 237.578 179.315 237.007 176.232 236.232C174.154 235.714 172.108 235.073 170.106 234.312C169.392 234.054 168.858 233.802 168.486 233.652L168.072 233.466C167.976 233.424 167.928 233.4 167.934 233.394L168.084 233.436L168.51 233.592C168.888 233.724 169.428 233.958 170.148 234.192C172.162 234.898 174.21 235.498 176.286 235.992C179.367 236.732 182.491 237.277 185.64 237.624C189.192 238.038 193.122 238.266 197.256 238.344C201.39 238.422 205.32 238.344 208.902 238.29C212.484 238.236 215.712 238.188 218.424 238.206C221.136 238.224 223.332 238.278 224.844 238.356C225.6 238.386 226.188 238.428 226.584 238.458L227.04 238.494C227.136 238.53 227.19 238.542 227.184 238.548Z" fill="#263238"/>
<path d="M227.184 242.532C227.134 242.541 227.084 242.541 227.034 242.532H226.578L224.832 242.49C223.32 242.454 221.13 242.424 218.418 242.442C215.706 242.46 212.484 242.52 208.902 242.592C205.32 242.664 201.384 242.736 197.244 242.67C193.104 242.604 189.162 242.352 185.598 241.926C182.44 241.562 179.309 240.991 176.226 240.216C174.147 239.697 172.102 239.053 170.1 238.29C169.386 238.032 168.852 237.786 168.48 237.636L168.066 237.45C167.97 237.408 167.922 237.384 167.928 237.378L168.078 237.42L168.504 237.576C168.882 237.708 169.422 237.936 170.142 238.176C172.155 238.882 174.204 239.483 176.28 239.976C179.361 240.716 182.485 241.261 185.634 241.608C189.186 242.022 193.116 242.25 197.25 242.328C201.384 242.406 205.314 242.328 208.896 242.274C212.478 242.22 215.706 242.172 218.418 242.19C221.13 242.208 223.326 242.262 224.838 242.34C225.594 242.37 226.182 242.412 226.578 242.442L227.034 242.478C227.136 242.52 227.19 242.526 227.184 242.532Z" fill="#263238"/>
<path d="M170.778 247.2C170.826 246.775 170.939 246.36 171.114 245.97C171.47 245.004 171.924 244.077 172.47 243.204C173.01 242.329 173.637 241.511 174.342 240.762C174.615 240.433 174.937 240.148 175.296 239.916C175.368 239.982 173.976 241.344 172.734 243.366C171.492 245.388 170.868 247.2 170.778 247.2Z" fill="#263238"/>
<path d="M173.832 252.726C173.794 252.561 173.784 252.391 173.802 252.222C173.807 251.763 173.837 251.304 173.892 250.848C174.075 249.343 174.401 247.858 174.864 246.414C175.318 244.972 175.883 243.568 176.556 242.214C176.808 241.639 177.12 241.092 177.486 240.582C177.277 241.17 177.033 241.745 176.754 242.304C176.151 243.675 175.62 245.077 175.164 246.504C174.707 247.934 174.356 249.396 174.114 250.878C173.928 252 173.88 252.732 173.832 252.726Z" fill="#263238"/>
<path d="M175.866 231C175.956 231.273 176.014 231.554 176.04 231.84C176.181 232.509 176.369 233.166 176.604 233.808C177.138 235.32 177.852 236.43 177.804 236.478C177.126 235.747 176.626 234.871 176.34 233.916C176.091 233.258 175.927 232.57 175.854 231.87C175.785 231.584 175.789 231.284 175.866 231Z" fill="#263238"/>
<path d="M178.41 232.8C178.717 233.426 178.931 234.093 179.046 234.78C179.264 235.443 179.379 236.135 179.388 236.832C178.86 235.545 178.531 234.186 178.41 232.8Z" fill="#263238"/>
<path d="M193.764 232.2C193.972 234.235 193.972 236.285 193.764 238.32C193.556 236.285 193.556 234.235 193.764 232.2Z" fill="#263238"/>
<path d="M195.684 233.766C196.133 235.3 196.091 236.937 195.564 238.446C195.474 238.446 195.648 237.39 195.678 236.106C195.708 234.822 195.6 233.778 195.684 233.766Z" fill="#263238"/>
<path d="M200.874 247.932C200.653 247.067 200.484 246.19 200.37 245.304C200.151 244.436 199.991 243.554 199.89 242.664C200.295 243.474 200.561 244.346 200.676 245.244C200.896 246.122 200.963 247.031 200.874 247.932Z" fill="#263238"/>
<path d="M149.4 188.106C149.232 187.56 155.544 169.506 159.288 166.77C163.032 164.034 179.934 160.116 179.934 160.116C179.934 160.116 187.05 167.136 196.59 165.678C206.13 164.22 213.456 157.488 213.456 157.488C213.456 157.488 231.51 159.852 234.576 162.036C237.642 164.22 245.976 184.014 245.976 184.014L231.264 196.272L229.962 207.372C229.962 207.372 230.646 230.49 229.11 232.86C227.574 235.23 167.454 229.2 167.454 229.2C167.454 229.2 164.388 228.654 166.77 223.2C169.152 217.746 170.862 214.098 170.862 214.098C170.862 214.098 166.602 209.364 165.918 200.988C165.234 192.612 163.56 191.712 163.56 191.712L149.4 188.106Z" fill="#F2575D"/>
<path d="M229.884 206.946C229.794 206.946 230.7 199.41 231.906 190.146C233.112 180.882 234.15 173.346 234.234 173.376C234.318 173.406 233.4 180.906 232.2 190.2C231 199.494 229.968 206.958 229.884 206.946Z" fill="#263238"/>
<path d="M165.444 194.784C165.366 194.814 164.244 192.114 162.93 188.748C161.616 185.382 160.626 182.634 160.704 182.604C160.782 182.574 161.904 185.274 163.224 188.634C164.544 191.994 165.528 194.754 165.444 194.784Z" fill="#263238"/>
<g opacity="0.3">
<path opacity="0.3" d="M184.506 204.402C184.234 202.839 183.583 201.366 182.61 200.112C181.2 198.516 178.968 197.838 176.844 197.85C174.714 197.964 172.612 198.378 170.598 199.08L166.764 205.08C166.889 205.442 167.094 205.772 167.364 206.044C167.634 206.316 167.962 206.524 168.324 206.652C169.046 206.903 169.803 207.039 170.568 207.054C174.536 207.342 178.504 207.508 182.472 207.552C182.984 207.605 183.501 207.509 183.96 207.276C184.8 206.688 184.74 205.41 184.506 204.402Z" fill="black"/>
</g>
<path d="M158.304 176.892C158.432 177.089 158.536 177.301 158.616 177.522C158.802 177.93 159.054 178.53 159.354 179.28C159.954 180.774 160.758 182.88 161.568 185.178C162.378 187.476 163.05 189.624 163.5 191.178C163.728 191.946 163.908 192.576 164.016 193.014C164.093 193.235 164.142 193.465 164.16 193.698C164.052 193.492 163.965 193.274 163.902 193.05L163.302 191.25C162.798 189.72 162.102 187.608 161.286 185.292C160.47 182.976 159.714 180.882 159.162 179.37C158.904 178.662 158.688 178.062 158.514 177.57C158.417 177.353 158.347 177.125 158.304 176.892Z" fill="#263238"/>
<path d="M158.274 178.8L165 203.334C165.117 203.735 165.364 204.087 165.701 204.334C166.038 204.582 166.448 204.711 166.866 204.702H181.452C181.733 204.712 182.012 204.657 182.269 204.543C182.525 204.429 182.753 204.258 182.934 204.043C183.115 203.828 183.244 203.574 183.313 203.302C183.382 203.029 183.387 202.745 183.33 202.47L177.432 177.948C177.324 177.534 177.08 177.169 176.74 176.911C176.399 176.653 175.981 176.518 175.554 176.526H160.134C159.85 176.516 159.567 176.573 159.309 176.69C159.05 176.807 158.821 176.983 158.641 177.203C158.461 177.423 158.335 177.681 158.271 177.958C158.207 178.235 158.208 178.523 158.274 178.8Z" fill="#263238"/>
<path d="M163.338 183.384C163.338 183.384 161.598 182.556 160.224 183.384C158.85 184.212 156.624 187.872 156.624 187.872L155.25 193.692L156.192 201.6L156.564 205.266L165.444 206.274V203.34L175.614 195.738C175.614 195.738 179.184 194.748 178.908 193.686C178.632 192.624 178.176 191.886 177.168 192.078C176.16 192.27 165.264 195.078 165.264 195.078C165.264 195.078 163.524 195.444 163.614 194.982C163.704 194.52 168.744 192.144 169.566 191.592C170.388 191.04 174.24 190.128 173.766 188.388C173.709 188.074 173.581 187.777 173.393 187.52C173.204 187.263 172.96 187.051 172.678 186.902C172.397 186.752 172.085 186.668 171.766 186.657C171.447 186.645 171.13 186.706 170.838 186.834L162.042 190.038L160.578 190.404L160.764 188.112L162.318 186.006C162.457 186.05 162.603 186.066 162.749 186.052C162.894 186.038 163.035 185.995 163.163 185.926C163.291 185.856 163.404 185.762 163.495 185.648C163.586 185.534 163.653 185.402 163.692 185.262C163.815 184.947 163.847 184.604 163.785 184.272C163.722 183.94 163.567 183.632 163.338 183.384Z" fill="#FFBE9D"/>
<path d="M162.156 189.996C161.48 190.383 160.756 190.678 160.002 190.872C159.283 191.174 158.526 191.376 157.752 191.472C158.429 191.088 159.153 190.794 159.906 190.596C160.626 190.297 161.383 190.095 162.156 189.996Z" fill="#EB996E"/>
<path d="M164.16 195.282C163.529 195.63 162.853 195.886 162.15 196.044C161.477 196.301 160.769 196.459 160.05 196.512C161.353 195.911 162.738 195.507 164.16 195.312V195.282Z" fill="#EB996E"/>
<path d="M175.056 195.828C174.9 195.952 174.729 196.055 174.546 196.134C174.204 196.314 173.706 196.56 173.076 196.848C171.445 197.585 169.776 198.238 168.078 198.804C166.379 199.375 164.651 199.854 162.9 200.238C162.228 200.388 161.7 200.49 161.298 200.55C161.101 200.596 160.9 200.618 160.698 200.616C161.4 200.374 162.115 200.174 162.84 200.016C164.166 199.674 165.99 199.164 167.97 198.504C169.95 197.844 171.714 197.154 172.986 196.638C173.66 196.329 174.351 196.059 175.056 195.828Z" fill="#EB996E"/>
<path d="M158.952 200.13C158.922 200.208 158.352 199.908 158.172 199.212C157.992 198.516 158.292 197.97 158.358 198.012C158.424 198.054 158.304 198.54 158.472 199.116C158.64 199.692 159 200.058 158.952 200.13Z" fill="#EB996E"/>
<path d="M157.2 195.504C157.2 195.54 157.038 195.504 156.834 195.402C156.579 195.227 156.387 194.974 156.288 194.681C156.188 194.388 156.186 194.07 156.282 193.776C156.366 193.554 156.474 193.452 156.51 193.47C156.546 193.488 156.378 194.004 156.588 194.58C156.798 195.156 157.2 195.42 157.2 195.504Z" fill="#EB996E"/>
<path d="M156.186 189.84C156.191 189.937 156.181 190.034 156.156 190.128C156.114 190.35 156.06 190.614 156 190.944C155.85 191.7 155.64 192.744 155.4 193.98V193.944C155.79 196.728 156.324 200.76 156.906 205.284V205.32V205.362C156.792 205.668 156.666 205.992 156.546 206.322C155.237 210.023 154.627 213.936 154.746 217.86C154.779 219.048 154.878 220.234 155.04 221.412C155.094 221.802 155.136 222.12 155.172 222.372C155.197 222.484 155.207 222.599 155.202 222.714C155.162 222.607 155.132 222.497 155.112 222.384C155.064 222.168 154.986 221.85 154.914 221.43C154.71 220.251 154.58 219.061 154.524 217.866C154.337 213.907 154.924 209.949 156.252 206.214C156.372 205.884 156.498 205.554 156.612 205.248V205.326C156.012 200.796 155.532 196.764 155.208 193.968L155.922 190.968C156.006 190.644 156.072 190.368 156.126 190.164C156.138 190.055 156.158 189.946 156.186 189.84Z" fill="#EB996E"/>
<path d="M166.908 202.482C166.332 203.076 165.639 203.546 164.874 203.862C164.151 204.267 163.353 204.519 162.528 204.6C162.528 204.516 163.536 204.168 164.736 203.58C165.936 202.992 166.854 202.404 166.908 202.482Z" fill="#EB996E"/>
<path d="M223.2 214.95C223.2 214.95 225.522 215.55 225.75 217.062C225.978 218.574 224.124 244.662 224.124 244.662H226.332C226.332 244.662 227.214 218.82 227.178 216.972C227.142 215.124 226.266 215.004 225.936 214.872C225.038 214.613 224.082 214.64 223.2 214.95Z" fill="#263238"/>
<path d="M222.03 214.902L232.656 215.31L230.538 202.482L231.264 196.272L245.346 184.512C245.346 184.512 250.272 213.084 250.716 216.384C251.244 220.344 250.476 225.594 248.556 227.472C246.918 229.068 235.116 227.472 230.556 227.472C228.036 227.472 222.012 227.514 222.012 227.514L219.9 217.662L222.03 214.902Z" fill="#FFBE9D"/>
<path d="M248.556 215.346C248.514 215.4 247.794 214.746 246.408 214.146C244.613 213.334 242.644 212.98 240.678 213.114C239.601 213.186 238.541 213.412 237.528 213.786C236.598 214.122 235.794 214.566 235.08 214.842C234.518 215.082 233.924 215.239 233.316 215.31C233.096 215.351 232.87 215.351 232.65 215.31C233.46 215.22 234.25 215.001 234.99 214.662C235.686 214.362 236.472 213.906 237.426 213.54C238.462 213.14 239.552 212.899 240.66 212.826C242.674 212.687 244.69 213.08 246.504 213.966C247.047 214.236 247.565 214.553 248.052 214.914C248.236 215.038 248.406 215.183 248.556 215.346Z" fill="#EB996E"/>
<path d="M211.074 238.56C210.684 239.058 206.196 277.722 206.196 277.722L252.834 277.566L245.442 238.68L211.074 238.56Z" fill="#F2575D"/>
<path d="M218.808 277.62C218.724 277.62 218.238 268.932 217.728 258.204C217.218 247.476 216.876 238.8 216.966 238.8C217.056 238.8 217.53 247.488 218.04 258.216C218.55 268.944 218.892 277.614 218.808 277.62Z" fill="#263238"/>
<path d="M199.8 215.55C201.088 215.363 202.363 215.092 203.616 214.74C204.203 214.454 204.77 214.13 205.314 213.768L211.314 213.282L222.024 214.902C222.024 214.902 223.824 216.198 223.566 220.176C223.347 222.84 222.774 225.463 221.862 227.976C221.862 227.976 217.062 231.882 215.778 232.122C214.494 232.362 207.174 231.954 206.448 231.384C206.019 231.059 205.66 230.651 205.392 230.184C205.001 229.984 204.686 229.662 204.495 229.267C204.305 228.871 204.249 228.424 204.336 227.994C204.336 227.994 201.822 224.748 201.498 223.368C201.174 221.988 201.576 221.664 201.576 221.664C201.576 221.664 200.85 219.798 201.414 219.15C201.556 218.992 201.728 218.864 201.921 218.774C202.113 218.684 202.322 218.634 202.534 218.627C202.747 218.62 202.958 218.655 203.157 218.732C203.355 218.808 203.536 218.924 203.688 219.072C204.258 219.72 207.828 219.234 207.828 219.234L210.99 217.122C209.363 217.535 207.709 217.834 206.04 218.016C204.342 218.064 199.23 219.204 199.8 215.55Z" fill="#FFBE9D"/>
<path d="M212.214 223.2C212.214 223.248 211.56 223.362 210.54 223.716C210.03 223.89 209.424 224.118 208.74 224.316C207.988 224.568 207.204 224.71 206.412 224.736C205.6 224.762 204.799 224.553 204.102 224.136C203.551 223.787 203.063 223.349 202.656 222.84C202.384 222.504 202.133 222.152 201.906 221.784C201.744 221.526 201.666 221.376 201.684 221.364C201.702 221.352 202.11 221.892 202.824 222.696C203.233 223.167 203.712 223.572 204.246 223.896C204.903 224.269 205.651 224.452 206.406 224.424C208.026 224.382 209.406 223.764 210.48 223.488C211.037 223.292 211.624 223.195 212.214 223.2Z" fill="#EB996E"/>
<path d="M214.398 220.344C214.428 220.344 214.542 220.416 214.626 220.638C214.728 220.927 214.728 221.243 214.626 221.532C214.528 221.824 214.331 222.073 214.068 222.234C213.864 222.354 213.72 222.354 213.702 222.318C213.684 222.282 214.14 222 214.332 221.43C214.524 220.86 214.32 220.38 214.398 220.344Z" fill="#EB996E"/>
<path d="M214.158 227.442C213.667 227.584 213.162 227.674 212.652 227.712C211.716 227.844 210.42 228 208.992 228.15C208.316 228.241 207.635 228.293 206.952 228.306C206.385 228.317 205.82 228.228 205.284 228.042C204.771 227.904 204.326 227.581 204.036 227.136C204.436 227.437 204.882 227.672 205.356 227.832C205.874 227.981 206.414 228.044 206.952 228.018C207.552 228.018 208.242 227.916 208.956 227.844C210.39 227.688 211.686 227.568 212.628 227.496C213.135 227.427 213.648 227.409 214.158 227.442Z" fill="#EB996E"/>
<path d="M216.93 224.874C216.966 224.874 217.08 224.994 217.158 225.264C217.26 225.617 217.26 225.991 217.158 226.344C217.058 226.698 216.863 227.017 216.594 227.268C216.384 227.448 216.216 227.502 216.198 227.472C216.18 227.442 216.66 226.992 216.858 226.272C216.939 225.811 216.963 225.341 216.93 224.874Z" fill="#EB996E"/>
<path d="M215.208 230.712C214.744 230.848 214.263 230.921 213.78 230.928C211.459 231.113 209.124 230.967 206.844 230.496C206.364 230.431 205.896 230.299 205.452 230.106C205.932 230.121 206.41 230.179 206.88 230.28C207.756 230.412 208.968 230.562 210.312 230.646C211.656 230.73 212.88 230.73 213.768 230.712C214.247 230.666 214.729 230.666 215.208 230.712Z" fill="#EB996E"/>
<path d="M225.36 214.728C225.36 214.728 227.46 216.3 227.85 217.254C228.24 218.208 232.434 238.554 232.434 238.554H234.234C234.234 238.554 229.956 216.51 228.912 215.658C228.537 215.355 228.135 215.086 227.712 214.854C227.359 214.667 226.97 214.559 226.572 214.535C226.174 214.511 225.775 214.573 225.402 214.716L225.36 214.728Z" fill="#263238"/>
<path d="M184.386 218.724C183.789 218.803 183.184 218.803 182.586 218.724C179.732 218.456 176.98 217.523 174.552 216C174.036 215.707 173.558 215.35 173.13 214.938C173.16 214.896 173.73 215.28 174.666 215.808C175.894 216.505 177.186 217.084 178.524 217.536C179.862 217.984 181.237 218.31 182.634 218.508C183.714 218.64 184.386 218.676 184.386 218.724Z" fill="#263238"/>
<g opacity="0.3">
<path opacity="0.3" d="M194.904 218.4C193.803 218.304 192.694 218.346 191.604 218.526C185.994 219.126 180.204 219.126 175.062 216.252C175.8 217.795 177.064 219.024 178.626 219.72C180.405 220.328 182.272 220.634 184.152 220.626C188.665 220.81 193.185 220.61 197.664 220.026C197.353 219.568 196.944 219.184 196.467 218.903C195.989 218.622 195.456 218.45 194.904 218.4Z" fill="black"/>
</g>
<path d="M177.774 160.8C177.774 158.671 176.928 156.629 175.423 155.123C173.917 153.618 171.875 152.772 169.746 152.772H120.87C118.78 152.829 116.794 153.7 115.336 155.198C113.877 156.697 113.062 158.706 113.062 160.797C113.062 162.888 113.877 164.897 115.336 166.395C116.794 167.894 118.78 168.765 120.87 168.822H150.084C152.826 171.468 157.512 175.038 157.512 175.038V168.528L170.334 168.786C174.72 168.654 177.774 165 177.774 160.8Z" fill="white"/>
<path d="M177.774 160.8C177.774 160.8 177.774 160.944 177.774 161.238C177.763 161.669 177.715 162.099 177.63 162.522C177.498 163.212 177.28 163.883 176.982 164.52C176.56 165.388 175.987 166.174 175.29 166.842C174.407 167.672 173.333 168.274 172.164 168.594C171.838 168.681 171.507 168.751 171.174 168.804C170.825 168.844 170.475 168.866 170.124 168.87L167.91 168.834L157.518 168.648L157.632 168.534C157.632 170.586 157.632 172.764 157.632 175.032V175.29L157.434 175.134C155.034 173.28 152.472 171.264 149.982 168.918L150.078 168.96H132.378H122.748C121.92 168.96 121.11 168.99 120.258 168.93C118.623 168.801 117.063 168.185 115.78 167.163C114.498 166.141 113.549 164.759 113.058 163.194C112.862 162.538 112.745 161.861 112.71 161.178C112.68 160.499 112.728 159.818 112.854 159.15C112.995 158.488 113.214 157.846 113.508 157.236C114.083 156.037 114.943 154.997 116.013 154.207C117.083 153.417 118.331 152.902 119.646 152.706C120.284 152.619 120.928 152.584 121.572 152.604H134.4L159.354 152.64H168.954C169.638 152.618 170.322 152.654 171 152.748C171.629 152.847 172.245 153.018 172.836 153.258C173.865 153.688 174.794 154.325 175.566 155.13C176.184 155.767 176.688 156.505 177.054 157.314C177.203 157.636 177.333 157.967 177.444 158.304C177.528 158.616 177.6 158.904 177.654 159.156C177.729 159.552 177.771 159.953 177.78 160.356C177.78 160.626 177.78 160.764 177.78 160.764C177.78 160.764 177.78 160.626 177.744 160.356C177.719 159.953 177.667 159.552 177.588 159.156C177.528 158.904 177.45 158.622 177.36 158.316C177.25 157.983 177.118 157.659 176.964 157.344C176.595 156.548 176.089 155.823 175.47 155.202C174.704 154.425 173.787 153.813 172.776 153.402C172.197 153.172 171.593 153.009 170.976 152.916C170.306 152.825 169.629 152.793 168.954 152.82H159.354H134.4H121.572C120.944 152.798 120.316 152.83 119.694 152.916C118.104 153.166 116.628 153.893 115.461 155.001C114.295 156.109 113.492 157.545 113.16 159.12C112.911 160.415 112.977 161.75 113.352 163.014C113.555 163.645 113.833 164.249 114.18 164.814C114.828 165.874 115.719 166.765 116.781 167.411C117.842 168.057 119.043 168.44 120.282 168.528C121.086 168.588 121.932 168.528 122.748 168.558H132.384H150.084H150.138L150.18 168.594C152.646 170.928 155.202 172.95 157.59 174.81L157.386 174.906C157.386 172.638 157.386 170.46 157.386 168.408V168.294H157.506L167.892 168.528C169.416 168.528 170.856 168.714 172.092 168.318C173.24 168.049 174.306 167.508 175.2 166.74C175.892 166.09 176.463 165.322 176.886 164.472C177.379 163.458 177.669 162.357 177.738 161.232C177.756 160.938 177.774 160.8 177.774 160.8Z" fill="#263238"/>
<path d="M167.226 163.302C167.098 163.311 166.97 163.311 166.842 163.302C166.265 163.225 165.724 162.979 165.287 162.594C164.85 162.21 164.536 161.705 164.386 161.142C164.236 160.58 164.255 159.986 164.443 159.435C164.63 158.884 164.976 158.4 165.438 158.046C165.899 157.691 166.455 157.481 167.036 157.442C167.617 157.404 168.196 157.538 168.701 157.828C169.205 158.118 169.613 158.551 169.871 159.073C170.13 159.594 170.228 160.181 170.154 160.758C170.054 161.464 169.703 162.109 169.165 162.577C168.627 163.044 167.939 163.302 167.226 163.302ZM167.226 158.004C166.656 158.004 166.106 158.212 165.678 158.588C165.251 158.965 164.976 159.485 164.904 160.05C164.826 160.667 164.994 161.29 165.373 161.783C165.751 162.277 166.31 162.6 166.926 162.684C167.544 162.764 168.169 162.595 168.663 162.215C169.157 161.835 169.479 161.274 169.56 160.656C169.6 160.35 169.58 160.039 169.501 159.742C169.421 159.444 169.283 159.164 169.095 158.92C168.907 158.675 168.673 158.47 168.406 158.316C168.139 158.162 167.844 158.062 167.538 158.022C167.432 158.01 167.326 158.004 167.22 158.004H167.226Z" fill="#263238"/>
<path d="M171.234 163.992C171.164 163.991 171.096 163.965 171.042 163.92L169.116 162.312C169.086 162.287 169.061 162.256 169.042 162.221C169.024 162.186 169.013 162.148 169.009 162.108C169.005 162.069 169.01 162.03 169.021 161.992C169.033 161.954 169.052 161.919 169.077 161.889C169.102 161.859 169.133 161.833 169.168 161.815C169.203 161.797 169.241 161.785 169.281 161.782C169.32 161.778 169.359 161.782 169.397 161.794C169.435 161.806 169.47 161.825 169.5 161.85L171.426 163.458C171.487 163.509 171.526 163.583 171.534 163.662C171.542 163.742 171.518 163.822 171.468 163.884C171.44 163.918 171.404 163.946 171.363 163.964C171.323 163.983 171.279 163.992 171.234 163.992Z" fill="#263238"/>
<path d="M121.458 163.2L121.854 162.306C122.273 162.576 122.759 162.724 123.258 162.732C123.762 162.732 123.954 162.588 123.954 162.384C123.954 161.706 121.554 162.198 121.554 160.614C121.554 159.852 122.154 159.228 123.444 159.228C123.983 159.222 124.515 159.349 124.992 159.6L124.62 160.5C124.254 160.29 123.841 160.177 123.42 160.17C122.91 160.17 122.73 160.338 122.73 160.554C122.73 161.202 125.13 160.716 125.13 162.288C125.13 163.032 124.53 163.668 123.24 163.668C122.614 163.682 121.996 163.52 121.458 163.2Z" fill="#263238"/>
<path d="M129.762 159.294V163.566H128.562V161.898H126.918V163.566H125.718V159.294H126.918V160.902H128.562V159.294H129.762Z" fill="#263238"/>
<path d="M130.392 161.43C130.356 160.949 130.465 160.469 130.706 160.051C130.947 159.634 131.308 159.298 131.742 159.089C132.176 158.879 132.663 158.805 133.14 158.876C133.617 158.948 134.061 159.161 134.415 159.488C134.769 159.816 135.016 160.242 135.124 160.712C135.232 161.181 135.196 161.673 135.021 162.122C134.846 162.571 134.54 162.957 134.142 163.23C133.745 163.502 133.274 163.649 132.792 163.65C132.486 163.673 132.179 163.633 131.889 163.532C131.599 163.431 131.334 163.271 131.108 163.063C130.883 162.855 130.703 162.602 130.58 162.321C130.457 162.04 130.393 161.737 130.392 161.43ZM133.92 161.43C133.912 161.203 133.837 160.983 133.705 160.799C133.573 160.614 133.389 160.472 133.177 160.391C132.965 160.309 132.733 160.292 132.511 160.342C132.29 160.391 132.087 160.504 131.929 160.668C131.772 160.831 131.666 161.038 131.624 161.261C131.583 161.485 131.608 161.715 131.697 161.924C131.786 162.134 131.934 162.312 132.123 162.437C132.313 162.563 132.535 162.63 132.762 162.63C132.918 162.632 133.073 162.602 133.217 162.542C133.361 162.481 133.491 162.392 133.6 162.28C133.708 162.168 133.793 162.034 133.848 161.888C133.903 161.742 133.927 161.586 133.92 161.43Z" fill="#263238"/>
<path d="M139.62 160.878C139.62 161.844 138.888 162.45 137.724 162.45H136.98V163.566H135.78V159.294H137.736C138.888 159.294 139.62 159.9 139.62 160.878ZM138.42 160.878C138.42 160.482 138.174 160.248 137.67 160.248H136.98V161.496H137.646C138.15 161.496 138.396 161.268 138.396 160.878H138.42Z" fill="#263238"/>
</svg>
