<svg id="svg" version="1.1" xmlns="http://www.w3.org/2000/svg" xmlns:xlink="http://www.w3.org/1999/xlink" width="400" height="400" viewBox="0, 0, 400,400"><g id="svgg"><path id="path0" d="M49.031 132.841 C 42.995 134.917,39.181 139.501,38.054 146.033 C 37.350 150.113,37.448 220.562,38.163 223.891 C 39.348 229.418,42.310 233.145,47.544 235.696 L 50.200 236.990 61.213 237.132 C 73.108 237.284,75.379 237.063,78.874 235.407 C 82.514 233.684,86.847 228.680,87.634 225.293 C 88.149 223.078,88.102 208.690,87.581 209.012 C 86.417 209.731,80.500 210.301,78.008 209.934 C 52.480 206.170,49.906 171.890,74.588 164.364 C 76.553 163.765,84.595 163.765,86.134 164.364 C 87.939 165.067,88.000 164.796,87.998 156.076 C 87.993 140.627,85.329 135.386,76.047 132.569 C 72.802 131.584,52.080 131.793,49.031 132.841 M274.670 201.464 C 274.186 201.947,274.356 230.654,274.850 231.881 C 276.577 236.178,277.853 237.698,280.985 239.193 L 283.514 240.400 300.457 240.394 C 317.943 240.388,318.366 240.354,321.441 238.706 C 322.992 237.875,324.923 235.701,325.874 233.716 C 326.537 232.332,326.600 230.857,326.600 216.800 L 326.600 201.400 300.770 201.297 C 286.563 201.241,274.818 201.316,274.670 201.464 M230.098 316.586 C 227.425 317.831,225.546 319.665,224.346 322.200 L 223.400 324.200 223.400 340.400 C 223.400 358.881,223.391 358.824,227.027 362.234 C 230.479 365.472,229.579 365.380,259.400 365.528 C 293.432 365.697,294.021 365.594,297.642 358.798 L 298.600 357.000 298.600 340.400 L 298.600 323.800 297.652 321.892 C 296.458 319.488,293.889 317.205,291.357 316.297 C 289.560 315.653,287.057 315.597,260.800 315.602 L 232.200 315.608 230.098 316.586 " stroke="none" fill="#d6d8fa" fill-rule="evenodd"></path><path id="path1" d="M25.600 4.800 C 25.600 5.020,25.071 5.200,24.424 5.200 C 23.777 5.200,23.136 5.380,23.000 5.600 C 22.864 5.820,22.313 6.000,21.776 6.000 C 21.239 6.000,20.800 6.180,20.800 6.400 C 20.800 6.620,20.440 6.800,20.000 6.800 C 19.560 6.800,19.200 6.980,19.200 7.200 C 19.200 7.420,18.840 7.600,18.400 7.600 C 17.960 7.600,17.600 7.780,17.600 8.000 C 17.600 8.220,17.345 8.400,17.033 8.400 C 16.722 8.400,16.407 8.535,16.333 8.700 C 16.260 8.865,15.276 9.696,14.147 10.547 C 13.017 11.397,11.397 13.017,10.547 14.147 C 9.696 15.276,8.865 16.260,8.700 16.333 C 8.535 16.407,8.400 16.722,8.400 17.033 C 8.400 17.345,8.220 17.600,8.000 17.600 C 7.780 17.600,7.600 17.960,7.600 18.400 C 7.600 18.840,7.420 19.200,7.200 19.200 C 6.980 19.200,6.800 19.560,6.800 20.000 C 6.800 20.440,6.620 20.800,6.400 20.800 C 6.180 20.800,6.000 21.239,6.000 21.776 C 6.000 22.313,5.820 22.864,5.600 23.000 C 5.380 23.136,5.200 23.777,5.200 24.424 C 5.200 25.071,5.020 25.600,4.800 25.600 C 4.534 25.600,4.400 84.000,4.400 200.000 C 4.400 316.000,4.534 374.400,4.800 374.400 C 5.020 374.400,5.200 374.940,5.200 375.600 C 5.200 376.260,5.380 376.800,5.600 376.800 C 5.820 376.800,6.000 377.340,6.000 378.000 C 6.000 378.660,6.180 379.200,6.400 379.200 C 6.620 379.200,6.800 379.560,6.800 380.000 C 6.800 380.440,6.980 380.800,7.200 380.800 C 7.420 380.800,7.600 381.160,7.600 381.600 C 7.600 382.040,7.780 382.400,8.000 382.400 C 8.220 382.400,8.400 382.636,8.400 382.925 C 8.400 383.213,8.715 383.803,9.100 384.236 C 12.579 388.145,13.552 389.127,14.783 389.970 C 15.563 390.503,16.290 391.057,16.400 391.202 C 16.510 391.346,17.185 391.719,17.900 392.030 C 18.615 392.341,19.200 392.731,19.200 392.898 C 19.200 393.064,19.436 393.200,19.725 393.200 C 20.014 393.200,20.995 393.560,21.906 394.000 C 22.816 394.440,24.020 394.800,24.581 394.800 C 25.141 394.800,25.600 394.980,25.600 395.200 C 25.600 395.465,56.200 395.600,116.600 395.600 C 171.900 395.600,207.600 395.455,207.600 395.231 C 207.600 395.028,206.925 394.646,206.100 394.382 C 200.137 392.476,193.447 386.744,190.715 381.200 C 188.092 375.879,187.873 374.573,187.624 362.800 L 187.400 352.200 184.000 351.882 C 172.515 350.808,165.208 344.154,163.621 333.323 C 162.932 328.614,163.078 247.442,163.783 243.485 C 165.552 233.563,173.362 226.823,183.901 226.125 L 187.602 225.879 188.006 224.240 C 188.956 220.381,189.349 219.249,190.669 216.560 C 195.739 206.229,204.786 201.583,219.773 201.614 L 226.600 201.629 224.600 202.351 C 215.595 205.602,209.513 212.196,206.479 222.000 C 205.800 224.195,205.704 372.000,206.381 374.400 C 208.007 380.171,212.134 386.761,215.667 389.230 C 216.400 389.742,217.090 390.284,217.200 390.434 C 217.522 390.874,221.035 392.796,222.900 393.553 C 223.505 393.799,224.405 394.166,224.900 394.370 C 226.774 395.140,228.362 395.325,233.800 395.406 L 239.400 395.489 233.800 395.208 C 219.798 394.505,210.177 386.959,206.764 374.000 C 206.406 372.638,206.311 354.126,206.374 297.905 L 206.457 223.610 207.399 220.642 C 209.686 213.437,214.594 207.577,220.938 204.479 C 226.940 201.547,227.343 201.496,246.400 201.234 L 263.400 201.000 263.501 114.421 C 263.568 56.969,263.467 27.707,263.201 27.441 C 262.980 27.220,262.800 26.457,262.800 25.744 C 262.800 25.031,262.620 24.336,262.400 24.200 C 262.180 24.064,262.000 23.601,262.000 23.171 C 262.000 22.741,261.843 22.077,261.650 21.695 C 261.458 21.313,260.945 20.280,260.512 19.400 C 260.078 18.520,259.335 17.118,258.860 16.284 C 257.877 14.560,252.461 9.200,251.701 9.200 C 251.426 9.200,251.200 9.020,251.200 8.800 C 251.200 8.580,250.930 8.400,250.600 8.400 C 250.270 8.400,249.999 8.265,249.997 8.100 C 249.993 7.741,248.056 6.800,247.320 6.800 C 247.034 6.800,246.800 6.620,246.800 6.400 C 246.800 6.180,246.361 6.000,245.824 6.000 C 245.287 6.000,244.736 5.820,244.600 5.600 C 244.464 5.380,243.924 5.200,243.400 5.200 C 242.876 5.200,242.336 5.020,242.200 4.800 C 241.857 4.245,25.600 4.245,25.600 4.800 M21.923 27.500 L 22.046 29.200 18.823 29.200 L 15.600 29.200 15.600 27.667 C 15.600 25.622,15.722 25.550,18.983 25.684 L 21.800 25.800 21.923 27.500 M37.800 27.400 L 37.800 29.000 34.500 29.116 L 31.200 29.232 31.200 27.683 C 31.200 25.609,31.303 25.552,34.782 25.685 L 37.800 25.800 37.800 27.400 M53.524 27.517 L 53.648 29.233 50.324 29.117 C 47.010 29.000,47.000 28.997,46.871 27.876 C 46.654 25.979,47.370 25.553,50.562 25.684 L 53.400 25.800 53.524 27.517 M69.124 27.517 L 69.248 29.233 65.924 29.117 C 62.610 29.000,62.600 28.997,62.471 27.876 C 62.254 25.979,62.970 25.553,66.162 25.684 L 69.000 25.800 69.124 27.517 M84.811 26.421 C 85.921 28.494,85.291 29.000,81.600 29.000 C 77.931 29.000,76.850 28.007,78.607 26.250 C 79.647 25.210,84.231 25.336,84.811 26.421 M100.411 26.421 C 101.521 28.494,100.891 29.000,97.200 29.000 C 93.531 29.000,92.450 28.007,94.207 26.250 C 95.247 25.210,99.831 25.336,100.411 26.421 M116.153 26.853 C 116.852 28.850,116.354 29.200,112.813 29.200 L 109.600 29.200 109.600 27.633 C 109.600 25.755,109.847 25.624,113.192 25.723 C 115.601 25.795,115.810 25.874,116.153 26.853 M131.753 26.853 C 132.452 28.850,131.954 29.200,128.413 29.200 L 125.200 29.200 125.200 27.633 C 125.200 25.755,125.447 25.624,128.792 25.723 C 131.201 25.795,131.410 25.874,131.753 26.853 M147.180 26.176 C 148.665 27.965,147.588 28.993,144.100 29.116 L 140.800 29.232 140.800 27.650 C 140.800 25.792,141.003 25.673,144.251 25.632 C 145.928 25.610,146.853 25.782,147.180 26.176 M162.780 26.176 C 164.265 27.965,163.188 28.993,159.700 29.116 L 156.400 29.232 156.400 27.650 C 156.400 25.792,156.603 25.673,159.851 25.632 C 161.528 25.610,162.453 25.782,162.780 26.176 M178.380 26.176 C 179.865 27.965,178.788 28.993,175.300 29.116 L 172.000 29.232 172.000 27.650 C 172.000 25.792,172.203 25.673,175.451 25.632 C 177.128 25.610,178.053 25.782,178.380 26.176 M193.980 26.176 C 195.465 27.965,194.388 28.993,190.900 29.116 L 187.600 29.232 187.600 27.650 C 187.600 25.792,187.803 25.673,191.051 25.632 C 192.728 25.610,193.653 25.782,193.980 26.176 M209.580 26.176 C 209.843 26.493,210.000 27.258,209.929 27.876 L 209.800 29.000 206.600 29.000 L 203.400 29.000 203.270 27.642 C 203.192 26.825,203.352 26.150,203.670 25.948 C 204.590 25.365,209.050 25.537,209.580 26.176 M225.180 26.176 C 225.443 26.493,225.600 27.258,225.529 27.876 L 225.400 29.000 222.200 29.000 L 219.000 29.000 218.870 27.642 C 218.792 26.825,218.952 26.150,219.270 25.948 C 220.190 25.365,224.650 25.537,225.180 26.176 M240.730 25.948 C 241.048 26.150,241.208 26.825,241.130 27.642 L 241.000 29.000 237.800 29.000 L 234.600 29.000 234.470 27.642 C 234.305 25.912,234.798 25.612,237.800 25.612 C 239.120 25.612,240.438 25.763,240.730 25.948 M102.503 52.333 C 109.237 55.043,113.450 59.439,115.567 65.966 C 116.544 68.976,116.908 157.413,115.959 160.954 C 113.885 168.687,108.739 174.000,103.324 174.000 L 100.386 174.000 97.293 170.894 C 95.335 168.927,93.246 167.288,91.600 166.427 C 88.177 164.636,88.413 165.513,88.406 154.571 C 88.398 141.056,86.337 136.307,79.026 132.960 C 75.298 131.254,57.290 130.369,50.909 131.579 C 45.016 132.697,39.800 137.343,37.862 143.200 C 37.103 145.494,37.643 69.959,38.407 66.971 C 40.372 59.291,47.272 52.681,54.454 51.601 C 60.148 50.744,100.066 51.352,102.503 52.333 M219.000 52.371 C 225.401 54.915,229.722 59.378,231.838 65.632 L 232.800 68.477 232.800 113.972 C 232.800 159.032,232.792 159.492,231.964 162.034 C 229.665 169.094,224.558 174.126,217.627 176.162 C 214.394 177.112,182.006 177.112,178.773 176.162 C 170.358 173.690,164.821 167.137,163.594 158.200 C 162.790 152.338,163.253 69.557,164.106 66.693 C 166.532 58.553,172.992 52.791,181.200 51.446 C 185.697 50.710,216.730 51.469,219.000 52.371 M76.040 132.434 C 80.786 133.948,84.444 137.090,86.478 141.400 L 87.800 144.200 87.934 154.706 L 88.069 165.211 89.745 165.975 C 90.666 166.395,92.406 167.414,93.610 168.240 C 95.709 169.680,96.460 170.376,98.901 173.146 L 100.003 174.396 106.901 174.309 C 113.604 174.225,113.865 174.252,116.074 175.277 C 124.841 179.344,126.279 191.321,118.665 196.856 C 115.582 199.097,114.734 199.294,107.000 199.556 L 99.800 199.800 96.786 202.800 C 94.637 204.939,92.954 206.196,90.919 207.179 L 88.066 208.558 87.933 217.196 L 87.800 225.833 86.400 228.203 C 84.402 231.585,81.782 234.076,78.576 235.644 L 75.800 237.000 62.800 237.000 C 50.101 237.000,49.754 236.979,47.835 236.086 C 42.930 233.806,39.498 229.891,38.234 225.135 C 37.154 221.068,37.440 145.962,38.548 143.000 C 40.273 138.383,43.958 134.591,48.325 132.939 C 50.955 131.944,73.232 131.538,76.040 132.434 M122.771 197.815 C 125.153 204.180,122.480 210.848,116.247 214.096 C 114.827 214.836,113.699 214.985,108.048 215.177 C 101.621 215.396,101.483 215.419,100.848 216.394 C 98.466 220.047,96.272 222.379,93.406 224.300 L 90.274 226.400 93.404 226.400 C 104.450 226.400,112.293 231.537,115.438 240.832 L 116.400 243.677 116.400 289.372 C 116.400 333.660,116.376 335.141,115.617 337.453 C 113.439 344.088,109.334 348.315,102.300 351.165 C 99.733 352.205,95.765 352.400,77.207 352.400 C 57.093 352.400,54.773 352.252,50.800 350.712 C 44.656 348.330,39.823 342.584,38.180 335.707 C 37.440 332.612,37.331 247.073,38.062 243.433 C 38.566 240.925,41.437 234.878,42.400 234.297 C 42.823 234.041,43.690 234.350,45.346 235.349 C 48.942 237.517,50.333 237.678,64.200 237.531 L 76.600 237.400 78.909 236.231 C 86.492 232.390,89.095 226.855,88.630 215.558 L 88.357 208.915 89.678 208.384 C 91.925 207.481,95.696 204.747,98.000 202.351 L 100.200 200.062 107.400 199.919 C 115.234 199.764,116.968 199.300,119.600 196.654 C 121.176 195.069,121.834 195.310,122.771 197.815 M25.924 373.517 L 26.048 375.235 22.924 375.117 C 19.823 375.001,19.799 374.992,19.670 373.866 C 19.428 371.751,19.718 371.554,22.894 371.682 L 25.800 371.800 25.924 373.517 M41.524 373.517 L 41.648 375.235 38.524 375.117 C 35.423 375.001,35.399 374.992,35.270 373.866 C 35.028 371.751,35.318 371.554,38.494 371.682 L 41.400 371.800 41.524 373.517 M57.180 372.176 C 57.443 372.493,57.600 373.258,57.529 373.876 L 57.400 375.000 54.200 375.000 L 51.000 375.000 50.870 373.866 C 50.636 371.823,50.939 371.600,53.938 371.600 C 55.855 371.600,56.848 371.776,57.180 372.176 M72.780 372.176 C 73.043 372.493,73.200 373.258,73.129 373.876 L 73.000 375.000 69.800 375.000 L 66.600 375.000 66.470 373.866 C 66.236 371.823,66.539 371.600,69.538 371.600 C 71.455 371.600,72.448 371.776,72.780 372.176 M88.330 371.948 C 88.648 372.150,88.808 372.825,88.730 373.642 L 88.600 375.000 85.400 375.000 L 82.200 375.000 82.070 373.642 C 81.905 371.912,82.398 371.612,85.400 371.612 C 86.720 371.612,88.038 371.763,88.330 371.948 M103.930 371.948 C 104.248 372.150,104.408 372.825,104.330 373.642 L 104.200 375.000 101.000 375.000 L 97.800 375.000 97.670 373.642 C 97.505 371.912,97.998 371.612,101.000 371.612 C 102.320 371.612,103.638 371.763,103.930 371.948 M119.530 371.948 C 119.848 372.150,120.008 372.825,119.930 373.642 L 119.800 375.000 116.600 375.000 L 113.400 375.000 113.270 373.642 C 113.105 371.912,113.598 371.612,116.600 371.612 C 117.920 371.612,119.238 371.763,119.530 371.948 M135.400 373.400 L 135.400 375.000 132.200 375.000 L 129.000 375.000 128.870 373.642 C 128.699 371.847,129.225 371.573,132.600 371.697 L 135.400 371.800 135.400 373.400 M151.000 373.400 L 151.000 375.000 147.800 375.000 L 144.600 375.000 144.470 373.642 C 144.299 371.847,144.825 371.573,148.200 371.697 L 151.000 371.800 151.000 373.400 M166.600 373.400 L 166.600 375.000 163.400 375.000 L 160.200 375.000 160.070 373.642 C 159.899 371.847,160.425 371.573,163.800 371.697 L 166.600 371.800 166.600 373.400 M182.200 373.400 L 182.200 375.000 179.000 375.000 L 175.800 375.000 175.670 373.642 C 175.499 371.847,176.025 371.573,179.400 371.697 L 182.200 371.800 182.200 373.400 " stroke="none" fill="#ab6b7b" fill-rule="evenodd"></path><path id="path2" d="M74.735 164.969 C 67.178 167.118,60.252 173.990,58.577 181.000 C 58.039 183.251,57.934 190.132,58.409 191.984 C 60.512 200.190,66.129 206.024,74.600 208.801 C 76.581 209.450,85.480 209.480,86.120 208.840 C 86.362 208.598,86.989 208.400,87.514 208.400 C 89.497 208.400,93.697 205.861,96.779 202.800 L 99.800 199.800 107.000 199.556 C 114.734 199.294,115.582 199.097,118.665 196.856 C 126.279 191.321,124.841 179.344,116.074 175.277 C 113.865 174.252,113.604 174.225,106.901 174.309 L 100.003 174.396 98.901 173.146 C 93.163 166.635,89.391 164.828,81.000 164.573 C 78.159 164.486,75.939 164.626,74.735 164.969 M263.380 200.765 C 263.169 200.967,255.422 201.207,246.000 201.303 C 234.311 201.422,228.563 201.625,227.600 201.953 C 226.830 202.216,225.570 202.616,224.800 202.844 C 216.890 205.178,210.104 212.119,207.399 220.642 L 206.457 223.610 206.374 297.905 C 206.311 354.126,206.406 372.638,206.764 374.000 C 210.281 387.352,219.700 394.485,234.800 395.230 C 244.689 395.718,374.800 395.690,374.800 395.200 C 374.800 394.980,375.430 394.800,376.200 394.800 C 376.970 394.800,377.600 394.620,377.600 394.400 C 377.600 394.180,377.960 394.000,378.400 394.000 C 378.840 394.000,379.200 393.820,379.200 393.600 C 379.200 393.380,379.434 393.200,379.720 393.200 C 380.456 393.200,382.393 392.259,382.397 391.900 C 382.399 391.735,382.723 391.600,383.119 391.600 C 384.878 391.600,391.600 384.905,391.600 383.152 C 391.600 382.775,391.735 382.407,391.900 382.333 C 392.332 382.141,394.000 378.828,394.000 378.162 C 394.000 377.853,394.180 377.600,394.400 377.600 C 394.620 377.600,394.800 376.970,394.800 376.200 C 394.800 375.430,394.980 374.800,395.200 374.800 C 395.465 374.800,395.600 349.000,395.600 298.200 C 395.600 247.400,395.465 221.600,395.200 221.600 C 394.980 221.600,394.800 221.060,394.800 220.400 C 394.800 219.740,394.620 219.200,394.400 219.200 C 394.180 219.200,394.000 218.660,394.000 218.000 C 394.000 217.340,393.820 216.800,393.600 216.800 C 393.380 216.800,393.200 216.440,393.200 216.000 C 393.200 215.560,393.065 215.198,392.900 215.195 C 392.735 215.193,392.240 214.434,391.800 213.508 C 390.928 211.674,385.569 206.000,384.709 206.000 C 384.416 206.000,383.917 205.640,383.600 205.200 C 383.283 204.760,382.703 204.400,382.312 204.400 C 381.920 204.400,381.600 204.220,381.600 204.000 C 381.600 203.780,381.240 203.600,380.800 203.600 C 380.360 203.600,380.000 203.420,380.000 203.200 C 380.000 202.980,379.640 202.800,379.200 202.800 C 378.760 202.800,378.400 202.620,378.400 202.400 C 378.400 202.180,377.860 202.000,377.200 202.000 C 376.540 202.000,376.000 201.820,376.000 201.600 C 376.000 201.380,375.111 201.200,374.024 201.200 C 372.937 201.200,371.936 201.020,371.800 200.800 C 371.640 200.541,363.796 200.400,349.576 200.400 L 327.600 200.400 327.600 215.340 C 327.600 224.975,327.446 230.764,327.166 231.640 C 325.852 235.758,323.982 238.055,320.542 239.772 L 318.484 240.800 300.636 240.800 C 290.820 240.800,282.477 240.641,282.095 240.447 C 281.713 240.252,280.884 239.850,280.252 239.554 C 278.367 238.667,276.109 236.188,275.021 233.809 L 274.000 231.576 274.000 215.988 L 274.000 200.400 268.880 200.400 C 266.064 200.400,263.589 200.564,263.380 200.765 M290.281 315.251 C 295.011 317.155,297.249 319.198,298.601 322.843 C 299.802 326.083,299.826 354.100,298.632 357.744 C 297.415 361.455,294.479 364.126,290.040 365.560 C 289.106 365.862,280.062 366.000,261.149 366.000 C 229.487 366.000,230.288 366.081,226.622 362.517 C 222.850 358.851,223.000 359.770,223.000 340.400 L 223.000 323.400 224.000 321.600 C 225.762 318.429,228.090 316.514,231.600 315.349 C 233.562 314.697,288.679 314.605,290.281 315.251 " stroke="none" fill="#fb9c51" fill-rule="evenodd"></path><path id="path3" d="M12.915 11.022 C 12.208 11.579,11.249 12.612,10.783 13.317 L 9.937 14.600 11.068 13.354 C 11.691 12.668,12.740 11.639,13.400 11.066 C 14.941 9.729,14.595 9.698,12.915 11.022 M15.883 25.851 C 15.727 26.006,15.600 26.823,15.600 27.667 L 15.600 29.200 18.823 29.200 L 22.046 29.200 21.923 27.500 L 21.800 25.800 18.983 25.684 C 17.433 25.620,16.038 25.695,15.883 25.851 M31.482 25.851 C 31.327 26.006,31.200 26.831,31.200 27.683 L 31.200 29.232 34.500 29.116 L 37.800 29.000 37.800 27.400 L 37.800 25.800 34.782 25.685 C 33.122 25.621,31.637 25.696,31.482 25.851 M47.234 26.160 C 45.731 27.970,46.800 28.993,50.324 29.117 L 53.648 29.233 53.524 27.517 L 53.400 25.800 50.562 25.684 C 48.436 25.597,47.602 25.716,47.234 26.160 M62.834 26.160 C 61.331 27.970,62.400 28.993,65.924 29.117 L 69.248 29.233 69.124 27.517 L 69.000 25.800 66.162 25.684 C 64.036 25.597,63.202 25.716,62.834 26.160 M78.607 26.250 C 76.850 28.007,77.931 29.000,81.600 29.000 C 85.291 29.000,85.921 28.494,84.811 26.421 C 84.231 25.336,79.647 25.210,78.607 26.250 M94.207 26.250 C 92.450 28.007,93.531 29.000,97.200 29.000 C 100.891 29.000,101.521 28.494,100.411 26.421 C 99.831 25.336,95.247 25.210,94.207 26.250 M110.100 25.857 C 109.821 25.974,109.600 26.759,109.600 27.633 L 109.600 29.200 112.813 29.200 C 116.354 29.200,116.852 28.850,116.153 26.853 C 115.787 25.811,111.780 25.151,110.100 25.857 M125.700 25.857 C 125.421 25.974,125.200 26.759,125.200 27.633 L 125.200 29.200 128.413 29.200 C 131.954 29.200,132.452 28.850,131.753 26.853 C 131.387 25.811,127.380 25.151,125.700 25.857 M141.300 25.865 C 141.018 25.979,140.800 26.758,140.800 27.650 L 140.800 29.232 144.100 29.116 C 147.588 28.993,148.665 27.965,147.180 26.176 C 146.713 25.613,142.480 25.389,141.300 25.865 M156.900 25.865 C 156.618 25.979,156.400 26.758,156.400 27.650 L 156.400 29.232 159.700 29.116 C 163.188 28.993,164.265 27.965,162.780 26.176 C 162.313 25.613,158.080 25.389,156.900 25.865 M172.500 25.865 C 172.218 25.979,172.000 26.758,172.000 27.650 L 172.000 29.232 175.300 29.116 C 178.788 28.993,179.865 27.965,178.380 26.176 C 177.913 25.613,173.680 25.389,172.500 25.865 M188.100 25.865 C 187.818 25.979,187.600 26.758,187.600 27.650 L 187.600 29.232 190.900 29.116 C 194.388 28.993,195.465 27.965,193.980 26.176 C 193.513 25.613,189.280 25.389,188.100 25.865 M203.670 25.948 C 203.352 26.150,203.192 26.825,203.270 27.642 L 203.400 29.000 206.600 29.000 L 209.800 29.000 209.929 27.876 C 210.160 25.860,205.886 24.543,203.670 25.948 M219.270 25.948 C 218.952 26.150,218.792 26.825,218.870 27.642 L 219.000 29.000 222.200 29.000 L 225.400 29.000 225.529 27.876 C 225.760 25.860,221.486 24.543,219.270 25.948 M234.870 25.948 C 234.552 26.150,234.392 26.825,234.470 27.642 L 234.600 29.000 237.800 29.000 L 241.000 29.000 241.130 27.642 C 241.295 25.912,240.802 25.612,237.800 25.612 C 236.480 25.612,235.162 25.763,234.870 25.948 M54.454 51.601 C 47.272 52.681,40.372 59.291,38.407 66.971 C 37.643 69.959,37.103 145.494,37.862 143.200 C 39.800 137.343,45.016 132.697,50.909 131.579 C 57.290 130.369,75.298 131.254,79.026 132.960 C 86.337 136.307,88.398 141.056,88.406 154.571 C 88.413 165.513,88.177 164.636,91.600 166.427 C 93.246 167.288,95.335 168.927,97.293 170.894 L 100.386 174.000 103.324 174.000 C 108.739 174.000,113.885 168.687,115.959 160.954 C 116.908 157.413,116.544 68.976,115.567 65.966 C 113.450 59.439,109.237 55.043,102.503 52.333 C 100.066 51.352,60.148 50.744,54.454 51.601 M181.200 51.446 C 172.992 52.791,166.532 58.553,164.106 66.693 C 163.253 69.557,162.790 152.338,163.594 158.200 C 164.821 167.137,170.358 173.690,178.773 176.162 C 182.006 177.112,214.394 177.112,217.627 176.162 C 224.558 174.126,229.665 169.094,231.964 162.034 C 232.792 159.492,232.800 159.032,232.800 113.972 L 232.800 68.477 231.838 65.632 C 229.722 59.378,225.401 54.915,219.000 52.371 C 216.730 51.469,185.697 50.710,181.200 51.446 M119.600 196.654 C 116.968 199.300,115.234 199.764,107.400 199.919 L 100.200 200.062 98.000 202.351 C 95.696 204.747,91.925 207.481,89.678 208.384 L 88.357 208.915 88.630 215.558 C 89.095 226.855,86.492 232.390,78.909 236.231 L 76.600 237.400 64.200 237.531 C 50.333 237.678,48.942 237.517,45.346 235.349 C 43.690 234.350,42.823 234.041,42.400 234.297 C 41.437 234.878,38.566 240.925,38.062 243.433 C 37.331 247.073,37.440 332.612,38.180 335.707 C 39.823 342.584,44.656 348.330,50.800 350.712 C 54.773 352.252,57.093 352.400,77.207 352.400 C 95.765 352.400,99.733 352.205,102.300 351.165 C 109.334 348.315,113.439 344.088,115.617 337.453 C 116.376 335.141,116.400 333.660,116.400 289.372 L 116.400 243.677 115.438 240.832 C 112.293 231.537,104.450 226.400,93.404 226.400 L 90.274 226.400 93.406 224.300 C 96.272 222.379,98.466 220.047,100.848 216.394 C 101.483 215.419,101.621 215.396,108.048 215.177 C 116.197 214.900,118.543 213.905,121.538 209.454 C 125.207 204.001,123.501 192.732,119.600 196.654 M209.800 202.180 C 201.398 203.938,194.213 209.338,190.669 216.560 C 189.349 219.249,188.956 220.381,188.006 224.240 L 187.602 225.879 183.901 226.125 C 173.362 226.823,165.552 233.563,163.783 243.485 C 163.078 247.442,162.932 328.614,163.621 333.323 C 165.208 344.154,172.515 350.808,184.000 351.882 L 187.400 352.200 187.624 362.800 C 187.873 374.573,188.092 375.879,190.715 381.200 C 193.447 386.744,200.137 392.476,206.100 394.382 C 206.925 394.646,207.600 395.028,207.600 395.231 C 207.600 395.434,207.960 395.600,208.400 395.600 C 208.840 395.600,209.200 395.780,209.200 396.000 C 209.200 396.260,214.867 396.400,225.400 396.400 C 235.417 396.400,241.600 396.254,241.600 396.018 C 241.600 395.797,238.779 395.572,234.900 395.483 C 228.420 395.334,226.810 395.155,224.900 394.370 C 224.405 394.166,223.505 393.799,222.900 393.553 C 221.035 392.796,217.522 390.874,217.200 390.434 C 217.090 390.284,216.400 389.742,215.667 389.230 C 212.134 386.761,208.007 380.171,206.381 374.400 C 205.704 372.000,205.800 224.195,206.479 222.000 C 209.513 212.196,215.595 205.602,224.600 202.351 L 226.600 201.629 219.400 201.654 C 215.270 201.668,211.177 201.892,209.800 202.180 M19.764 372.149 C 18.929 374.325,19.641 374.994,22.924 375.117 L 26.048 375.235 25.924 373.517 L 25.800 371.800 22.894 371.682 C 20.637 371.591,19.938 371.695,19.764 372.149 M35.364 372.149 C 34.529 374.325,35.241 374.994,38.524 375.117 L 41.648 375.235 41.524 373.517 L 41.400 371.800 38.494 371.682 C 36.237 371.591,35.538 371.695,35.364 372.149 M50.958 372.166 C 50.838 372.478,50.799 373.243,50.870 373.866 L 51.000 375.000 54.200 375.000 L 57.400 375.000 57.529 373.876 C 57.739 372.048,57.032 371.600,53.938 371.600 C 51.924 371.600,51.116 371.754,50.958 372.166 M66.558 372.166 C 66.438 372.478,66.399 373.243,66.470 373.866 L 66.600 375.000 69.800 375.000 L 73.000 375.000 73.129 373.876 C 73.339 372.048,72.632 371.600,69.538 371.600 C 67.524 371.600,66.716 371.754,66.558 372.166 M82.470 371.948 C 82.152 372.150,81.992 372.825,82.070 373.642 L 82.200 375.000 85.400 375.000 L 88.600 375.000 88.730 373.642 C 88.895 371.912,88.402 371.612,85.400 371.612 C 84.080 371.612,82.762 371.763,82.470 371.948 M98.070 371.948 C 97.752 372.150,97.592 372.825,97.670 373.642 L 97.800 375.000 101.000 375.000 L 104.200 375.000 104.330 373.642 C 104.495 371.912,104.002 371.612,101.000 371.612 C 99.680 371.612,98.362 371.763,98.070 371.948 M113.670 371.948 C 113.352 372.150,113.192 372.825,113.270 373.642 L 113.400 375.000 116.600 375.000 L 119.800 375.000 119.930 373.642 C 120.095 371.912,119.602 371.612,116.600 371.612 C 115.280 371.612,113.962 371.763,113.670 371.948 M129.270 371.939 C 128.953 372.146,128.793 372.828,128.870 373.642 L 129.000 375.000 132.200 375.000 L 135.400 375.000 135.400 373.400 L 135.400 371.800 132.600 371.697 C 131.060 371.641,129.562 371.749,129.270 371.939 M144.870 371.939 C 144.553 372.146,144.393 372.828,144.470 373.642 L 144.600 375.000 147.800 375.000 L 151.000 375.000 151.000 373.400 L 151.000 371.800 148.200 371.697 C 146.660 371.641,145.162 371.749,144.870 371.939 M160.470 371.939 C 160.153 372.146,159.993 372.828,160.070 373.642 L 160.200 375.000 163.400 375.000 L 166.600 375.000 166.600 373.400 L 166.600 371.800 163.800 371.697 C 162.260 371.641,160.762 371.749,160.470 371.939 M176.070 371.939 C 175.753 372.146,175.593 372.828,175.670 373.642 L 175.800 375.000 179.000 375.000 L 182.200 375.000 182.200 373.400 L 182.200 371.800 179.400 371.697 C 177.860 371.641,176.362 371.749,176.070 371.939 M10.681 386.562 C 11.077 387.091,11.760 387.742,12.200 388.010 C 12.640 388.278,12.380 387.845,11.622 387.048 C 10.031 385.377,9.648 385.179,10.681 386.562 " stroke="none" fill="#994b64" fill-rule="evenodd"></path><path id="path4" d="M77.800 163.868 C 70.250 164.530,62.712 170.039,59.459 177.272 C 51.910 194.061,65.936 212.669,83.965 209.782 C 87.101 209.280,89.263 208.400,87.360 208.400 C 86.920 208.400,86.362 208.598,86.120 208.840 C 85.480 209.480,76.581 209.450,74.600 208.801 C 66.129 206.024,60.512 200.190,58.409 191.984 C 54.282 175.886,69.504 161.375,86.700 165.016 C 87.584 165.203,88.000 165.141,88.000 164.822 C 88.000 164.564,87.835 164.455,87.634 164.579 C 87.432 164.704,86.847 164.650,86.334 164.459 C 85.193 164.037,79.989 163.676,77.800 163.868 M274.000 215.988 L 274.000 231.576 275.021 233.809 C 276.109 236.188,278.367 238.667,280.252 239.554 C 280.884 239.850,281.713 240.252,282.095 240.447 C 282.477 240.641,290.820 240.800,300.636 240.800 L 318.484 240.800 320.542 239.772 C 323.982 238.055,325.852 235.758,327.166 231.640 C 327.446 230.764,327.600 224.975,327.600 215.340 L 327.600 200.400 300.800 200.400 L 274.000 200.400 274.000 215.988 M326.600 216.800 C 326.600 230.857,326.537 232.332,325.874 233.716 C 324.923 235.701,322.992 237.875,321.441 238.706 C 318.366 240.354,317.943 240.388,300.457 240.394 L 283.514 240.400 280.985 239.193 C 277.853 237.698,276.577 236.178,274.850 231.881 C 274.356 230.654,274.186 201.947,274.670 201.464 C 274.818 201.316,286.563 201.241,300.770 201.297 L 326.600 201.400 326.600 216.800 M231.600 315.349 C 228.090 316.514,225.762 318.429,224.000 321.600 L 223.000 323.400 223.000 340.400 C 223.000 359.770,222.850 358.851,226.622 362.517 C 230.288 366.081,229.487 366.000,261.149 366.000 C 280.062 366.000,289.106 365.862,290.040 365.560 C 294.479 364.126,297.415 361.455,298.632 357.744 C 299.826 354.100,299.802 326.083,298.601 322.843 C 297.249 319.198,295.011 317.155,290.281 315.251 C 288.679 314.605,233.562 314.697,231.600 315.349 M291.357 316.297 C 293.889 317.205,296.458 319.488,297.652 321.892 L 298.600 323.800 298.600 340.400 L 298.600 357.000 297.642 358.798 C 294.021 365.594,293.432 365.697,259.400 365.528 C 229.579 365.380,230.479 365.472,227.027 362.234 C 223.391 358.824,223.400 358.881,223.400 340.400 L 223.400 324.200 224.346 322.200 C 225.546 319.665,227.425 317.831,230.098 316.586 L 232.200 315.608 260.800 315.602 C 287.057 315.597,289.560 315.653,291.357 316.297 " stroke="none" fill="#f0bc9d" fill-rule="evenodd"></path></g></svg>