<svg id="svg" version="1.1" xmlns="http://www.w3.org/2000/svg" xmlns:xlink="http://www.w3.org/1999/xlink" width="400" height="400" viewBox="0, 0, 400,400"><g id="svgg"><path id="path0" d="M24.800 1.600 C 24.800 1.820,24.271 2.000,23.624 2.000 C 22.977 2.000,22.336 2.180,22.200 2.400 C 22.064 2.620,21.513 2.800,20.976 2.800 C 20.439 2.800,20.000 2.980,20.000 3.200 C 20.000 3.420,19.640 3.600,19.200 3.600 C 18.760 3.600,18.400 3.780,18.400 4.000 C 18.400 4.220,18.040 4.400,17.600 4.400 C 17.160 4.400,16.800 4.580,16.800 4.800 C 16.800 5.020,16.440 5.200,16.000 5.200 C 15.560 5.200,15.200 5.380,15.200 5.600 C 15.200 5.820,14.930 6.000,14.600 6.000 C 14.270 6.000,14.000 6.180,14.000 6.400 C 14.000 6.620,13.820 6.800,13.600 6.800 C 13.015 6.800,7.098 12.836,6.432 14.112 C 6.120 14.710,5.715 15.200,5.532 15.200 C 5.350 15.200,5.200 15.560,5.200 16.000 C 5.200 16.440,5.020 16.800,4.800 16.800 C 4.580 16.800,4.400 17.160,4.400 17.600 C 4.400 18.040,4.220 18.400,4.000 18.400 C 3.780 18.400,3.600 18.760,3.600 19.200 C 3.600 19.640,3.420 20.000,3.200 20.000 C 2.980 20.000,2.800 20.439,2.800 20.976 C 2.800 21.513,2.620 22.064,2.400 22.200 C 2.180 22.336,2.000 22.977,2.000 23.624 C 2.000 24.271,1.820 24.800,1.600 24.800 C 1.045 24.800,1.045 375.457,1.600 375.800 C 1.820 375.936,2.000 376.577,2.000 377.224 C 2.000 377.871,2.180 378.400,2.400 378.400 C 2.620 378.400,2.800 378.940,2.800 379.600 C 2.800 380.260,2.980 380.800,3.200 380.800 C 3.420 380.800,3.600 381.160,3.600 381.600 C 3.600 382.040,3.780 382.400,4.000 382.400 C 4.220 382.400,4.400 382.760,4.400 383.200 C 4.400 383.640,4.580 384.000,4.800 384.000 C 5.020 384.000,5.200 384.320,5.200 384.712 C 5.200 385.103,5.560 385.683,6.000 386.000 C 6.440 386.317,6.800 386.792,6.800 387.055 C 6.800 387.883,13.146 394.000,14.005 394.000 C 14.222 394.000,14.400 394.180,14.400 394.400 C 14.400 394.620,14.670 394.800,15.000 394.800 C 15.330 394.800,15.600 394.980,15.600 395.200 C 15.600 395.420,15.870 395.600,16.200 395.600 C 16.530 395.600,16.800 395.780,16.800 396.000 C 16.800 396.220,17.160 396.400,17.600 396.400 C 18.040 396.400,18.400 396.580,18.400 396.800 C 18.400 397.020,18.839 397.200,19.376 397.200 C 19.913 397.200,20.464 397.380,20.600 397.600 C 20.736 397.820,21.197 398.000,21.624 398.000 C 22.051 398.000,22.400 398.180,22.400 398.400 C 22.400 398.620,23.109 398.800,23.976 398.800 C 24.843 398.800,25.664 398.980,25.800 399.200 C 26.143 399.755,374.800 399.755,374.800 399.200 C 374.800 398.980,375.253 398.800,375.806 398.800 C 377.091 398.800,380.000 397.900,380.000 397.503 C 380.000 397.336,380.343 397.200,380.762 397.200 C 381.669 397.200,384.800 395.592,384.800 395.126 C 384.800 394.947,385.120 394.800,385.512 394.800 C 385.903 394.800,386.483 394.440,386.800 394.000 C 387.117 393.560,387.607 393.200,387.888 393.200 C 388.555 393.200,393.200 388.555,393.200 387.888 C 393.200 387.607,393.560 387.117,394.000 386.800 C 394.440 386.483,394.800 385.903,394.800 385.512 C 394.800 385.120,394.947 384.800,395.126 384.800 C 395.592 384.800,397.200 381.669,397.200 380.762 C 397.200 380.343,397.380 380.000,397.600 380.000 C 397.820 380.000,398.000 379.651,398.000 379.224 C 398.000 378.797,398.180 378.336,398.400 378.200 C 398.620 378.064,398.800 377.344,398.800 376.600 C 398.800 375.856,398.980 375.136,399.200 375.000 C 399.464 374.837,399.600 349.004,399.600 298.800 C 399.600 248.596,399.464 222.763,399.200 222.600 C 398.980 222.464,398.800 221.821,398.800 221.171 C 398.800 220.035,398.684 219.682,397.662 217.705 C 397.408 217.213,397.200 216.448,397.200 216.005 C 397.200 215.562,397.041 215.200,396.847 215.200 C 396.652 215.200,396.393 214.885,396.271 214.500 C 396.032 213.744,394.848 211.717,394.200 210.953 C 393.980 210.693,393.260 209.822,392.600 209.016 C 390.644 206.629,388.487 204.400,388.131 204.399 C 387.949 204.399,387.170 203.859,386.400 203.200 C 385.630 202.541,384.775 202.001,384.500 202.001 C 384.225 202.000,384.000 201.820,384.000 201.600 C 384.000 201.380,383.640 201.200,383.200 201.200 C 382.760 201.200,382.400 201.020,382.400 200.800 C 382.400 200.580,382.051 200.400,381.624 200.400 C 381.197 200.400,380.736 200.220,380.600 200.000 C 380.464 199.780,379.913 199.600,379.376 199.600 C 378.839 199.600,378.400 199.420,378.400 199.200 C 378.400 198.980,377.680 198.800,376.800 198.800 C 375.920 198.800,375.200 198.620,375.200 198.400 C 375.200 198.135,357.000 198.000,321.400 198.000 L 267.600 198.000 267.600 114.600 C 267.600 59.267,267.465 31.200,267.200 31.200 C 266.967 31.200,266.800 29.867,266.800 28.000 C 266.800 26.133,266.633 24.800,266.400 24.800 C 266.180 24.800,266.000 24.181,266.000 23.424 C 266.000 22.667,265.820 21.936,265.600 21.800 C 265.380 21.664,265.200 21.203,265.200 20.776 C 265.200 20.349,265.020 20.000,264.800 20.000 C 264.580 20.000,264.400 19.766,264.400 19.480 C 264.400 18.744,263.459 16.807,263.100 16.803 C 262.935 16.801,262.800 16.440,262.800 16.000 C 262.800 15.560,262.620 15.200,262.400 15.200 C 262.180 15.200,262.000 14.941,262.000 14.624 C 262.000 13.947,255.098 6.800,254.445 6.800 C 254.200 6.800,254.000 6.620,254.000 6.400 C 254.000 6.180,253.730 6.000,253.400 6.000 C 253.070 6.000,252.800 5.820,252.800 5.600 C 252.800 5.380,252.440 5.200,252.000 5.200 C 251.560 5.200,251.200 5.020,251.200 4.800 C 251.200 4.580,250.840 4.400,250.400 4.400 C 249.960 4.400,249.600 4.220,249.600 4.000 C 249.600 3.780,249.240 3.600,248.800 3.600 C 248.360 3.600,248.000 3.420,248.000 3.200 C 248.000 2.980,247.561 2.800,247.024 2.800 C 246.487 2.800,245.936 2.620,245.800 2.400 C 245.664 2.180,245.023 2.000,244.376 2.000 C 243.729 2.000,243.200 1.820,243.200 1.600 C 243.200 1.334,206.533 1.200,134.000 1.200 C 61.467 1.200,24.800 1.334,24.800 1.600 M31.862 8.300 C 31.760 8.465,78.720 8.600,136.218 8.600 C 219.318 8.600,240.863 8.703,241.260 9.100 C 241.535 9.375,242.264 9.600,242.880 9.600 C 243.496 9.600,244.000 9.780,244.000 10.000 C 244.000 10.220,244.234 10.400,244.520 10.400 C 245.256 10.400,247.193 11.341,247.197 11.700 C 247.199 11.865,247.478 12.000,247.818 12.000 C 248.158 12.000,248.873 12.437,249.407 12.971 C 249.941 13.505,250.899 14.249,251.535 14.625 C 252.171 15.001,252.999 15.829,253.375 16.465 C 253.751 17.101,254.495 18.059,255.029 18.593 C 255.563 19.127,256.000 19.842,256.000 20.182 C 256.000 20.522,256.180 20.800,256.400 20.800 C 256.620 20.800,256.800 21.160,256.800 21.600 C 256.800 22.040,256.980 22.400,257.200 22.400 C 257.420 22.400,257.600 22.760,257.600 23.200 C 257.600 23.640,257.780 24.000,258.000 24.000 C 258.220 24.000,258.400 24.439,258.400 24.976 C 258.400 25.513,258.580 26.064,258.800 26.200 C 259.020 26.336,259.200 27.607,259.200 29.024 C 259.200 30.475,259.375 31.600,259.600 31.600 C 259.865 31.600,260.000 59.600,260.000 114.800 L 260.000 198.000 243.600 198.000 C 232.933 198.000,227.200 198.140,227.200 198.400 C 227.200 198.620,226.480 198.800,225.600 198.800 C 224.720 198.800,224.000 198.980,224.000 199.200 C 224.000 199.420,223.460 199.600,222.800 199.600 C 222.140 199.600,221.600 199.780,221.600 200.000 C 221.600 200.220,221.240 200.400,220.800 200.400 C 220.360 200.400,220.000 200.580,220.000 200.800 C 220.000 201.020,219.640 201.200,219.200 201.200 C 218.760 201.200,218.400 201.380,218.400 201.600 C 218.400 201.820,218.080 202.000,217.688 202.000 C 217.297 202.000,216.717 202.360,216.400 202.800 C 216.083 203.240,215.609 203.600,215.347 203.600 C 214.616 203.600,208.400 210.030,208.400 210.786 C 208.400 211.014,208.220 211.200,208.000 211.200 C 207.780 211.200,207.600 211.470,207.600 211.800 C 207.600 212.130,207.420 212.400,207.200 212.400 C 206.980 212.400,206.800 212.670,206.800 213.000 C 206.800 213.330,206.620 213.600,206.400 213.600 C 206.180 213.600,206.000 213.960,206.000 214.400 C 206.000 214.840,205.820 215.200,205.600 215.200 C 205.380 215.200,205.200 215.560,205.200 216.000 C 205.200 216.440,205.020 216.800,204.800 216.800 C 204.580 216.800,204.400 217.340,204.400 218.000 C 204.400 218.660,204.220 219.200,204.000 219.200 C 203.780 219.200,203.600 219.920,203.600 220.800 L 203.600 222.400 192.824 222.400 C 186.071 222.400,181.955 222.549,181.800 222.800 C 181.664 223.020,180.663 223.200,179.576 223.200 C 178.489 223.200,177.600 223.380,177.600 223.600 C 177.600 223.820,177.150 224.000,176.600 224.000 C 176.050 224.000,175.600 224.180,175.600 224.400 C 175.600 224.620,175.142 224.800,174.583 224.800 C 174.024 224.800,173.180 225.160,172.708 225.600 C 172.236 226.040,171.613 226.400,171.325 226.400 C 171.036 226.400,170.800 226.560,170.800 226.757 C 170.800 226.953,170.387 227.217,169.882 227.344 C 168.824 227.609,164.400 231.922,164.400 232.687 C 164.400 232.969,164.239 233.200,164.042 233.200 C 163.631 233.200,161.200 238.072,161.200 238.895 C 161.200 239.195,160.975 239.665,160.700 239.940 C 160.305 240.334,160.200 250.709,160.200 289.120 L 160.200 337.800 161.180 340.200 C 162.309 342.965,163.473 345.066,164.490 346.175 C 164.880 346.602,165.200 347.115,165.200 347.315 C 165.200 347.824,168.828 351.200,169.375 351.200 C 169.622 351.200,170.083 351.560,170.400 352.000 C 170.717 352.440,171.297 352.800,171.688 352.800 C 172.080 352.800,172.400 352.980,172.400 353.200 C 172.400 353.420,172.760 353.600,173.200 353.600 C 173.640 353.600,174.000 353.780,174.000 354.000 C 174.000 354.220,174.360 354.400,174.800 354.400 C 175.240 354.400,175.600 354.580,175.600 354.800 C 175.600 355.020,176.104 355.200,176.720 355.200 C 177.336 355.200,178.011 355.365,178.220 355.568 C 178.785 356.114,183.124 356.419,193.500 356.642 L 202.800 356.841 202.800 366.021 C 202.800 371.874,202.945 375.200,203.200 375.200 C 203.420 375.200,203.600 375.920,203.600 376.800 C 203.600 377.680,203.780 378.400,204.000 378.400 C 204.220 378.400,204.400 378.839,204.400 379.376 C 204.400 379.913,204.580 380.464,204.800 380.600 C 205.020 380.736,205.200 381.197,205.200 381.624 C 205.200 382.051,205.380 382.400,205.600 382.400 C 205.820 382.400,206.000 382.760,206.000 383.200 C 206.000 383.640,206.150 384.000,206.332 384.000 C 206.515 384.000,206.919 384.495,207.230 385.100 C 207.540 385.705,208.111 386.491,208.497 386.847 C 208.884 387.203,209.203 387.743,209.207 388.047 C 209.210 388.351,210.005 389.365,210.974 390.300 L 212.734 392.000 120.191 392.000 C 58.927 392.000,27.564 391.865,27.400 391.600 C 27.264 391.380,26.634 391.200,26.000 391.200 C 25.366 391.200,24.736 391.020,24.600 390.800 C 24.464 390.580,24.003 390.400,23.576 390.400 C 23.149 390.400,22.800 390.220,22.800 390.000 C 22.800 389.780,22.474 389.600,22.075 389.600 C 21.677 389.600,20.964 389.240,20.492 388.800 C 20.020 388.360,19.443 388.000,19.210 388.000 C 18.607 388.000,13.111 382.399,12.432 381.092 C 12.120 380.492,11.715 380.000,11.532 380.000 C 11.350 380.000,11.200 379.640,11.200 379.200 C 11.200 378.760,11.020 378.400,10.800 378.400 C 10.580 378.400,10.400 377.950,10.400 377.400 C 10.400 376.850,10.220 376.400,10.000 376.400 C 9.780 376.400,9.600 375.860,9.600 375.200 C 9.600 374.540,9.420 374.000,9.200 374.000 C 8.934 374.000,8.800 315.867,8.800 200.400 C 8.800 84.933,8.934 26.800,9.200 26.800 C 9.420 26.800,9.600 26.170,9.600 25.400 C 9.600 24.630,9.780 24.000,10.000 24.000 C 10.220 24.000,10.400 23.640,10.400 23.200 C 10.400 22.760,10.580 22.400,10.800 22.400 C 11.020 22.400,11.200 22.040,11.200 21.600 C 11.200 21.160,11.380 20.800,11.600 20.800 C 11.820 20.800,12.000 20.533,12.000 20.207 C 12.000 19.636,13.985 17.239,15.935 15.455 C 16.449 14.985,17.478 14.015,18.222 13.300 C 18.965 12.585,19.849 12.000,20.187 12.000 C 20.524 12.000,20.800 11.820,20.800 11.600 C 20.800 11.380,21.160 11.200,21.600 11.200 C 22.040 11.200,22.400 11.020,22.400 10.800 C 22.400 10.580,22.760 10.400,23.200 10.400 C 23.640 10.400,24.000 10.220,24.000 10.000 C 24.000 9.780,24.630 9.600,25.400 9.600 C 26.170 9.600,26.800 9.420,26.800 9.200 C 26.800 8.980,27.779 8.800,28.976 8.800 C 30.173 8.800,31.264 8.620,31.400 8.400 C 31.536 8.180,31.737 8.000,31.847 8.000 C 31.957 8.000,31.964 8.135,31.862 8.300 M15.200 27.786 L 15.200 30.000 18.982 30.000 L 22.764 30.000 23.019 28.640 C 23.533 25.901,23.416 25.812,19.095 25.686 L 15.200 25.571 15.200 27.786 M30.800 27.800 L 30.800 30.000 34.800 30.000 L 38.800 30.000 38.800 27.800 L 38.800 25.600 34.800 25.600 L 30.800 25.600 30.800 27.800 M46.400 27.800 L 46.400 30.000 50.400 30.000 L 54.400 30.000 54.400 27.800 L 54.400 25.600 50.400 25.600 L 46.400 25.600 46.400 27.800 M62.079 27.700 L 62.200 29.800 66.100 29.914 L 70.000 30.029 70.000 27.814 L 70.000 25.600 65.979 25.600 L 61.958 25.600 62.079 27.700 M77.679 27.700 L 77.800 29.800 81.700 29.914 L 85.600 30.029 85.600 27.814 L 85.600 25.600 81.579 25.600 L 77.558 25.600 77.679 27.700 M93.600 27.800 L 93.600 30.000 97.400 30.000 L 101.200 30.000 101.200 27.800 L 101.200 25.600 97.400 25.600 L 93.600 25.600 93.600 27.800 M109.200 27.800 L 109.200 30.000 113.000 30.000 L 116.800 30.000 116.800 27.800 L 116.800 25.600 113.000 25.600 L 109.200 25.600 109.200 27.800 M124.800 27.800 L 124.800 30.000 128.600 30.000 L 132.400 30.000 132.400 27.800 L 132.400 25.600 128.600 25.600 L 124.800 25.600 124.800 27.800 M140.400 27.800 L 140.400 30.000 144.200 30.000 L 148.000 30.000 148.000 27.800 L 148.000 25.600 144.200 25.600 L 140.400 25.600 140.400 27.800 M156.000 27.800 L 156.000 30.000 159.800 30.000 L 163.600 30.000 163.600 27.800 L 163.600 25.600 159.800 25.600 L 156.000 25.600 156.000 27.800 M171.600 27.800 L 171.600 30.000 175.400 30.000 L 179.200 30.000 179.200 27.800 L 179.200 25.600 175.400 25.600 L 171.600 25.600 171.600 27.800 M187.200 27.800 L 187.200 30.000 191.000 30.000 L 194.800 30.000 194.800 27.800 L 194.800 25.600 191.000 25.600 L 187.200 25.600 187.200 27.800 M202.800 27.800 L 202.800 30.000 206.600 30.000 L 210.400 30.000 210.400 27.800 L 210.400 25.600 206.600 25.600 L 202.800 25.600 202.800 27.800 M218.400 27.800 L 218.400 30.000 222.200 30.000 L 226.000 30.000 226.000 27.800 L 226.000 25.600 222.200 25.600 L 218.400 25.600 218.400 27.800 M234.000 27.800 L 234.000 30.000 237.800 30.000 L 241.600 30.000 241.600 27.800 L 241.600 25.600 237.800 25.600 L 234.000 25.600 234.000 27.800 M267.100 156.468 C 267.043 179.421,266.996 160.760,266.996 115.000 C 266.996 69.240,267.043 50.461,267.100 73.268 C 267.157 96.076,267.157 133.516,267.100 156.468 M54.600 47.600 C 54.464 47.820,53.654 48.000,52.800 48.000 C 51.946 48.000,51.136 48.180,51.000 48.400 C 50.864 48.620,50.313 48.800,49.776 48.800 C 49.239 48.800,48.800 48.980,48.800 49.200 C 48.800 49.420,48.440 49.600,48.000 49.600 C 47.560 49.600,47.200 49.736,47.200 49.902 C 47.200 50.069,46.628 50.458,45.930 50.767 C 44.380 51.453,38.000 57.751,38.000 58.594 C 38.000 58.927,37.848 59.200,37.663 59.200 C 37.477 59.200,36.918 60.055,36.419 61.100 C 35.920 62.145,35.352 63.313,35.156 63.695 C 34.960 64.077,34.800 64.932,34.800 65.595 C 34.800 66.258,34.620 66.800,34.400 66.800 C 34.135 66.800,34.000 93.600,34.000 146.400 C 34.000 199.200,34.135 226.000,34.400 226.000 C 34.620 226.000,34.800 226.363,34.800 226.806 C 34.800 227.933,35.731 230.800,36.097 230.800 C 36.264 230.800,36.400 231.036,36.400 231.325 C 36.400 231.613,36.751 232.226,37.180 232.687 C 37.946 233.509,37.603 235.587,36.700 235.597 C 36.535 235.599,36.400 235.960,36.400 236.400 C 36.400 236.840,36.220 237.200,36.000 237.200 C 35.780 237.200,35.600 237.740,35.600 238.400 C 35.600 239.060,35.420 239.600,35.200 239.600 C 34.980 239.600,34.800 240.129,34.800 240.776 C 34.800 241.423,34.620 242.064,34.400 242.200 C 33.847 242.542,33.847 337.058,34.400 337.400 C 34.620 337.536,34.800 338.166,34.800 338.800 C 34.800 339.434,34.980 340.064,35.200 340.200 C 35.420 340.336,35.600 340.887,35.600 341.424 C 35.600 341.961,35.780 342.400,36.000 342.400 C 36.220 342.400,36.400 342.720,36.400 343.112 C 36.400 343.503,36.760 344.083,37.200 344.400 C 37.640 344.717,38.000 345.225,38.000 345.528 C 38.000 345.831,38.495 346.562,39.100 347.152 C 39.705 347.742,40.392 348.567,40.627 348.985 C 40.861 349.404,41.401 349.939,41.827 350.173 C 42.252 350.408,43.031 351.095,43.558 351.700 C 44.085 352.305,44.715 352.804,44.958 352.809 C 45.201 352.814,45.850 353.170,46.400 353.600 C 46.950 354.030,47.715 354.386,48.100 354.391 C 48.485 354.396,48.800 354.580,48.800 354.800 C 48.800 355.020,49.149 355.200,49.576 355.200 C 50.003 355.200,50.452 355.361,50.574 355.558 C 51.458 356.988,103.600 356.988,103.600 355.558 C 103.600 355.361,103.943 355.200,104.362 355.200 C 105.187 355.200,108.270 353.712,109.129 352.900 C 109.419 352.625,109.815 352.400,110.009 352.400 C 110.569 352.400,115.742 347.112,116.368 345.900 C 116.680 345.295,117.085 344.800,117.268 344.800 C 117.450 344.800,117.600 344.440,117.600 344.000 C 117.600 343.560,117.780 343.200,118.000 343.200 C 118.220 343.200,118.400 342.840,118.400 342.400 C 118.400 341.960,118.580 341.600,118.800 341.600 C 119.020 341.600,119.200 341.161,119.200 340.624 C 119.200 340.087,119.380 339.536,119.600 339.400 C 119.820 339.264,120.000 338.353,120.000 337.376 C 120.000 336.399,120.180 335.600,120.400 335.600 C 120.664 335.600,120.800 320.075,120.800 289.824 C 120.800 259.737,120.663 243.962,120.400 243.800 C 120.180 243.664,120.000 242.843,120.000 241.976 C 120.000 241.109,119.820 240.400,119.600 240.400 C 119.380 240.400,119.200 239.860,119.200 239.200 C 119.200 238.540,119.020 238.000,118.800 238.000 C 118.580 238.000,118.400 237.640,118.400 237.200 C 118.400 236.760,118.220 236.400,118.000 236.400 C 117.780 236.400,117.600 236.040,117.600 235.600 C 117.600 235.160,117.420 234.800,117.200 234.800 C 116.980 234.800,116.800 234.542,116.800 234.227 C 116.800 233.455,110.293 226.922,110.100 227.501 C 110.012 227.763,109.424 227.457,108.715 226.778 C 108.036 226.130,107.148 225.600,106.741 225.600 C 106.333 225.600,106.000 225.420,106.000 225.200 C 106.000 224.980,105.651 224.800,105.224 224.800 C 104.797 224.800,104.336 224.620,104.200 224.400 C 104.064 224.180,103.333 224.000,102.576 224.000 C 101.819 224.000,101.200 223.820,101.200 223.600 C 101.200 223.356,99.333 223.200,96.400 223.200 L 91.600 223.200 91.600 217.672 C 91.600 211.834,92.113 210.400,94.203 210.400 C 94.531 210.400,94.800 210.220,94.800 210.000 C 94.800 209.780,95.078 209.600,95.417 209.600 C 96.164 209.600,96.549 209.295,99.840 206.100 L 102.415 203.600 109.207 203.600 C 113.469 203.600,116.000 203.451,116.000 203.200 C 116.000 202.980,116.540 202.800,117.200 202.800 C 117.860 202.800,118.400 202.620,118.400 202.400 C 118.400 202.180,118.720 202.000,119.112 202.000 C 119.503 202.000,120.083 201.640,120.400 201.200 C 120.717 200.760,121.186 200.400,121.442 200.400 C 122.060 200.400,124.647 197.513,124.986 196.444 C 125.133 195.980,125.422 195.600,125.627 195.600 C 125.832 195.600,126.000 195.240,126.000 194.800 C 126.000 194.360,126.180 194.000,126.400 194.000 C 126.620 194.000,126.800 193.370,126.800 192.600 C 126.800 191.830,126.980 191.200,127.200 191.200 C 127.440 191.200,127.600 189.600,127.600 187.200 C 127.600 184.800,127.440 183.200,127.200 183.200 C 126.980 183.200,126.800 182.660,126.800 182.000 C 126.800 181.340,126.620 180.800,126.400 180.800 C 126.180 180.800,126.000 180.535,126.000 180.212 C 126.000 178.774,122.321 174.000,121.213 174.000 C 120.986 174.000,120.800 173.853,120.800 173.674 C 120.800 173.199,117.661 171.600,116.729 171.600 C 116.235 171.600,116.022 171.411,116.166 171.100 C 116.295 170.825,116.511 170.285,116.646 169.900 C 116.782 169.515,117.052 169.200,117.247 169.200 C 117.441 169.200,117.600 168.840,117.600 168.400 C 117.600 167.960,117.780 167.600,118.000 167.600 C 118.220 167.600,118.400 167.240,118.400 166.800 C 118.400 166.360,118.580 166.000,118.800 166.000 C 119.020 166.000,119.200 165.460,119.200 164.800 C 119.200 164.140,119.380 163.600,119.600 163.600 C 119.820 163.600,120.000 162.891,120.000 162.024 C 120.000 161.157,120.180 160.336,120.400 160.200 C 120.663 160.038,120.800 144.263,120.800 114.176 C 120.800 83.925,120.664 68.400,120.400 68.400 C 120.180 68.400,120.000 67.601,120.000 66.624 C 120.000 65.647,119.820 64.736,119.600 64.600 C 119.380 64.464,119.200 63.913,119.200 63.376 C 119.200 62.839,119.020 62.400,118.800 62.400 C 118.580 62.400,118.400 62.128,118.400 61.795 C 118.400 61.023,117.601 59.596,116.700 58.757 C 116.315 58.399,116.000 57.899,116.000 57.646 C 116.000 57.045,110.955 52.000,110.354 52.000 C 110.101 52.000,109.603 51.685,109.247 51.300 C 108.397 50.381,105.324 48.800,104.386 48.800 C 103.980 48.800,103.536 48.620,103.400 48.400 C 103.264 48.180,102.454 48.000,101.600 48.000 C 100.746 48.000,99.936 47.820,99.800 47.600 C 99.640 47.341,91.670 47.200,77.200 47.200 C 62.730 47.200,54.760 47.341,54.600 47.600 M180.605 47.592 C 180.466 47.816,179.643 48.000,178.776 48.000 C 177.909 48.000,177.200 48.180,177.200 48.400 C 177.200 48.620,176.660 48.800,176.000 48.800 C 175.340 48.800,174.800 48.980,174.800 49.200 C 174.800 49.420,174.440 49.600,174.000 49.600 C 173.560 49.600,173.200 49.780,173.200 50.000 C 173.200 50.220,172.840 50.400,172.400 50.400 C 171.960 50.400,171.600 50.550,171.600 50.732 C 171.600 50.915,171.108 51.320,170.507 51.632 C 169.308 52.255,164.400 56.985,164.400 57.517 C 164.400 57.700,164.085 58.198,163.700 58.625 C 162.739 59.690,161.200 62.727,161.200 63.558 C 161.200 63.933,160.975 64.465,160.700 64.740 C 159.187 66.253,160.159 166.000,161.687 166.000 C 161.859 166.000,162.000 166.234,162.000 166.520 C 162.000 167.256,162.941 169.193,163.300 169.197 C 163.465 169.199,163.600 169.425,163.600 169.700 C 163.601 170.470,167.760 175.200,168.436 175.200 C 168.640 175.200,169.372 175.740,170.063 176.400 C 170.754 177.060,171.562 177.600,171.859 177.600 C 172.157 177.600,172.400 177.780,172.400 178.000 C 172.400 178.220,172.760 178.400,173.200 178.400 C 173.640 178.400,174.000 178.580,174.000 178.800 C 174.000 179.020,174.540 179.200,175.200 179.200 C 175.860 179.200,176.400 179.380,176.400 179.600 C 176.400 179.820,176.940 180.000,177.600 180.000 C 178.260 180.000,178.800 180.180,178.800 180.400 C 178.800 180.661,185.667 180.800,198.600 180.800 C 211.533 180.800,218.400 180.661,218.400 180.400 C 218.400 180.180,218.940 180.000,219.600 180.000 C 220.260 180.000,220.800 179.820,220.800 179.600 C 220.800 179.380,221.143 179.200,221.562 179.200 C 222.666 179.200,225.628 177.579,226.860 176.300 C 227.444 175.695,228.164 175.196,228.460 175.191 C 228.757 175.187,229.540 174.536,230.200 173.745 C 230.860 172.955,231.805 171.887,232.300 171.372 C 232.795 170.858,233.200 170.158,233.200 169.818 C 233.200 169.478,233.347 169.200,233.526 169.200 C 233.992 169.200,235.600 166.069,235.600 165.162 C 235.600 164.743,235.780 164.400,236.000 164.400 C 236.220 164.400,236.400 163.691,236.400 162.824 C 236.400 161.957,236.580 161.136,236.800 161.000 C 237.063 160.837,237.200 144.804,237.200 114.200 C 237.200 83.596,237.063 67.563,236.800 67.400 C 236.580 67.264,236.400 66.621,236.400 65.971 C 236.400 65.321,236.240 64.477,236.044 64.095 C 235.848 63.713,235.263 62.500,234.744 61.400 C 234.225 60.300,233.665 59.340,233.500 59.267 C 233.335 59.193,233.200 58.886,233.200 58.584 C 233.200 57.867,226.533 51.200,225.816 51.200 C 225.514 51.200,225.207 51.065,225.133 50.900 C 224.912 50.401,221.578 48.800,220.762 48.800 C 220.343 48.800,220.000 48.638,220.000 48.440 C 220.000 47.491,181.184 46.655,180.605 47.592 M99.105 55.561 C 99.487 55.760,100.610 56.157,101.600 56.444 C 102.590 56.731,103.490 57.084,103.600 57.227 C 103.710 57.371,104.404 57.798,105.143 58.177 C 106.587 58.917,110.000 62.135,110.000 62.757 C 110.000 62.964,110.450 64.030,111.000 65.125 C 111.550 66.220,112.000 67.484,112.000 67.934 C 112.000 68.385,112.180 68.864,112.400 69.000 C 112.663 69.162,112.800 84.663,112.800 114.200 C 112.800 143.737,112.663 159.238,112.400 159.400 C 112.180 159.536,112.000 160.051,112.000 160.545 C 112.000 161.670,110.094 165.583,109.125 166.447 C 108.726 166.803,108.400 167.277,108.400 167.501 C 108.400 167.725,107.905 168.229,107.300 168.621 C 106.695 169.013,105.909 169.664,105.553 170.067 C 104.218 171.580,102.596 171.036,99.681 168.100 C 98.206 166.615,96.505 165.145,95.900 164.832 C 95.295 164.520,94.800 164.115,94.800 163.932 C 94.800 163.750,94.440 163.600,94.000 163.600 C 93.560 163.600,93.200 163.420,93.200 163.200 C 93.200 162.980,92.851 162.800,92.424 162.800 C 91.679 162.800,91.643 162.381,91.524 152.300 C 91.400 141.832,91.396 141.793,90.324 139.600 C 88.479 135.826,83.808 130.832,82.100 130.807 C 81.825 130.803,81.600 130.620,81.600 130.400 C 81.600 130.180,81.240 130.000,80.800 130.000 C 80.360 130.000,80.000 129.820,80.000 129.600 C 80.000 129.380,79.460 129.200,78.800 129.200 C 78.140 129.200,77.600 129.040,77.600 128.845 C 77.600 127.572,49.535 127.560,48.220 128.832 C 48.011 129.035,47.426 129.200,46.920 129.200 C 46.414 129.200,46.000 129.380,46.000 129.600 C 46.000 129.820,45.713 130.000,45.362 130.000 C 44.704 130.000,42.428 131.437,41.906 132.181 C 41.744 132.411,41.609 118.155,41.606 100.500 C 41.602 79.363,41.737 68.400,42.000 68.400 C 42.220 68.400,42.400 67.860,42.400 67.200 C 42.400 66.540,42.580 66.000,42.800 66.000 C 43.020 66.000,43.200 65.640,43.200 65.200 C 43.200 64.760,43.380 64.400,43.600 64.400 C 43.820 64.400,44.000 64.109,44.000 63.753 C 44.000 63.207,47.510 59.503,49.263 58.200 C 50.650 57.169,53.387 56.000,54.414 56.000 C 55.040 56.000,55.664 55.820,55.800 55.600 C 56.117 55.088,98.122 55.050,99.105 55.561 M215.400 55.600 C 215.536 55.820,216.166 56.000,216.800 56.000 C 217.434 56.000,218.064 56.180,218.200 56.400 C 218.336 56.620,218.797 56.800,219.224 56.800 C 219.651 56.800,220.000 56.980,220.000 57.200 C 220.000 57.420,220.278 57.600,220.617 57.600 C 221.333 57.600,221.632 57.833,224.790 60.851 C 226.512 62.496,227.219 63.492,227.417 64.551 C 227.567 65.348,227.849 66.000,228.045 66.000 C 228.240 66.000,228.400 66.529,228.400 67.176 C 228.400 67.823,228.580 68.464,228.800 68.600 C 229.063 68.762,229.200 84.471,229.200 114.424 C 229.200 144.541,229.064 160.000,228.800 160.000 C 228.580 160.000,228.400 160.529,228.400 161.176 C 228.400 161.823,228.234 162.455,228.031 162.581 C 227.828 162.706,227.543 163.347,227.399 164.005 C 227.255 164.662,226.971 165.200,226.768 165.200 C 226.566 165.200,226.400 165.470,226.400 165.800 C 226.400 166.130,226.220 166.400,226.000 166.400 C 225.780 166.400,225.600 166.601,225.600 166.846 C 225.600 167.444,222.781 170.000,222.122 170.000 C 221.835 170.000,221.600 170.147,221.600 170.326 C 221.600 170.792,218.469 172.400,217.562 172.400 C 217.143 172.400,216.800 172.580,216.800 172.800 C 216.800 173.309,181.084 173.351,180.095 172.844 C 179.713 172.648,178.500 172.063,177.401 171.544 C 176.302 171.025,175.063 170.330,174.648 170.000 C 173.194 168.843,171.200 166.770,171.200 166.415 C 171.200 166.218,170.975 165.819,170.700 165.529 C 169.888 164.670,168.400 161.587,168.400 160.762 C 168.400 160.343,168.220 160.000,168.000 160.000 C 167.447 160.000,167.447 69.342,168.000 69.000 C 168.220 68.864,168.400 68.234,168.400 67.600 C 168.400 66.966,168.580 66.336,168.800 66.200 C 169.020 66.064,169.200 65.603,169.200 65.176 C 169.200 64.749,169.380 64.400,169.600 64.400 C 169.820 64.400,170.000 64.165,170.000 63.878 C 170.000 63.591,170.630 62.669,171.400 61.828 C 172.170 60.987,172.800 60.187,172.801 60.050 C 172.801 59.912,173.656 59.268,174.701 58.617 C 175.745 57.967,176.690 57.329,176.800 57.200 C 176.910 57.072,177.810 56.732,178.800 56.445 C 179.790 56.158,180.870 55.771,181.200 55.585 C 182.078 55.090,215.094 55.105,215.400 55.600 M72.600 136.000 C 72.736 136.220,73.462 136.400,74.213 136.400 C 76.197 136.400,81.600 139.732,81.600 140.956 C 81.600 141.213,81.960 141.683,82.400 142.000 C 82.870 142.339,83.200 143.035,83.200 143.688 C 83.200 144.300,83.380 144.800,83.600 144.800 C 83.853 144.800,84.000 147.659,84.000 152.576 L 84.000 160.353 79.300 160.535 C 74.124 160.736,71.600 161.099,71.600 161.644 C 71.600 161.840,71.321 162.000,70.981 162.000 C 69.887 162.000,65.822 164.156,64.757 165.300 C 64.399 165.685,63.933 166.000,63.721 166.000 C 63.140 166.000,59.200 170.252,59.200 170.878 C 59.200 171.178,58.840 171.683,58.400 172.000 C 57.960 172.317,57.600 172.897,57.600 173.288 C 57.600 173.680,57.420 174.000,57.200 174.000 C 56.980 174.000,56.800 174.360,56.800 174.800 C 56.800 175.240,56.620 175.600,56.400 175.600 C 56.180 175.600,56.000 175.960,56.000 176.400 C 56.000 176.840,55.820 177.200,55.600 177.200 C 55.380 177.200,55.200 177.639,55.200 178.176 C 55.200 178.713,55.020 179.264,54.800 179.400 C 54.580 179.536,54.400 180.447,54.400 181.424 C 54.400 182.401,54.220 183.200,54.000 183.200 C 53.762 183.200,53.600 184.725,53.600 186.976 C 53.600 189.063,53.779 190.863,54.000 191.000 C 54.220 191.136,54.400 192.047,54.400 193.024 C 54.400 194.001,54.580 194.800,54.800 194.800 C 55.020 194.800,55.200 195.340,55.200 196.000 C 55.200 196.660,55.380 197.200,55.600 197.200 C 55.820 197.200,56.000 197.560,56.000 198.000 C 56.000 198.440,56.180 198.800,56.400 198.800 C 56.620 198.800,56.800 199.160,56.800 199.600 C 56.800 200.040,56.980 200.400,57.200 200.400 C 57.420 200.400,57.600 200.720,57.600 201.112 C 57.600 201.503,57.960 202.083,58.400 202.400 C 58.840 202.717,59.200 203.222,59.200 203.522 C 59.200 204.268,63.121 208.321,64.160 208.649 C 64.622 208.795,65.291 209.249,65.647 209.657 C 66.003 210.066,66.588 210.400,66.947 210.400 C 67.306 210.400,67.600 210.580,67.600 210.800 C 67.600 211.020,67.960 211.200,68.400 211.200 C 68.840 211.200,69.200 211.380,69.200 211.600 C 69.200 211.820,69.549 212.000,69.976 212.000 C 70.403 212.000,70.864 212.180,71.000 212.400 C 71.136 212.620,71.867 212.800,72.624 212.800 C 73.381 212.800,74.000 212.980,74.000 213.200 C 74.000 213.426,75.133 213.600,76.600 213.600 C 78.067 213.600,79.200 213.774,79.200 214.000 C 79.200 214.220,79.920 214.400,80.800 214.400 C 81.680 214.400,82.400 214.220,82.400 214.000 C 82.400 213.780,82.760 213.600,83.200 213.600 C 84.097 213.600,84.477 224.458,83.600 225.000 C 83.380 225.136,83.200 225.595,83.200 226.019 C 83.200 227.304,79.675 231.152,77.700 232.022 C 76.985 232.337,76.400 232.731,76.400 232.898 C 76.400 233.064,75.781 233.200,75.024 233.200 C 74.267 233.200,73.536 233.380,73.400 233.600 C 73.246 233.850,69.337 234.000,63.000 234.000 C 56.663 234.000,52.754 233.850,52.600 233.600 C 52.464 233.380,51.733 233.200,50.976 233.200 C 50.219 233.200,49.600 233.020,49.600 232.800 C 49.600 232.580,49.240 232.400,48.800 232.400 C 48.360 232.400,48.000 232.250,48.000 232.068 C 48.000 231.885,47.505 231.481,46.900 231.170 C 45.553 230.478,44.153 228.969,43.497 227.500 C 43.226 226.895,42.869 226.400,42.702 226.400 C 42.536 226.400,42.400 226.040,42.400 225.600 C 42.400 225.160,42.220 224.800,42.000 224.800 C 41.736 224.800,41.600 211.200,41.600 184.800 C 41.600 158.400,41.736 144.800,42.000 144.800 C 42.220 144.800,42.400 144.440,42.400 144.000 C 42.400 143.560,42.580 143.200,42.800 143.200 C 43.020 143.200,43.200 142.916,43.200 142.569 C 43.200 142.003,44.213 140.916,47.364 138.100 C 47.918 137.605,48.727 137.200,49.162 137.200 C 49.597 137.200,50.064 137.020,50.200 136.800 C 50.336 136.580,51.056 136.400,51.800 136.400 C 52.544 136.400,53.264 136.220,53.400 136.000 C 53.553 135.752,57.196 135.600,63.000 135.600 C 68.804 135.600,72.447 135.752,72.600 136.000 M85.600 168.800 C 85.600 169.020,86.140 169.200,86.800 169.200 C 87.460 169.200,88.000 169.380,88.000 169.600 C 88.000 169.820,88.360 170.000,88.800 170.000 C 89.240 170.000,89.600 170.180,89.600 170.400 C 89.600 170.620,89.240 170.800,88.800 170.800 C 88.360 170.800,88.000 170.980,88.000 171.200 C 88.000 171.420,87.460 171.600,86.800 171.600 C 86.140 171.600,85.600 171.780,85.600 172.000 C 85.600 172.220,85.240 172.400,84.800 172.400 C 84.360 172.400,84.000 172.580,84.000 172.800 C 84.000 173.020,83.730 173.200,83.400 173.200 C 83.070 173.200,82.800 173.380,82.800 173.600 C 82.800 173.820,82.614 174.000,82.387 174.000 C 81.128 174.000,77.581 178.776,77.303 180.843 C 77.189 181.699,76.938 182.400,76.747 182.400 C 76.556 182.400,76.400 184.470,76.400 187.000 C 76.400 189.530,76.557 191.600,76.748 191.600 C 76.940 191.600,77.216 192.500,77.362 193.600 C 77.508 194.700,77.789 195.600,77.987 195.600 C 78.184 195.600,78.466 195.979,78.613 196.441 C 78.952 197.509,82.697 201.200,83.441 201.200 C 83.748 201.200,84.000 201.380,84.000 201.600 C 84.000 201.820,84.360 202.000,84.800 202.000 C 85.240 202.000,85.600 202.180,85.600 202.400 C 85.600 202.620,85.949 202.800,86.376 202.800 C 86.803 202.800,87.264 202.980,87.400 203.200 C 87.536 203.420,88.087 203.600,88.624 203.600 C 89.161 203.600,89.600 203.780,89.600 204.000 C 89.600 204.220,89.240 204.400,88.800 204.400 C 88.360 204.400,88.000 204.580,88.000 204.800 C 88.000 205.020,87.561 205.200,87.024 205.200 C 86.487 205.200,85.936 205.380,85.800 205.600 C 85.664 205.820,84.764 206.000,83.800 206.000 C 82.836 206.000,81.936 206.180,81.800 206.400 C 81.664 206.620,81.023 206.800,80.376 206.800 C 79.729 206.800,79.200 206.620,79.200 206.400 C 79.200 206.180,78.300 206.000,77.200 206.000 C 76.100 206.000,75.200 205.820,75.200 205.600 C 75.200 205.380,74.750 205.200,74.200 205.200 C 73.650 205.200,73.200 205.020,73.200 204.800 C 73.200 204.580,72.840 204.400,72.400 204.400 C 71.960 204.400,71.600 204.250,71.600 204.068 C 71.600 203.885,71.105 203.480,70.500 203.168 C 69.071 202.430,64.400 197.672,64.400 196.954 C 64.400 196.649,64.264 196.400,64.098 196.400 C 63.931 196.400,63.560 195.815,63.271 195.100 C 62.983 194.385,62.579 193.487,62.374 193.105 C 62.168 192.723,62.000 191.778,62.000 191.005 C 62.000 190.232,61.820 189.600,61.600 189.600 C 61.378 189.600,61.200 188.533,61.200 187.200 C 61.200 185.867,61.378 184.800,61.600 184.800 C 61.820 184.800,62.000 184.080,62.000 183.200 C 62.000 182.320,62.180 181.600,62.400 181.600 C 62.620 181.600,62.800 181.060,62.800 180.400 C 62.800 179.740,62.980 179.200,63.200 179.200 C 63.420 179.200,63.600 178.880,63.600 178.488 C 63.600 178.097,63.960 177.517,64.400 177.200 C 64.840 176.883,65.200 176.303,65.200 175.912 C 65.200 175.520,65.360 175.200,65.555 175.200 C 65.751 175.200,66.705 174.435,67.676 173.500 C 68.648 172.565,69.883 171.542,70.421 171.226 C 72.075 170.257,73.744 169.428,75.000 168.951 C 76.519 168.374,85.600 168.245,85.600 168.800 M114.187 178.822 C 114.058 179.030,114.233 179.200,114.576 179.200 C 114.919 179.200,115.200 179.380,115.200 179.600 C 115.200 179.820,115.478 180.000,115.818 180.000 C 116.618 180.000,118.400 181.782,118.400 182.582 C 118.400 182.922,118.580 183.200,118.800 183.200 C 119.020 183.200,119.200 183.560,119.200 184.000 C 119.200 184.440,119.380 184.800,119.600 184.800 C 119.822 184.800,120.000 185.867,120.000 187.200 C 120.000 188.533,119.822 189.600,119.600 189.600 C 119.380 189.600,119.200 189.960,119.200 190.400 C 119.200 190.840,119.020 191.200,118.800 191.200 C 118.580 191.200,118.400 191.483,118.400 191.829 C 118.400 192.587,117.921 193.063,115.709 194.501 L 114.017 195.600 102.070 195.600 C 92.438 195.600,89.898 195.488,88.961 195.020 C 87.319 194.201,84.800 191.809,84.800 191.070 C 84.800 190.727,84.620 190.336,84.400 190.200 C 82.001 188.717,86.221 179.200,89.278 179.200 C 89.675 179.200,90.000 179.015,90.000 178.790 C 90.000 178.518,94.114 178.390,102.210 178.412 C 109.772 178.431,114.331 178.588,114.187 178.822 M270.800 219.600 C 270.800 228.400,270.941 233.200,271.200 233.200 C 271.420 233.200,271.600 233.740,271.600 234.400 C 271.600 235.060,271.780 235.600,272.000 235.600 C 272.220 235.600,272.400 235.960,272.400 236.400 C 272.400 236.840,272.580 237.200,272.800 237.200 C 273.020 237.200,273.200 237.484,273.200 237.831 C 273.200 238.179,273.914 239.124,274.787 239.931 C 277.117 242.087,277.522 242.400,277.983 242.400 C 278.212 242.400,278.400 242.580,278.400 242.800 C 278.400 243.020,278.760 243.200,279.200 243.200 C 279.640 243.200,280.000 243.380,280.000 243.600 C 280.000 243.820,280.540 244.000,281.200 244.000 C 281.860 244.000,282.400 244.180,282.400 244.400 C 282.400 244.661,288.933 244.800,301.200 244.800 C 313.467 244.800,320.000 244.661,320.000 244.400 C 320.000 244.180,320.540 244.000,321.200 244.000 C 321.860 244.000,322.400 243.820,322.400 243.600 C 322.400 243.380,322.760 243.200,323.200 243.200 C 323.640 243.200,324.000 243.020,324.000 242.800 C 324.000 242.580,324.188 242.400,324.417 242.400 C 325.253 242.400,329.200 238.564,329.200 237.752 C 329.200 237.448,329.380 237.200,329.600 237.200 C 329.820 237.200,330.000 236.840,330.000 236.400 C 330.000 235.960,330.180 235.600,330.400 235.600 C 330.620 235.600,330.800 234.981,330.800 234.224 C 330.800 233.467,330.980 232.736,331.200 232.600 C 331.454 232.443,331.600 227.529,331.600 219.176 L 331.600 206.000 352.776 206.000 C 366.463 206.000,374.040 206.141,374.200 206.400 C 374.336 206.620,374.799 206.800,375.229 206.800 C 375.659 206.800,376.323 206.969,376.705 207.176 C 377.087 207.383,378.165 207.868,379.100 208.253 C 380.035 208.639,380.800 209.099,380.800 209.277 C 380.800 209.455,381.073 209.600,381.406 209.600 C 382.197 209.600,388.000 215.403,388.000 216.194 C 388.000 216.527,388.146 216.800,388.325 216.800 C 388.504 216.800,388.898 217.430,389.200 218.200 C 389.502 218.970,389.896 219.600,390.075 219.600 C 390.254 219.600,390.400 220.050,390.400 220.600 C 390.400 221.150,390.580 221.600,390.800 221.600 C 391.020 221.600,391.200 222.129,391.200 222.776 C 391.200 223.423,391.380 224.064,391.600 224.200 C 391.864 224.363,392.000 249.671,392.000 298.824 C 392.000 348.141,391.865 373.200,391.600 373.200 C 391.380 373.200,391.200 373.920,391.200 374.800 C 391.200 375.680,391.020 376.400,390.800 376.400 C 390.580 376.400,390.400 376.760,390.400 377.200 C 390.400 377.640,390.254 378.000,390.075 378.000 C 389.896 378.000,389.502 378.630,389.200 379.400 C 388.898 380.170,388.504 380.800,388.325 380.800 C 388.146 380.800,388.000 381.070,388.000 381.400 C 388.000 381.730,387.820 382.000,387.600 382.000 C 387.380 382.000,387.200 382.184,387.200 382.409 C 387.200 382.633,386.214 383.803,385.009 385.009 C 383.803 386.214,382.633 387.200,382.409 387.200 C 382.184 387.200,382.000 387.380,382.000 387.600 C 382.000 387.820,381.730 388.000,381.400 388.000 C 381.070 388.000,380.800 388.146,380.800 388.325 C 380.800 388.504,380.170 388.898,379.400 389.200 C 378.630 389.502,378.000 389.896,378.000 390.075 C 378.000 390.254,377.640 390.400,377.200 390.400 C 376.760 390.400,376.400 390.580,376.400 390.800 C 376.400 391.020,375.680 391.200,374.800 391.200 C 373.920 391.200,373.200 391.380,373.200 391.600 C 373.200 391.865,348.941 392.000,301.224 392.000 C 253.671 392.000,229.163 391.864,229.000 391.600 C 228.864 391.380,228.133 391.200,227.376 391.200 C 226.619 391.200,226.000 391.020,226.000 390.800 C 226.000 390.580,225.640 390.400,225.200 390.400 C 224.760 390.400,224.400 390.220,224.400 390.000 C 224.400 389.780,224.040 389.600,223.600 389.600 C 223.160 389.600,222.800 389.420,222.800 389.200 C 222.800 388.980,222.530 388.800,222.200 388.800 C 221.870 388.800,221.600 388.620,221.600 388.400 C 221.600 388.180,221.327 388.000,220.994 388.000 C 220.203 388.000,214.400 382.197,214.400 381.406 C 214.400 381.073,214.253 380.800,214.074 380.800 C 213.665 380.800,212.000 377.719,212.000 376.962 C 212.000 376.653,211.820 376.400,211.600 376.400 C 211.380 376.400,211.200 375.860,211.200 375.200 C 211.200 374.540,211.020 374.000,210.800 374.000 C 210.535 374.000,210.400 348.741,210.400 299.024 C 210.400 249.471,210.536 223.963,210.800 223.800 C 211.020 223.664,211.200 223.124,211.200 222.600 C 211.200 222.076,211.380 221.536,211.600 221.400 C 211.820 221.264,212.000 220.713,212.000 220.176 C 212.000 219.639,212.180 219.200,212.400 219.200 C 212.620 219.200,212.800 218.880,212.800 218.488 C 212.800 218.097,213.160 217.517,213.600 217.200 C 214.040 216.883,214.400 216.390,214.400 216.105 C 214.400 214.048,224.327 206.800,227.145 206.800 C 227.589 206.800,228.064 206.620,228.200 206.400 C 228.360 206.141,235.937 206.000,249.624 206.000 L 270.800 206.000 270.800 219.600 M324.000 218.400 C 324.000 226.400,323.858 230.800,323.600 230.800 C 323.380 230.800,323.200 231.221,323.200 231.736 C 323.200 232.811,320.017 236.400,319.063 236.400 C 318.724 236.400,318.336 236.580,318.200 236.800 C 318.041 237.057,311.863 237.200,300.976 237.200 C 289.925 237.200,284.000 237.060,284.000 236.800 C 284.000 236.580,283.724 236.400,283.387 236.400 C 282.701 236.400,280.000 233.858,280.000 233.213 C 280.000 232.986,279.820 232.800,279.600 232.800 C 279.380 232.800,279.200 232.350,279.200 231.800 C 279.200 231.250,279.020 230.800,278.800 230.800 C 278.542 230.800,278.400 226.400,278.400 218.400 L 278.400 206.000 301.200 206.000 L 324.000 206.000 324.000 218.400 M202.800 289.400 L 202.800 348.800 193.424 348.800 C 187.604 348.800,183.953 348.648,183.800 348.400 C 183.664 348.180,182.931 348.000,182.170 348.000 C 180.584 348.000,177.600 347.153,177.600 346.703 C 177.600 346.536,177.240 346.400,176.800 346.400 C 176.360 346.400,176.000 346.232,176.000 346.027 C 176.000 345.822,175.685 345.551,175.300 345.425 C 174.198 345.066,170.800 341.757,170.800 341.043 C 170.800 340.690,170.652 340.400,170.471 340.400 C 170.010 340.400,168.400 336.726,168.400 335.672 C 168.400 335.192,168.220 334.800,168.000 334.800 C 167.736 334.800,167.600 319.400,167.600 289.400 C 167.600 259.400,167.736 244.000,168.000 244.000 C 168.220 244.000,168.400 243.471,168.400 242.824 C 168.400 242.177,168.580 241.536,168.800 241.400 C 169.020 241.264,169.200 240.803,169.200 240.376 C 169.200 239.949,169.350 239.600,169.532 239.600 C 169.715 239.600,170.120 239.105,170.432 238.500 C 171.145 237.119,174.921 233.200,175.539 233.200 C 175.793 233.200,176.000 233.020,176.000 232.800 C 176.000 232.580,176.360 232.400,176.800 232.400 C 177.240 232.400,177.600 232.220,177.600 232.000 C 177.600 231.780,177.960 231.600,178.400 231.600 C 178.840 231.600,179.200 231.420,179.200 231.200 C 179.200 230.980,179.999 230.800,180.976 230.800 C 181.953 230.800,182.864 230.620,183.000 230.400 C 183.154 230.151,186.937 230.000,193.024 230.000 L 202.800 230.000 202.800 289.400 M99.600 231.200 C 99.600 231.420,100.140 231.600,100.800 231.600 C 101.460 231.600,102.000 231.780,102.000 232.000 C 102.000 232.220,102.360 232.400,102.800 232.400 C 103.240 232.400,103.600 232.580,103.600 232.800 C 103.600 233.020,103.877 233.200,104.216 233.200 C 106.126 233.200,112.000 241.039,112.000 243.588 C 112.000 244.009,112.180 244.464,112.400 244.600 C 112.916 244.919,112.955 334.114,112.439 335.105 C 112.240 335.487,111.841 336.610,111.551 337.600 C 111.261 338.590,110.794 339.638,110.512 339.929 C 110.230 340.219,109.996 340.759,109.991 341.129 C 109.986 341.498,109.241 342.430,108.335 343.200 C 107.428 343.970,106.271 345.005,105.762 345.500 C 105.253 345.995,104.558 346.400,104.218 346.400 C 103.878 346.400,103.600 346.580,103.600 346.800 C 103.600 347.020,103.240 347.200,102.800 347.200 C 102.360 347.200,102.000 347.380,102.000 347.600 C 102.000 347.820,101.471 348.000,100.824 348.000 C 100.177 348.000,99.536 348.180,99.400 348.400 C 99.240 348.659,91.404 348.800,77.200 348.800 C 62.996 348.800,55.160 348.659,55.000 348.400 C 54.864 348.180,54.434 348.000,54.044 348.000 C 52.948 348.000,48.314 345.484,46.871 344.105 C 46.581 343.827,46.176 343.600,45.971 343.600 C 45.767 343.600,45.600 343.280,45.600 342.888 C 45.600 342.497,45.240 341.917,44.800 341.600 C 44.360 341.283,44.000 340.703,44.000 340.312 C 44.000 339.920,43.820 339.600,43.600 339.600 C 43.380 339.600,43.200 339.240,43.200 338.800 C 43.200 338.360,43.020 338.000,42.800 338.000 C 42.580 338.000,42.400 337.460,42.400 336.800 C 42.400 336.140,42.220 335.600,42.000 335.600 C 41.736 335.600,41.600 320.067,41.600 289.800 C 41.600 259.533,41.736 244.000,42.000 244.000 C 42.220 244.000,42.400 243.460,42.400 242.800 C 42.400 242.140,42.580 241.600,42.800 241.600 C 43.020 241.600,43.200 241.317,43.200 240.971 C 43.200 239.788,44.176 239.200,45.243 239.741 C 48.285 241.283,49.538 241.400,63.000 241.400 C 75.968 241.400,80.000 241.047,80.000 239.913 C 80.000 239.741,80.360 239.600,80.800 239.600 C 81.240 239.600,81.600 239.420,81.600 239.200 C 81.600 238.980,81.920 238.800,82.312 238.800 C 82.703 238.800,83.283 238.440,83.600 238.000 C 83.917 237.560,84.397 237.200,84.666 237.200 C 84.935 237.200,85.750 236.473,86.477 235.585 C 87.205 234.696,88.205 233.481,88.700 232.885 C 89.194 232.288,89.599 231.575,89.600 231.300 C 89.600 230.927,90.867 230.800,94.600 230.800 C 97.667 230.800,99.600 230.955,99.600 231.200 M237.200 312.398 C 236.870 312.591,236.015 312.984,235.300 313.272 C 234.585 313.560,234.000 313.931,234.000 314.098 C 234.000 314.264,233.744 314.400,233.432 314.400 C 233.119 314.400,232.039 315.224,231.032 316.232 C 230.024 317.239,229.200 318.319,229.200 318.632 C 229.200 318.944,229.064 319.200,228.898 319.200 C 227.476 319.200,226.405 360.121,227.801 361.115 C 228.021 361.272,228.461 361.903,228.778 362.519 C 229.592 364.096,231.970 366.800,232.543 366.800 C 232.807 366.800,233.283 367.160,233.600 367.600 C 233.917 368.040,234.497 368.400,234.888 368.400 C 235.280 368.400,235.600 368.580,235.600 368.800 C 235.600 369.020,236.140 369.200,236.800 369.200 C 237.460 369.200,238.000 369.380,238.000 369.600 C 238.000 370.195,298.001 370.145,299.481 369.549 C 304.285 367.615,308.153 364.321,308.635 361.757 C 308.774 361.011,309.049 360.400,309.245 360.400 C 309.440 360.400,309.600 359.950,309.600 359.400 C 309.600 358.850,309.780 358.400,310.000 358.400 C 310.261 358.400,310.400 352.267,310.400 340.800 C 310.400 329.333,310.261 323.200,310.000 323.200 C 309.780 323.200,309.600 322.660,309.600 322.000 C 309.600 321.340,309.420 320.800,309.200 320.800 C 308.980 320.800,308.800 320.468,308.800 320.061 C 308.800 319.655,308.442 318.890,308.006 318.361 C 307.569 317.833,306.804 316.910,306.306 316.312 C 305.807 315.714,305.257 315.219,305.083 315.212 C 304.909 315.205,304.380 314.840,303.908 314.400 C 303.436 313.960,302.813 313.600,302.525 313.600 C 302.236 313.600,302.000 313.464,302.000 313.297 C 302.000 312.069,239.253 311.198,237.200 312.398 M298.000 320.400 C 298.000 320.620,298.278 320.800,298.618 320.800 C 299.314 320.800,301.200 322.540,301.200 323.182 C 301.200 323.412,301.380 323.600,301.600 323.600 C 301.820 323.600,302.000 323.960,302.000 324.400 C 302.000 324.840,302.180 325.200,302.400 325.200 C 302.660 325.200,302.800 330.733,302.800 341.000 C 302.800 351.267,302.660 356.800,302.400 356.800 C 302.180 356.800,302.000 357.072,302.000 357.404 C 302.000 358.228,300.122 360.124,298.288 361.152 C 296.787 361.994,296.563 362.000,268.602 362.000 L 240.428 362.000 238.520 360.935 C 236.241 359.662,235.600 359.068,235.600 358.229 C 235.600 357.883,235.420 357.600,235.200 357.600 C 234.487 357.600,234.672 325.579,235.393 324.133 C 235.972 322.974,237.471 321.485,239.028 320.524 C 240.033 319.903,298.000 319.781,298.000 320.400 M328.700 327.212 C 323.435 332.527,323.200 332.834,323.200 334.400 C 323.200 338.162,327.629 339.417,330.799 336.553 L 332.400 335.107 332.400 346.753 L 332.400 358.400 328.382 358.400 C 324.649 358.400,324.294 358.470,323.382 359.382 C 321.820 360.943,322.345 365.189,324.100 365.197 C 324.485 365.199,324.800 365.380,324.800 365.600 C 324.800 365.863,334.307 366.000,352.522 366.000 L 380.244 366.000 381.722 364.646 C 383.305 363.196,383.599 361.891,382.700 360.310 C 381.667 358.494,381.399 358.400,377.229 358.400 L 373.200 358.400 373.200 347.000 C 373.200 340.730,373.308 335.600,373.440 335.600 C 373.571 335.600,374.183 336.140,374.800 336.800 C 376.567 338.692,381.600 338.413,381.600 336.423 C 381.600 336.184,381.823 335.632,382.096 335.195 C 382.491 334.562,382.491 334.238,382.096 333.605 C 381.823 333.168,381.600 332.618,381.600 332.383 C 381.600 332.148,380.475 330.886,379.100 329.578 C 376.504 327.109,376.266 326.873,373.059 323.588 C 371.252 321.737,370.984 321.600,369.152 321.600 L 367.185 321.600 361.992 326.777 C 359.137 329.625,356.800 332.235,356.800 332.577 C 356.800 332.920,356.620 333.200,356.400 333.200 C 356.180 333.200,356.000 333.740,356.000 334.400 C 356.000 335.060,356.180 335.600,356.400 335.600 C 356.620 335.600,356.800 335.883,356.800 336.229 C 356.800 338.455,361.661 338.875,363.586 336.815 C 364.210 336.147,364.829 335.600,364.960 335.600 C 365.092 335.600,365.200 340.730,365.200 347.000 L 365.200 358.400 352.800 358.400 L 340.400 358.400 340.400 347.000 C 340.400 340.730,340.508 335.600,340.640 335.600 C 340.771 335.600,341.383 336.140,342.000 336.800 C 342.994 337.864,343.382 338.000,345.416 338.000 C 348.266 338.000,348.770 337.449,348.787 334.307 L 348.800 332.015 346.348 329.707 C 342.774 326.343,339.600 323.048,339.600 322.702 C 339.600 322.536,339.330 322.400,339.000 322.400 C 338.670 322.400,338.400 322.220,338.400 322.000 C 338.400 321.780,337.455 321.613,336.300 321.630 L 334.200 321.660 328.700 327.212 M257.661 329.947 C 255.686 331.660,256.645 335.796,259.228 336.700 C 261.034 337.332,288.614 337.425,289.000 336.800 C 289.136 336.580,289.532 336.400,289.880 336.400 C 291.591 336.400,292.374 331.224,290.869 329.862 C 289.677 328.784,258.912 328.862,257.661 329.947 M244.200 346.140 C 242.305 346.859,242.000 347.370,242.000 349.825 C 242.000 353.888,240.101 353.600,266.914 353.600 L 290.106 353.600 290.853 352.739 C 292.625 350.696,291.684 346.979,289.172 346.100 C 287.234 345.422,245.997 345.459,244.200 346.140 M19.200 373.350 C 19.200 375.301,19.765 375.606,23.350 375.595 C 26.394 375.584,26.800 375.321,26.800 373.353 L 26.800 371.600 23.000 371.600 L 19.200 371.600 19.200 373.350 M34.800 373.350 C 34.800 375.301,35.365 375.606,38.950 375.595 C 41.994 375.584,42.400 375.321,42.400 373.353 L 42.400 371.600 38.600 371.600 L 34.800 371.600 34.800 373.350 M50.400 373.350 C 50.400 375.283,50.964 375.600,54.400 375.600 C 57.836 375.600,58.400 375.283,58.400 373.350 L 58.400 371.600 54.400 371.600 L 50.400 371.600 50.400 373.350 M66.000 373.350 C 66.000 375.283,66.564 375.600,70.000 375.600 C 73.436 375.600,74.000 375.283,74.000 373.350 L 74.000 371.600 70.000 371.600 L 66.000 371.600 66.000 373.350 M81.600 373.350 C 81.600 375.283,82.164 375.600,85.600 375.600 C 89.036 375.600,89.600 375.283,89.600 373.350 L 89.600 371.600 85.600 371.600 L 81.600 371.600 81.600 373.350 M97.200 373.350 C 97.200 375.283,97.764 375.600,101.200 375.600 C 104.636 375.600,105.200 375.283,105.200 373.350 L 105.200 371.600 101.200 371.600 L 97.200 371.600 97.200 373.350 M112.800 373.350 C 112.800 375.283,113.364 375.600,116.800 375.600 C 120.236 375.600,120.800 375.283,120.800 373.350 L 120.800 371.600 116.800 371.600 L 112.800 371.600 112.800 373.350 M128.400 373.350 C 128.400 375.283,128.964 375.600,132.400 375.600 C 135.836 375.600,136.400 375.283,136.400 373.350 L 136.400 371.600 132.400 371.600 L 128.400 371.600 128.400 373.350 M144.000 373.350 C 144.000 375.283,144.564 375.600,148.000 375.600 C 151.436 375.600,152.000 375.283,152.000 373.350 L 152.000 371.600 148.000 371.600 L 144.000 371.600 144.000 373.350 M160.000 373.353 C 160.000 375.321,160.406 375.584,163.450 375.595 C 167.035 375.606,167.600 375.301,167.600 373.350 L 167.600 371.600 163.800 371.600 L 160.000 371.600 160.000 373.353 M175.600 373.353 C 175.600 375.321,176.006 375.584,179.050 375.595 C 182.635 375.606,183.200 375.301,183.200 373.350 L 183.200 371.600 179.400 371.600 L 175.600 371.600 175.600 373.353 " stroke="none" fill="#0c0c34" fill-rule="evenodd"></path><path id="path1" d="M266.996 115.000 C 266.996 160.760,267.043 179.421,267.100 156.468 C 267.157 133.516,267.157 96.076,267.100 73.268 C 267.043 50.461,266.996 69.240,266.996 115.000 " stroke="none" fill="#100c34" fill-rule="evenodd"></path><path id="path2" d="M266.996 115.000 C 266.996 160.760,267.043 179.421,267.100 156.468 C 267.157 133.516,267.157 96.076,267.100 73.268 C 267.043 50.461,266.996 69.240,266.996 115.000 " stroke="none" fill="#100c34" fill-rule="evenodd"></path><path id="path3" d="M266.996 115.000 C 266.996 160.760,267.043 179.421,267.100 156.468 C 267.157 133.516,267.157 96.076,267.100 73.268 C 267.043 50.461,266.996 69.240,266.996 115.000 " stroke="none" fill="#100c34" fill-rule="evenodd"></path><path id="path4" d="M266.996 115.000 C 266.996 160.760,267.043 179.421,267.100 156.468 C 267.157 133.516,267.157 96.076,267.100 73.268 C 267.043 50.461,266.996 69.240,266.996 115.000 " stroke="none" fill="#100c34" fill-rule="evenodd"></path></g></svg>