<svg width="24" height="24" viewBox="0 0 24 24" fill="none" xmlns="http://www.w3.org/2000/svg">
<g clip-path="url(#clip0)">
<path d="M15.0624 11.247C15.0624 12.9384 13.6913 14.3094 12 14.3094C10.3087 14.3094 8.93756 12.9384 8.93756 11.247C8.93756 9.55566 10.3087 8.18457 12 8.18457C13.6913 8.18457 15.0624 9.55566 15.0624 11.247Z" fill="#1A1A1A"/>
<path d="M23.1323 0.867371C22.5725 0.307983 21.8286 0 21.0375 0H2.96246C2.17145 0 1.42749 0.307983 0.867371 0.867737C0.307983 1.42767 0 2.17145 0 2.96246V5.9751C0 6.76611 0.307983 7.50989 0.867737 8.07019C1.42767 8.62958 2.17145 8.93738 2.96246 8.93738H3.11261V3.76556C3.11261 3.37738 3.42737 3.06244 3.81573 3.06244H20.1844C20.5726 3.06244 20.8876 3.37738 20.8876 3.76556V8.93738H21.0375C21.8286 8.93738 22.5723 8.62939 23.1326 8.06964C23.692 7.50989 24 6.76593 24 5.9751V2.96246C24 2.17145 23.692 1.42767 23.1323 0.867371V0.867371Z" fill="#1A1A1A"/>
<path d="M4.51868 21.7907C4.51868 22.3812 4.74866 22.936 5.16559 23.3524C5.5827 23.7701 6.13751 24.0001 6.72803 24.0001H17.272C17.8625 24.0001 18.4173 23.7701 18.8337 23.3531C19.2512 22.936 19.4811 22.3812 19.4811 21.7907V4.46875H4.51868V21.7907ZM12 6.77826C14.4641 6.77826 16.4687 8.7829 16.4687 11.2469C16.4687 13.711 14.4641 15.7156 12 15.7156C9.53595 15.7156 7.53131 13.711 7.53131 11.2469C7.53131 8.7829 9.53595 6.77826 12 6.77826ZM8.23444 18.8282H15.7656C16.1539 18.8282 16.4687 19.143 16.4687 19.5314C16.4687 19.9196 16.1539 20.2345 15.7656 20.2345H8.23444C7.84607 20.2345 7.53131 19.9196 7.53131 19.5314C7.53131 19.143 7.84607 18.8282 8.23444 18.8282V18.8282Z" fill="#1A1A1A"/>
</g>
<defs>
<clipPath id="clip0">
<rect width="24" height="24" fill="white"/>
</clipPath>
</defs>
</svg>
