<svg width="60" height="60" viewBox="0 0 60 60" fill="none" xmlns="http://www.w3.org/2000/svg">
<path d="M0 30C0 13.4315 13.4315 0 30 0C46.5685 0 60 13.4315 60 30C60 46.5685 46.5685 60 30 60C13.4315 60 0 46.5685 0 30Z" fill="#F2E6D6"/>
<g clip-path="url(#clip0)">
<rect width="36" height="15" transform="translate(13.2275 45)" fill="#E9A879"/>
<path d="M12.624 51.202C14.8424 51.202 19.4456 51.0356 20.1111 50.3701C20.943 49.5382 24.2706 48.7063 30.0939 50.3701C34.7525 51.7011 38.6902 50.9247 40.0767 50.3701C41.4632 49.5377 45.2344 48.3725 49.2275 50.3701" stroke="#E58647" stroke-width="1.24785"/>
<path d="M12.624 54.5296C14.8424 54.5296 19.4456 54.3632 20.1111 53.6977C20.943 52.8658 24.2706 52.0339 30.0939 53.6977C34.7525 55.0287 38.6902 54.2523 40.0767 53.6977C41.4632 52.8654 45.2344 51.7001 49.2275 53.6977" stroke="#E58647" stroke-width="1.24785"/>
</g>
<path d="M21.3402 12.6105C20.9941 11.5722 21.7669 10.5 22.8614 10.5H36.8517C37.9461 10.5 38.7189 11.5722 38.3728 12.6105L35.4332 21.4294C35.2149 22.0842 34.6022 22.5258 33.912 22.5258H25.801C25.1109 22.5258 24.4981 22.0842 24.2799 21.4294L21.3402 12.6105Z" fill="#E1747A"/>
<path fill-rule="evenodd" clip-rule="evenodd" d="M11.314 20.4837C11.5906 20.257 11.9444 20.1208 12.33 20.1208H49.2092C49.5929 20.1208 49.9451 20.2556 50.221 20.4804C50.51 20.5979 50.7733 20.8084 50.9699 21.1236L58.3001 32.8794C58.6238 33.3986 58.6238 34.0569 58.3001 34.5761L50.9699 46.3319C50.7968 46.6095 50.572 46.8058 50.3234 46.929C50.035 47.2078 49.6421 47.3794 49.2092 47.3794H12.33C11.8949 47.3794 11.5003 47.2061 11.2114 46.9248C10.9662 46.8013 10.7445 46.6063 10.5734 46.3319L3.2432 34.5761C2.91942 34.0569 2.91942 33.3986 3.2432 32.8794L10.5734 21.1236C10.768 20.8114 11.0283 20.6019 11.314 20.4837Z" fill="#9CCFCC"/>
<mask id="mask0" style="mask-type:alpha" maskUnits="userSpaceOnUse" x="3" y="20" width="56" height="28">
<path fill-rule="evenodd" clip-rule="evenodd" d="M11.314 20.4837C11.5906 20.257 11.9444 20.1208 12.33 20.1208H49.2092C49.5929 20.1208 49.9451 20.2556 50.221 20.4804C50.51 20.5979 50.7733 20.8084 50.9699 21.1236L58.3001 32.8794C58.6238 33.3986 58.6238 34.0569 58.3001 34.5761L50.9699 46.3319C50.7968 46.6095 50.572 46.8058 50.3234 46.929C50.035 47.2078 49.6421 47.3794 49.2092 47.3794H12.33C11.8949 47.3794 11.5003 47.2061 11.2114 46.9248C10.9662 46.8013 10.7445 46.6063 10.5734 46.3319L3.2432 34.5761C2.91942 34.0569 2.91942 33.3986 3.2432 32.8794L10.5734 21.1236C10.768 20.8114 11.0283 20.6019 11.314 20.4837Z" fill="#9CCFCC"/>
</mask>
<g mask="url(#mask0)">
<circle cx="52.705" cy="39.362" r="6.41378" fill="#72BFBA"/>
<circle cx="9.41524" cy="39.362" r="6.41378" fill="#72BFBA"/>
</g>
<path d="M31.2206 29.5816C31.2206 27.923 30.6631 26.3325 29.6707 25.1597C28.6784 23.987 27.3325 23.3281 25.9292 23.3281C24.5258 23.3281 23.1799 23.987 22.1876 25.1597C21.1953 26.3325 20.6378 27.923 20.6378 29.5816L25.9292 29.5816H31.2206Z" fill="#F3F1EC"/>
<path d="M39.8807 29.5801C39.8807 27.9216 39.3232 26.331 38.3309 25.1582C37.3386 23.9855 35.9927 23.3267 34.5893 23.3267C33.186 23.3267 31.8401 23.9855 30.8478 25.1582C29.8555 26.331 29.298 27.9216 29.298 29.5801L34.5893 29.5801H39.8807Z" fill="#F3F1EC"/>
<mask id="mask1" style="mask-type:alpha" maskUnits="userSpaceOnUse" x="29" y="23" width="11" height="7">
<path d="M39.8807 29.5801C39.8807 27.9216 39.3232 26.331 38.3309 25.1582C37.3386 23.9855 35.9927 23.3267 34.5893 23.3267C33.186 23.3267 31.8401 23.9855 30.8478 25.1582C29.8555 26.331 29.298 27.9216 29.298 29.5801L34.5893 29.5801H39.8807Z" fill="#F3F1EC"/>
</mask>
<g mask="url(#mask1)">
<circle cx="34.5867" cy="28.6166" r="2.40517" fill="#4E4241"/>
</g>
<mask id="mask2" style="mask-type:alpha" maskUnits="userSpaceOnUse" x="20" y="23" width="12" height="7">
<path d="M31.2206 29.5816C31.2206 27.923 30.6631 26.3325 29.6707 25.1597C28.6784 23.987 27.3325 23.3281 25.9292 23.3281C24.5258 23.3281 23.1799 23.987 22.1876 25.1597C21.1953 26.3325 20.6378 27.923 20.6378 29.5816L25.9292 29.5816H31.2206Z" fill="#F3F1EC"/>
</mask>
<g mask="url(#mask2)">
<circle cx="25.9332" cy="28.6178" r="2.40517" fill="#4E4241"/>
</g>
<g clip-path="url(#clip1)">
<path d="M36.8314 33.0712C30.4186 34.6756 28.8152 33.8721 23.2021 33.0712C18.3946 33.8721 17.5916 39.485 21.5987 41.0885C31.2194 44.9367 38.4349 42.1574 40.84 40.2867C45.6513 35.4764 40.0393 32.2687 36.8314 33.0712Z" fill="#4E4241"/>
<mask id="mask3" style="mask-type:alpha" maskUnits="userSpaceOnUse" x="19" y="32" width="24" height="12">
<path d="M36.8314 33.0712C30.4186 34.6756 28.8152 33.8721 23.2021 33.0712C18.3946 33.8721 17.5916 39.485 21.5987 41.0885C31.2194 44.9367 38.4349 42.1574 40.84 40.2867C45.6513 35.4764 40.0393 32.2687 36.8314 33.0712Z" fill="#4E4241"/>
</mask>
<g mask="url(#mask3)">
<path d="M36.8314 33.0712C30.4186 34.6756 28.8152 33.8721 23.2021 33.0712C18.3946 33.8721 17.5916 39.485 21.5987 41.0885C31.2194 44.9367 38.4349 42.1574 40.84 40.2867C45.6513 35.4764 40.0393 32.2687 36.8314 33.0712Z" fill="#4E4241"/>
<path d="M28.0031 33.6236C27.9382 33.8586 27.8265 34.0849 27.6744 34.2897C27.5223 34.4945 27.3329 34.6738 27.1169 34.8172C26.9009 34.9607 26.6625 35.0655 26.4154 35.1258C26.1684 35.186 25.9174 35.2005 25.6769 35.1684C25.4363 35.1363 25.2109 35.0582 25.0136 34.9386C24.8162 34.819 24.6507 34.6603 24.5266 34.4714C24.4025 34.2826 24.3221 34.0673 24.29 33.8379C24.258 33.6085 24.275 33.3695 24.3399 33.1346L26.1715 33.3791L28.0031 33.6236Z" fill="#F3F1EC"/>
<path d="M30.7503 33.9898C30.6854 34.2248 30.5737 34.4511 30.4216 34.6559C30.2695 34.8607 30.0801 35.04 29.8641 35.1834C29.6481 35.3269 29.4097 35.4317 29.1626 35.492C28.9156 35.5522 28.6646 35.5667 28.424 35.5346C28.1835 35.5025 27.9581 35.4244 27.7608 35.3048C27.5634 35.1852 27.3979 35.0265 27.2738 34.8376C27.1496 34.6488 27.0693 34.4335 27.0372 34.2041C27.0052 33.9747 27.0222 33.7357 27.0871 33.5008L28.9187 33.7453L30.7503 33.9898Z" fill="#F3F1EC"/>
<circle cx="30.2578" cy="48.9825" r="9.62067" fill="#F0949A"/>
</g>
</g>
<defs>
<clipPath id="clip0">
<rect width="36" height="15" fill="white" transform="translate(13.2275 45)"/>
</clipPath>
<clipPath id="clip1">
<rect width="23.6781" height="10.0717" fill="white" transform="translate(19.0334 32.9482)"/>
</clipPath>
</defs>
</svg>
