<svg width="24" height="24" viewBox="0 0 24 24" fill="none" xmlns="http://www.w3.org/2000/svg">
<g clip-path="url(#clip0)">
<path d="M22.8991 21.813H1.0907C0.48816 21.813 0 22.3011 0 22.9042C0 23.5062 0.48816 23.9944 1.0907 23.9944H22.8986C23.5011 23.9944 23.9893 23.5062 23.9893 22.9042C23.9888 22.3011 23.5006 21.813 22.8991 21.813Z" fill="#1A1A1A"/>
<path d="M2.45358 18.9777C1.85104 18.9777 1.36288 19.4658 1.36288 20.0684C1.36288 20.6709 1.85104 21.1596 2.45358 21.1596H21.5357C22.1383 21.1596 22.6264 20.6709 22.6264 20.0684C22.6264 19.4658 22.1383 18.9777 21.5357 18.9777H21.2636V9.16341H21.5357C21.8375 9.16341 22.0806 8.91933 22.0806 8.61857C22.0806 8.31781 21.8365 8.07373 21.5357 8.07373H2.45358C2.15231 8.07373 1.90875 8.31781 1.90875 8.61857C1.90875 8.91933 2.15283 9.16341 2.45358 9.16341H2.72626V18.9772H2.45358V18.9777ZM19.0822 9.16341V18.9772H15.8111V9.16341H19.0822ZM13.6297 9.16341V18.9772H10.3586V9.16341H13.6297ZM4.90664 9.16341H8.17772V18.9772H4.90664V9.16341Z" fill="#1A1A1A"/>
<path d="M1.09072 7.09311H22.8986C22.9022 7.09311 22.9063 7.09311 22.9093 7.09311C23.5124 7.09311 24 6.60495 24 6.00241C24 5.52344 23.6916 5.1175 23.2632 4.97043L12.443 0.101602C12.1586 -0.0260548 11.8333 -0.0260548 11.5484 0.101602L0.643411 5.00822C0.174145 5.21962 -0.0837222 5.72923 0.0245308 6.23168C0.132273 6.73414 0.576519 7.09311 1.09072 7.09311Z" fill="#1A1A1A"/>
</g>
<defs>
<clipPath id="clip0">
<rect width="24" height="24" fill="white"/>
</clipPath>
</defs>
</svg>
