<svg width="265" height="230" viewBox="0 0 265 230" fill="none" xmlns="http://www.w3.org/2000/svg">
<g clip-path="url(#clip0_1845:30437)">
<g opacity="0.5">
<path opacity="0.5" d="M40.2649 40.9685H39.2134V46.9377H40.2649V40.9685Z" fill="#47E6B1"/>
<path opacity="0.5" d="M42.7183 44.4799V43.4265H36.7596V44.4799H42.7183Z" fill="#47E6B1"/>
</g>
<g opacity="0.5">
<path opacity="0.5" d="M77.6428 170.88H76.5913V176.85H77.6428V170.88Z" fill="#47E6B1"/>
<path opacity="0.5" d="M80.0933 174.392V173.338H74.1346V174.392H80.0933Z" fill="#47E6B1"/>
</g>
<g opacity="0.5">
<path opacity="0.5" d="M25.322 101.543H24.2705V107.512H25.322V101.543Z" fill="#47E6B1"/>
<path opacity="0.5" d="M27.7754 105.055V104.001H21.8167V105.055H27.7754Z" fill="#47E6B1"/>
</g>
<g opacity="0.5">
<path opacity="0.5" d="M209.42 0H208.369V5.96922H209.42V0Z" fill="#47E6B1"/>
<path opacity="0.5" d="M211.874 3.5114V2.45801L205.915 2.45801V3.5114L211.874 3.5114Z" fill="#47E6B1"/>
</g>
<g opacity="0.5">
<path opacity="0.5" d="M31.9881 14.8455H30.9365V20.8147H31.9881V14.8455Z" fill="#47E6B1"/>
<path opacity="0.5" d="M34.4385 18.3569V17.3035H28.4798V18.3569H34.4385Z" fill="#47E6B1"/>
</g>
<path opacity="0.5" d="M52.1349 149.579C51.8453 149.452 51.6122 149.223 51.4801 148.936C51.3479 148.648 51.3258 148.322 51.418 148.019C51.4329 147.973 51.4425 147.925 51.4465 147.877C51.4677 147.733 51.439 147.587 51.3652 147.462C51.2914 147.337 51.177 147.241 51.0412 147.191C50.9053 147.14 50.7563 147.138 50.6191 147.185C50.4819 147.231 50.3648 147.324 50.2876 147.447C50.2586 147.486 50.2342 147.528 50.2149 147.573C50.0885 147.863 49.8601 148.097 49.573 148.229C49.286 148.361 48.9604 148.383 48.6582 148.291C48.612 148.276 48.5644 148.267 48.5161 148.263C48.3728 148.241 48.2265 148.27 48.1019 148.344C47.9772 148.418 47.8817 148.533 47.8313 148.669C47.781 148.805 47.7789 148.954 47.8254 149.091C47.8718 149.229 47.9641 149.346 48.0866 149.424C48.1258 149.453 48.1681 149.477 48.2129 149.496C48.5025 149.623 48.7356 149.852 48.8677 150.139C48.9999 150.427 49.022 150.753 48.9297 151.056C48.9148 151.102 48.9053 151.15 48.9013 151.198C48.8801 151.342 48.9088 151.488 48.9826 151.613C49.0564 151.738 49.1708 151.834 49.3066 151.884C49.4424 151.935 49.5914 151.937 49.7286 151.89C49.8659 151.844 49.9829 151.751 50.0602 151.628C50.0892 151.589 50.1136 151.547 50.1328 151.502C50.2593 151.212 50.4877 150.978 50.7747 150.846C51.0618 150.714 51.3874 150.691 51.6896 150.784C51.7357 150.799 51.7834 150.808 51.8317 150.812C51.975 150.834 52.1213 150.805 52.2459 150.731C52.3706 150.657 52.4661 150.542 52.5164 150.406C52.5668 150.27 52.5689 150.121 52.5224 149.983C52.4759 149.846 52.3837 149.729 52.2612 149.651C52.222 149.622 52.1796 149.598 52.1349 149.579Z" fill="#F7CF44"/>
<path opacity="0.5" d="M46.9247 206.313C46.6351 206.186 46.402 205.957 46.2699 205.67C46.1377 205.382 46.1156 205.056 46.2078 204.753C46.2227 204.707 46.2323 204.659 46.2363 204.611C46.2575 204.467 46.2288 204.321 46.155 204.196C46.0812 204.071 45.9668 203.975 45.831 203.925C45.6951 203.874 45.5461 203.872 45.4089 203.919C45.2717 203.965 45.1547 204.058 45.0774 204.181C45.0484 204.22 45.024 204.262 45.0047 204.307C44.8789 204.597 44.6512 204.831 44.3648 204.964C44.0785 205.097 43.7533 205.12 43.4511 205.028C43.405 205.013 43.3573 205.004 43.309 205C43.1657 204.979 43.0195 205.007 42.8948 205.081C42.7702 205.155 42.6747 205.27 42.6243 205.406C42.574 205.542 42.5719 205.691 42.6183 205.829C42.6648 205.966 42.757 206.083 42.8796 206.161C42.9187 206.19 42.9611 206.214 43.0059 206.234C43.2955 206.36 43.5285 206.589 43.6607 206.877C43.7928 207.164 43.8149 207.49 43.7227 207.793C43.7078 207.839 43.6983 207.887 43.6943 207.935C43.673 208.079 43.7017 208.226 43.7755 208.35C43.8493 208.475 43.9637 208.571 44.0996 208.621C44.2354 208.672 44.3844 208.674 44.5216 208.627C44.6588 208.581 44.7759 208.488 44.8532 208.366C44.8822 208.326 44.9065 208.284 44.9258 208.239C45.0522 207.949 45.2807 207.716 45.5677 207.583C45.8547 207.451 46.1803 207.429 46.4826 207.521C46.5287 207.536 46.5764 207.546 46.6247 207.55C46.768 207.571 46.9142 207.542 47.0389 207.468C47.1635 207.394 47.259 207.28 47.3094 207.144C47.3597 207.007 47.3618 206.858 47.3153 206.721C47.2689 206.583 47.1766 206.466 47.0541 206.389C47.0141 206.358 46.9707 206.333 46.9247 206.313Z" fill="#F7CF44"/>
<path opacity="0.5" d="M238.601 80.7282C238.311 80.6016 238.078 80.3727 237.946 80.0852C237.814 79.7977 237.792 79.4715 237.884 79.1687C237.899 79.1225 237.909 79.0748 237.913 79.0264C237.934 78.8828 237.905 78.7363 237.831 78.6114C237.758 78.4865 237.643 78.3909 237.507 78.3404C237.371 78.29 237.222 78.2879 237.085 78.3345C236.948 78.381 236.831 78.4734 236.754 78.5962C236.725 78.6354 236.7 78.6778 236.681 78.7227C236.555 79.0127 236.328 79.2463 236.041 79.3793C235.755 79.5122 235.43 79.5352 235.127 79.4439C235.081 79.429 235.034 79.4195 234.985 79.4155C234.842 79.3942 234.696 79.4229 234.571 79.4969C234.446 79.5708 234.351 79.6854 234.301 79.8215C234.25 79.9575 234.248 80.1068 234.295 80.2443C234.341 80.3817 234.433 80.499 234.556 80.5764C234.595 80.6055 234.637 80.6299 234.682 80.6492C234.972 80.7758 235.205 81.0047 235.337 81.2922C235.469 81.5797 235.491 81.9059 235.399 82.2087C235.384 82.2549 235.375 82.3027 235.371 82.351C235.349 82.4946 235.378 82.6411 235.452 82.766C235.526 82.8909 235.64 82.9865 235.776 83.037C235.912 83.0874 236.061 83.0895 236.198 83.0429C236.335 82.9964 236.452 82.904 236.529 82.7813C236.558 82.742 236.583 82.6996 236.602 82.6547C236.729 82.3646 236.957 82.1312 237.244 81.9988C237.531 81.8664 237.857 81.8443 238.159 81.9366C238.205 81.9516 238.253 81.9611 238.301 81.9651C238.444 81.9864 238.591 81.9576 238.715 81.8837C238.84 81.8098 238.935 81.6952 238.986 81.5591C239.036 81.423 239.038 81.2738 238.992 81.1363C238.945 80.9989 238.853 80.8816 238.73 80.8042C238.69 80.7738 238.647 80.7483 238.601 80.7282Z" fill="#F7CF44"/>
<path opacity="0.5" d="M229.927 140.623C229.637 140.496 229.404 140.268 229.272 139.98C229.14 139.692 229.118 139.366 229.21 139.063C229.225 139.017 229.234 138.97 229.238 138.921C229.26 138.778 229.231 138.631 229.157 138.506C229.083 138.381 228.969 138.286 228.833 138.235C228.697 138.185 228.548 138.183 228.411 138.229C228.274 138.276 228.157 138.368 228.08 138.491C228.051 138.53 228.026 138.573 228.007 138.617C227.881 138.908 227.652 139.141 227.365 139.273C227.078 139.406 226.752 139.428 226.45 139.336C226.404 139.321 226.356 139.311 226.308 139.307C226.165 139.286 226.019 139.315 225.894 139.388C225.769 139.462 225.674 139.577 225.623 139.713C225.573 139.849 225.571 139.998 225.617 140.136C225.664 140.273 225.756 140.391 225.879 140.468C225.918 140.497 225.96 140.521 226.005 140.541C226.295 140.667 226.528 140.896 226.66 141.184C226.792 141.471 226.814 141.798 226.722 142.1C226.707 142.146 226.697 142.194 226.693 142.243C226.672 142.386 226.701 142.533 226.775 142.658C226.848 142.782 226.963 142.878 227.099 142.929C227.234 142.979 227.383 142.981 227.521 142.935C227.658 142.888 227.775 142.796 227.852 142.673C227.881 142.634 227.906 142.591 227.925 142.546C228.051 142.256 228.28 142.023 228.567 141.89C228.854 141.758 229.179 141.736 229.482 141.828C229.528 141.843 229.575 141.853 229.624 141.857C229.767 141.878 229.913 141.849 230.038 141.775C230.163 141.701 230.258 141.587 230.308 141.451C230.359 141.315 230.361 141.165 230.314 141.028C230.268 140.89 230.176 140.773 230.053 140.696C230.014 140.667 229.972 140.642 229.927 140.623Z" fill="#F7CF44"/>
<path opacity="0.5" d="M236.391 21.2607C236.101 21.1341 235.868 20.9052 235.736 20.6177C235.604 20.3301 235.582 20.004 235.674 19.7012C235.689 19.655 235.698 19.6072 235.702 19.5588C235.724 19.4153 235.695 19.2688 235.621 19.1439C235.547 19.019 235.433 18.9233 235.297 18.8729C235.161 18.8225 235.012 18.8204 234.875 18.8669C234.738 18.9135 234.621 19.0059 234.543 19.1286C234.514 19.1678 234.49 19.2103 234.471 19.2552C234.344 19.5453 234.116 19.7787 233.829 19.9111C233.542 20.0435 233.216 20.0656 232.914 19.9732C232.868 19.9583 232.82 19.9488 232.772 19.9448C232.629 19.9235 232.482 19.9522 232.358 20.0262C232.233 20.1001 232.138 20.2147 232.087 20.3508C232.037 20.4868 232.035 20.6361 232.081 20.7736C232.128 20.911 232.22 21.0283 232.342 21.1057C232.382 21.1348 232.424 21.1592 232.469 21.1785C232.758 21.3051 232.991 21.534 233.124 21.8215C233.256 22.109 233.278 22.4352 233.186 22.738C233.171 22.7842 233.161 22.832 233.157 22.8803C233.136 23.0239 233.165 23.1704 233.238 23.2953C233.312 23.4202 233.427 23.5158 233.562 23.5663C233.698 23.6167 233.847 23.6188 233.985 23.5722C234.122 23.5257 234.239 23.4333 234.316 23.3106C234.345 23.2713 234.369 23.2289 234.389 23.184C234.515 22.8939 234.744 22.6604 235.031 22.5281C235.318 22.3957 235.643 22.3736 235.946 22.4659C235.992 22.4809 236.039 22.4904 236.088 22.4944C236.231 22.5157 236.377 22.4869 236.502 22.413C236.626 22.3391 236.722 22.2245 236.772 22.0884C236.823 21.9523 236.825 21.8031 236.778 21.6656C236.732 21.5282 236.64 21.4109 236.517 21.3335C236.478 21.3044 236.436 21.28 236.391 21.2607Z" fill="#F7CF44"/>
<path opacity="0.5" d="M256.67 176.913C256.38 176.786 256.147 176.558 256.015 176.27C255.883 175.982 255.861 175.656 255.953 175.354C255.968 175.307 255.978 175.26 255.982 175.211C256.003 175.068 255.974 174.921 255.9 174.796C255.827 174.671 255.712 174.576 255.576 174.525C255.441 174.475 255.291 174.473 255.154 174.519C255.017 174.566 254.9 174.658 254.823 174.781C254.794 174.82 254.769 174.863 254.75 174.907C254.624 175.198 254.395 175.431 254.108 175.563C253.821 175.696 253.496 175.718 253.193 175.626C253.147 175.611 253.1 175.601 253.051 175.597C252.908 175.576 252.762 175.605 252.637 175.678C252.512 175.752 252.417 175.867 252.367 176.003C252.316 176.139 252.314 176.288 252.361 176.426C252.407 176.563 252.499 176.681 252.622 176.758C252.661 176.787 252.703 176.812 252.748 176.831C253.038 176.957 253.271 177.186 253.403 177.474C253.535 177.761 253.557 178.088 253.465 178.39C253.45 178.437 253.44 178.484 253.436 178.533C253.415 178.676 253.444 178.823 253.518 178.948C253.592 179.072 253.706 179.168 253.842 179.219C253.978 179.269 254.127 179.271 254.264 179.225C254.401 179.178 254.518 179.086 254.595 178.963C254.624 178.924 254.649 178.881 254.668 178.836C254.794 178.546 255.023 178.313 255.31 178.18C255.597 178.048 255.923 178.026 256.225 178.118C256.271 178.133 256.319 178.143 256.367 178.147C256.51 178.168 256.656 178.139 256.781 178.065C256.906 177.991 257.001 177.877 257.052 177.741C257.102 177.605 257.104 177.455 257.058 177.318C257.011 177.18 256.919 177.063 256.796 176.986C256.757 176.957 256.715 176.932 256.67 176.913Z" fill="#F7CF44"/>
<path opacity="0.5" d="M2.10307 83.6511C3.26457 83.6511 4.20615 82.7078 4.20615 81.5443C4.20615 80.3807 3.26457 79.4375 2.10307 79.4375C0.941578 79.4375 0 80.3807 0 81.5443C0 82.7078 0.941578 83.6511 2.10307 83.6511Z" fill="#F55F44"/>
<path opacity="0.5" d="M236.779 48.32C237.94 48.32 238.882 47.3768 238.882 46.2132C238.882 45.0497 237.94 44.1064 236.779 44.1064C235.617 44.1064 234.676 45.0497 234.676 46.2132C234.676 47.3768 235.617 48.32 236.779 48.32Z" fill="#F55F44"/>
<path opacity="0.5" d="M141.127 127.628C142.435 127.628 143.495 126.566 143.495 125.256C143.495 123.945 142.435 122.883 141.127 122.883C139.819 122.883 138.759 123.945 138.759 125.256C138.759 126.566 139.819 127.628 141.127 127.628Z" fill="#F55F44"/>
<path opacity="0.5" d="M141.127 127.628C142.435 127.628 143.495 126.566 143.495 125.256C143.495 123.945 142.435 122.883 141.127 122.883C139.819 122.883 138.759 123.945 138.759 125.256C138.759 126.566 139.819 127.628 141.127 127.628Z" fill="#F55F44"/>
<path opacity="0.5" d="M262.9 111.666C264.061 111.666 265.003 110.723 265.003 109.559C265.003 108.396 264.061 107.452 262.9 107.452C261.738 107.452 260.797 108.396 260.797 109.559C260.797 110.723 261.738 111.666 262.9 111.666Z" fill="#F55F44"/>
<path opacity="0.5" d="M92.8923 17.3256C94.2002 17.3256 95.2606 16.2634 95.2606 14.9531C95.2606 13.6428 94.2002 12.5806 92.8923 12.5806C91.5843 12.5806 90.5239 13.6428 90.5239 14.9531C90.5239 16.2634 91.5843 17.3256 92.8923 17.3256Z" fill="#47E6B1"/>
<path opacity="0.5" d="M227.83 198.68C228.992 198.68 229.933 197.737 229.933 196.573C229.933 195.41 228.992 194.466 227.83 194.466C226.669 194.466 225.727 195.41 225.727 196.573C225.727 197.737 226.669 198.68 227.83 198.68Z" fill="#F55F44"/>
<path d="M96.849 120.694C95.6048 124.74 97.4805 129.523 101.121 131.652C102.65 132.544 104.409 132.993 105.89 133.961C109.107 136.062 110.377 140.082 111.422 143.783C112.622 148.038 113.825 152.536 112.726 156.816C112.025 159.546 110.431 161.96 109.524 164.63C108.766 166.866 108.502 169.241 108.751 171.589C108.883 172.835 109.193 174.12 110.045 175.05C111.277 176.378 113.26 176.578 115.041 176.897C118.806 177.61 122.349 179.208 125.379 181.558C128.409 183.908 130.84 186.944 132.472 190.417" stroke-width="1.53333" stroke-miterlimit="10"/>
<path d="M97.2308 120.694C95.9866 124.74 97.8623 129.523 101.503 131.652C103.032 132.544 104.79 132.993 106.271 133.961C109.489 136.062 110.759 140.082 111.804 143.783C113.004 148.038 114.207 152.536 113.108 156.816C112.407 159.546 110.812 161.96 109.906 164.63C109.148 166.866 108.884 169.241 109.132 171.589C109.265 172.835 109.575 174.12 110.427 175.05C111.659 176.378 113.642 176.578 115.423 176.897C119.188 177.61 122.731 179.208 125.761 181.558C128.791 183.908 131.221 186.944 132.854 190.417" stroke="#535461" stroke-width="1.53333" stroke-miterlimit="10"/>
<path d="M144.326 90.4524C141.257 94.7387 138.07 99.3477 137.808 104.618C137.407 112.713 143.871 119.334 146.757 126.907C148.008 130.243 148.575 133.797 148.422 137.357C148.27 140.917 147.402 144.41 145.87 147.627C144.462 150.543 142.453 153.441 142.712 156.671C142.861 158.641 143.846 160.435 144.639 162.248C146.584 166.79 147.433 171.728 147.116 176.661C146.8 181.594 145.327 186.383 142.817 190.638" stroke-width="1.53333" stroke-miterlimit="10"/>
<path d="M144.705 90.4524C141.638 94.7545 138.452 99.3509 138.184 104.618C137.783 112.713 144.247 119.334 147.133 126.907C148.384 130.243 148.95 133.797 148.798 137.357C148.645 140.917 147.777 144.41 146.246 147.627C144.837 150.543 142.829 153.441 143.088 156.671C143.236 158.641 144.222 160.435 145.014 162.248C146.959 166.79 147.808 171.728 147.492 176.661C147.175 181.594 145.702 186.383 143.192 190.638" stroke="#535461" stroke-width="1.53333" stroke-miterlimit="10"/>
<path d="M187.391 129.007L188.876 141.126C189.071 142.736 189.239 144.492 188.377 145.871C187.559 147.171 186.024 147.791 184.83 148.753C180.912 151.916 181.268 157.961 182.62 162.814C183.972 167.666 185.917 172.88 184.038 177.549C183.261 179.475 181.891 181.098 180.88 182.907C179.146 185.999 178.46 189.571 178.922 193.087" stroke-width="1.53333" stroke-miterlimit="10"/>
<path d="M187.761 129.007L189.245 141.126C189.441 142.736 189.608 144.492 188.746 145.871C187.928 147.171 186.394 147.791 185.2 148.753C181.281 151.916 181.638 157.961 182.99 162.814C184.341 167.666 186.286 172.88 184.407 177.549C183.631 179.475 182.26 181.098 181.25 182.907C179.516 185.999 178.829 189.571 179.292 193.087" stroke="#535461" stroke-width="1.53333" stroke-miterlimit="10"/>
<g opacity="0.7">
<path opacity="0.7" d="M225.875 79.1973C225.872 73.5278 224.531 67.9393 221.96 62.8886C219.389 57.8379 215.661 53.4683 211.082 50.1367C206.503 46.8052 201.201 44.6064 195.612 43.72C190.022 42.8335 184.302 43.2846 178.919 45.0364C179.215 43.0179 179.368 40.9808 179.377 38.9406C179.391 29.6294 175.795 20.6766 169.346 13.9706C162.898 7.26455 154.102 3.32955 144.813 2.99555C135.524 2.66155 126.469 5.95465 119.557 12.1803C112.645 18.4059 108.417 27.0774 107.765 36.3657C102.381 34.6102 96.6587 34.1563 91.066 35.0411C85.4734 35.926 80.1692 38.1245 75.5874 41.4567C71.0056 44.789 67.2762 49.1605 64.7043 54.2135C62.1325 59.2666 60.7911 64.8578 60.79 70.5297C60.79 88.5608 74.0527 114.184 91.3099 118.723L93.9971 120.261L92.5383 125.268H101.178L99.3022 120.254L101.977 118.723C115.322 115.215 126.263 99.1105 130.548 83.6639C132.894 85.2282 135.477 86.4032 138.196 87.1436L140.884 88.681L139.447 93.6759H148.087L146.211 88.662L148.885 87.1309C150.868 86.5967 152.777 85.8201 154.569 84.8185C156.878 102.147 169.158 123.304 184.698 127.388L187.385 128.925L185.926 133.933H194.566L192.684 128.919L195.358 127.388C212.628 122.848 225.875 97.2157 225.875 79.1973Z" />
</g>
<path d="M102.552 123.415H94.1899L95.6552 118.391H100.67L102.552 123.415Z" fill="#F55F44"/>
<path d="M132.854 70.4476C132.854 89.6428 117.321 117.762 98.1624 117.762C79.0043 117.762 63.4712 89.6396 63.4712 70.4476C63.4712 61.2303 67.1263 52.3905 73.6325 45.8728C80.1387 39.3552 88.9629 35.6936 98.164 35.6936C107.365 35.6936 116.189 39.3552 122.696 45.8728C129.202 52.3905 132.857 61.2303 132.857 70.4476H132.854Z" fill="#F55F44"/>
<path d="M100.67 118.6H95.6553L92.728 116.927H103.597L100.67 118.6Z" fill="#535461"/>
<path opacity="0.1" d="M85.6232 43.439C85.6232 43.439 70.9933 51.3948 68.9028 67.3064L85.6232 43.439Z" fill="white"/>
<path d="M147.919 92.863H139.558L141.023 87.8396H146.037L147.919 92.863Z" fill="#F7CF44"/>
<path d="M178.221 39.8961C178.221 59.0912 162.688 87.2102 143.53 87.2102C124.372 87.2102 108.839 59.0881 108.839 39.8961C108.839 30.6788 112.494 21.8389 119 15.3213C125.506 8.80366 134.331 5.14209 143.532 5.14209C152.733 5.14209 161.557 8.80366 168.063 15.3213C174.569 21.8389 178.225 30.6788 178.225 39.8961H178.221Z" fill="#6C63FF"/>
<path d="M146.038 88.0484H141.023L138.096 86.3718H148.965L146.038 88.0484Z" fill="#535461"/>
<path opacity="0.1" d="M130.99 12.8875C130.99 12.8875 116.36 20.8432 114.27 36.7548L130.99 12.8875Z" fill="white"/>
<path d="M192.905 131.82H184.543L186.008 126.793H191.023L192.905 131.82Z" fill="#3AD29F"/>
<path d="M223.207 78.8492C223.207 98.0444 207.674 126.163 188.516 126.163C169.358 126.163 153.821 98.0444 153.821 78.8492C153.821 69.6319 157.476 60.7921 163.983 54.2744C170.489 47.7568 179.313 44.0952 188.514 44.0952C197.715 44.0952 206.539 47.7568 213.046 54.2744C219.552 60.7921 223.207 69.6319 223.207 78.8492Z" fill="#3AD29F"/>
<path d="M191.023 127.002H186.008L183.081 125.328H193.95L191.023 127.002Z" fill="#535461"/>
<path opacity="0.1" d="M175.976 51.8408C175.976 51.8408 161.346 59.7966 159.256 75.7082L175.976 51.8408Z" fill="white"/>
<g opacity="0.5">
<path opacity="0.5" d="M163.07 137.741C161.059 135.72 158.125 134.916 154.81 135.476C151.709 136.001 148.605 137.691 146.072 140.221C145.338 140.96 144.722 141.807 144.244 142.733C143.778 141.776 143.167 140.898 142.431 140.13C139.943 137.552 136.867 135.815 133.763 135.245C130.46 134.613 127.514 135.381 125.464 137.368C123.415 139.355 122.575 142.281 123.087 145.609C123.567 148.721 125.202 151.856 127.694 154.428C132.929 159.84 143.378 157.727 143.821 157.632L143.95 157.604L144.351 157.696C144.793 157.797 155.204 160.09 160.531 154.77C163.058 152.239 164.753 149.136 165.29 146.029C165.874 142.705 165.082 139.766 163.07 137.741ZM142.065 154.507C139.539 154.849 133.245 155.31 130.122 152.081C128.114 150.002 126.8 147.522 126.424 145.09C126.083 142.875 126.576 140.977 127.82 139.782C128.306 139.315 128.886 138.959 129.522 138.738C130.698 138.357 131.952 138.294 133.16 138.554C135.572 139.007 138.01 140.399 140.019 142.477C143.142 145.684 142.485 151.986 142.065 154.504V154.507ZM161.994 145.457C161.577 147.88 160.222 150.341 158.176 152.381C154.996 155.545 148.702 154.985 146.192 154.596C145.816 152.065 145.267 145.773 148.447 142.597C150.493 140.557 152.953 139.206 155.372 138.801C156.584 138.562 157.837 138.647 159.006 139.048C159.639 139.28 160.215 139.647 160.693 140.123C161.911 141.348 162.372 143.239 161.994 145.454V145.457Z" />
</g>
<path d="M144.847 156.943L143.852 157.152C143.429 157.24 133.432 159.262 128.42 154.083C126.039 151.622 124.473 148.623 123.999 145.643C123.507 142.458 124.315 139.658 126.273 137.757C128.231 135.856 131.051 135.135 134.212 135.726C137.17 136.28 140.113 137.941 142.494 140.405C147.503 145.583 145.172 155.532 145.071 155.953L144.847 156.943ZM130.154 139.073C129.545 139.285 128.989 139.626 128.524 140.073C127.337 141.227 126.863 143.03 127.189 145.153C127.549 147.478 128.805 149.854 130.729 151.844C133.719 154.934 139.741 154.491 142.157 154.165C142.558 151.758 143.189 145.741 140.199 142.651C138.276 140.664 135.945 139.329 133.634 138.899C132.479 138.65 131.278 138.71 130.154 139.073Z" fill="#6C63FF"/>
<path d="M143.369 156.987L143.148 155.994C143.053 155.57 140.893 145.583 145.99 140.493C148.415 138.073 151.383 136.463 154.352 135.96C157.509 135.422 160.329 136.191 162.246 138.127C164.163 140.063 164.93 142.872 164.384 146.035C163.872 149.006 162.255 151.976 159.83 154.396C154.734 159.486 144.771 157.291 144.357 157.196L143.369 156.987ZM158.368 139.358C157.251 138.974 156.053 138.892 154.895 139.12C152.577 139.513 150.224 140.806 148.263 142.758C145.219 145.798 145.737 151.821 146.107 154.238C148.516 154.605 154.532 155.152 157.573 152.115C159.53 150.16 160.825 147.807 161.226 145.472C161.589 143.356 161.147 141.544 159.979 140.37C159.521 139.921 158.971 139.575 158.368 139.358Z" fill="#6C63FF"/>
<g opacity="0.5">
<path opacity="0.5" d="M192.128 154.327H95.1816V173.759H100.218V230H187.092V173.759H192.128V154.327Z" />
</g>
<path d="M185.993 160.201H101.317V229.045H185.993V160.201Z" fill="#535461"/>
<path d="M151.63 172.494H135.677V229.042H151.63V172.494Z" fill="#6C63FF"/>
<path opacity="0.1" d="M185.993 156.512H101.317V173.724H185.993V156.512Z" fill="black"/>
<path d="M190.903 155.282H96.4097V172.494H190.903V155.282Z" fill="#535461"/>
<path d="M151.63 155.282H135.677V172.494H151.63V155.282Z" fill="#6C63FF"/>
</g>
<defs>
<linearGradient id="paint0_linear_1845:30437" x1="96.1479" y1="155.564" x2="132.756" y2="155.564" gradientUnits="userSpaceOnUse">
<stop stop-color="#808080" stop-opacity="0.25"/>
<stop offset="0.54" stop-color="#808080" stop-opacity="0.12"/>
<stop offset="1" stop-color="#808080" stop-opacity="0.1"/>
</linearGradient>
<linearGradient id="paint1_linear_1845:30437" x1="6699.12" y1="53261.2" x2="7080.07" y2="53261.2" gradientUnits="userSpaceOnUse">
<stop stop-color="#808080" stop-opacity="0.25"/>
<stop offset="0.54" stop-color="#808080" stop-opacity="0.12"/>
<stop offset="1" stop-color="#808080" stop-opacity="0.1"/>
</linearGradient>
<linearGradient id="paint2_linear_1845:30437" x1="7820.96" y1="38292.3" x2="8175.05" y2="38292.3" gradientUnits="userSpaceOnUse">
<stop stop-color="#808080" stop-opacity="0.25"/>
<stop offset="0.54" stop-color="#808080" stop-opacity="0.12"/>
<stop offset="1" stop-color="#808080" stop-opacity="0.1"/>
</linearGradient>
<linearGradient id="paint3_linear_1845:30437" x1="104778" y1="66773" x2="104778" y2="12577.8" gradientUnits="userSpaceOnUse">
<stop stop-color="#808080" stop-opacity="0.25"/>
<stop offset="0.54" stop-color="#808080" stop-opacity="0.12"/>
<stop offset="1" stop-color="#808080" stop-opacity="0.1"/>
</linearGradient>
<linearGradient id="paint4_linear_1845:30437" x1="27223.9" y1="13773.9" x2="27223.9" y2="12066.1" gradientUnits="userSpaceOnUse">
<stop stop-color="#808080" stop-opacity="0.25"/>
<stop offset="0.54" stop-color="#808080" stop-opacity="0.12"/>
<stop offset="1" stop-color="#808080" stop-opacity="0.1"/>
</linearGradient>
<linearGradient id="paint5_linear_1845:30437" x1="44198.2" y1="55174.9" x2="44198.2" y2="37072.4" gradientUnits="userSpaceOnUse">
<stop stop-color="#808080" stop-opacity="0.25"/>
<stop offset="0.54" stop-color="#808080" stop-opacity="0.12"/>
<stop offset="1" stop-color="#808080" stop-opacity="0.1"/>
</linearGradient>
<clipPath id="clip0_1845:30437">
<rect width="265" height="230" fill="white"/>
</clipPath>
</defs>
</svg>
