<svg width="24" height="24" viewBox="0 0 24 24" fill="none" xmlns="http://www.w3.org/2000/svg">
<path fill-rule="evenodd" clip-rule="evenodd" d="M17.9073 10.7002H24V12.8168C24 13.3401 23.5729 13.7675 23.05 13.7675H20.8585L19.5512 14.4278L17.9072 13.7675V10.7002H17.9073Z" fill="#FFE07D"/>
<path fill-rule="evenodd" clip-rule="evenodd" d="M18.8572 7.62891H23.05C23.5729 7.62891 23.9999 8.05631 23.9999 8.57962V10.1523H17.9072V8.57962C17.9072 8.05631 18.3343 7.62891 18.8572 7.62891Z" fill="#FFE07D"/>
<path fill-rule="evenodd" clip-rule="evenodd" d="M17.9072 9.67822H23.9999V11.1728H17.9072V9.67822Z" fill="#FF8086"/>
<path fill-rule="evenodd" clip-rule="evenodd" d="M22.7283 9.67838H23.5086H24V8.57967C24 8.22211 23.8001 7.90978 23.5086 7.74811C23.3717 7.67278 23.2156 7.62891 23.05 7.62891H21.7783C22.3012 7.62891 22.7283 8.05631 22.7283 8.57962V9.67838H22.7283Z" fill="#FFC269"/>
<path fill-rule="evenodd" clip-rule="evenodd" d="M22.7285 11.1728H23.5087H24.0002V10.7002V10.1522V9.67822H23.5087H22.7285V10.1522V10.7002V11.1728Z" fill="#F76672"/>
<path fill-rule="evenodd" clip-rule="evenodd" d="M22.7283 11.1729V12.8168C22.7283 13.3401 22.3012 13.7675 21.7783 13.7675H23.05C23.2156 13.7675 23.3716 13.7251 23.5085 13.6497C23.8001 13.4867 24 13.1744 24 12.8168V11.1729H23.5085H22.7283Z" fill="#FFC269"/>
<path fill-rule="evenodd" clip-rule="evenodd" d="M17.9072 13.7676H20.8585V15.1252C20.8585 15.4513 20.5915 15.717 20.2671 15.717H10.6582C10.6582 14.8636 10.6582 14.4293 11.3111 14.4293L12.6115 14.4279C13.4301 14.4265 13.9667 14.2169 14.2665 13.7676H17.9072V13.7676Z" fill="#6F6571"/>
<path fill-rule="evenodd" clip-rule="evenodd" d="M11.8174 15.7168H20.2672C20.7628 16.5799 21.1611 17.6169 20.8175 19.6006C20.2426 17.6443 14.4031 18.4252 13.8036 20.6828H7.36041C7.11675 20.1307 6.88678 19.5855 6.68555 19.0348H8.502C12.176 17.6484 10.9947 18.2662 11.8174 15.7168V15.7168Z" fill="#FFE07D"/>
<path fill-rule="evenodd" clip-rule="evenodd" d="M11.2961 10.4138C11.422 11.0769 11.5931 11.7304 11.7848 12.2865L13.6422 13.0143L15.7133 12.2865C15.6407 8.36712 14.1761 6.48757 12.9304 5.87932C12.4815 5.53746 12.0215 5.40869 12.0215 5.40869C12.0215 5.40869 11.4165 6.37662 11.385 6.37662C11.1523 6.93007 11.0647 7.65204 11.0798 8.43153L11.2961 10.4138Z" fill="#ECEAEC"/>
<path fill-rule="evenodd" clip-rule="evenodd" d="M15.7129 12.2866H11.7843C10.8795 12.3852 9.7666 13.0744 9.7666 15.2087V17.4458L10.6582 17.9769L11.8171 17.4458V15.7169C11.8171 14.8635 11.8171 14.4292 12.47 14.4292L13.7704 14.4278C14.589 14.4265 15.1256 14.2168 15.4254 13.7675C15.6567 13.4209 15.7457 12.9319 15.7129 12.2866V12.2866Z" fill="#FF8086"/>
<path fill-rule="evenodd" clip-rule="evenodd" d="M15.7133 12.2866C15.6407 8.36719 14.1761 6.48764 12.9304 5.87939C12.7457 6.00952 12.5403 6.11639 12.3145 6.19585C13.4177 7.03013 14.5238 8.89463 14.5867 12.2866H15.7133Z" fill="#DAD8DB"/>
<path fill-rule="evenodd" clip-rule="evenodd" d="M15.7133 12.2866H14.5867C14.6196 12.9319 14.5306 13.4209 14.2993 13.7675C14.1104 14.0511 13.8257 14.2909 13.4355 14.4279H13.7709C14.5895 14.4265 15.1261 14.2169 15.4259 13.7675C15.6571 13.4209 15.7461 12.9319 15.7133 12.2866V12.2866Z" fill="#F76672"/>
<path fill-rule="evenodd" clip-rule="evenodd" d="M13.8037 20.6829C13.8037 18.6568 15.4094 17.043 17.3901 17.043C19.0012 17.043 20.3646 18.1115 20.8177 19.6007C20.9108 19.9061 20.9655 20.2308 20.9751 20.5678C20.9792 20.6994 20.8888 20.6829 20.7656 20.6829C18.4455 20.6829 16.1239 20.6815 13.8037 20.6829V20.6829Z" fill="#FF8086"/>
<path fill-rule="evenodd" clip-rule="evenodd" d="M14.7061 20.6826H20.165C20.087 22.1539 18.8948 23.3239 17.4355 23.3239C15.9763 23.3239 14.7841 22.1539 14.7061 20.6826V20.6826Z" fill="#6F6571"/>
<path fill-rule="evenodd" clip-rule="evenodd" d="M0.843162 20.1006L5.53966 21.1815C5.24126 22.4788 3.94769 23.2898 2.65141 22.9912C1.35377 22.6926 0.544756 21.398 0.843162 20.1006V20.1006Z" fill="#6F6571"/>
<path fill-rule="evenodd" clip-rule="evenodd" d="M0.491438 18.7841C1.15533 17.8182 2.30789 17.258 3.51248 17.3785C5.63695 17.8279 6.32822 19.0978 6.46645 20.6815C6.46373 20.8965 6.44044 21.113 6.39389 21.3295C6.3802 21.3897 6.3405 21.3651 6.27478 21.35L5.53969 21.1815L0.843188 20.1006L0.491391 20.0198L0 19.9061C0.0944531 19.4923 0.264188 19.1142 0.491438 18.7841Z" fill="#ECEAEC"/>
<path fill-rule="evenodd" clip-rule="evenodd" d="M3.50781 17.3732L5.40503 10.8085L6.25919 10.4263L7.21464 10.8085C5.95942 14.2882 6.30981 16.717 7.15717 19.035C7.35977 19.5858 7.58973 20.131 7.83203 20.683H6.46727L3.50781 17.3732Z" fill="#FF8086"/>
<path fill-rule="evenodd" clip-rule="evenodd" d="M9.38336 3.44763L11.6091 2.97363C11.835 2.99416 12.4811 3.53669 12.4811 3.87644L12.0075 6.28478C11.8104 6.3437 11.6009 6.37656 11.3846 6.37656C10.1992 6.37656 9.23828 5.41352 9.23828 4.22711C9.23828 3.95177 9.28891 3.68871 9.38336 3.44763V3.44763Z" fill="#FFECE4"/>
<path fill-rule="evenodd" clip-rule="evenodd" d="M8.66504 3.44766C8.66504 1.91607 9.87784 0.67627 11.3754 0.67627C12.8729 0.67627 14.0857 1.91607 14.0857 3.44766C14.0857 4.45866 13.675 5.35735 12.9303 5.8793C12.6648 6.06699 12.3554 6.20536 12.0077 6.28482V3.87643C12.0077 3.53668 11.8353 3.46819 11.6094 3.44761H9.38368H8.66504V3.44766Z" fill="#FF8086"/>
<path fill-rule="evenodd" clip-rule="evenodd" d="M9.95703 1.08586C10.3691 0.825566 10.855 0.67627 11.3751 0.67627C12.8727 0.67627 14.0855 1.91607 14.0855 3.44766C14.0855 4.45866 13.6748 5.35735 12.9301 5.8793C12.7412 6.01219 12.5318 6.12043 12.3018 6.19988C12.8521 5.6423 13.1505 4.84229 13.1505 3.96C13.1505 2.35993 11.8816 1.06257 10.317 1.06257C10.1952 1.06257 10.0747 1.06941 9.95703 1.08586Z" fill="#F76672"/>
<path fill-rule="evenodd" clip-rule="evenodd" d="M9.76694 17.4458H11.8175V18.7377C11.8175 19.0144 11.6669 19.035 11.4452 19.035H8.50216C8.44324 17.739 9.2276 17.4458 9.76694 17.4458Z" fill="#6F6571"/>
<path fill-rule="evenodd" clip-rule="evenodd" d="M7.15772 19.0351C6.3104 16.7172 5.95997 14.2883 7.21519 10.8086H6.51159C6.50887 10.8086 6.50611 10.8086 6.50339 10.8086H6.25017C4.99495 14.2883 5.34398 16.7171 6.19265 19.0351C6.39389 19.5858 6.62386 20.131 6.86751 20.6831H7.36031H7.83258C7.59028 20.131 7.36031 19.5858 7.15772 19.0351Z" fill="#F76672"/>
<path fill-rule="evenodd" clip-rule="evenodd" d="M6.46659 20.6813L3.51262 17.3784C3.20737 17.3483 2.90484 17.3606 2.61328 17.414L5.45226 20.5882C5.44954 20.7731 5.43173 20.9608 5.39615 21.1485L5.53987 21.1813L6.27496 21.3498C6.34068 21.3649 6.38038 21.3896 6.39407 21.3293C6.44057 21.1129 6.46382 20.8964 6.46659 20.6813V20.6813Z" fill="#DAD8DB"/>
<path fill-rule="evenodd" clip-rule="evenodd" d="M20.2673 15.7168H11.8174V16.4607H18.7602C19.3255 16.4607 19.5938 16.7045 19.8142 17.1991C20.0045 17.6279 20.0086 17.7676 20.0948 18.2855C20.4192 18.6622 20.6684 19.1088 20.8176 19.6006C21.1611 17.6169 20.7628 16.5799 20.2673 15.7168V15.7168Z" fill="#FFC269"/>
<path fill-rule="evenodd" clip-rule="evenodd" d="M20.0944 18.2855C19.4374 17.5224 18.4696 17.043 17.3896 17.043C17.1186 17.043 16.8558 17.0731 16.6025 17.1293C18.2192 17.495 19.3498 18.9225 19.3991 20.5678C19.4018 20.6582 19.3608 20.6788 19.2951 20.6829H20.1643H20.7652C20.8884 20.6829 20.9788 20.6994 20.9747 20.5678C20.9651 20.2308 20.9103 19.9061 20.8173 19.6007C20.8145 19.591 20.8118 19.5828 20.809 19.5746C20.809 19.5746 20.809 19.5746 20.809 19.5733C20.6584 19.0924 20.4134 18.6554 20.0944 18.2855Z" fill="#F76672"/>
<path fill-rule="evenodd" clip-rule="evenodd" d="M5.39623 21.1486L0.843399 20.1006C0.792774 20.3156 0.774961 20.5321 0.783164 20.7431L4.3969 21.5747L4.53926 21.6075C4.4051 22.1966 4.06427 22.6856 3.61118 23.0158C4.53513 22.8528 5.31677 22.1541 5.5399 21.1815L5.39623 21.1486Z" fill="#5D5360"/>
<path fill-rule="evenodd" clip-rule="evenodd" d="M19.2958 20.6827H14.7061C14.7211 20.9703 14.78 21.2471 14.8744 21.506H18.0721H18.9413C18.907 22.1499 18.6607 22.7348 18.2719 23.191C19.3273 22.8444 20.1034 21.8594 20.165 20.6826H19.2958V20.6827Z" fill="#5D5360"/>
<path fill-rule="evenodd" clip-rule="evenodd" d="M20.8582 15.1252V13.7676H19.0034V15.1252C19.0034 15.4512 18.7365 15.717 18.4121 15.717H20.2669C20.5913 15.717 20.8582 15.4512 20.8582 15.1252Z" fill="#5D5360"/>
<path fill-rule="evenodd" clip-rule="evenodd" d="M9.24902 3.99713H11.0778C11.3036 4.01766 11.4761 4.08755 11.4761 4.4273V6.37397C11.6596 6.36577 11.8375 6.33563 12.0072 6.28491V3.87657C12.0072 3.53682 11.8348 3.46833 11.6089 3.44775H9.38318C9.3161 3.62039 9.26955 3.80532 9.24902 3.99713V3.99713Z" fill="#FFDDCE"/>
<path fill-rule="evenodd" clip-rule="evenodd" d="M5.01062 8.7411L7.57172 9.58771C7.69767 9.70002 7.55531 10.8453 7.47042 10.8083H5.40619H4.49316V8.92331C4.49316 8.55206 4.68619 8.63423 5.01062 8.7411V8.7411Z" fill="#FFE07D"/>
<path fill-rule="evenodd" clip-rule="evenodd" d="M8.76503 10.8082H8.55011H7.47011C6.77472 10.8082 6.75419 9.65473 7.57141 9.5876L8.76503 9.4917L9.08533 10.1698L8.76503 10.8082Z" fill="#FFECE4"/>
<path fill-rule="evenodd" clip-rule="evenodd" d="M11.0794 8.43157L11.5078 8.06304C12.581 7.13833 13.9375 8.69871 12.503 9.63025L11.2957 10.4139L10.6879 10.8084H8.76465V9.49188L9.95963 9.39461L11.0794 8.43157Z" fill="#FF8086"/>
<path fill-rule="evenodd" clip-rule="evenodd" d="M8.76441 10.8085V10.1701H8.50843H8.37019H8.15391H7.07391C7.03285 10.1701 6.9945 10.1674 6.95757 10.1592C6.91786 10.477 7.09721 10.8085 7.46953 10.8085H8.54954H8.76441Z" fill="#FFDDCE"/>
<path fill-rule="evenodd" clip-rule="evenodd" d="M12.503 9.63034C13.3708 9.06591 13.2175 8.27274 12.7234 7.93848C12.7631 8.28095 12.6002 8.67413 12.1074 8.99335L11.167 9.60296L10.9014 9.77696L10.2937 10.1701H8.76465V10.8085H10.6879L11.2957 10.414L12.503 9.63034Z" fill="#F76672"/>
<path fill-rule="evenodd" clip-rule="evenodd" d="M7.5708 9.5878L6.54006 9.24805C6.1951 9.61794 6.02809 10.3385 6.24985 10.8084H7.21487H7.4695C7.09717 10.8084 6.91787 10.4769 6.95753 10.1591C6.99311 9.88372 7.19162 9.6193 7.5708 9.5878V9.5878Z" fill="#FFC269"/>
</svg>
