<svg width="24" height="24" viewBox="0 0 24 24" fill="none" xmlns="http://www.w3.org/2000/svg">
<path d="M18.7408 8.82056C19.0306 8.82056 19.3103 8.86471 19.5736 8.94646L21.9727 6.54736L20.8546 5.4292L17.4632 8.82056H18.7408Z" fill="#1A1A1A"/>
<path d="M23.5881 8.1625L22.9671 7.5415L20.7945 9.71416C21.2646 10.2171 21.5533 10.8917 21.5533 11.6328V12.1861L23.5881 10.1512C24.1373 9.60208 24.1373 8.71169 23.5881 8.1625V8.1625Z" fill="#1A1A1A"/>
<path d="M19.8603 4.43461L15.8376 0.411891C15.2884 -0.137297 14.398 -0.137297 13.8488 0.411891L5.4404 8.82033H15.4746L19.8603 4.43461Z" fill="#1A1A1A"/>
<path d="M3.69064 14.6846H5.83292V16.2659H3.69064V14.6846Z" fill="#1A1A1A"/>
<path d="M18.7408 10.2266H1.40625C0.629578 10.2266 0 10.8561 0 11.6328V22.5937C0 23.3704 0.629578 24 1.40625 24H18.7408C19.5174 24 20.1471 23.3704 20.1471 22.5937V11.6328C20.1471 10.8561 19.5174 10.2266 18.7408 10.2266ZM2.28441 13.278H7.23919V17.6718H2.28441V13.278ZM5.02008 20.9485H2.24067V19.5423H5.02008V20.9485ZM9.31547 20.9485H6.53606V19.5423H9.31547V20.9485ZM13.611 20.9485H10.8315V19.5423H13.611V20.9485ZM17.9064 20.9485H15.127V19.5423H17.9064V20.9485Z" fill="#1A1A1A"/>
</svg>
