<svg xmlns="http://www.w3.org/2000/svg" fill="none" viewBox="0 0 375 275">
  <ellipse cx="188" cy="146" fill="#fff" rx="201" ry="104"/>
  <path stroke="#D8D8D8" stroke-opacity=".24" d="M388.5 146c0 28.436-22.287 54.305-58.601 73.095C293.609 237.872 243.441 249.5 188 249.5S82.3906 237.872 46.1013 219.095C9.78674 200.305-12.5 174.436-12.5 146S9.78674 91.6946 46.1013 72.905C82.3906 54.1284 132.559 42.5 188 42.5c55.441 0 105.609 11.6284 141.899 30.405C366.213 91.6946 388.5 117.564 388.5 146Z"/>
  <ellipse cx="188" cy="166" fill="#fff" rx="134" ry="58"/>
  <path stroke="#D8D8D8" stroke-opacity=".54" d="M321.5 166c0 7.841-3.669 15.351-10.388 22.227-6.721 6.878-16.471 13.095-28.558 18.326C258.381 217.016 224.951 223.5 188 223.5s-70.381-6.484-94.5537-16.947c-12.0872-5.231-21.8372-11.448-28.5583-18.326C58.1692 181.351 54.5 173.841 54.5 166c0-7.841 3.6692-15.351 10.388-22.227 6.7211-6.878 16.4711-13.095 28.5583-18.326C117.619 114.984 151.049 108.5 188 108.5c36.951 0 70.381 6.484 94.554 16.947 12.087 5.231 21.837 11.448 28.558 18.326 6.719 6.876 10.388 14.386 10.388 22.227Z"/>
  <ellipse cx="188" cy="180" fill="#fff" rx="48" ry="21"/>
  <path stroke="#D8D8D8" stroke-opacity=".54" d="M235.5 180c0 2.734-1.264 5.378-3.632 7.827-2.369 2.451-5.822 4.681-10.127 6.564-8.61 3.767-20.538 6.109-33.741 6.109s-25.131-2.342-33.741-6.109c-4.305-1.883-7.758-4.113-10.127-6.564-2.368-2.449-3.632-5.093-3.632-7.827s1.264-5.378 3.632-7.827c2.369-2.451 5.822-4.681 10.127-6.564 8.61-3.767 20.538-6.109 33.741-6.109s25.131 2.342 33.741 6.109c4.305 1.883 7.758 4.113 10.127 6.564 2.368 2.449 3.632 5.093 3.632 7.827Z"/>
  <ellipse cx="188" cy="182" fill="#fff" rx="18" ry="8"/>
  <path stroke="#D8D8D8" stroke-opacity=".36" d="M205.5 182c0 .942-.427 1.877-1.277 2.769-.851.895-2.108 1.724-3.698 2.431-3.18 1.413-7.608 2.3-12.525 2.3-4.917 0-9.345-.887-12.525-2.3-1.59-.707-2.847-1.536-3.698-2.431-.85-.892-1.277-1.827-1.277-2.769 0-.942.427-1.877 1.277-2.769.851-.895 2.108-1.724 3.698-2.431 3.18-1.413 7.608-2.3 12.525-2.3 4.917 0 9.345.887 12.525 2.3 1.59.707 2.847 1.536 3.698 2.431.85.892 1.277 1.827 1.277 2.769Z"/>
  <path fill="url(#d)" d="M0 0h375v170H0z"/>
  <path fill="#E93821" d="M212 146c0 18.667-24 34.667-24 34.667s-24-16-24-34.667c0-6.365 2.529-12.47 7.029-16.971C175.53 124.529 181.635 122 188 122s12.47 2.529 16.971 7.029C209.471 133.53 212 139.635 212 146Z"/>
  <path fill="#fff" d="M188 154c4.418 0 8-3.582 8-8s-3.582-8-8-8-8 3.582-8 8 3.582 8 8 8Z"/>
</svg>
