<svg width="101" height="92" viewBox="0 0 101 92" fill="none" xmlns="http://www.w3.org/2000/svg">
<path d="M52.2 40.9999L42.7 31.5499L30.4 19.35L22.65 11.6L13.55 2.44995C13.0838 1.98376 12.5303 1.61395 11.9212 1.36165C11.3121 1.10935 10.6593 0.979492 9.99996 0.979492C9.34066 0.979492 8.68782 1.10935 8.07871 1.36165C7.4696 1.61395 6.91615 1.98376 6.44996 2.44995C5.50844 3.39147 4.9795 4.66844 4.9795 5.99995C4.9795 7.33146 5.50844 8.60843 6.44996 9.54995L13.35 16.4L20.65 23.7L31.8 34.8999L39.55 42.5999L53.25 56.3L67.2 70.2999L86.45 89.5499C86.9148 90.0186 87.4678 90.3906 88.0771 90.6444C88.6864 90.8983 89.3399 91.0289 90 91.0289C90.66 91.0289 91.3135 90.8983 91.9228 90.6444C92.5321 90.3906 93.0851 90.0186 93.5499 89.5499C94.0186 89.0851 94.3906 88.5321 94.6444 87.9228C94.8983 87.3135 95.0289 86.66 95.0289 85.9999C95.0289 85.3399 94.8983 84.6864 94.6444 84.0771C94.3906 83.4678 94.0186 82.9148 93.5499 82.45L52.2 40.9999ZM98.6 25.65C85.5771 13.0208 68.1408 5.9709 50 5.99995C42.4523 6.02041 34.9569 7.25277 27.8 9.64995L35.9 17.75C45.7089 15.299 55.9809 15.3902 65.7449 18.0149C75.5088 20.6396 84.442 25.7111 91.7 32.75C92.6268 33.6434 93.8626 34.1448 95.15 34.15C95.8235 34.1474 96.4895 34.0088 97.1082 33.7424C97.7268 33.4761 98.2852 33.0875 98.75 32.5999C99.6313 31.6483 100.108 30.3914 100.08 29.0946C100.052 27.7978 99.5215 26.5627 98.6 25.65ZM9.09996 19.25C6.38709 21.201 3.81413 23.3396 1.39996 25.65C0.556145 26.5882 0.0983142 27.8109 0.118304 29.0726C0.138293 30.3343 0.634625 31.5418 1.50774 32.4529C2.38085 33.364 3.56616 33.9112 4.8259 33.9849C6.08564 34.0585 7.32664 33.6531 8.29996 32.85C10.7935 30.4936 13.4684 28.337 16.3 26.4L9.09996 19.25ZM75 51.7C75.463 52.1724 76.0153 52.5482 76.6246 52.8057C77.234 53.0632 77.8884 53.1972 78.5499 53.2C79.5271 53.1962 80.4817 52.9063 81.2958 52.366C82.1099 51.8257 82.7479 51.0587 83.1309 50.1597C83.5139 49.2608 83.6251 48.2693 83.4507 47.3079C83.2764 46.3465 82.8242 45.4572 82.15 44.7499C77.9797 40.4288 72.9866 36.986 67.4651 34.6245C61.9436 32.2631 56.0052 31.0307 50 31H49.2L60.95 42.75C66.2853 44.559 71.1052 47.6293 75 51.7ZM27.15 37.3C23.656 39.335 20.4593 41.8419 17.65 44.7499C16.7283 45.7246 16.2316 47.0255 16.2691 48.3664C16.3067 49.7073 16.8753 50.9783 17.85 51.8999C18.8246 52.8216 20.1255 53.3183 21.4664 53.2808C22.8073 53.2433 24.0783 52.6746 25 51.7C27.9129 48.804 31.2937 46.4205 35 44.6499L27.15 37.3ZM32.65 62.9999C31.6952 63.9216 31.1456 65.1847 31.1222 66.5116C31.1106 67.1685 31.2285 67.8214 31.4692 68.4328C31.7099 69.0442 32.0686 69.6022 32.525 70.075C32.9813 70.5477 33.5263 70.9259 34.1288 71.1881C34.7313 71.4502 35.3796 71.5911 36.0366 71.6027C37.3634 71.6262 38.6452 71.1216 39.6 70.2C42.174 67.8259 45.4846 66.4067 48.9789 66.1792C52.4732 65.9517 55.9398 66.9297 58.8 68.95L46.2 56.3499C41.106 57.1176 36.3736 59.4402 32.65 62.9999Z" fill="#C7C7C7"/>
</svg>
