<svg width="81" height="90" viewBox="0 0 81 90" fill="none" xmlns="http://www.w3.org/2000/svg">
<path d="M71.25 9.625H66.8125V0.75H57.9375V9.625H22.4375V0.75H13.5625V9.625H9.125C4.24375 9.625 0.25 13.6188 0.25 18.5V80.625C0.25 85.5063 4.24375 89.5 9.125 89.5H71.25C76.1312 89.5 80.125 85.5063 80.125 80.625V18.5C80.125 13.6188 76.1312 9.625 71.25 9.625ZM71.25 80.625H9.125V36.25H71.25V80.625ZM9.125 27.375V18.5H71.25V27.375H9.125ZM18 45.125H62.375V54H18V45.125ZM18 62.875H49.0625V71.75H18V62.875Z" fill="#C7C7C7"/>
</svg>
