<svg width="254" height="240" viewBox="0 0 254 240" fill="none" xmlns="http://www.w3.org/2000/svg">
<path d="M43.4798 176.394C35.7049 164.962 33.2451 150.629 37.1808 137.377C38.7084 132.211 41.11 127.344 44.2811 122.989C53.7145 110.056 69.9896 102.377 86.0212 103.371C95.4444 103.95 105.096 107.271 114.078 104.386C125.743 100.622 131.753 88.0041 136.444 76.6536C141.135 65.3032 150.315 53.4608 161.737 48.952C172.387 44.7527 189.185 44.7425 196.346 47.537C223.662 58.1876 225.99 94.3133 220.401 113.976C214.812 133.639 207.26 146.552 195.448 163.136C178.899 186.37 150.168 200.378 122.066 205.282C95.2872 209.953 65.8714 201.549 47.5777 181.607C46.0869 179.971 44.7173 178.229 43.4798 176.394Z" fill="#EBEBEB"/>
<path d="M236.215 232.715C236.215 232.791 188.226 232.847 129.05 232.847C69.8731 232.847 21.8745 232.791 21.8745 232.715C21.8745 232.639 69.8477 232.583 129.05 232.583C188.252 232.583 236.215 232.644 236.215 232.715Z" fill="#263238"/>
<path d="M86.6094 39.4527L98.8474 76.7602C103.706 78.1143 108.656 79.1895 114.57 77.2673L142.423 67.1899L125.864 24.5876L86.6094 39.4527Z" fill="#E0E0E0"/>
<path d="M83.9873 38.2254L96.2253 75.5278L111.932 76.0552L139.786 65.9727L125.656 24.0652L83.9873 38.2254Z" fill="#F2575D"/>
<path d="M99.9124 71.0444L96.2202 75.5277C96.2202 75.5277 99.5168 77.3282 102.859 77.4043C105.94 77.5379 109.019 77.087 111.932 76.0755C111.932 76.0755 104.832 76.4761 99.9124 71.0444Z" fill="#F2575D"/>
<path opacity="0.3" d="M99.9124 71.0444C98.7916 73.3114 97.6555 75.974 96.2202 75.5277C96.2202 75.5277 99.5168 77.3282 102.859 77.4043C105.94 77.5379 109.019 77.087 111.932 76.0755C111.932 76.0755 104.832 76.4761 99.9124 71.0444Z" fill="black"/>
<path d="M84.2511 47.5878L98.462 32.3017L95.2719 29.2941L80.6299 44.494L84.2511 47.5878Z" fill="#E0E0E0"/>
<path d="M133.812 31.3431L114.443 23.5631L112.779 27.6205L132.219 35.8366L133.812 31.3431Z" fill="#E0E0E0"/>
<path d="M125.509 38.8796C125.509 38.9456 118.46 41.4155 109.716 44.3926C100.973 47.3697 93.8569 49.728 93.8265 49.657C93.7961 49.586 100.871 47.1212 109.62 44.1441C118.368 41.167 125.484 38.8086 125.509 38.8796Z" fill="#263238"/>
<path d="M127.3 44.6309C127.3 44.702 120.25 47.1668 111.506 50.149C102.763 53.1311 95.6473 55.4793 95.627 55.4134C95.6067 55.3475 102.672 52.8775 111.42 49.8954C120.169 46.9132 127.3 44.5701 127.3 44.6309Z" fill="#263238"/>
<path d="M129.211 49.6418C129.211 49.7077 122.167 52.1776 113.418 55.1547C104.669 58.1318 97.564 60.4901 97.5386 60.4191C97.5133 60.3481 104.588 57.8833 113.337 54.9062C122.086 51.9291 129.191 49.5708 129.211 49.6418Z" fill="#263238"/>
<path d="M130.85 54.5258C130.85 54.5968 123.8 57.0617 115.056 60.0438C106.313 63.026 99.2022 65.3742 99.1768 65.3083C99.1515 65.2423 106.221 62.7724 114.97 59.7903C123.719 56.8081 130.814 54.4599 130.85 54.5258Z" fill="#263238"/>
<path d="M149.615 161.376L147.16 184.199C147.16 184.199 142.378 176.972 139.142 180.192C136.058 183.266 130.611 205.678 130.611 205.678C130.611 205.678 130.54 212.986 134.425 214.918C146.886 221.126 160.773 209.461 160.773 209.461L158.79 144.138C153.624 148.486 150.337 154.662 149.615 161.376Z" fill="#F2575D"/>
<path d="M191.654 145.512L170.094 143.793C169.962 141.257 170.14 131.535 170.14 131.535C170.14 131.535 161.168 130.14 161.062 121.173C160.955 112.206 162.502 91.605 162.502 91.605C167.601 89.4128 173.193 88.6223 178.699 89.3151C184.206 90.0079 189.428 92.1589 193.825 95.5457L195.154 96.5601L191.654 145.512Z" fill="#B78876"/>
<path d="M170.125 131.408C174.267 131.486 178.338 130.329 181.82 128.086C181.82 128.086 179.056 134.537 170.105 133.731L170.125 131.408Z" fill="#AA6550"/>
<path d="M194.053 105.856C194.206 105.791 200.215 104.036 200.018 110.167C199.82 116.299 193.708 114.838 193.703 114.661C193.698 114.483 194.053 105.856 194.053 105.856Z" fill="#B78876"/>
<path d="M195.646 112.399C195.676 112.399 195.752 112.475 195.93 112.566C196.18 112.684 196.466 112.698 196.726 112.607C197.385 112.389 197.964 111.38 198.03 110.274C198.057 109.754 197.97 109.235 197.776 108.752C197.725 108.559 197.628 108.38 197.493 108.233C197.358 108.085 197.189 107.973 197 107.905C196.878 107.868 196.747 107.875 196.63 107.925C196.513 107.975 196.418 108.065 196.361 108.179C196.275 108.347 196.305 108.468 196.275 108.479C196.244 108.489 196.148 108.372 196.204 108.118C196.246 107.969 196.335 107.838 196.457 107.743C196.63 107.624 196.843 107.575 197.051 107.606C197.304 107.668 197.538 107.793 197.728 107.971C197.919 108.148 198.061 108.372 198.141 108.621C198.381 109.16 198.489 109.75 198.456 110.34C198.374 111.572 197.705 112.708 196.812 112.937C196.646 112.98 196.472 112.986 196.303 112.952C196.135 112.919 195.976 112.848 195.839 112.744C195.656 112.546 195.626 112.409 195.646 112.399Z" fill="#AA6550"/>
<path d="M164.48 105.491C164.477 105.826 164.605 106.148 164.836 106.389C165.067 106.631 165.383 106.773 165.718 106.785C165.881 106.798 166.045 106.778 166.2 106.727C166.355 106.675 166.498 106.593 166.621 106.485C166.744 106.377 166.844 106.246 166.916 106.099C166.987 105.952 167.028 105.792 167.036 105.628C167.039 105.295 166.912 104.973 166.682 104.732C166.452 104.491 166.137 104.348 165.804 104.335C165.641 104.323 165.477 104.343 165.321 104.394C165.166 104.446 165.023 104.528 164.9 104.636C164.776 104.743 164.676 104.874 164.604 105.021C164.532 105.168 164.49 105.328 164.48 105.491Z" fill="#263238"/>
<path d="M164.201 104.223C164.359 104.391 165.332 103.671 166.707 103.676C168.081 103.681 169.096 104.37 169.243 104.183C169.314 104.107 169.151 103.802 168.735 103.483C168.14 103.071 167.431 102.853 166.707 102.859C165.989 102.856 165.289 103.082 164.709 103.503C164.267 103.848 164.125 104.147 164.201 104.223Z" fill="#263238"/>
<path d="M177.981 105.998C177.978 106.332 178.105 106.653 178.335 106.895C178.565 107.136 178.88 107.279 179.213 107.292C179.377 107.304 179.541 107.284 179.696 107.232C179.851 107.181 179.994 107.099 180.118 106.991C180.241 106.883 180.341 106.752 180.413 106.605C180.485 106.459 180.527 106.299 180.537 106.135C180.539 105.802 180.411 105.48 180.18 105.239C179.949 104.997 179.633 104.855 179.3 104.842C179.137 104.83 178.973 104.85 178.818 104.902C178.663 104.953 178.52 105.035 178.397 105.143C178.274 105.251 178.174 105.382 178.103 105.529C178.031 105.676 177.99 105.835 177.981 105.998Z" fill="#263238"/>
<path d="M177.748 104.477C177.91 104.644 178.879 103.924 180.258 103.929C181.638 103.934 182.647 104.624 182.794 104.436C182.87 104.365 182.708 104.061 182.287 103.742C181.691 103.33 180.983 103.11 180.258 103.113C179.541 103.112 178.842 103.337 178.26 103.757C177.819 104.107 177.672 104.406 177.748 104.477Z" fill="#263238"/>
<path d="M172.747 114.702C172.747 114.625 171.895 114.478 170.51 114.301C170.155 114.265 169.826 114.194 169.765 113.951C169.737 113.589 169.818 113.227 169.998 112.911C170.336 112.059 170.683 111.165 171.038 110.228C172.488 106.414 173.533 103.275 173.376 103.219C173.219 103.163 171.925 106.212 170.48 110.025C170.135 110.964 169.8 111.861 169.465 112.724C169.241 113.147 169.176 113.636 169.283 114.103C169.333 114.227 169.412 114.337 169.512 114.425C169.613 114.513 169.732 114.576 169.861 114.61C170.056 114.666 170.257 114.695 170.46 114.696C171.875 114.778 172.742 114.783 172.747 114.702Z" fill="#263238"/>
<path d="M177.393 99.0807C177.53 99.456 178.914 99.2785 180.522 99.4712C182.13 99.6639 183.448 100.105 183.661 99.7704C183.758 99.6082 183.529 99.2633 183.002 98.893C182.296 98.4536 181.5 98.1796 180.674 98.0918C179.847 98.0039 179.012 98.1045 178.229 98.3859C177.636 98.609 177.337 98.8981 177.393 99.0807Z" fill="#263238"/>
<path d="M164.708 100.237C164.952 100.546 165.9 100.237 167.041 100.207C168.183 100.176 169.151 100.42 169.374 100.09C169.471 99.9327 169.319 99.6183 168.898 99.3241C168.331 98.9669 167.671 98.7868 167.002 98.8066C166.332 98.8265 165.684 99.0455 165.139 99.4357C164.734 99.7603 164.602 100.08 164.708 100.237Z" fill="#263238"/>
<path d="M158.136 85.945C158.072 85.3882 158.151 84.8244 158.365 84.3064C158.578 83.7884 158.92 83.3331 159.358 82.9831C159.81 82.6544 160.364 82.4969 160.921 82.5387C161.479 82.5805 162.003 82.8189 162.401 83.2113C162.317 82.8369 162.312 82.4488 162.387 82.0724C162.462 81.696 162.616 81.3396 162.838 81.0264C163.06 80.7132 163.345 80.4501 163.675 80.2542C164.005 80.0583 164.373 79.934 164.754 79.8894C166.22 79.7981 167.468 80.9037 168.877 81.2892C170.287 81.6746 171.738 81.3399 173.067 80.8074C174.395 80.2748 175.633 79.5344 176.977 79.0424C179.817 78.0053 182.951 78.1311 185.698 79.3923C188.446 80.6535 190.585 82.9482 191.649 85.7776C193.612 85.164 195.839 86.1631 197.051 87.8063C198.263 89.4495 198.572 91.6507 198.329 93.6895C198.14 95.065 197.8 96.4155 197.314 97.7164C197.314 97.8331 197.314 97.9446 197.314 98.0613C197.218 102.991 196.66 108.783 194.555 108.818C190.889 108.874 191.766 101.961 191.766 101.961C187.262 100.227 188.941 93.4815 187.815 92.4571C186.689 91.4326 184.336 89.059 174.913 93.8721C171.251 95.7435 166.387 95.6877 163.73 95.0842L163.496 95.0335H163.441C163.415 95.0247 163.389 95.0145 163.365 95.003C162.51 94.7929 161.694 94.4506 160.945 93.9887C160.064 93.4803 159.367 92.7039 158.957 91.7724C158.76 91.3062 158.703 90.7926 158.793 90.2944C158.883 89.7963 159.116 89.3352 159.464 88.9677C158.736 88.1115 158.274 87.0607 158.136 85.945Z" fill="#263238"/>
<path d="M209.294 201.798L209.968 214.533L211.49 232.791H153.86L156.366 205.779L151.456 163.101C151.882 148.018 157.674 141.749 169.522 140.309L168.588 140.425C170.222 140.232 168.588 140.425 169.522 140.309C177.003 142.672 185.031 142.672 192.512 140.309C196.062 140.461 199.009 141.551 202.031 142.134C211.551 143.955 219.387 151.309 221.304 157.715C222.871 162.984 234.206 208.69 234.206 208.69H211.642L209.294 201.798Z" fill="#F2575D"/>
<path d="M171.576 118.941C171.768 119.499 172.037 120.027 172.377 120.509C172.549 120.749 172.769 120.95 173.025 121.099C173.28 121.248 173.564 121.34 173.858 121.371C174.172 121.37 174.48 121.29 174.756 121.14C175.031 120.989 175.265 120.772 175.435 120.509C175.77 119.972 175.924 119.343 175.876 118.713C175.876 118.145 175.592 117.471 175.029 117.405C174.792 117.396 174.557 117.446 174.345 117.552L171.388 118.754" fill="#AA6550"/>
<path d="M172.757 121.376C173.292 121.412 173.829 121.347 174.34 121.183C174.856 120.98 175.281 120.593 175.531 120.098C175.673 119.796 175.749 119.468 175.755 119.135C175.761 118.802 175.697 118.472 175.567 118.166C175.501 118.007 175.416 117.857 175.313 117.719C175.192 117.597 175.217 117.603 175.09 117.623C174.928 117.676 174.769 117.739 174.614 117.81L174.106 118.008C173.472 118.262 172.899 118.485 172.417 118.668C171.449 119.028 170.835 119.22 170.805 119.175C170.774 119.129 171.337 118.794 172.27 118.343C172.737 118.12 173.285 117.836 173.919 117.577L174.395 117.364C174.572 117.28 174.753 117.206 174.938 117.141C175.08 117.093 175.233 117.093 175.374 117.141C175.505 117.195 175.617 117.285 175.699 117.4C175.835 117.57 175.948 117.757 176.034 117.958C176.195 118.334 176.27 118.742 176.254 119.152C176.238 119.562 176.132 119.963 175.942 120.326C175.782 120.619 175.565 120.878 175.304 121.086C175.043 121.294 174.742 121.448 174.421 121.538C174.006 121.674 173.562 121.692 173.138 121.589C172.884 121.508 172.747 121.406 172.757 121.376Z" fill="#263238"/>
<path d="M151.36 199.252L137.788 157.583L136.561 150.589C136.561 150.589 132.868 134.988 132.701 133.447C132.513 131.661 131.606 131.327 130.956 131.418C129.942 131.6 129.349 132.939 129.465 134.461C129.506 134.968 130.48 143.336 130.48 143.336C129.909 142.6 129.287 141.906 128.618 141.257C127.213 139.827 124.216 139.228 121.249 139.659C118.282 140.09 117.486 140.456 117.598 141.617C117.628 141.835 117.707 142.044 117.829 142.227C117.951 142.411 118.113 142.564 118.302 142.677C118.898 143.078 119.621 143.244 120.331 143.144C125.093 142.54 126.651 144.954 126.651 144.954L126.813 145.867C126.813 145.867 123.689 144.112 121.477 145.233C121.15 145.399 120.857 145.626 120.615 145.903C119.965 145.976 119.345 146.218 118.818 146.604C118.29 146.991 117.872 147.508 117.606 148.106C117.34 148.704 117.235 149.36 117.301 150.011C117.367 150.662 117.602 151.284 117.983 151.816C118.348 152.323 118.997 152.78 119.581 152.592C119.89 152.46 120.162 152.252 120.372 151.989C120.491 151.857 120.621 151.736 120.762 151.629L121.569 154.129C121.569 154.129 123.689 159.652 124.338 162.157L130.931 204.116C131.149 205.497 131.64 206.822 132.375 208.012C133.111 209.202 134.075 210.234 135.214 211.048C136.352 211.861 137.64 212.44 139.005 212.75C140.369 213.06 141.781 213.095 143.159 212.854C144.641 212.593 146.05 212.018 147.291 211.166C148.532 210.315 149.577 209.208 150.354 207.919C151.131 206.63 151.623 205.189 151.796 203.694C151.97 202.199 151.821 200.684 151.36 199.252Z" fill="#B78876"/>
<path d="M136.353 157.157C135.506 157.491 134.537 156.944 133.979 156.224C133.421 155.503 133.132 154.606 132.63 153.845C131.109 151.563 127.995 150.736 126.605 148.388C126.407 148.058 126.27 147.597 126.549 147.338C126.828 147.079 127.224 147.221 127.564 147.338L135.901 150.842" fill="#B78876"/>
<path d="M135.886 150.863C135.619 150.67 135.33 150.511 135.024 150.391C134.456 150.117 133.624 149.742 132.594 149.28L128.973 147.698L127.918 147.247C127.521 146.998 127.042 146.916 126.584 147.018C126.445 147.081 126.328 147.184 126.248 147.314C126.168 147.445 126.13 147.596 126.138 147.749C126.151 147.998 126.223 148.241 126.346 148.459C126.573 148.842 126.842 149.199 127.147 149.524C128.39 150.822 129.891 151.552 131.017 152.481C131.562 152.895 132.041 153.389 132.437 153.946C132.797 154.454 133.046 155.037 133.33 155.534C133.519 155.958 133.799 156.335 134.149 156.64C134.5 156.945 134.912 157.17 135.358 157.299C136.028 157.426 136.373 157.167 136.342 157.157C136.031 157.198 135.714 157.181 135.409 157.106C135.01 156.954 134.647 156.72 134.343 156.419C134.039 156.119 133.801 155.759 133.644 155.361C133.385 154.854 133.137 154.291 132.782 153.708C132.376 153.104 131.878 152.566 131.306 152.115C130.15 151.137 128.659 150.376 127.518 149.169C127.239 148.878 126.994 148.556 126.787 148.21C126.6 147.886 126.584 147.536 126.787 147.48C126.99 147.424 127.376 147.546 127.731 147.698L128.785 148.134L132.452 149.62C133.502 150.031 134.354 150.361 134.943 150.579C135.242 150.717 135.56 150.812 135.886 150.863Z" fill="#AA6550"/>
<path d="M126.924 145.938C126.81 145.371 126.564 144.839 126.204 144.386C125.792 143.926 125.243 143.611 124.637 143.489C123.882 143.342 123.108 143.315 122.345 143.407C121.555 143.503 120.758 143.518 119.966 143.453C119.3 143.39 118.662 143.154 118.115 142.768C117.931 142.629 117.781 142.45 117.676 142.244C117.572 142.039 117.515 141.812 117.511 141.582C117.5 141.417 117.539 141.252 117.623 141.11C117.653 141.11 117.623 141.282 117.623 141.576C117.646 141.78 117.713 141.977 117.82 142.152C117.927 142.328 118.071 142.477 118.242 142.591C118.765 142.922 119.363 143.118 119.981 143.159C120.755 143.205 121.53 143.179 122.299 143.083C123.098 142.989 123.907 143.03 124.693 143.204C125.352 143.355 125.942 143.723 126.367 144.249C126.644 144.602 126.828 145.019 126.904 145.461C126.951 145.616 126.958 145.78 126.924 145.938Z" fill="#AA6550"/>
<path d="M129.43 133.893C129.544 134.439 129.612 134.994 129.633 135.551C129.739 136.692 129.871 138.052 130.018 139.553C130.165 141.054 130.338 142.408 130.464 143.549C130.562 144.098 130.611 144.655 130.611 145.213C130.423 144.686 130.296 144.14 130.231 143.585C130.054 142.57 129.851 141.155 129.688 139.588C129.526 138.021 129.43 136.596 129.394 135.566C129.344 135.009 129.356 134.448 129.43 133.893Z" fill="#AA6550"/>
<path d="M125.24 148.023C125.067 147.997 124.896 147.951 124.733 147.886C124.525 147.802 124.302 147.766 124.078 147.779C123.855 147.792 123.637 147.855 123.44 147.962C123.321 148.043 123.226 148.154 123.163 148.284C123.101 148.414 123.074 148.558 123.085 148.702C123.103 149.066 123.168 149.425 123.278 149.772C123.423 150.207 123.403 150.68 123.222 151.101C123.099 151.32 122.926 151.507 122.717 151.646C122.508 151.785 122.269 151.873 122.02 151.902C121.775 151.928 121.527 151.903 121.292 151.829C121.056 151.756 120.838 151.636 120.651 151.476C120.302 151.192 120.044 150.811 119.91 150.381C119.74 149.681 119.673 148.96 119.712 148.241C119.721 147.755 119.815 147.274 119.991 146.821C120.048 146.648 120.149 146.494 120.285 146.374C120.285 146.374 120.204 146.547 120.113 146.881C119.994 147.333 119.939 147.799 119.951 148.266C119.945 148.951 120.03 149.633 120.204 150.295C120.318 150.674 120.553 151.005 120.874 151.237C121.195 151.469 121.584 151.589 121.979 151.578C122.175 151.554 122.363 151.485 122.529 151.377C122.694 151.269 122.832 151.124 122.933 150.954C123.08 150.603 123.096 150.21 122.978 149.848C122.873 149.474 122.817 149.087 122.811 148.697C122.807 148.512 122.852 148.328 122.941 148.166C123.03 148.003 123.16 147.866 123.318 147.769C123.544 147.654 123.793 147.594 124.046 147.594C124.299 147.594 124.549 147.654 124.774 147.769C125.093 147.901 125.271 148.002 125.24 148.023Z" fill="#AA6550"/>
<path d="M120.767 151.208C120.767 151.208 120.848 151.375 120.767 151.684C120.705 151.902 120.593 152.102 120.441 152.269C120.289 152.436 120.1 152.566 119.89 152.648C119.569 152.756 119.227 152.778 118.895 152.713C118.563 152.648 118.254 152.498 117.998 152.278C117.39 151.736 117.014 150.98 116.948 150.168C116.861 149.368 117.026 148.562 117.42 147.86C117.744 147.294 118.216 146.826 118.784 146.506C119.158 146.289 119.569 146.143 119.996 146.075C120.151 146.038 120.313 146.038 120.468 146.075C119.921 146.214 119.395 146.427 118.906 146.709C118.338 147.068 117.883 147.581 117.595 148.187C117.307 148.794 117.197 149.471 117.278 150.137C117.335 150.867 117.663 151.548 118.196 152.049C118.411 152.244 118.671 152.38 118.953 152.447C119.235 152.513 119.53 152.507 119.809 152.43C119.996 152.367 120.167 152.264 120.311 152.13C120.456 151.995 120.569 151.831 120.646 151.649C120.752 151.38 120.737 151.208 120.767 151.208Z" fill="#AA6550"/>
<path d="M127.122 156.173C127.373 156.066 127.652 156.039 127.919 156.097C128.616 156.169 129.268 156.475 129.77 156.964L129.501 157.076C129.496 156.696 129.518 156.316 129.567 155.939C129.815 153.738 130.85 152.212 130.911 152.268C130.972 152.323 130.135 153.86 129.897 155.98C129.852 156.344 129.827 156.709 129.82 157.076V157.456L129.557 157.187C129.102 156.735 128.526 156.425 127.898 156.295C127.416 156.208 127.122 156.208 127.122 156.173Z" fill="#AA6550"/>
<path d="M125.433 141.972C125.514 142.002 125.256 142.636 124.556 143.027C123.856 143.417 123.186 143.326 123.202 143.24C123.217 143.154 123.79 143.088 124.394 142.733C124.997 142.378 125.347 141.921 125.433 141.972Z" fill="#AA6550"/>
<path d="M162.112 141.967C162.112 141.967 161.924 142.17 161.605 142.56C161.098 143.11 160.699 143.75 160.428 144.447C160.347 144.684 160.303 144.932 160.296 145.182C160.297 145.45 160.363 145.713 160.489 145.948C160.835 146.469 161.351 146.853 161.949 147.034C163.45 147.504 165.018 147.725 166.59 147.688C167.462 147.688 168.406 147.739 169.369 147.794L170.845 147.967C171.352 148.023 171.859 148.16 172.367 148.251C174.568 148.7 176.645 149.624 178.453 150.959C179.438 151.694 180.295 152.587 180.989 153.601C181.163 153.867 181.324 154.141 181.47 154.423C181.617 154.722 181.719 155.011 181.841 155.306C182.067 155.906 182.236 156.525 182.348 157.157C182.858 159.815 182.437 162.568 181.156 164.952C179.832 167.318 177.706 169.133 175.161 170.069C173.966 170.518 172.705 170.768 171.428 170.81C170.211 170.817 168.998 170.67 167.817 170.374C166.728 170.093 165.619 169.895 164.5 169.78C163.467 169.68 162.425 169.865 161.488 170.313C160.627 170.775 159.861 171.396 159.231 172.144C158.597 172.854 158.059 173.599 157.527 174.304C156.477 175.719 155.361 176.967 154.063 177.621C153.468 177.94 152.806 178.114 152.131 178.128C151.567 178.135 151.007 178.031 150.482 177.824C150.064 177.657 149.681 177.415 149.351 177.109C149.115 176.879 148.922 176.607 148.783 176.307C148.665 176.064 148.604 175.797 148.606 175.526C148.641 175.526 148.651 175.805 148.88 176.262C149.03 176.536 149.225 176.783 149.458 176.992C149.782 177.269 150.153 177.486 150.553 177.631C151.101 177.834 151.687 177.915 152.269 177.868C152.852 177.822 153.417 177.649 153.926 177.362C155.143 176.718 156.203 175.506 157.228 174.086C157.735 173.376 158.283 172.615 158.927 171.875C159.578 171.073 160.377 170.403 161.28 169.902C162.285 169.408 163.405 169.198 164.521 169.293C165.665 169.404 166.799 169.599 167.914 169.877C169.055 170.159 170.227 170.297 171.403 170.287C172.617 170.238 173.816 169.995 174.953 169.567C177.378 168.667 179.404 166.934 180.669 164.678C181.891 162.4 182.296 159.773 181.815 157.233C181.698 156.629 181.528 156.037 181.308 155.463C181.186 155.179 181.085 154.885 180.958 154.631C180.825 154.365 180.676 154.108 180.512 153.86C179.857 152.89 179.048 152.034 178.118 151.324C176.369 150.02 174.358 149.11 172.225 148.657C171.717 148.56 171.21 148.423 170.739 148.367L169.288 148.18C168.335 148.114 167.422 148.073 166.534 148.043C164.924 148.057 163.323 147.801 161.797 147.287C161.162 147.067 160.621 146.635 160.266 146.065C160.126 145.79 160.058 145.485 160.068 145.177C160.082 144.905 160.138 144.636 160.235 144.381C160.532 143.668 160.972 143.025 161.528 142.489C161.697 142.289 161.894 142.113 162.112 141.967Z" fill="#FAFAFA"/>
<path d="M200.692 175.785C200.553 175.419 200.471 175.035 200.449 174.644C200.336 173.58 200.406 172.504 200.656 171.464C201.028 169.914 201.698 168.452 202.629 167.158C203.762 165.57 205.211 164.234 206.885 163.233C208.568 162.266 210.397 161.581 212.301 161.204C213.845 160.885 215.416 160.724 216.992 160.722C218.05 160.71 219.106 160.763 220.157 160.879C220.545 160.895 220.929 160.963 221.298 161.082C221.298 161.173 219.65 160.991 216.997 161.082C215.451 161.139 213.913 161.336 212.403 161.67C210.558 162.071 208.788 162.756 207.153 163.699C205.539 164.665 204.134 165.942 203.02 167.457C202.105 168.691 201.428 170.084 201.022 171.565C200.748 172.566 200.623 173.602 200.651 174.639C200.694 175.019 200.707 175.402 200.692 175.785Z" fill="#FAFAFA"/>
<path d="M228.404 184.61C228.249 184.935 228.048 185.236 227.805 185.502C227.202 186.267 226.522 186.969 225.777 187.597C224.666 188.538 223.437 189.329 222.12 189.95C218.872 191.512 215.199 191.956 211.672 191.213C210.245 190.923 208.862 190.445 207.559 189.793C206.682 189.362 205.852 188.844 205.079 188.246C204.78 188.047 204.513 187.802 204.288 187.521C204.349 187.44 205.505 188.449 207.721 189.458C210.597 190.793 213.788 191.299 216.936 190.919C220.084 190.54 223.063 189.289 225.538 187.308C227.44 185.792 228.323 184.534 228.404 184.61Z" fill="#FAFAFA"/>
<path d="M202.929 182.977C202.782 183.058 202.628 183.122 202.467 183.169C202.032 183.346 201.637 183.608 201.306 183.94C200.797 184.481 200.401 185.117 200.139 185.812C199.785 186.739 199.511 187.694 199.318 188.667C199.109 189.865 198.835 191.05 198.496 192.217C198.283 192.882 197.988 193.517 197.619 194.109C197.21 194.731 196.711 195.288 196.138 195.762C194.901 196.747 193.475 197.467 191.948 197.877C190.386 198.344 188.733 198.598 187.07 198.922C183.939 199.438 180.972 200.674 178.402 202.533C177.302 203.358 176.328 204.339 175.511 205.444C174.815 206.42 174.261 207.489 173.863 208.619C173.277 210.263 173.093 212.023 173.325 213.752C173.508 214.974 173.787 215.613 173.731 215.633C173.641 215.491 173.57 215.337 173.518 215.177C173.44 214.989 173.373 214.796 173.32 214.599C173.238 214.332 173.172 214.061 173.122 213.787C172.805 212.021 172.937 210.204 173.508 208.503C173.894 207.325 174.447 206.21 175.151 205.191C175.981 204.037 176.975 203.012 178.103 202.148C180.72 200.217 183.759 198.934 186.968 198.405C188.647 198.075 190.285 197.827 191.801 197.39C193.265 197.006 194.635 196.328 195.828 195.397C196.368 194.962 196.84 194.45 197.228 193.876C197.583 193.321 197.869 192.725 198.08 192.101C198.432 190.945 198.723 189.772 198.952 188.586C199.167 187.594 199.471 186.623 199.86 185.685C200.158 184.967 200.602 184.319 201.164 183.783C201.523 183.446 201.955 183.198 202.427 183.058C202.588 183.003 202.758 182.975 202.929 182.977Z" fill="#FAFAFA"/>
<path d="M189.342 180.862C189.517 181.18 189.608 181.538 189.605 181.902C189.656 182.901 189.37 183.888 188.794 184.706C188.406 185.283 187.884 185.758 187.272 186.091C186.928 186.279 186.557 186.414 186.172 186.491C185.764 186.567 185.347 186.584 184.934 186.542C184.047 186.446 183.205 186.105 182.5 185.558C181.726 184.973 181.172 184.144 180.928 183.205C180.772 182.593 180.764 181.954 180.902 181.339C181.052 180.754 181.329 180.211 181.714 179.746C182.042 179.306 182.415 178.9 182.825 178.534C183.022 178.352 183.238 178.19 183.469 178.052C183.706 177.894 183.98 177.798 184.265 177.773L184.331 178.225L184.082 178.285L183.955 177.849C184.878 177.587 185.861 177.641 186.75 178.001C187.428 178.261 188.033 178.681 188.515 179.224C188.824 179.566 189.068 179.961 189.235 180.39C189.342 180.689 189.367 180.857 189.347 180.862C189.071 180.336 188.731 179.847 188.332 179.406C187.852 178.932 187.271 178.571 186.633 178.351C185.818 178.055 184.928 178.032 184.098 178.285L183.971 177.849L184.219 177.778L184.29 178.235C183.855 178.339 183.46 178.568 183.154 178.894C182.78 179.248 182.441 179.637 182.14 180.055C181.788 180.469 181.542 180.963 181.423 181.493C181.305 182.023 181.318 182.574 181.46 183.098C181.679 183.922 182.161 184.651 182.835 185.173C183.464 185.664 184.214 185.978 185.005 186.081C185.372 186.123 185.742 186.115 186.106 186.055C186.448 185.992 186.779 185.881 187.09 185.726C187.653 185.437 188.141 185.02 188.515 184.508C189.079 183.763 189.397 182.861 189.423 181.927C189.408 181.242 189.291 180.877 189.342 180.862Z" fill="#FAFAFA"/>
<path d="M156.614 164.323C156.623 164.368 156.623 164.415 156.614 164.46C156.614 164.561 156.614 164.693 156.614 164.856C156.614 165.226 156.568 165.738 156.538 166.377C156.457 167.706 156.381 169.628 156.274 172.002C156.076 176.754 155.879 183.317 155.726 190.574C155.574 197.832 155.478 204.4 155.407 209.152C155.371 211.515 155.341 213.432 155.321 214.786C155.321 215.431 155.295 215.943 155.29 216.308C155.29 216.47 155.29 216.602 155.29 216.709C155.297 216.754 155.297 216.8 155.29 216.846C155.282 216.8 155.282 216.754 155.29 216.709C155.29 216.602 155.29 216.47 155.29 216.308C155.29 215.938 155.29 215.425 155.29 214.786V209.157C155.29 204.4 155.376 197.832 155.534 190.569C155.691 183.306 155.909 176.749 156.157 171.997C156.289 169.623 156.396 167.701 156.507 166.377C156.558 165.728 156.599 165.216 156.629 164.856C156.629 164.693 156.66 164.561 156.67 164.455C156.646 164.413 156.627 164.369 156.614 164.323Z" fill="#263238"/>
<g opacity="0.2">
<path opacity="0.2" d="M146.922 211.454C149.752 212.808 153.449 210.207 154.895 207.427C154.895 207.427 155.65 201.291 155.549 198.156C155.351 192.354 155.777 186.608 155.579 180.806C155.135 184.28 153.698 187.552 151.441 190.229C150.817 190.965 150.117 191.695 149.884 192.628C149.468 194.302 150.746 197.309 151.568 198.826C154.103 203.461 148.575 211.505 147.104 211.338" fill="black"/>
</g>
<g opacity="0.2">
<path opacity="0.2" d="M199.886 173.594C200.809 185.158 201.735 196.723 202.665 208.29C202.692 209.386 202.898 210.47 203.274 211.5C203.466 212.014 203.778 212.476 204.184 212.846C204.589 213.216 205.077 213.485 205.607 213.63C207.25 213.965 208.847 212.55 209.309 210.937C209.77 209.324 209.405 207.605 209 205.977C208.31 203.203 207.534 200.454 206.753 197.705C204.491 189.725 202.227 181.748 199.962 173.772" fill="black"/>
</g>
<path d="M168.096 232.826C168.446 232.256 168.708 231.635 168.872 230.985C169.156 229.733 168.979 227.795 168.005 225.701C167.528 224.651 166.854 223.56 166.174 222.364C165.397 221.093 164.819 219.711 164.46 218.266C164.157 216.626 164.279 214.935 164.815 213.356C165.322 211.723 166.057 210.136 166.651 208.472C167.842 205.362 167.931 201.938 166.904 198.77C166.462 197.398 165.814 196.102 164.982 194.926C164.248 193.904 163.387 192.978 162.421 192.172C161.007 191.006 159.393 190.106 157.659 189.514C156.426 189.103 155.706 189.007 155.716 188.946C155.887 188.936 156.057 188.952 156.223 188.992C156.723 189.064 157.216 189.174 157.699 189.321C159.492 189.84 161.168 190.701 162.634 191.857C163.646 192.664 164.548 193.6 165.317 194.642C166.191 195.847 166.875 197.18 167.346 198.592C168.433 201.862 168.354 205.407 167.122 208.624C166.514 210.318 165.773 211.896 165.286 213.483C164.767 214.978 164.638 216.58 164.911 218.139C165.245 219.543 165.792 220.887 166.534 222.125C167.188 223.327 167.853 224.433 168.324 225.523C169.278 227.699 169.41 229.723 169.045 231.011C168.909 231.503 168.699 231.972 168.421 232.4C168.233 232.705 168.111 232.837 168.096 232.826Z" fill="#FAFAFA"/>
<path d="M215.709 149.392C215.611 149.761 215.439 150.106 215.202 150.406C214.625 151.265 213.876 151.994 213.001 152.547C211.697 153.369 210.212 153.86 208.675 153.977C206.806 154.103 204.93 153.864 203.152 153.272C201.34 152.745 199.685 151.784 198.329 150.472C197.746 149.883 197.271 149.196 196.924 148.444C196.63 147.785 196.445 147.082 196.376 146.364C196.26 145.324 196.458 144.273 196.944 143.346C197.018 143.203 197.103 143.066 197.198 142.936C197.262 142.835 197.337 142.742 197.421 142.657C197.548 142.52 197.624 142.449 197.639 142.464C197.654 142.479 197.411 142.799 197.132 143.438C196.746 144.348 196.616 145.345 196.757 146.324C196.843 146.995 197.034 147.649 197.325 148.261C197.67 148.956 198.129 149.589 198.684 150.132C199.996 151.366 201.583 152.271 203.314 152.77C205.03 153.344 206.838 153.59 208.645 153.495C210.113 153.409 211.54 152.976 212.808 152.232C213.664 151.728 214.42 151.071 215.04 150.295C215.247 149.982 215.471 149.681 215.709 149.392Z" fill="#FAFAFA"/>
<path d="M208.766 203.948C208.766 203.948 208.741 203.903 208.71 203.806C208.68 203.71 208.634 203.558 208.579 203.38C208.467 202.99 208.305 202.442 208.097 201.742L206.372 195.691C204.932 190.564 202.954 183.519 200.793 175.709C199.708 171.804 198.679 168.101 197.75 164.698C197.282 163.098 196.921 161.468 196.67 159.819C196.457 158.375 196.457 156.907 196.67 155.463C196.973 153.351 197.985 151.405 199.541 149.945C199.973 149.566 200.452 149.244 200.966 148.986L201.377 148.814C201.421 148.789 201.469 148.772 201.519 148.763C200.825 149.089 200.181 149.512 199.607 150.021C198.103 151.485 197.135 153.413 196.858 155.493C196.663 156.92 196.679 158.367 196.903 159.789C197.161 161.426 197.527 163.044 197.999 164.632C198.942 168.02 199.982 171.733 201.072 175.638C203.228 183.443 205.18 190.508 206.595 195.641C207.29 198.177 207.848 200.261 208.244 201.727C208.426 202.432 208.573 202.99 208.675 203.385C208.721 203.563 208.756 203.705 208.781 203.816C208.782 203.861 208.777 203.905 208.766 203.948Z" fill="#263238"/>
<path d="M188.109 91.6354C188.151 91.2749 188.151 90.9107 188.109 90.5501C187.955 89.5666 187.46 88.6687 186.71 88.0143C185.581 87.0607 184.126 86.5824 182.652 86.6804C180.994 86.6804 179.229 87.2383 177.403 87.852C176.49 88.1512 175.582 88.4403 174.69 88.6381C173.828 88.8285 172.95 88.9355 172.068 88.9576C170.572 88.9966 169.08 88.8015 167.645 88.3794C166.683 88.0898 165.756 87.6952 164.881 87.2028C164.642 87.0741 164.41 86.9319 164.186 86.7768C164.103 86.7288 164.027 86.6709 163.958 86.6043C163.958 86.6043 164.303 86.797 164.932 87.1115C165.816 87.5633 166.744 87.9252 167.701 88.1918C169.119 88.5823 170.588 88.7533 172.058 88.6989C172.924 88.6699 173.787 88.5613 174.634 88.3743C175.511 88.1766 176.404 87.8672 177.322 87.5882C179.143 86.9746 180.943 86.4217 182.647 86.4217C184.172 86.3382 185.668 86.8553 186.816 87.8621C187.58 88.5472 188.07 89.4859 188.196 90.5045C188.256 90.883 188.226 91.2704 188.109 91.6354Z" fill="#455A64"/>
<path d="M195.088 106.795C195.088 106.795 195.037 106.734 194.966 106.607C194.895 106.48 194.804 106.288 194.687 106.034C194.375 105.318 194.137 104.572 193.977 103.808C193.734 102.668 193.655 101.5 193.744 100.338C193.914 98.9319 194.181 97.5388 194.545 96.1695C194.898 94.8195 194.898 93.4014 194.545 92.0513C194.377 91.4729 194.084 90.9381 193.688 90.4842C193.335 90.1015 192.892 89.8122 192.4 89.6423C191.682 89.37 190.886 89.39 190.183 89.6981C189.939 89.834 189.709 89.9955 189.499 90.1799C189.659 89.9368 189.879 89.7394 190.138 89.6068C190.496 89.4289 190.886 89.3247 191.285 89.3003C191.684 89.2759 192.084 89.3318 192.461 89.4647C192.989 89.6352 193.467 89.935 193.85 90.3371C194.274 90.8098 194.591 91.3686 194.778 91.9752C195.147 93.368 195.147 94.8326 194.778 96.2253C194.417 97.584 194.144 98.9647 193.962 100.359C193.866 101.497 193.924 102.644 194.134 103.767C194.277 104.526 194.486 105.271 194.758 105.993C194.976 106.506 195.108 106.785 195.088 106.795Z" fill="#455A64"/>
<path d="M188.971 90.9102C188.96 90.7904 188.96 90.6699 188.971 90.5501C188.971 90.2914 188.971 89.9516 189.012 89.5358C189.068 88.2791 188.928 87.0214 188.596 85.8081C188.347 84.9838 187.941 84.2156 187.399 83.5461C186.786 82.7756 185.945 82.2197 184.995 81.9586C183.933 81.7122 182.824 81.7578 181.785 82.0905C180.66 82.4452 179.582 82.9339 178.574 83.5461C177.552 84.1632 176.488 84.7089 175.389 85.1792C174.342 85.588 173.232 85.8111 172.108 85.8385C171.095 85.8641 170.083 85.7411 169.106 85.4733C168.259 85.2274 167.442 84.8871 166.671 84.459C165.559 83.8311 164.579 82.9941 163.785 81.9941C163.567 81.7264 163.37 81.4414 163.197 81.1421C163.129 81.0434 163.071 80.938 163.025 80.8276C163.108 80.9141 163.181 81.0093 163.243 81.1117C163.43 81.3979 163.636 81.6708 163.861 81.9282C164.675 82.8854 165.657 83.6863 166.757 84.2916C167.521 84.699 168.327 85.0205 169.161 85.2502C170.121 85.5019 171.111 85.6146 172.103 85.5849C173.196 85.552 174.275 85.3306 175.293 84.9307C176.378 84.4596 177.431 83.9157 178.443 83.3026C179.47 82.6837 180.569 82.1899 181.714 81.8318C182.797 81.4916 183.951 81.4495 185.056 81.7101C186.052 81.9896 186.932 82.5816 187.567 83.399C188.122 84.0933 188.532 84.8917 188.774 85.7472C189.099 86.9785 189.214 88.256 189.113 89.5256C189.088 89.977 189.053 90.3219 189.022 90.54C189.021 90.665 189.004 90.7894 188.971 90.9102Z" fill="#455A64"/>
<path d="M175.577 217.728L213.518 212.073L212.91 208.695H233.298L233.891 213.889C234.326 216.146 234.26 218.471 233.697 220.7C233.134 222.928 232.087 225.006 230.633 226.785C229.178 228.565 227.349 230.003 225.277 230.998C223.205 231.993 220.939 232.52 218.641 232.542L174.406 232.035L175.577 217.728Z" fill="#B78876"/>
<path d="M178.316 218.382C178.113 218.448 175.557 217.302 173.269 216.242C170.841 215.113 168.174 214.591 165.499 214.72L154.955 215.258C154.955 215.258 155.605 216.998 156.725 217.616C157.846 218.235 164.399 218.367 164.399 218.367L164.059 218.712C162.679 220.135 160.796 220.959 158.815 221.009L157.801 221.035C157.053 220.975 156.314 220.831 155.6 220.604L152.998 219.554C152.212 219.199 151.38 219.255 151.035 220.061C150.726 220.776 150.954 221.765 153.104 222.845C154.301 223.449 158.754 224.991 158.754 224.991C158.783 225.623 158.87 226.251 159.013 226.867C159.206 227.516 160.955 228.16 160.955 228.16C161.409 229.124 161.928 230.056 162.507 230.95C162.71 231.178 164.297 231.67 165.981 232.147C168.701 232.912 171.582 232.889 174.289 232.081L178.311 230.884V218.646" fill="#B78876"/>
<path d="M163.887 226.375C162.029 226.327 160.208 225.847 158.567 224.975C158.597 224.904 159.748 225.351 161.214 225.731C162.68 226.112 163.897 226.299 163.887 226.375Z" fill="#AA6550"/>
<path d="M163.517 228.845C163.023 228.952 162.509 228.915 162.036 228.739C161.538 228.648 161.076 228.42 160.702 228.079C161.179 228.181 161.649 228.316 162.107 228.485C162.585 228.571 163.056 228.692 163.517 228.845Z" fill="#AA6550"/>
<path d="M223.525 220.918C223.474 220.918 223.226 220.183 222.617 219.072C222.26 218.422 221.853 217.802 221.4 217.216C220.845 216.5 220.229 215.833 219.559 215.223C218.879 214.623 218.149 214.082 217.378 213.605C216.747 213.217 216.088 212.878 215.405 212.59C214.234 212.109 213.458 211.936 213.473 211.885C213.661 211.901 213.846 211.938 214.026 211.997C214.239 212.039 214.449 212.095 214.655 212.164C214.898 212.24 215.162 212.316 215.476 212.438C216.179 212.703 216.858 213.029 217.505 213.412C218.297 213.885 219.044 214.43 219.736 215.04C220.416 215.66 221.038 216.339 221.598 217.069C222.046 217.672 222.442 218.314 222.779 218.986C222.937 219.265 223.038 219.539 223.145 219.772C223.234 219.97 223.31 220.173 223.373 220.381C223.446 220.553 223.497 220.733 223.525 220.918Z" fill="#AA6550"/>
<path d="M165.444 217.434C165.211 217.756 164.938 218.047 164.632 218.301C163.932 218.962 163.161 219.546 162.335 220.041C161.498 220.528 160.589 220.879 159.642 221.08C159.255 221.185 158.855 221.228 158.455 221.207C158.429 221.111 160.281 220.943 162.198 219.812C163.01 219.325 163.782 218.772 164.505 218.159C164.794 217.888 165.108 217.645 165.444 217.434Z" fill="#AA6550"/>
<path d="M56.3365 205.404C57.2392 205.404 49.4288 226.39 47.4153 231.751C47.1922 232.345 47.04 232.867 47.04 232.867L101.723 232.958L101.079 182.074C101.081 182.04 101.081 182.006 101.079 181.973L96.5144 145.578C96.4919 145.402 96.4178 145.236 96.3015 145.101C96.1851 144.967 96.0316 144.87 95.8602 144.822C93.6946 144.239 85.8892 142.226 79.9199 142.002C72.926 141.744 62.8029 143.133 62.8029 143.133C62.8029 143.133 53.7093 144.036 48.6883 145.862C48.4942 145.931 48.3301 146.066 48.2238 146.242C48.1175 146.419 48.0755 146.627 48.1051 146.831L56.3365 205.404Z" fill="#F2575D"/>
<path d="M81.5884 182.835C81.5187 183.064 81.427 183.287 81.3145 183.499C81.2028 183.756 81.0741 184.005 80.9291 184.245C80.7537 184.571 80.5607 184.888 80.3509 185.193C80.1048 185.571 79.8372 185.936 79.5496 186.283C79.2334 186.689 78.8947 187.077 78.5352 187.445C77.6998 188.287 76.7823 189.043 75.7965 189.702C74.7964 190.341 73.7365 190.881 72.6318 191.315C72.1246 191.492 71.6174 191.675 71.1559 191.791C70.7223 191.914 70.282 192.012 69.8373 192.085C69.4733 192.156 69.106 192.206 68.7367 192.238C68.4577 192.276 68.1764 192.295 67.8948 192.293C67.6571 192.32 67.4173 192.32 67.1797 192.293C67.1797 192.238 68.194 192.243 69.8018 191.918C70.2381 191.832 70.6698 191.724 71.095 191.594C71.5616 191.472 72.0384 191.284 72.5405 191.086C73.6246 190.648 74.6655 190.11 75.6494 189.479C76.6218 188.831 77.5303 188.092 78.3628 187.272C78.733 186.882 79.0982 186.522 79.3771 186.141C79.6684 185.805 79.941 185.453 80.1937 185.087C81.1471 183.753 81.5377 182.809 81.5884 182.835Z" fill="#263238"/>
<g opacity="0.2">
<path opacity="0.2" d="M48.8962 227.77C51.4589 228.82 54.2492 229.192 56.9973 228.848C59.7453 228.504 62.3582 227.457 64.583 225.807C66.5559 224.377 68.2093 222.506 70.3394 221.314C73.2911 219.67 76.8058 219.513 80.1785 219.285C84.6872 218.96 89.2365 218.408 93.4765 216.835C94.3611 216.577 95.1633 216.093 95.8044 215.431C96.3876 214.726 96.5854 213.615 96.0123 212.895C95.4392 212.174 94.3488 212.124 93.4105 212.154C79.2706 212.57 66.3479 213.701 52.5834 216.972" fill="black"/>
</g>
<path d="M64.1367 89.6473C68.5085 85.1944 75.406 82.547 81.1168 85.0828C84.9611 86.7666 87.568 90.3726 90.9406 92.8628C93.3953 94.6785 96.4282 96.0833 97.7164 98.8525C98.8525 101.292 98.3047 104.137 98.0309 106.815C97.757 109.493 97.9497 112.582 100.024 114.301C101.109 115.199 102.56 115.559 103.772 116.259C106.242 117.674 107.708 120.427 108.235 123.222C108.763 126.016 108.479 128.897 108.195 131.732L96.4231 133.974L94.4908 130.723L93.8264 135.82L78.8041 137.174L64.1367 89.6473Z" fill="#263238"/>
<path d="M62.1941 94.506V97.7773L61.266 146.876C61.1849 152.567 66.6319 157.41 72.7281 157.451C78.88 157.491 81.3905 152.886 81.568 147.12C81.7506 141.09 82.0752 134.74 82.0752 134.74C82.0752 134.74 89.8805 133.665 91.7723 123.582C92.7106 118.561 92.6852 110.289 92.4468 103.518C92.3964 102.074 92.0542 100.654 91.4408 99.345C90.8275 98.036 89.9556 96.8646 88.8776 95.9013C87.7997 94.9381 86.538 94.2028 85.1685 93.7399C83.799 93.277 82.35 93.0959 80.9087 93.2077L62.1941 94.506Z" fill="#FFBE9D"/>
<path d="M89.7283 110.025C89.723 110.364 89.5851 110.687 89.3442 110.925C89.1033 111.163 88.7787 111.297 88.4401 111.298C88.2744 111.307 88.1086 111.283 87.9525 111.227C87.7964 111.17 87.6531 111.083 87.5312 110.971C87.4092 110.858 87.311 110.723 87.2424 110.572C87.1738 110.421 87.1361 110.257 87.1316 110.091C87.1382 109.753 87.2763 109.43 87.5168 109.191C87.7572 108.953 88.0811 108.817 88.4198 108.813C88.5859 108.804 88.7521 108.829 88.9085 108.886C89.065 108.942 89.2085 109.029 89.3305 109.143C89.4525 109.256 89.5506 109.392 89.6189 109.544C89.6873 109.695 89.7245 109.859 89.7283 110.025Z" fill="#263238"/>
<path d="M90.4942 107.753C90.3268 107.921 89.3632 107.16 87.9584 107.129C86.5535 107.099 85.5138 107.763 85.3667 107.586C85.2957 107.51 85.4682 107.211 85.9246 106.896C86.5401 106.49 87.2674 106.288 88.004 106.318C88.7391 106.33 89.4506 106.579 90.0327 107.028C90.4384 107.368 90.5754 107.677 90.4942 107.753Z" fill="#263238"/>
<path d="M75.9436 110.025C75.937 110.364 75.7987 110.686 75.5581 110.924C75.3175 111.161 74.9937 111.296 74.6554 111.298C74.4897 111.307 74.3239 111.283 74.1678 111.227C74.0117 111.17 73.8685 111.083 73.7465 110.971C73.6246 110.858 73.5264 110.723 73.4577 110.572C73.3891 110.421 73.3514 110.257 73.3469 110.091C73.3535 109.753 73.4916 109.43 73.7321 109.191C73.9726 108.953 74.2964 108.817 74.6351 108.813C74.8012 108.804 74.9674 108.829 75.1239 108.886C75.2803 108.942 75.4238 109.029 75.5458 109.143C75.6678 109.256 75.7659 109.392 75.8343 109.544C75.9026 109.695 75.9398 109.859 75.9436 110.025Z" fill="#263238"/>
<path d="M76.7296 107.637C76.5622 107.799 75.5986 107.043 74.1937 107.008C72.7889 106.972 71.7492 107.647 71.6021 107.469C71.5311 107.393 71.7035 107.089 72.16 106.78C72.7757 106.374 73.5025 106.17 74.2394 106.196C74.9742 106.21 75.6852 106.459 76.2681 106.906C76.6738 107.251 76.8107 107.561 76.7296 107.637Z" fill="#263238"/>
<path d="M81.5225 118.171C81.5225 118.089 82.3948 117.963 83.8047 117.821C84.1648 117.795 84.5046 117.734 84.5706 117.491C84.6121 117.123 84.5395 116.751 84.3626 116.426C84.0532 115.548 83.7236 114.636 83.3787 113.672C82.0195 109.762 81.0457 106.572 81.2029 106.49C81.3602 106.409 82.5926 109.569 83.9518 113.484C84.2815 114.448 84.5959 115.366 84.8901 116.248C85.1058 116.684 85.158 117.182 85.0371 117.653C84.9821 117.778 84.899 117.889 84.7944 117.977C84.6898 118.065 84.5663 118.128 84.4336 118.16C84.2347 118.21 84.0299 118.232 83.825 118.226C82.4049 118.252 81.5275 118.231 81.5225 118.171Z" fill="#263238"/>
<path d="M82.0345 134.74C77.2575 134.682 72.5905 133.299 68.554 130.743C68.554 130.743 71.6528 137.798 81.8317 137.129L82.0345 134.74Z" fill="#EB996E"/>
<path d="M80.8376 121.508C80.5813 121.163 80.2415 120.889 79.8503 120.712C79.4591 120.534 79.0292 120.459 78.601 120.493C78.2914 120.513 77.9891 120.595 77.712 120.735C77.4348 120.874 77.1887 121.068 76.9882 121.305C76.7957 121.533 76.6774 121.815 76.6493 122.112C76.6212 122.409 76.6846 122.708 76.831 122.968C77.0509 123.224 77.3419 123.409 77.6669 123.499C77.9919 123.589 78.3364 123.581 78.6568 123.476C79.3223 123.259 79.939 122.914 80.4725 122.461C80.6345 122.354 80.7741 122.216 80.8833 122.055C80.9328 121.98 80.9592 121.892 80.9592 121.802C80.9592 121.712 80.9328 121.624 80.8833 121.548" fill="#EB996E"/>
<path d="M77.3788 119.007C77.607 119.007 77.5665 120.529 78.8344 121.635C80.1023 122.74 81.7303 122.624 81.7354 122.837C81.7354 122.933 81.3652 123.126 80.6805 123.121C79.7908 123.111 78.9334 122.786 78.2613 122.203C77.6145 121.645 77.2106 120.857 77.1354 120.007C77.0897 119.367 77.2723 118.997 77.3788 119.007Z" fill="#263238"/>
<path d="M77.176 103.564C77.0239 103.939 75.6545 103.721 73.9859 103.873C72.3173 104.026 70.9987 104.436 70.7907 104.092C70.6995 103.924 70.9378 103.584 71.4856 103.219C72.2129 102.788 73.0287 102.528 73.8713 102.459C74.7139 102.389 75.5612 102.512 76.3493 102.819C76.9427 103.077 77.2369 103.387 77.176 103.564Z" fill="#263238"/>
<path d="M90.545 104.928C90.2356 105.238 89.0742 104.873 87.6592 104.817C86.2442 104.761 85.0523 104.959 84.7835 104.619C84.6669 104.457 84.8647 104.142 85.3972 103.858C86.1293 103.501 86.9429 103.343 87.7556 103.402C88.5649 103.428 89.3526 103.67 90.0378 104.102C90.5247 104.441 90.6819 104.776 90.545 104.928Z" fill="#263238"/>
<path d="M51.7313 144.934C51.7313 144.934 35.4207 148.758 32.2559 164.206C30.8004 171.307 28.7666 212.119 38.271 218.474C50.5394 226.659 66.1653 219.214 66.1653 219.214L64.1366 199.475H53.9932L52.6289 177.849C53.0245 179.538 51.7313 144.934 51.7313 144.934Z" fill="#F2575D"/>
<path d="M109.752 212.864C112.951 212.536 115.904 210.998 118.007 208.565C120.111 206.132 121.205 202.987 121.066 199.774L114.402 171.459C114.402 171.459 110.081 147.165 96.4231 144.975L101.079 181.998L100.633 189.803C100.633 189.803 100.846 194.966 101.368 204.643L109.752 212.864Z" fill="#F2575D"/>
<path d="M111.516 195.149C110.693 195.179 109.872 195.269 109.062 195.418C107.105 195.815 105.312 196.79 103.914 198.217C102.516 199.643 101.578 201.456 101.221 203.421C101.088 204.236 101.016 205.06 101.003 205.886C100.95 205.667 100.924 205.442 100.927 205.216C100.9 204.604 100.937 203.99 101.038 203.385C101.363 201.367 102.308 199.5 103.742 198.044C105.176 196.588 107.029 195.615 109.042 195.26C109.645 195.149 110.259 195.098 110.872 195.108C111.088 195.095 111.304 195.109 111.516 195.149Z" fill="#263238"/>
<path d="M69.4366 88.5164C71.2725 90.9812 72.1448 92.8729 73.2454 97.26C73.7881 99.4053 72.0383 100.922 70.3038 102.235C70.1173 102.377 69.8982 102.469 69.6665 102.504C69.4349 102.539 69.1983 102.515 68.9785 102.434C68.7586 102.353 68.5627 102.218 68.4088 102.042C68.2548 101.865 68.1478 101.653 68.0976 101.424C68.0976 101.424 68.6961 108.144 66.2667 111.156C65.1307 112.571 65.08 114.382 65.3488 115.909C65.6536 117.461 66.4085 118.89 67.5195 120.017C70.3393 122.979 71.1204 127.812 69.1779 131.443C68.6151 132.336 68.0988 133.257 67.631 134.202C67.3945 134.767 67.2854 135.376 67.3115 135.987C67.3413 136.346 67.2338 136.703 67.0106 136.985C66.7875 137.268 66.4654 137.455 66.1095 137.509C57.7633 138.716 49.3068 138.97 40.9032 138.265C40.6142 138.241 40.3399 138.128 40.1188 137.941C39.8977 137.753 39.741 137.501 39.6708 137.22C39.0114 134.4 40.112 131.357 41.5169 128.821C43.0891 125.956 45.067 123.207 45.63 119.986C46.1372 116.943 45.3105 113.687 46.5277 110.857C48.0492 107.393 52.1066 105.755 54.1352 102.575C56.0574 99.5777 55.9002 95.6472 57.6195 92.5331C59.8308 88.5265 65.2625 86.6804 69.4518 88.5113" fill="#263238"/>
<path d="M69.903 92.2339C73.0931 93.8771 74.5689 97.7773 77.6677 99.5828C80.4876 101.226 84.0074 100.795 87.238 100.308C87.1214 99.5929 86.9997 98.8727 86.878 98.1576C87.1687 98.805 87.5742 99.3944 88.0749 99.8972C88.3292 100.145 88.646 100.32 88.9917 100.402C89.3374 100.484 89.6989 100.471 90.0376 100.364C91.123 99.9277 91.265 98.4366 90.9911 97.3208C90.4951 95.5048 89.5214 93.8551 88.1712 92.5433C85.7589 90.0949 82.5457 88.5968 79.1195 88.323C75.6933 88.0492 72.283 89.018 69.5125 91.0522" fill="#263238"/>
<path d="M99.811 164.43C99.8344 164.562 99.8446 164.696 99.8415 164.83C99.8415 165.114 99.8415 165.495 99.877 165.971C99.877 166.986 99.948 168.401 100.024 170.171C100.171 173.721 100.501 178.61 100.901 184.011C101.302 189.413 101.601 194.312 101.698 197.862C101.748 199.637 101.774 201.073 101.759 202.067C101.759 202.543 101.759 202.924 101.759 203.208C101.771 203.341 101.771 203.475 101.759 203.608C101.735 203.476 101.725 203.342 101.728 203.208C101.728 202.924 101.728 202.543 101.693 202.067C101.693 201.052 101.622 199.642 101.546 197.867C101.404 194.317 101.069 189.433 100.673 184.027C100.278 178.62 99.9683 173.731 99.8719 170.181C99.8212 168.406 99.8009 166.965 99.811 165.971C99.811 165.495 99.811 165.114 99.811 164.83C99.8022 164.697 99.8022 164.563 99.811 164.43Z" fill="#263238"/>
<path d="M54.0084 199.48C53.9853 199.387 53.9734 199.292 53.9729 199.196C53.9729 198.978 53.9425 198.689 53.9171 198.379C53.8765 197.634 53.8207 196.625 53.7548 195.387C53.6077 192.851 53.3846 189.367 53.1208 185.508C52.8571 181.648 52.6137 178.194 52.4362 175.633C52.355 174.4 52.2891 173.386 52.2384 172.641C52.2384 172.311 52.2079 172.042 52.1978 171.829C52.1857 171.733 52.1857 171.636 52.1978 171.54C52.2225 171.633 52.2378 171.728 52.2434 171.824C52.2434 172.037 52.2992 172.306 52.3347 172.636C52.4057 173.376 52.5021 174.385 52.6187 175.623C52.8419 178.159 53.1259 181.633 53.3795 185.492C53.6331 189.352 53.836 192.846 53.9323 195.377C53.978 196.645 54.0135 197.669 54.0185 198.374V199.191C54.0282 199.287 54.0248 199.385 54.0084 199.48Z" fill="#263238"/>
<path d="M54.0085 199.48C54.0085 199.526 53.5014 199.551 52.6798 199.82C51.6402 200.164 50.7165 200.79 50.0118 201.628C49.307 202.466 48.8489 203.484 48.6883 204.567C48.5615 205.399 48.6275 205.926 48.5818 205.931C48.5362 205.936 48.5311 205.804 48.5007 205.566C48.463 205.229 48.463 204.889 48.5007 204.552C48.6193 203.415 49.075 202.339 49.8092 201.463C50.5519 200.596 51.5321 199.965 52.629 199.647C52.9603 199.555 53.3002 199.497 53.6434 199.475C53.8767 199.45 54.0085 199.46 54.0085 199.48Z" fill="#263238"/>
<path d="M66.14 219.219C66.108 219.117 66.0875 219.011 66.0791 218.905C66.0487 218.671 66.0132 218.372 65.9625 218.002C65.8712 217.185 65.7444 216.064 65.5872 214.685C65.288 211.855 64.8822 207.995 64.4359 203.735C64.2888 202.254 64.1418 200.819 64.0099 199.49L64.1367 199.607L56.022 199.556L53.6636 199.521H53.0347C52.9623 199.529 52.8891 199.529 52.8167 199.521C52.8877 199.502 52.9612 199.493 53.0347 199.495H53.6636L56.022 199.46L64.1367 199.414H64.2483V199.531L64.6844 203.771C65.1003 208.036 65.4756 211.885 65.7545 214.736C65.8763 216.115 65.9777 217.241 66.0487 218.058C66.0791 218.428 66.0994 218.732 66.1197 218.965C66.1335 219.049 66.1403 219.134 66.14 219.219Z" fill="#263238"/>
<path d="M66.1399 219.219C66.0144 219.273 65.8857 219.319 65.7544 219.356L64.6437 219.711C63.6751 220.015 62.2702 220.441 60.5154 220.908C58.4614 221.469 56.3746 221.903 54.2671 222.206C51.6694 222.558 49.0295 222.432 46.4769 221.836C45.1541 221.551 43.85 221.185 42.5717 220.741C41.958 220.517 41.3545 220.294 40.7713 220.051C40.4822 219.929 40.1931 219.812 39.9192 219.665L39.5033 219.457L39.1128 219.209C38.1594 218.564 37.331 217.751 36.6683 216.81C36.0852 216 35.576 215.14 35.1468 214.239C34.5441 212.936 34.0356 211.592 33.6252 210.217C33.4731 209.71 33.3615 209.355 33.2956 209.096C33.2542 208.965 33.222 208.831 33.1992 208.695C33.2599 208.819 33.3091 208.948 33.3463 209.081L33.7216 210.186C34.1716 211.541 34.7069 212.866 35.3243 214.152C35.7567 215.04 36.2658 215.889 36.8458 216.688C37.5003 217.601 38.3148 218.388 39.2498 219.011L39.6251 219.25L40.0257 219.452C40.2895 219.594 40.5785 219.706 40.8676 219.828C41.4458 220.066 42.0443 220.289 42.6579 220.502C43.9263 220.942 45.2203 221.305 46.5327 221.588C49.0567 222.177 51.6659 222.309 54.2366 221.978C56.3364 221.686 58.4175 221.272 60.4697 220.741C62.2245 220.294 63.6345 219.894 64.6133 219.625L65.7392 219.315C65.8692 219.27 66.0034 219.238 66.1399 219.219Z" fill="#263238"/>
<path d="M57.5334 100.531C58.0206 99.3342 58.1394 98.019 57.8747 96.7541C57.61 95.4891 56.9737 94.332 56.0474 93.4308C55.0953 92.5606 53.9294 91.9585 52.6687 91.6859C51.408 91.4132 50.0975 91.4798 48.871 91.8789C47.7537 92.2152 46.7718 92.897 46.0663 93.8264C44.8238 95.5406 45.052 98.0664 46.3503 99.7552C47.0296 100.573 47.8754 101.236 48.8314 101.7C49.7873 102.164 50.8313 102.42 51.8937 102.448C54.0226 102.491 56.1338 102.054 58.071 101.17" fill="#263238"/>
<path d="M74.3967 180.968C77.9469 183.895 86.2949 190.823 86.2949 190.823L90.9659 189.991L76.8057 178.077C76.4388 177.77 75.9686 177.615 75.491 177.642C75.0133 177.669 74.564 177.878 74.2344 178.225C74.0555 178.411 73.917 178.632 73.8277 178.874C73.7384 179.116 73.7002 179.374 73.7154 179.632C73.7307 179.89 73.7991 180.141 73.9163 180.371C74.0335 180.601 74.1971 180.805 74.3967 180.968Z" fill="#455A64"/>
<path d="M74.0468 179.447L72.2108 177.788C72.0382 177.632 71.9328 177.414 71.9167 177.182C71.9006 176.949 71.9751 176.72 72.1246 176.541C72.2032 176.449 72.2994 176.374 72.4075 176.32C72.5156 176.266 72.6335 176.234 72.7541 176.227C72.8747 176.219 72.9956 176.236 73.1096 176.276C73.2237 176.316 73.3285 176.378 73.4179 176.46L75.1879 178.083L74.0468 179.447Z" fill="#455A64"/>
<path d="M79.4936 180.339C79.1827 180.857 78.7983 181.327 78.3525 181.734C77.9684 182.2 77.5211 182.61 77.0237 182.951C77.3352 182.433 77.7195 181.961 78.1648 181.552C78.5464 181.085 78.994 180.677 79.4936 180.339Z" fill="#263238"/>
<path d="M79.6258 186.172C79.1262 185.909 78.6524 185.6 78.2108 185.249C77.3689 184.64 76.2278 183.758 75.0258 182.713C74.4102 182.255 73.9015 181.668 73.5347 180.994C73.2751 180.403 73.2587 179.735 73.489 179.132C73.6429 178.733 73.9023 178.382 74.2397 178.118C74.478 177.941 74.6352 177.885 74.6403 177.9C74.6454 177.915 74.5135 178.001 74.3056 178.199C74.0108 178.478 73.7911 178.827 73.6665 179.214C73.4784 179.771 73.5111 180.379 73.7578 180.913C74.1239 181.545 74.6158 182.096 75.2033 182.53C76.3951 183.57 77.5109 184.473 78.3274 185.117C78.7817 185.441 79.2154 185.794 79.6258 186.172Z" fill="#263238"/>
<path d="M64.2937 201.057C67.6613 199.931 71.2318 200.692 74.5943 199.561C75.7488 199.258 76.8303 198.725 77.7743 197.994C78.8444 197.046 79.3871 195.651 80.2391 194.505C82.775 191.076 87.5373 190.366 91.7874 189.94C92.7729 189.782 93.7786 189.795 94.7594 189.981C95.2497 190.08 95.7062 190.303 96.0847 190.63C96.4632 190.957 96.7509 191.376 96.92 191.847C97.1938 192.806 96.5751 194.003 95.581 194.104C96.5142 194.145 97.1634 195.088 97.3358 196.006C97.5083 196.924 97.3358 197.867 97.4778 198.79C97.6503 200.089 98.3603 201.301 98.3197 202.609C98.264 204.4 96.7982 205.875 95.1246 206.565C93.4509 207.255 91.6403 207.346 89.8703 207.58C81.147 208.807 74.5538 213.752 66.1398 217.49" fill="#FFBE9D"/>
<path d="M97.4172 197.198C97.5029 197.338 97.6165 197.458 97.7509 197.553C97.8852 197.647 98.0375 197.712 98.1983 197.745C98.359 197.778 98.5248 197.777 98.6854 197.743C98.8459 197.709 98.9977 197.643 99.1314 197.548C99.3918 197.34 99.5908 197.066 99.7069 196.754C99.8231 196.442 99.8521 196.105 99.7907 195.778C99.658 195.123 99.3692 194.511 98.9488 193.992C98.2079 193.033 97.394 192.133 96.5144 191.299L93.8264 193.561L97.4172 197.198Z" fill="#FFBE9D"/>
<path d="M96.423 194.246C96.423 194.332 94.7697 194.195 92.7765 194.505C90.7833 194.814 89.2263 195.413 89.2263 195.336C89.5298 195.136 89.8614 194.983 90.2102 194.88C91.0336 194.588 91.8826 194.374 92.7461 194.241C93.6101 194.11 94.485 194.064 95.358 194.104C95.718 194.1 96.0768 194.147 96.423 194.246Z" fill="#EB996E"/>
<path d="M97.6097 199.531C97.6097 199.612 96.2251 199.328 94.516 199.379C92.8068 199.429 91.4476 199.764 91.4324 199.683C93.4231 198.978 95.5867 198.924 97.6097 199.531Z" fill="#EB996E"/>
<path d="M97.3258 197.969C97.2801 197.969 97.3258 197.573 97.2497 196.954C97.1522 196.151 96.873 195.381 96.4332 194.702C96.3276 194.539 96.2125 194.381 96.0883 194.231L96.0122 194.134L96.0934 194.053C96.3248 193.818 96.5064 193.539 96.6276 193.232C96.7487 192.926 96.8068 192.598 96.7983 192.268C96.7983 191.761 96.6462 191.477 96.6817 191.462C96.8629 191.688 96.9629 191.968 96.9657 192.258C97.0045 192.619 96.9628 192.984 96.8435 193.327C96.7243 193.67 96.5304 193.982 96.2759 194.241V194.063C96.4091 194.225 96.5327 194.395 96.6462 194.571C97.1094 195.284 97.3786 196.105 97.4272 196.954C97.4674 197.296 97.4328 197.642 97.3258 197.969Z" fill="#EB996E"/>
<path d="M97.4223 196.909L101.845 201.057L102.408 203.522L98.32 202.599C97.7316 200.52 97.3006 198.537 97.4223 196.909Z" fill="#455A64"/>
<path d="M91.4325 202.193C91.3412 202.356 67.5549 214.081 67.5549 214.081V216.617L91.8281 203.989L121.939 202.868V201.083L91.4325 202.193Z" fill="#F5F5F5"/>
<path d="M67.5549 216.967C67.7223 216.856 93.8162 214.502 93.8162 214.502L121.939 202.837L91.8281 203.974L67.5549 216.602V216.967Z" fill="#263238"/>
<path d="M92.5382 210.724C92.3303 209.355 93.6388 208.188 94.9727 207.818C96.3065 207.448 97.7317 207.6 99.0807 207.311C99.9368 207.075 100.774 206.777 101.586 206.418C105.745 204.826 110.309 204.739 114.773 204.679C115.032 205.283 115.072 205.959 114.887 206.59C114.702 207.222 114.303 207.769 113.758 208.137C114.127 209.228 114.078 210.417 113.621 211.475C113.161 212.522 112.532 213.486 111.76 214.33C111.177 215.102 110.426 215.732 109.564 216.171C108.662 216.502 107.704 216.65 106.744 216.607C103.752 216.668 100.546 216.673 98.0765 214.994C96.1544 213.686 94.8256 211.444 92.5991 210.785H93.1063" fill="#FFBE9D"/>
<path d="M112.47 209.066C112.284 209.108 112.093 209.126 111.902 209.121L110.34 209.172C109.021 209.202 107.201 209.223 105.192 209.233H102.352C101.927 209.239 101.504 209.176 101.099 209.045C100.738 208.918 100.422 208.687 100.191 208.381C100.095 208.254 100.024 208.11 99.9839 207.956C99.9438 207.801 99.935 207.641 99.9581 207.483C99.9961 207.248 100.106 207.03 100.273 206.859C100.335 206.786 100.413 206.728 100.5 206.689C100.588 206.651 100.684 206.633 100.78 206.636C100.606 206.696 100.45 206.797 100.323 206.93C100.161 207.115 100.071 207.353 100.071 207.6C100.071 207.846 100.161 208.084 100.323 208.269C100.538 208.535 100.825 208.732 101.15 208.837C101.535 208.95 101.936 209.001 102.337 208.989H105.172C107.201 208.989 109.001 208.989 110.32 208.989L111.882 209.02C112.079 209.009 112.277 209.024 112.47 209.066Z" fill="#EB996E"/>
<path d="M110.938 211.571C110.704 211.638 110.465 211.683 110.223 211.708C109.757 211.784 109.082 211.88 108.245 211.961C107.259 212.06 106.267 212.082 105.278 212.027C104.07 211.929 102.872 211.729 101.698 211.429C99.5773 210.912 97.4037 210.644 95.2211 210.633C94.3843 210.633 93.6996 210.663 93.2381 210.688C92.9934 210.71 92.7474 210.71 92.5027 210.688C92.7399 210.624 92.9828 210.584 93.2279 210.567C93.8878 210.485 94.5513 210.438 95.216 210.425C97.4175 210.379 99.6155 210.623 101.753 211.15C102.919 211.447 104.106 211.654 105.304 211.769C106.281 211.836 107.262 211.836 108.24 211.769C109.077 211.713 109.762 211.642 110.218 211.601C110.457 211.567 110.698 211.557 110.938 211.571Z" fill="#EB996E"/>
<path d="M108.458 214.249C108.275 214.305 108.086 214.339 107.895 214.35C107.535 214.401 107.008 214.467 106.374 214.523C104.67 214.702 102.95 214.645 101.262 214.355C99.2583 213.975 97.7114 212.95 96.5094 212.479C95.8611 212.215 95.1907 212.01 94.5061 211.865C94.6958 211.842 94.8881 211.852 95.0741 211.896C95.5954 211.974 96.1059 212.112 96.5956 212.306C97.8382 212.748 99.3851 213.726 101.333 214.097C103.007 214.38 104.71 214.46 106.404 214.335L107.926 214.249C108.103 214.229 108.281 214.229 108.458 214.249Z" fill="#EB996E"/>
<g opacity="0.2">
<path opacity="0.2" d="M101.713 200.631C101.908 198.772 102.408 196.957 103.194 195.26C103.988 193.564 105.335 192.188 107.013 191.355C107.856 190.952 108.787 190.771 109.72 190.828C110.652 190.884 111.555 191.178 112.343 191.68C112.819 191.986 113.19 192.43 113.408 192.953C113.514 193.213 113.547 193.498 113.501 193.775C113.455 194.053 113.334 194.312 113.149 194.525C112.591 195.123 111.628 195.032 110.826 194.992C108.956 194.94 107.11 195.426 105.508 196.392C103.905 197.357 102.613 198.761 101.784 200.439" fill="black"/>
</g>
<g opacity="0.2">
<path opacity="0.2" d="M57.6702 199.089C59.6988 195.453 58.9685 190.894 57.4216 187.039C55.8748 183.185 53.5672 179.634 52.3854 175.648C52.1631 183.734 53.3384 191.799 55.8596 199.485" fill="black"/>
</g>
<path d="M61.2409 143.468C61.2409 143.468 63.7007 149.265 72.5761 148.895C81.4516 148.525 81.7356 141.642 81.7356 141.642L87.6746 147.957L82.0349 159.576L74.4577 165.231L64.1368 160.991L55.6316 154.398L61.2409 143.468Z" fill="#F2575D"/>
<g opacity="0.5">
<path opacity="0.5" d="M40.4567 168.248C40.548 168.36 39.3917 169.445 37.8651 170.668C36.3385 171.89 35.0351 172.788 34.9438 172.671C34.8525 172.554 36.0088 171.479 37.5303 170.257C39.0518 169.035 40.3654 168.132 40.4567 168.248Z" fill="#FAFAFA"/>
</g>
<path d="M44.6311 161.995C44.5854 162.127 43.1856 161.731 41.6692 160.793C40.1527 159.855 39.1638 158.795 39.2601 158.693C39.3565 158.592 40.4723 159.449 41.9431 160.347C43.4139 161.245 44.6716 161.853 44.6311 161.995Z" fill="#FAFAFA"/>
<path d="M52.2386 162.675C52.3603 162.766 51.2242 164.394 49.9614 166.463C48.6985 168.533 47.7197 170.257 47.5878 170.191C47.456 170.125 48.2117 168.279 49.5151 166.184C50.8185 164.09 52.1321 162.583 52.2386 162.675Z" fill="#FAFAFA"/>
<path d="M45.7261 180.299C45.6247 180.39 44.4531 179.193 43.4287 177.423C42.4042 175.653 41.9376 174.045 42.0695 174C42.2013 173.954 42.8759 175.435 43.8851 177.154C44.8944 178.874 45.8428 180.197 45.7261 180.299Z" fill="#FAFAFA"/>
<path d="M38.92 188.824C38.778 188.824 38.4788 187.556 38.2607 185.944C38.0426 184.331 37.9817 183.007 38.1238 182.987C38.2658 182.967 38.565 184.26 38.7831 185.873C39.0012 187.485 39.0519 188.804 38.92 188.824Z" fill="#FAFAFA"/>
<g opacity="0.5">
<path opacity="0.5" d="M45.3308 191.147C45.204 191.076 45.838 189.717 46.7864 188.104C47.7348 186.491 48.5716 185.259 48.6984 185.33C48.8252 185.401 48.1913 186.765 47.2428 188.373C46.2944 189.981 45.4576 191.203 45.3308 191.147Z" fill="#FAFAFA"/>
</g>
<path d="M37.8857 199.977C37.7792 200.073 36.6482 198.963 35.5476 197.36C34.4471 195.757 33.8233 194.317 33.945 194.241C34.0667 194.165 34.9035 195.489 35.9737 197.061C37.0438 198.633 37.9973 199.881 37.8857 199.977Z" fill="#FAFAFA"/>
<path d="M48.0033 198.521C48.1048 198.623 46.9383 199.967 45.4016 201.519C43.8648 203.071 42.531 204.253 42.4245 204.151C42.318 204.05 43.4845 202.706 45.0263 201.149C46.5681 199.592 47.8968 198.42 48.0033 198.521Z" fill="#FAFAFA"/>
<g opacity="0.5">
<path opacity="0.5" d="M42.2522 216.744C42.1559 216.846 41.03 215.912 40.0055 214.442C38.981 212.971 38.484 211.601 38.6057 211.546C38.7274 211.49 39.4425 212.722 40.4416 214.137C41.4408 215.552 42.3587 216.638 42.2522 216.744Z" fill="#FAFAFA"/>
</g>
<path d="M55.3067 213.057C55.3777 213.184 54.1301 214.031 52.5223 214.949C50.9146 215.867 49.5452 216.511 49.4793 216.384C49.4134 216.257 50.6559 215.41 52.2637 214.492C53.8714 213.574 55.2357 212.93 55.3067 213.057Z" fill="#FAFAFA"/>
<path d="M60.3939 208.858C60.3026 208.964 59.1209 208.061 58.0457 206.585C56.9705 205.11 56.4684 203.71 56.6002 203.659C56.7321 203.608 57.432 204.856 58.4717 206.276C59.5114 207.696 60.5004 208.746 60.3939 208.858Z" fill="#FAFAFA"/>
<path d="M69.3657 179.65C69.457 179.766 68.113 180.923 66.3684 182.226C64.6237 183.53 63.1428 184.493 63.0515 184.377C62.9602 184.26 64.3093 183.109 66.0539 181.805C67.7986 180.502 69.2795 179.538 69.3657 179.65Z" fill="#FAFAFA"/>
<path d="M59.9118 179.031C59.7647 179.031 59.7901 177.626 59.9625 175.927C60.135 174.228 60.3936 172.884 60.5407 172.884C60.6878 172.884 60.6624 174.289 60.49 175.988C60.3176 177.687 60.0538 179.056 59.9118 179.031Z" fill="#FAFAFA"/>
<g opacity="0.5">
<path opacity="0.5" d="M68.63 167.158C68.5488 167.275 66.9766 166.306 65.2522 164.83C63.5278 163.354 62.3208 161.96 62.4222 161.863C62.5236 161.767 63.8879 162.974 65.5971 164.43C67.3063 165.885 68.7162 167.036 68.63 167.158Z" fill="#FAFAFA"/>
</g>
<path d="M62.0823 152.339C62.1939 152.435 61.068 153.926 59.6073 155.671C58.1467 157.415 56.8382 158.749 56.7266 158.658C56.615 158.567 57.741 157.07 59.2016 155.326C60.6623 153.581 61.9708 152.247 62.0823 152.339Z" fill="#FAFAFA"/>
<g opacity="0.5">
<path opacity="0.5" d="M54.5817 150.751C54.5006 150.883 53.3696 150.3 51.8937 149.808C50.4178 149.316 49.1956 149.077 49.1956 148.925C49.1956 148.773 50.5345 148.783 52.0763 149.306C53.6181 149.828 54.6578 150.629 54.5817 150.751Z" fill="#FAFAFA"/>
</g>
<path d="M73.646 157.583C73.5091 157.542 73.7475 156.31 74.1837 154.829C74.6198 153.348 75.0864 152.181 75.198 152.222C75.3096 152.263 75.1016 153.495 74.6908 154.976C74.28 156.457 73.7881 157.628 73.646 157.583Z" fill="#FAFAFA"/>
<path d="M78.2054 169.258C78.0583 169.258 78.0076 168.041 78.0938 166.56C78.1801 165.079 78.3677 163.887 78.5097 163.892C78.6517 163.897 78.7075 165.109 78.6213 166.59C78.5351 168.071 78.3474 169.268 78.2054 169.258Z" fill="#FAFAFA"/>
<path d="M85.7114 178.017C85.6201 178.133 84.5094 177.393 83.2313 176.363C81.9533 175.334 80.9896 174.411 81.0809 174.299C81.1722 174.187 82.2829 174.923 83.561 175.952C84.8391 176.982 85.7875 177.905 85.7114 178.017Z" fill="#FAFAFA"/>
<path d="M93.6793 165.789C93.7756 165.895 92.7866 166.93 91.468 168.091C90.1494 169.253 89.0032 170.12 88.9321 169.998C88.8611 169.877 89.8248 168.857 91.1434 167.696C92.462 166.534 93.5829 165.677 93.6793 165.789Z" fill="#FAFAFA"/>
<g opacity="0.5">
<path opacity="0.5" d="M90.0125 160.012C89.9314 160.134 88.6787 159.444 87.3296 158.323C85.9805 157.202 85.0676 156.097 85.1691 156C85.2705 155.904 86.3356 156.817 87.6643 157.912C88.9931 159.008 90.0937 159.89 90.0125 160.012Z" fill="#FAFAFA"/>
</g>
<path d="M99.2328 149.717C99.3495 149.798 98.7257 150.848 97.6504 151.862C96.5752 152.876 95.4848 153.434 95.4087 153.312C95.3327 153.191 96.2456 152.46 97.2853 151.481C98.325 150.503 99.1111 149.615 99.2328 149.717Z" fill="#FAFAFA"/>
<g opacity="0.5">
<path opacity="0.5" d="M92.8932 148.753C92.8932 148.895 91.2551 148.778 89.343 148.286C87.431 147.794 85.9298 147.135 85.9805 146.998C86.0312 146.861 87.5679 147.297 89.4749 147.774C91.3818 148.251 92.9135 148.601 92.8932 148.753Z" fill="#FAFAFA"/>
</g>
<g opacity="0.5">
<path opacity="0.5" d="M104.67 165.145C104.533 165.114 104.847 163.116 105.572 160.773C106.298 158.43 107.135 156.594 107.266 156.644C107.398 156.695 106.79 158.587 106.08 160.925C105.37 163.263 104.817 165.175 104.67 165.145Z" fill="#FAFAFA"/>
</g>
<path d="M107.281 176.333C107.175 176.429 105.922 175.278 104.482 173.751C103.041 172.225 101.946 170.911 102.073 170.81C102.2 170.708 103.427 171.865 104.867 173.391C106.308 174.918 107.388 176.231 107.281 176.333Z" fill="#FAFAFA"/>
<g opacity="0.5">
<path opacity="0.5" d="M111.324 182.667C111.177 182.667 111.085 181.004 111.121 178.955C111.156 176.906 111.304 175.253 111.451 175.253C111.598 175.253 111.684 176.916 111.648 178.965C111.613 181.014 111.466 182.672 111.324 182.667Z" fill="#FAFAFA"/>
</g>
<path d="M107.221 193.105C107.104 193.186 106.019 191.857 105.014 190.001C104.01 188.145 103.493 186.507 103.62 186.451C103.746 186.395 104.487 187.922 105.481 189.742C106.475 191.563 107.342 193.019 107.221 193.105Z" fill="#FAFAFA"/>
<path d="M117.694 195.012C117.8 195.113 117.095 195.965 116.127 196.914C115.158 197.862 114.286 198.542 114.184 198.435C114.083 198.329 114.788 197.477 115.756 196.528C116.725 195.58 117.592 194.905 117.694 195.012Z" fill="#FAFAFA"/>
<g opacity="0.5">
<path opacity="0.5" d="M92.1933 183.119C92.0614 183.078 92.528 181.415 93.7148 179.68C94.9016 177.946 96.2963 176.916 96.3825 177.028C96.4687 177.139 95.2971 178.306 94.1509 179.984C93.0047 181.663 92.3353 183.175 92.1933 183.119Z" fill="#FAFAFA"/>
</g>
<path d="M62.6201 197.03C62.478 196.995 62.7266 195.509 63.1729 193.663C63.6192 191.817 64.1061 190.381 64.2481 190.417C64.3901 190.452 64.1365 191.964 63.6902 193.79C63.2439 195.615 62.757 197.066 62.6201 197.03Z" fill="#FAFAFA"/>
<path d="M75.0612 198.273C74.9801 198.395 73.7172 197.71 72.2414 196.751C70.7655 195.793 69.6294 194.91 69.7055 194.789C69.7816 194.667 71.0444 195.347 72.5254 196.31C74.0063 197.274 75.1576 198.151 75.0612 198.273Z" fill="#FAFAFA"/>
<path d="M74.4524 189.286C74.3307 189.367 73.7373 188.693 73.1236 187.764C72.51 186.836 72.1093 186.045 72.2361 185.964C72.3629 185.883 72.9512 186.557 73.5649 187.485C74.1786 188.414 74.5539 189.205 74.4524 189.286Z" fill="#FAFAFA"/>
<path d="M79.9451 191.335C80.0263 191.452 79.4938 191.969 78.7533 192.491C78.0128 193.014 77.3433 193.338 77.2571 193.222C77.1709 193.105 77.7085 192.583 78.449 192.06C79.1894 191.538 79.8589 191.203 79.9451 191.335Z" fill="#FAFAFA"/>
<g opacity="0.5">
<path opacity="0.5" d="M65.6024 227.795C65.4554 227.75 65.6937 226.598 65.9017 225.178C66.1096 223.758 66.2262 222.587 66.3784 222.587C66.5305 222.587 66.6421 223.789 66.424 225.254C66.206 226.72 65.7343 227.841 65.6024 227.795Z" fill="#FAFAFA"/>
</g>
<g opacity="0.5">
<path opacity="0.5" d="M78.2412 223.662C78.1144 223.733 77.1508 222.277 76.0908 220.416C75.0308 218.555 74.2701 216.977 74.3969 216.906C74.5237 216.835 75.4873 218.286 76.5473 220.152C77.6073 222.019 78.368 223.606 78.2412 223.662Z" fill="#FAFAFA"/>
</g>
<g opacity="0.5">
<path opacity="0.5" d="M91.6454 218.027C91.762 218.113 90.4941 219.97 88.8103 222.171C87.1265 224.372 85.6658 226.081 85.5492 225.995C85.4325 225.909 86.7055 224.052 88.3893 221.851C90.0731 219.65 91.5338 217.936 91.6454 218.027Z" fill="#FAFAFA"/>
</g>
<g opacity="0.5">
<path opacity="0.5" d="M95.424 228.794C95.424 228.936 93.7656 229.302 91.676 229.601C89.5865 229.9 87.8723 230.032 87.852 229.89C87.8317 229.748 89.5054 229.383 91.6 229.078C93.6946 228.774 95.4037 228.647 95.424 228.794Z" fill="#FAFAFA"/>
</g>
<path d="M96.0072 223.368C95.8602 223.332 96.0072 222.252 96.0427 220.923C96.0782 219.594 96.0427 218.504 96.2203 218.484C96.3978 218.463 96.6362 219.559 96.5702 220.943C96.5043 222.328 96.1442 223.403 96.0072 223.368Z" fill="#FAFAFA"/>
<path d="M77.9061 229.687C77.8554 229.814 76.481 229.362 75.0508 228.328C73.6205 227.293 72.7482 226.147 72.8547 226.061C72.9612 225.975 73.9756 226.913 75.3601 227.897C76.7447 228.881 77.967 229.545 77.9061 229.687Z" fill="#FAFAFA"/>
<path d="M56.3971 228.886C56.2551 228.85 56.3971 227.689 56.7724 226.299C57.1477 224.91 57.523 223.804 57.665 223.839C57.807 223.875 57.6346 225.031 57.2846 226.426C56.9347 227.821 56.5391 228.921 56.3971 228.886Z" fill="#FAFAFA"/>
<path d="M54.059 100.602C54.0894 100.562 54.6676 101.059 55.7276 101.617C56.3504 101.952 57.0001 102.236 57.67 102.464C58.4958 102.73 59.3448 102.919 60.2059 103.026C61.0669 103.118 61.9348 103.127 62.7975 103.052C63.5043 102.987 64.2037 102.858 64.887 102.666C66.0535 102.342 66.723 101.992 66.7484 102.037C66.6058 102.145 66.4508 102.235 66.2868 102.306C66.1033 102.405 65.9136 102.491 65.7188 102.565C65.4636 102.673 65.2029 102.768 64.9378 102.849C64.2492 103.067 63.5408 103.216 62.8229 103.295C61.9428 103.387 61.0556 103.387 60.1754 103.295C59.2981 103.187 58.4345 102.986 57.599 102.697C56.9183 102.457 56.2627 102.151 55.6413 101.784C55.3725 101.637 55.1342 101.469 54.9465 101.333C54.7691 101.215 54.5996 101.087 54.4393 100.947C54.1858 100.744 54.0438 100.617 54.059 100.602Z" fill="#455A64"/>
<path d="M67.1592 106.44C66.9818 106.516 66.7963 106.572 66.6064 106.607C66.2463 106.698 65.7239 106.82 65.0849 106.932C63.3709 107.267 61.6093 107.277 59.8915 106.962C58.1595 106.627 56.5838 105.737 55.403 104.426C55.0572 104.022 54.7703 103.572 54.551 103.087C54.4617 102.915 54.4001 102.731 54.3684 102.54C54.6895 103.172 55.0845 103.765 55.545 104.305C56.727 105.547 58.265 106.392 59.9473 106.724C61.6366 107.027 63.3651 107.043 65.0596 106.769C65.7138 106.678 66.2413 106.587 66.5811 106.526C66.7698 106.475 66.9638 106.446 67.1592 106.44Z" fill="#455A64"/>
<path d="M49.0989 137.479C49.0747 137.457 49.0526 137.433 49.033 137.408C48.9975 137.357 48.9315 137.286 48.8605 137.179C48.6639 136.87 48.528 136.525 48.4599 136.165C48.3582 135.494 48.4049 134.809 48.5968 134.157C48.7887 133.506 49.1211 132.905 49.5706 132.397C50.1887 131.7 50.9045 131.097 51.6956 130.606C52.5274 130.059 53.4606 129.557 54.3785 128.938C55.351 128.322 56.1824 127.508 56.818 126.549C57.1357 126.04 57.3431 125.47 57.4266 124.875C57.5056 124.259 57.473 123.634 57.3303 123.029C56.9973 121.832 56.5682 120.663 56.0471 119.535C55.5537 118.458 55.2632 117.299 55.19 116.117C55.1297 114.102 55.7418 112.125 56.9296 110.497C57.7013 109.393 58.7254 108.489 59.9168 107.86L60.4849 107.586L60.921 107.434C61.0393 107.387 61.1615 107.352 61.2862 107.327C61.1758 107.389 61.0605 107.442 60.9413 107.484L60.5204 107.662L59.9676 107.951C58.8156 108.603 57.8284 109.511 57.0818 110.604C55.9458 112.208 55.3668 114.141 55.4335 116.106C55.5109 117.258 55.7998 118.386 56.2855 119.433C56.8167 120.579 57.2527 121.766 57.5889 122.984C57.7347 123.619 57.7673 124.275 57.6853 124.921C57.5984 125.552 57.3789 126.157 57.0412 126.696C56.3799 127.685 55.5154 128.522 54.5053 129.151C53.5721 129.77 52.6339 130.267 51.8072 130.804C51.0277 131.275 50.3205 131.855 49.7075 132.529C49.2677 133.016 48.9371 133.591 48.7376 134.217C48.5382 134.842 48.4747 135.503 48.5512 136.155C48.6434 136.628 48.8296 137.078 49.0989 137.479Z" fill="#455A64"/>
<path d="M62.6102 137.661C62.506 137.617 62.4073 137.561 62.3161 137.494C62.052 137.304 61.8294 137.062 61.6618 136.784C61.4006 136.338 61.2445 135.838 61.2054 135.323C61.1515 134.639 61.2272 133.951 61.4285 133.294C61.8393 131.808 63.0819 130.454 64.0151 128.73C64.5233 127.852 64.7877 126.854 64.7809 125.839C64.7291 124.75 64.451 123.685 63.9644 122.71C63.0007 120.681 61.5198 119.048 60.4953 117.354C59.992 116.562 59.5899 115.71 59.2984 114.818C59.0528 114.028 58.9683 113.197 59.0499 112.374C59.1284 111.169 59.657 110.037 60.5308 109.204C60.7753 108.996 61.0487 108.826 61.3423 108.697C61.4427 108.648 61.5481 108.611 61.6567 108.585C61.274 108.775 60.9176 109.013 60.5968 109.295C59.7825 110.133 59.2996 111.237 59.2375 112.404C59.17 113.202 59.2631 114.006 59.5114 114.767C59.8007 115.645 60.2012 116.482 60.7033 117.258C61.2104 118.084 61.8393 118.911 62.4631 119.794C63.1289 120.687 63.7112 121.639 64.2027 122.639C64.7099 123.647 64.9952 124.752 65.0396 125.88C65.0413 126.936 64.7631 127.973 64.2332 128.887C63.2594 130.617 62.0168 131.93 61.606 133.37C61.4046 134.001 61.3187 134.662 61.3524 135.323C61.3803 135.819 61.5152 136.304 61.748 136.743C61.9675 137.106 62.2614 137.419 62.6102 137.661Z" fill="#455A64"/>
<path d="M82.6231 99.5879C82.6231 99.5879 82.5521 99.5879 82.4304 99.5067C82.2545 99.4114 82.0851 99.3047 81.9232 99.1872C81.3429 98.7377 80.8496 98.186 80.4676 97.5592C79.9128 96.633 79.4427 95.6586 79.0628 94.648C78.8295 94.0901 78.5556 93.5069 78.2716 92.9338C77.9538 92.3417 77.5802 91.7812 77.1558 91.2601C75.6417 89.4219 73.5924 88.1012 71.2929 87.4817C70.3362 87.2512 69.3597 87.112 68.3767 87.0658C68.6397 87.0218 68.9067 87.0065 69.173 87.0202C69.9025 87.0387 70.6282 87.1322 71.3386 87.2991C73.7026 87.8796 75.8148 89.2107 77.3587 91.0928C77.7966 91.6277 78.1822 92.2034 78.51 92.8121C78.8193 93.4004 79.0628 93.9938 79.291 94.5567C79.6592 95.5595 80.107 96.5313 80.6299 97.4628C80.9931 98.0806 81.4538 98.6355 81.9942 99.1061C82.3847 99.4357 82.6383 99.5676 82.6231 99.5879Z" fill="#455A64"/>
<path d="M89.698 99.5473C89.6057 99.5508 89.5134 99.5405 89.4241 99.5169C89.1645 99.4766 88.9097 99.4103 88.6633 99.3191C87.7512 98.9815 86.9251 98.4463 86.2441 97.7519C85.2437 96.7245 84.3995 95.5556 83.7387 94.2829C82.9425 92.8881 82.1716 91.2855 80.9797 89.8908C79.8439 88.5873 78.3445 87.653 76.6738 87.2078C75.3083 86.8451 73.9025 86.656 72.4897 86.6449C71.2776 86.6195 70.2987 86.6449 69.6191 86.6956L68.8381 86.726C68.7472 86.7384 68.6551 86.7384 68.5642 86.726C68.6512 86.6982 68.7417 86.6828 68.833 86.6804L69.614 86.5992C70.2886 86.5435 71.2725 86.4623 72.4897 86.4674C73.9226 86.4481 75.3517 86.6186 76.7398 86.9745C78.4634 87.42 80.011 88.3786 81.1775 89.7234C82.4049 91.1587 83.1707 92.7664 83.9467 94.1713C84.5897 95.4297 85.4076 96.5908 86.376 97.62C87.0288 98.3131 87.8203 98.8609 88.6988 99.2278C89.3277 99.4712 89.703 99.5169 89.698 99.5473Z" fill="#455A64"/>
<path d="M101.672 132.463C101.647 132.463 101.804 132.103 101.971 131.448C102.214 130.515 102.317 129.551 102.276 128.588C102.227 127.159 101.86 125.759 101.2 124.49C100.807 123.746 100.32 123.055 99.7498 122.436C99.1615 121.782 98.487 121.163 97.8124 120.514C97.1314 119.889 96.5021 119.211 95.9308 118.485C95.406 117.805 94.9522 117.072 94.5767 116.299C93.9449 114.987 93.5402 113.578 93.3798 112.13C93.268 111.157 93.2783 110.174 93.4102 109.204C93.4392 108.941 93.4849 108.68 93.5471 108.423C93.5605 108.33 93.5861 108.24 93.6232 108.154C93.6486 108.154 93.5674 108.534 93.5116 109.219C93.4195 110.18 93.4365 111.148 93.5624 112.105C93.7521 113.525 94.1682 114.905 94.7948 116.193C95.1694 116.947 95.6179 117.662 96.1337 118.328C96.7011 119.035 97.3216 119.698 97.99 120.311C98.6696 120.96 99.3441 121.584 99.9426 122.253C100.524 122.89 101.018 123.602 101.413 124.368C102.079 125.671 102.438 127.109 102.463 128.573C102.488 129.553 102.356 130.53 102.073 131.469C101.999 131.724 101.906 131.973 101.794 132.214C101.766 132.303 101.725 132.386 101.672 132.463Z" fill="#455A64"/>
<path d="M46.1116 99.1466C46.1104 98.9754 46.1326 98.8047 46.1776 98.6395C46.2801 98.1986 46.4422 97.7737 46.6594 97.3766C47.0219 96.7027 47.5228 96.1131 48.1293 95.6465C48.7357 95.1799 49.434 94.8468 50.1783 94.6691C50.9226 94.4914 51.696 94.4732 52.4479 94.6155C53.1997 94.7578 53.913 95.0576 54.5408 95.495C54.9207 95.7474 55.2623 96.0531 55.5551 96.4028C55.6722 96.5247 55.7682 96.6653 55.8391 96.8187C55.4103 96.3847 54.9397 95.994 54.4343 95.6522C53.8208 95.2531 53.1325 94.983 52.4113 94.8585C51.6901 94.734 50.9511 94.7577 50.2393 94.928C49.5275 95.0984 48.8579 95.4119 48.2712 95.8494C47.6845 96.2869 47.193 96.8394 46.8267 97.473C46.5349 98.0065 46.2954 98.567 46.1116 99.1466Z" fill="#455A64"/>
<path d="M51.0263 101.282C51.0227 100.893 51.0705 100.506 51.1683 100.131C51.3243 99.1896 51.7407 98.3112 52.3703 97.5947C52.7152 97.2493 53.1473 97.0037 53.6205 96.884C54.0938 96.7644 54.5907 96.7751 55.0583 96.9151C55.3394 97.0168 55.588 97.1919 55.7785 97.4223C55.9053 97.5845 55.9408 97.6961 55.9306 97.7012C55.6722 97.4332 55.3542 97.2299 55.0025 97.1078C54.5701 97.0048 54.1184 97.0141 53.6906 97.1348C53.2627 97.2555 52.8728 97.4837 52.558 97.7976C51.964 98.4855 51.5494 99.3096 51.3509 100.196C51.276 100.567 51.1674 100.931 51.0263 101.282Z" fill="#455A64"/>
<path d="M57.4726 93.8518C56.964 94.7409 56.5183 95.6645 56.1387 96.6158C55.8454 97.5959 55.615 98.5936 55.449 99.6031C55.3369 97.493 56.0665 95.4245 57.4777 93.8518H57.4726Z" fill="#F2575D"/>
<path d="M138.61 106.217C138.61 106.529 138.702 106.833 138.876 107.093C139.049 107.352 139.295 107.554 139.584 107.674C139.872 107.793 140.189 107.824 140.495 107.764C140.801 107.703 141.082 107.552 141.302 107.332C141.523 107.111 141.673 106.83 141.734 106.524C141.795 106.218 141.764 105.901 141.644 105.613C141.525 105.325 141.323 105.078 141.063 104.905C140.804 104.732 140.499 104.639 140.187 104.639C139.98 104.639 139.775 104.68 139.584 104.759C139.392 104.839 139.218 104.955 139.072 105.101C138.925 105.248 138.809 105.422 138.73 105.613C138.651 105.804 138.61 106.009 138.61 106.217Z" fill="#455A64"/>
<path d="M133.868 107.794C134.739 107.794 135.445 107.088 135.445 106.217C135.445 105.345 134.739 104.639 133.868 104.639C132.996 104.639 132.29 105.345 132.29 106.217C132.29 107.088 132.996 107.794 133.868 107.794Z" fill="#455A64"/>
<path d="M125.991 105.425C125.835 105.696 125.763 106.006 125.784 106.317C125.804 106.628 125.917 106.927 126.107 107.174C126.297 107.421 126.556 107.607 126.851 107.707C127.147 107.807 127.465 107.817 127.766 107.736C128.067 107.656 128.338 107.487 128.544 107.253C128.749 107.018 128.881 106.728 128.921 106.419C128.962 106.11 128.91 105.795 128.772 105.516C128.634 105.236 128.417 105.003 128.147 104.847C127.967 104.744 127.769 104.676 127.563 104.649C127.358 104.622 127.149 104.636 126.949 104.69C126.749 104.743 126.561 104.836 126.397 104.962C126.232 105.088 126.095 105.246 125.991 105.425Z" fill="#455A64"/>
<path d="M133.771 87.781C133.665 87.7686 133.558 87.7686 133.452 87.781L132.513 87.8063C132.311 87.8063 132.077 87.8063 131.824 87.8368L130.997 87.9534L130.033 88.0903L128.953 88.3591C127.106 88.8283 125.349 89.5958 123.749 90.6313C121.373 92.1439 119.373 94.1802 117.904 96.5844C116.435 98.9887 115.536 101.697 115.275 104.502C115.201 105.346 115.184 106.193 115.224 107.038C115.254 107.469 115.224 107.9 115.305 108.331L115.503 109.635C115.834 111.427 116.425 113.162 117.258 114.783C118.151 116.476 119.284 118.032 120.62 119.403C122.045 120.806 123.679 121.98 125.464 122.882C127.307 123.824 129.302 124.434 131.357 124.683C131.879 124.761 132.406 124.807 132.934 124.82C133.463 124.847 133.993 124.847 134.522 124.82C135.595 124.777 136.662 124.643 137.712 124.419C139.965 123.937 142.11 123.041 144.036 121.777H143.844L150.305 124.373L150.69 124.525L150.579 124.13C149.93 121.756 149.291 119.449 148.682 117.217L148.646 117.39C150.402 115.066 151.584 112.36 152.095 109.493C152.343 108.156 152.428 106.793 152.349 105.436C152.336 104.784 152.273 104.135 152.161 103.493C152.115 103.174 152.065 102.859 152.019 102.545C151.973 102.23 151.862 101.936 151.791 101.632C150.709 97.3831 148.153 93.6569 144.579 91.1181C143.26 90.1701 141.816 89.4089 140.288 88.8562L139.325 88.5113L138.407 88.278L137.565 88.0701C137.296 88.0143 137.058 87.9889 136.794 87.9534C136.287 87.8875 135.876 87.8063 135.501 87.786L134.547 87.7556H133.969C133.837 87.7556 133.771 87.7556 133.771 87.7556H133.969L134.547 87.8013L135.49 87.8621C135.861 87.8925 136.287 87.9889 136.774 88.0599C140.282 88.6637 143.54 90.2735 146.151 92.6936C148.762 95.1137 150.614 98.24 151.482 101.693C151.553 101.992 151.644 102.286 151.7 102.59C151.755 102.895 151.791 103.209 151.842 103.518C151.944 104.151 152 104.79 152.009 105.43C152.083 106.756 151.996 108.086 151.75 109.391C151.236 112.212 150.065 114.872 148.332 117.156L148.276 117.232L148.302 117.329C148.91 119.56 149.537 121.864 150.183 124.241L150.457 123.998L144.001 121.396L143.899 121.356L143.803 121.416C141.915 122.662 139.811 123.546 137.6 124.023C136.575 124.243 135.534 124.375 134.486 124.419C133.967 124.439 133.447 124.429 132.929 124.388C132.42 124.379 131.912 124.336 131.408 124.262C129.396 124.015 127.442 123.417 125.636 122.497C122.177 120.786 119.358 118.011 117.592 114.58C116.765 112.998 116.173 111.303 115.838 109.549C115.772 109.118 115.706 108.697 115.645 108.271C115.584 107.845 115.589 107.424 115.554 107.003C115.514 106.176 115.527 105.348 115.594 104.523C115.841 101.763 116.713 99.0964 118.144 96.7239C119.574 94.3514 121.526 92.3356 123.851 90.8291C125.429 89.7847 127.166 89.002 128.994 88.5113L130.059 88.2273L131.017 88.0701L131.834 87.9331C132.087 87.9331 132.316 87.9027 132.518 87.8824L133.452 87.8165C133.559 87.8135 133.666 87.8016 133.771 87.781Z" fill="#455A64"/>
</svg>
