<svg width="375" height="280" viewBox="0 0 375 280" fill="none" xmlns="http://www.w3.org/2000/svg">
<path d="M312.56 71.7807L311.065 69.4399C298.487 49.4535 275.057 36.9599 249.946 37.6431C246.721 37.722 243.505 38.0176 240.32 38.5279C217.399 42.2743 197.11 57.2767 188.301 76.9999C183.127 88.5975 181.38 102.077 171.933 111.126C159.613 122.886 139.357 122.69 121.533 121.671C103.708 120.652 83.4527 120.478 71.1887 132.311C63.5223 139.72 55.7495 153.653 55.0663 163.862C52.7199 198.705 74.2015 225.971 100.348 238.767C126.494 251.563 161.875 252.095 191.04 247.66C231.875 241.444 277.515 215.258 301.651 184.526C325.787 153.793 330.138 106.226 312.56 71.7807Z" fill="#EBEBEB"/>
<path d="M318.244 180.191L280.909 138.247C279.439 136.596 277.638 135.271 275.624 134.359C273.61 133.446 271.427 132.966 269.216 132.95L146.302 132.059C144.213 132.044 142.142 132.442 140.209 133.232C138.275 134.022 136.518 135.187 135.037 136.66C133.557 138.133 132.383 139.885 131.584 141.815C130.784 143.744 130.376 145.813 130.381 147.902L130.588 234.937C130.593 237.015 131.007 239.072 131.807 240.99C132.607 242.908 133.778 244.649 135.252 246.113C136.727 247.578 138.475 248.738 140.398 249.526C142.321 250.314 144.38 250.715 146.459 250.706L268.947 250.191C271.21 250.186 273.444 249.694 275.5 248.75C277.556 247.807 279.385 246.432 280.864 244.72L318.423 201.04C320.927 198.134 322.289 194.417 322.256 190.582C322.223 186.746 320.797 183.054 318.244 180.191ZM297.468 195.311C296.497 197.7 294.84 199.747 292.706 201.194C290.571 202.641 288.056 203.423 285.478 203.44C282.899 203.457 280.373 202.709 278.22 201.291C276.066 199.873 274.382 197.848 273.379 195.472C272.377 193.097 272.101 190.477 272.587 187.945C273.074 185.413 274.3 183.081 276.111 181.246C277.922 179.411 280.237 178.154 282.763 177.634C285.288 177.114 287.911 177.355 290.3 178.326C293.497 179.629 296.047 182.146 297.391 185.326C298.735 188.506 298.763 192.089 297.468 195.289V195.311Z" fill="#F2575D"/>
<g opacity="0.4">
<path opacity="0.4" d="M318.244 180.191L280.909 138.247C279.439 136.596 277.638 135.271 275.624 134.359C273.61 133.446 271.427 132.966 269.216 132.95L146.302 132.059C144.213 132.044 142.142 132.442 140.209 133.232C138.275 134.022 136.518 135.187 135.037 136.66C133.557 138.133 132.383 139.885 131.584 141.815C130.784 143.744 130.376 145.813 130.381 147.902L130.588 234.937C130.593 237.015 131.007 239.072 131.807 240.99C132.607 242.908 133.778 244.649 135.252 246.113C136.727 247.578 138.475 248.738 140.398 249.526C142.321 250.314 144.38 250.715 146.459 250.706L268.947 250.191C271.21 250.186 273.444 249.694 275.5 248.75C277.556 247.807 279.385 246.432 280.864 244.72L318.423 201.04C320.927 198.134 322.289 194.417 322.256 190.582C322.223 186.746 320.797 183.054 318.244 180.191ZM297.468 195.311C296.497 197.7 294.84 199.747 292.706 201.194C290.571 202.641 288.056 203.423 285.478 203.44C282.899 203.457 280.373 202.709 278.22 201.291C276.066 199.873 274.382 197.848 273.379 195.472C272.377 193.097 272.101 190.477 272.587 187.945C273.074 185.413 274.3 183.081 276.111 181.246C277.922 179.411 280.237 178.154 282.763 177.634C285.288 177.114 287.911 177.355 290.3 178.326C293.497 179.629 296.047 182.146 297.391 185.326C298.735 188.506 298.763 192.089 297.468 195.289V195.311Z" fill="black"/>
</g>
<path d="M324.712 180.191L287.36 138.247C285.889 136.596 284.089 135.272 282.075 134.36C280.061 133.447 277.878 132.967 275.667 132.95L152.753 132.059C150.664 132.043 148.593 132.441 146.659 133.231C144.725 134.02 142.967 135.185 141.487 136.658C140.006 138.132 138.832 139.884 138.033 141.814C137.234 143.744 136.826 145.813 136.832 147.902L137.034 234.937C137.039 237.02 137.455 239.081 138.259 241.002C139.064 242.923 140.239 244.666 141.719 246.132C143.199 247.597 144.954 248.756 146.883 249.541C148.812 250.326 150.877 250.722 152.96 250.707L275.443 250.191C277.705 250.185 279.94 249.693 281.996 248.75C284.051 247.806 285.881 246.432 287.36 244.72L324.914 201.04C327.415 198.132 328.774 194.414 328.737 190.578C328.7 186.742 327.269 183.05 324.712 180.191ZM303.942 195.311C302.971 197.7 301.314 199.747 299.179 201.194C297.045 202.641 294.53 203.423 291.951 203.44C289.373 203.457 286.847 202.709 284.694 201.291C282.54 199.873 280.856 197.848 279.853 195.472C278.85 193.097 278.575 190.477 279.061 187.945C279.547 185.413 280.774 183.081 282.585 181.246C284.396 179.411 286.711 178.154 289.236 177.634C291.762 177.115 294.385 177.355 296.774 178.327C299.971 179.629 302.521 182.146 303.865 185.326C305.209 188.506 305.236 192.089 303.942 195.289V195.311Z" fill="#F2575D"/>
<path d="M177.735 177.274C177.83 166.723 184.331 160.076 193.448 160.166C202.565 160.255 208.854 166.925 208.759 177.559C208.663 188.194 202.24 194.757 193.129 194.673C184.018 194.589 177.634 187.824 177.735 177.274ZM199.815 177.481C199.877 170.761 197.318 167.53 193.381 167.496C189.539 167.457 186.823 170.738 186.762 177.358C186.7 183.977 189.355 187.303 193.196 187.342C197.133 187.376 199.754 184.184 199.815 177.481ZM230.722 161.241L241.362 161.342L198.046 223.502L187.406 223.401L230.722 161.241ZM220.015 207.2C220.115 196.65 226.611 190.002 235.644 190.086C244.761 190.176 251.134 196.941 251.039 207.486C250.943 218.03 244.442 224.655 235.319 224.56C226.32 224.487 219.919 217.722 220.015 207.2ZM242.006 207.402C242.067 200.788 239.508 197.456 235.571 197.422C231.73 197.383 229.019 200.575 228.958 207.284C228.896 213.993 231.545 217.23 235.387 217.269C239.323 217.28 241.944 213.993 242 207.374L242.006 207.402Z" fill="white"/>
<path d="M320.624 206.08C321.07 206.317 321.482 206.613 321.851 206.959C322.618 207.569 323.738 208.488 325.155 209.703C326.571 210.918 328.296 212.419 330.234 214.228C332.171 216.037 334.344 218.148 336.59 220.651C339.058 223.364 341.293 226.281 343.271 229.37L344.066 230.641L344.816 231.969C345.34 232.876 345.815 233.81 346.239 234.769C347.181 236.801 347.724 238.994 347.84 241.231C347.876 242.426 347.702 243.619 347.325 244.753C346.932 245.927 346.303 247.007 345.477 247.929C343.783 249.797 341.54 251.079 339.071 251.591C336.566 252.086 333.983 252.025 331.505 251.412C329.016 250.81 326.605 249.921 324.32 248.763C319.831 246.474 315.758 243.445 312.275 239.803C310.614 238.097 309.06 236.291 307.621 234.393C306.217 232.553 304.881 230.722 303.611 228.9C298.571 221.62 294.651 214.62 292.187 208.359C291.571 206.797 291.039 205.296 290.58 203.851C290.356 203.129 290.143 202.423 289.97 201.723C289.779 201.046 289.642 200.355 289.561 199.657C289.366 198.332 289.698 196.983 290.485 195.899C291.163 195.029 292.088 194.385 293.139 194.051C293.573 193.908 294.019 193.805 294.472 193.743C294.87 193.701 295.271 193.691 295.671 193.715C296.297 193.745 296.914 193.879 297.496 194.113C297.85 194.261 298.179 194.463 298.471 194.712C298.661 194.885 298.745 194.981 298.728 195.003C298.711 195.025 298.594 194.964 298.381 194.835C298.072 194.647 297.741 194.498 297.395 194.393C296.833 194.223 296.247 194.139 295.659 194.146C295.284 194.15 294.91 194.18 294.539 194.236C294.125 194.316 293.718 194.432 293.324 194.583C292.409 194.92 291.614 195.52 291.039 196.308C290.399 197.261 290.157 198.427 290.367 199.556C290.46 200.214 290.606 200.864 290.804 201.499C290.989 202.171 291.219 202.854 291.454 203.56C291.943 204.971 292.503 206.442 293.134 207.973C295.671 214.077 299.635 220.97 304.698 228.133C305.967 229.925 307.305 231.73 308.713 233.548C310.13 235.394 311.657 237.152 313.288 238.812C316.672 242.328 320.615 245.257 324.959 247.481C327.15 248.589 329.461 249.442 331.847 250.023C334.119 250.593 336.489 250.659 338.791 250.219C340.967 249.775 342.95 248.659 344.458 247.027C345.856 245.447 346.593 243.39 346.519 241.281C346.412 239.206 345.91 237.171 345.04 235.284C344.643 234.357 344.196 233.452 343.702 232.573L343.002 231.28L342.24 230.014C340.336 226.952 338.184 224.051 335.806 221.34C333.644 218.831 331.544 216.681 329.646 214.821C327.747 212.962 326.107 211.405 324.746 210.134L321.655 207.2C321.266 206.871 320.92 206.494 320.624 206.08Z" fill="#263238"/>
<path d="M262.289 119.162C262.211 119.162 260.643 108.214 258.783 94.6848C256.924 81.1552 255.485 70.1792 255.569 70.168C255.653 70.1568 257.215 81.116 259.075 94.6456C260.934 108.175 262.373 119.151 262.289 119.162Z" fill="#263238"/>
<path d="M308.461 59.2256C308.451 59.2835 308.434 59.3399 308.411 59.3936L308.231 59.8808L307.52 61.7456L304.855 68.5888C302.615 74.368 299.546 82.3648 296.287 91.252C293.027 100.139 290.199 108.22 288.183 114.083C287.181 117.001 286.369 119.37 285.803 121.033C285.523 121.834 285.305 122.466 285.148 122.92C285.075 123.122 285.014 123.278 284.969 123.407C284.952 123.464 284.93 123.518 284.902 123.57C284.906 123.51 284.919 123.452 284.941 123.396L285.092 122.898C285.232 122.444 285.434 121.778 285.691 120.994C286.218 119.342 287.002 116.956 287.987 114.016C289.959 108.136 292.759 100.016 296.018 91.1512C299.277 82.2864 302.363 74.2728 304.659 68.5104C305.779 65.632 306.753 63.3024 307.419 61.7008L308.187 59.8584C308.271 59.6624 308.343 59.5056 308.394 59.3824L308.461 59.2256Z" fill="#263238"/>
<path d="M341.546 102.323C341.596 102.385 333.582 108.662 323.626 116.323C313.669 123.984 305.594 130.178 305.543 130.111C305.493 130.043 313.512 123.771 323.463 116.111C333.414 108.45 341.501 102.256 341.546 102.323Z" fill="#263238"/>
<path d="M242.851 121.206C242.784 121.257 239.687 117.286 235.93 112.381C232.172 107.475 229.171 103.421 229.21 103.382C229.249 103.342 232.374 107.302 236.131 112.207C239.889 117.113 242.913 121.156 242.851 121.206Z" fill="#263238"/>
<path d="M337.76 152.074C337.76 152.152 332.827 150.786 326.79 149.027C320.753 147.269 315.881 145.779 315.903 145.701C315.926 145.622 320.837 146.989 326.874 148.747C332.911 150.506 337.788 151.995 337.76 152.074Z" fill="#263238"/>
<path d="M267.194 151.894L270.834 149.8L272.766 146.07L274.866 149.71L278.596 151.648L274.956 153.742L273.018 157.472L270.924 153.832L267.194 151.894Z" fill="white"/>
<path d="M247.516 146.115L248.793 145.381L249.471 144.077L250.204 145.348L251.509 146.025L250.232 146.759L249.554 148.064L248.821 146.793L247.516 146.115Z" fill="white"/>
<path d="M260.083 171.836L262.547 170.419L263.857 167.894L265.274 170.358L267.799 171.668L265.335 173.085L264.025 175.61L262.608 173.146L260.083 171.836Z" fill="white"/>
<path d="M90.0774 240.833C90.0774 240.833 66.7198 247.307 65.751 247.638C64.3454 248.13 64.5806 253.294 66.7758 253.238C67.8118 253.198 84.735 253.865 86.8742 253.73C89.0134 253.596 94.7702 251.328 94.7702 251.328L90.0774 240.833Z" fill="#455A64"/>
<path d="M80.3337 249.76C80.2161 249.76 80.0593 248.539 79.3033 247.251C78.5473 245.963 77.5785 245.19 77.6513 245.101C77.7241 245.011 78.8553 245.661 79.6449 247.055C80.4345 248.449 80.4345 249.76 80.3337 249.76Z" fill="#263238"/>
<path d="M82.7753 248.64C82.6577 248.64 82.4225 247.553 81.8009 246.333C81.1793 245.112 80.4401 244.255 80.5241 244.177C80.6081 244.098 81.5041 244.865 82.1481 246.159C82.7921 247.453 82.8761 248.64 82.7753 248.64Z" fill="#263238"/>
<path d="M85.06 248.041C84.9424 248.041 85.032 246.865 84.5 245.566C83.968 244.266 83.1392 243.466 83.2232 243.382C83.3072 243.298 84.3432 244.014 84.864 245.426C85.3848 246.837 85.1552 248.08 85.06 248.041Z" fill="#263238"/>
<path d="M84.6398 245.017C84.4352 244.462 84.3494 243.871 84.3878 243.281C84.3975 242.633 84.4821 241.988 84.6398 241.36C84.7273 240.989 84.8434 240.626 84.987 240.273C85.0599 240.057 85.1895 239.863 85.3622 239.713C85.4789 239.624 85.6233 239.58 85.7698 239.587C85.9164 239.594 86.0557 239.653 86.163 239.753C86.3432 239.928 86.4544 240.163 86.4766 240.413C86.4903 240.619 86.4903 240.824 86.4766 241.029C86.4702 241.407 86.4214 241.783 86.331 242.149C86.1753 242.775 85.9341 243.376 85.6142 243.936C85.3539 244.466 84.9968 244.943 84.5614 245.341C84.511 245.308 84.903 244.781 85.3678 243.807C85.6413 243.255 85.8463 242.672 85.9782 242.071C86.0548 241.72 86.0943 241.361 86.0958 241.001C86.0958 240.643 86.0958 240.195 85.8774 240.021C85.8396 239.978 85.7864 239.951 85.7291 239.946C85.6717 239.941 85.6145 239.958 85.5694 239.993C85.4504 240.106 85.3618 240.246 85.3118 240.402C85.171 240.737 85.0532 241.082 84.9591 241.433C84.7948 242.029 84.6916 242.641 84.651 243.258C84.6006 244.345 84.707 245.011 84.6398 245.017Z" fill="#263238"/>
<path d="M84.6738 244.781C85.1515 244.582 85.6695 244.497 86.1858 244.535C86.7523 244.533 87.3167 244.603 87.8658 244.742C88.2007 244.812 88.5234 244.931 88.8234 245.095C89.0155 245.19 89.171 245.346 89.2661 245.538C89.3612 245.731 89.3906 245.949 89.3498 246.159C89.2962 246.361 89.1895 246.545 89.0408 246.692C88.8921 246.838 88.7068 246.943 88.5042 246.994C88.1606 247.08 87.8007 247.08 87.457 246.994C86.4139 246.687 85.4996 246.048 84.853 245.174C85.287 245.425 85.7025 245.708 86.0962 246.019C86.5306 246.315 87.017 246.526 87.5298 246.641C87.8149 246.711 88.1127 246.711 88.3978 246.641C88.5317 246.604 88.6537 246.533 88.7519 246.435C88.8501 246.337 88.9211 246.215 88.9578 246.081C88.9806 245.949 88.9587 245.814 88.8958 245.696C88.8329 245.579 88.7326 245.485 88.6106 245.431C88.343 245.283 88.0567 245.172 87.7594 245.101C87.2459 244.954 86.7185 244.862 86.1858 244.826C85.2562 244.748 84.685 244.843 84.6738 244.781Z" fill="#263238"/>
<path d="M76.7439 250.006C76.6263 250.006 76.7439 248.993 76.2791 247.901C75.8143 246.809 75.0639 246.159 75.1591 246.069C75.2543 245.98 76.1727 246.529 76.6655 247.749C77.1583 248.97 76.8391 250.051 76.7439 250.006Z" fill="#263238"/>
<path d="M93.0401 251.087C92.7512 251.256 92.4475 251.398 92.1329 251.513C91.2837 251.839 90.4138 252.108 89.5289 252.319C86.5989 252.963 83.6013 253.247 80.6025 253.165C77.0969 253.125 73.9385 252.969 71.6425 252.873L68.9321 252.733C68.599 252.731 68.2669 252.696 67.9409 252.627C68.277 252.566 68.6189 252.544 68.9601 252.56H71.6761L80.6361 252.733C83.6084 252.809 86.5802 252.567 89.5009 252.011C91.7297 251.591 93.0401 251.014 93.0401 251.087Z" fill="#263238"/>
<path d="M93.7511 251.619C93.1537 251.384 92.5687 251.119 91.9983 250.824C90.6205 250.173 89.0885 249.919 87.5743 250.09C85.8103 250.359 84.5615 251.546 83.7495 252.364C83.3341 252.856 82.883 253.316 82.3999 253.741C82.7117 253.172 83.0977 252.647 83.5479 252.179C84.0071 251.637 84.5277 251.151 85.0991 250.729C85.8103 250.199 86.6379 249.848 87.5127 249.704C89.1005 249.512 90.7086 249.818 92.1159 250.577C92.7123 250.837 93.2641 251.188 93.7511 251.619Z" fill="#263238"/>
<path d="M70.2931 252.633C70.3902 252.332 70.5043 252.036 70.6347 251.748C70.8801 251.043 70.9379 250.286 70.8025 249.551C70.667 248.817 70.3428 248.13 69.8619 247.559C69.4923 247.111 69.1955 246.898 69.2235 246.853C69.2515 246.809 69.5931 246.977 70.0243 247.413C70.5901 247.983 70.9708 248.71 71.1167 249.499C71.2625 250.288 71.1668 251.103 70.8419 251.837C70.5899 252.386 70.3211 252.655 70.2931 252.633Z" fill="#263238"/>
<path d="M114.477 241.528C114.477 241.528 138.467 245.173 139.436 245.392C140.898 245.717 141.273 250.869 139.089 251.048C138.053 251.132 121.326 253.809 119.186 253.932C117.047 254.055 110.338 252.297 110.338 252.297L114.477 241.528Z" fill="#455A64"/>
<path d="M125.212 249.228C125.33 249.228 125.341 247.985 125.935 246.613C126.528 245.241 127.408 244.373 127.324 244.278C127.24 244.182 126.204 244.989 125.576 246.462C124.949 247.934 125.117 249.25 125.212 249.228Z" fill="#263238"/>
<path d="M122.658 248.421C122.776 248.421 122.877 247.301 123.353 246.013C123.829 244.725 124.473 243.773 124.361 243.723C124.249 243.673 123.47 244.518 122.983 245.879C122.496 247.24 122.558 248.427 122.658 248.421Z" fill="#263238"/>
<path d="M120.318 248.08C120.43 248.08 120.206 246.91 120.564 245.56C120.922 244.21 121.684 243.32 121.572 243.236C121.46 243.152 120.558 243.998 120.189 245.476C119.819 246.954 120.228 248.13 120.318 248.08Z" fill="#263238"/>
<path d="M120.368 245.033C120.511 244.459 120.526 243.861 120.413 243.281C120.333 242.643 120.177 242.017 119.948 241.416C119.815 241.057 119.656 240.709 119.472 240.374C119.376 240.165 119.225 239.985 119.035 239.853C118.908 239.779 118.759 239.751 118.613 239.776C118.468 239.8 118.336 239.875 118.24 239.988C118.083 240.184 118.001 240.431 118.01 240.682C118.011 240.888 118.026 241.094 118.055 241.298C118.105 241.681 118.199 242.057 118.335 242.418C118.565 243.018 118.876 243.583 119.259 244.098C119.581 244.594 119.991 245.027 120.469 245.375C120.519 245.33 120.066 244.815 119.489 243.947C119.15 243.422 118.875 242.858 118.671 242.267C118.556 241.927 118.478 241.576 118.436 241.22C118.403 240.861 118.346 240.419 118.531 240.223C118.564 240.176 118.614 240.143 118.67 240.132C118.726 240.12 118.785 240.131 118.834 240.161C118.966 240.258 119.072 240.388 119.142 240.537C119.321 240.852 119.478 241.179 119.612 241.517C119.845 242.09 120.022 242.684 120.139 243.292C120.329 244.367 120.306 245.033 120.368 245.033Z" fill="#263238"/>
<path d="M120.312 244.804C119.821 244.658 119.303 244.629 118.8 244.72C118.244 244.787 117.699 244.92 117.176 245.117C116.853 245.229 116.548 245.386 116.269 245.582C116.089 245.7 115.954 245.873 115.882 246.076C115.81 246.278 115.806 246.498 115.871 246.702C115.949 246.897 116.077 247.067 116.243 247.196C116.408 247.325 116.604 247.407 116.812 247.436C117.164 247.478 117.522 247.434 117.853 247.307C118.851 246.875 119.681 246.133 120.222 245.19C119.826 245.492 119.452 245.821 119.102 246.176C118.707 246.523 118.249 246.791 117.753 246.965C117.476 247.062 117.181 247.093 116.89 247.055C116.752 247.036 116.622 246.981 116.511 246.897C116.4 246.813 116.313 246.701 116.257 246.573C116.22 246.444 116.226 246.306 116.275 246.181C116.324 246.056 116.412 245.95 116.526 245.879C116.774 245.704 117.043 245.561 117.327 245.453C117.821 245.246 118.335 245.092 118.861 244.994C119.729 244.843 120.312 244.865 120.312 244.804Z" fill="#263238"/>
<path d="M128.807 249.049C128.925 249.021 128.69 248.046 129.014 246.898C129.339 245.75 130.022 245.028 129.938 244.95C129.854 244.871 128.981 245.51 128.639 246.798C128.298 248.086 128.723 249.105 128.807 249.049Z" fill="#263238"/>
<path d="M112.735 252.062C113.041 252.198 113.36 252.303 113.687 252.375C114.567 252.6 115.462 252.765 116.364 252.868C119.349 253.159 122.357 253.086 125.324 252.65C128.802 252.19 131.915 251.658 134.178 251.294L136.855 250.83C137.185 250.79 137.509 250.715 137.823 250.606C137.491 250.595 137.159 250.619 136.832 250.678L134.139 251.02L125.274 252.258C122.332 252.686 119.352 252.798 116.387 252.594C114.119 252.403 112.752 252 112.735 252.062Z" fill="#263238"/>
<path d="M112.114 252.672C112.153 252.722 112.741 252.274 113.76 251.675C115.049 250.861 116.542 250.426 118.067 250.421C119.847 250.477 121.225 251.507 122.132 252.224C122.605 252.66 123.106 253.064 123.633 253.434C123.26 252.903 122.815 252.426 122.311 252.017C121.791 251.532 121.216 251.109 120.598 250.757C119.827 250.318 118.964 250.069 118.078 250.029C116.474 250.024 114.909 250.517 113.598 251.44C113.042 251.771 112.541 252.186 112.114 252.672Z" fill="#263238"/>
<path d="M189.086 142.962C188.938 142.659 188.691 142.416 188.386 142.274L188.946 141.154C188.908 140.752 188.795 140.361 188.615 140C188.335 139.518 187.355 139.558 187.355 139.558L187.506 139.238C187.609 139.012 187.651 138.764 187.63 138.517C187.608 138.269 187.523 138.032 187.383 137.827C187.338 137.766 187.294 137.704 187.238 137.637C186.898 137.307 186.467 137.088 186 137.01C186 137.01 186.56 135.934 186.308 135.481C186.046 135.108 185.68 134.82 185.256 134.653C184.832 134.485 184.369 134.446 183.922 134.54C182.428 135.127 180.978 135.819 179.582 136.612C179.452 136.683 179.308 136.725 179.16 136.734C179.012 136.744 178.864 136.721 178.725 136.668C178.587 136.615 178.462 136.532 178.358 136.426C178.255 136.319 178.176 136.192 178.126 136.052C177.628 134.622 176.912 133.277 176.004 132.065C174.951 130.799 173.966 130.9 173.389 131.124C173.324 131.149 173.266 131.188 173.218 131.238C173.17 131.288 173.134 131.348 173.111 131.414C173.089 131.479 173.081 131.549 173.088 131.618C173.096 131.687 173.118 131.753 173.154 131.813C173.719 132.713 174.228 133.649 174.677 134.613C174.951 135.346 175.237 140.868 175.237 140.868L173.725 143.746L158.476 167.832C158.476 167.832 135.432 152.303 135.516 151.917L134.43 169.725L151.79 181.261C153.277 182.248 154.962 182.898 156.727 183.165C158.492 183.432 160.294 183.309 162.007 182.805C163.719 182.302 165.301 181.429 166.64 180.249C167.98 179.069 169.045 177.61 169.76 175.974L181.447 150.606L182.864 148.534L188.369 145.006C188.369 145.006 189.282 143.427 189.086 142.962Z" fill="#FFBE9D"/>
<path d="M186.56 137.015C186.56 137.015 186.527 137.054 186.454 137.116L186.124 137.385C185.816 137.62 185.396 137.945 184.892 138.342L183.049 139.742C182.702 140 182.355 140.302 181.929 140.549C181.718 140.695 181.476 140.789 181.222 140.823C180.968 140.857 180.709 140.83 180.468 140.745C180.219 140.632 180.02 140.433 179.908 140.185C179.808 139.954 179.764 139.702 179.779 139.451C179.821 138.982 180.018 138.541 180.339 138.197C180.622 137.893 180.929 137.612 181.257 137.357L182.086 136.668L183.296 135.677L183.626 135.413C183.704 135.357 183.744 135.324 183.749 135.329L183.643 135.436L183.329 135.721L182.153 136.741L181.336 137.441C181.015 137.697 180.716 137.978 180.44 138.281C180.125 138.598 179.927 139.012 179.88 139.457C179.851 139.687 179.891 139.92 179.996 140.126C180.101 140.333 180.265 140.504 180.468 140.616C180.686 140.705 180.925 140.729 181.156 140.683C181.386 140.639 181.606 140.553 181.806 140.431C182.198 140.19 182.556 139.871 182.926 139.641L184.78 138.258L186.04 137.34L186.387 137.093L186.56 137.015Z" fill="#EB996E"/>
<path d="M187.781 139.608C187.703 139.688 187.617 139.76 187.523 139.821C187.355 139.95 187.103 140.134 186.79 140.353C186.168 140.784 185.289 141.366 184.286 141.954C184.034 142.1 183.794 142.251 183.536 142.369C183.286 142.486 183.011 142.538 182.735 142.52C182.502 142.492 182.281 142.399 182.097 142.251C181.914 142.104 181.776 141.908 181.699 141.685C181.605 141.386 181.629 141.061 181.766 140.778C181.805 140.704 181.852 140.635 181.906 140.571C181.946 140.526 181.968 140.51 181.974 140.51C181.979 140.51 181.901 140.61 181.817 140.801C181.715 141.075 181.715 141.377 181.817 141.652C181.888 141.853 182.016 142.03 182.185 142.16C182.353 142.291 182.556 142.371 182.769 142.391C183.022 142.403 183.274 142.351 183.502 142.24C183.754 142.118 183.999 141.984 184.236 141.837C185.238 141.249 186.123 140.683 186.762 140.269L187.512 139.776C187.597 139.713 187.687 139.657 187.781 139.608Z" fill="#EB996E"/>
<path d="M188.492 142.139C188.41 142.199 188.322 142.249 188.229 142.29L187.484 142.666C186.851 142.979 185.972 143.399 185.003 143.858C184.767 143.977 184.524 144.082 184.275 144.172C184.034 144.261 183.772 144.283 183.519 144.234C183.402 144.212 183.291 144.164 183.194 144.094C183.097 144.025 183.017 143.935 182.959 143.83C182.866 143.647 182.834 143.439 182.87 143.237C182.931 142.953 183.087 142.698 183.312 142.514C183.463 142.386 183.564 142.335 183.57 142.346C183.575 142.358 183.486 142.419 183.346 142.554C183.151 142.742 183.02 142.987 182.97 143.254C182.943 143.432 182.974 143.615 183.06 143.774C183.112 143.862 183.183 143.937 183.267 143.995C183.351 144.053 183.447 144.093 183.547 144.11C183.777 144.151 184.013 144.128 184.23 144.043C184.474 143.953 184.711 143.848 184.942 143.73C185.916 143.276 186.795 142.867 187.439 142.576L188.206 142.246C188.296 142.196 188.392 142.16 188.492 142.139Z" fill="#EB996E"/>
<path d="M188.89 144.48C188.605 144.579 188.313 144.655 188.016 144.709C187.456 144.833 186.717 144.995 185.882 145.163L185.272 145.286C185.08 145.333 184.882 145.356 184.684 145.353C184.494 145.353 184.311 145.288 184.163 145.169C184.098 145.115 184.047 145.047 184.012 144.97C183.977 144.894 183.96 144.81 183.962 144.726C183.971 144.61 184.006 144.496 184.064 144.395C184.122 144.293 184.202 144.206 184.298 144.138C184.361 144.083 184.439 144.048 184.522 144.037C184.522 144.037 184.443 144.082 184.331 144.183C184.25 144.252 184.183 144.338 184.137 144.434C184.091 144.531 184.065 144.636 184.062 144.743C184.063 144.811 184.078 144.878 184.108 144.939C184.138 145.001 184.182 145.054 184.236 145.096C184.365 145.193 184.522 145.245 184.684 145.241C184.873 145.238 185.061 145.214 185.244 145.169L185.854 145.04C186.689 144.872 187.445 144.726 187.994 144.625C188.288 144.556 188.588 144.507 188.89 144.48Z" fill="#EB996E"/>
<path d="M182.915 143.36C182.398 143.257 181.873 143.204 181.347 143.203C180.824 143.252 180.308 143.355 179.807 143.511C180.265 143.22 180.797 143.064 181.341 143.063C181.883 143.015 182.428 143.118 182.915 143.36Z" fill="#EB996E"/>
<path d="M100.634 138.085C100.634 138.085 92.8832 131.55 94.6752 127.047C96.4672 122.545 101.446 120.327 103.893 112.123C105.847 105.582 117.49 92.9599 131.288 102.48C131.288 102.48 135.958 101.746 138.613 103.874C141.267 106.002 141.911 110.247 143.037 115.147C144.773 122.702 145.725 128.509 142.365 132.205C139.005 135.901 137.773 136.892 137.952 141.092C138.187 146.574 140.606 145.841 138.512 149.839L126.942 146.065L126.819 142.878L125.649 145.874L118.929 143.455L100.634 138.085Z" fill="#263238"/>
<path d="M139.167 110.521C138.417 112.246 139.033 114.24 139.727 115.987C140.421 117.734 141.267 119.577 140.909 121.425C140.27 124.701 136.199 126.526 135.751 129.825C135.51 131.594 136.395 133.397 136.053 135.156C135.712 136.914 134.301 138.135 132.794 138.986C131.288 139.837 129.625 140.409 128.208 141.405C128.208 141.405 125.094 143.959 119.729 139.753" fill="#263238"/>
<path d="M117.187 106.237C116.491 106.076 115.76 106.182 115.138 106.533C114.516 106.885 114.048 107.456 113.827 108.136L102.711 145.04C101.272 149.357 106.704 153.966 111.335 155.467C116.017 156.985 116.963 154.761 118.447 150.696C120.934 143.909 121.807 141.344 121.807 141.383C121.807 141.422 128.012 142.447 131.887 135.223C133.814 131.622 135.807 125.311 137.247 120.103C138.557 115.41 137.471 108.713 132.727 107.609L117.187 106.237Z" fill="#FFBE9D"/>
<path d="M133.327 123.956C133.241 124.214 133.057 124.427 132.815 124.551C132.573 124.675 132.292 124.698 132.033 124.617C131.905 124.583 131.784 124.524 131.679 124.443C131.574 124.362 131.486 124.261 131.42 124.146C131.354 124.031 131.312 123.904 131.296 123.772C131.28 123.64 131.291 123.507 131.327 123.379C131.414 123.122 131.598 122.909 131.84 122.786C132.081 122.662 132.362 122.638 132.621 122.718C132.749 122.752 132.87 122.811 132.975 122.892C133.08 122.972 133.168 123.073 133.234 123.189C133.3 123.304 133.342 123.431 133.358 123.563C133.373 123.695 133.363 123.828 133.327 123.956Z" fill="#263238"/>
<path d="M134.861 122.64C134.698 122.724 134.144 121.917 133.085 121.553C132.027 121.189 131.069 121.447 131.002 121.279C130.963 121.201 131.17 121.01 131.562 120.881C132.13 120.725 132.732 120.746 133.287 120.943C133.838 121.134 134.314 121.495 134.648 121.973C134.911 122.309 134.945 122.584 134.861 122.64Z" fill="#263238"/>
<path d="M122.843 120.607C122.757 120.864 122.575 121.077 122.334 121.201C122.094 121.326 121.815 121.352 121.555 121.273C121.427 121.24 121.307 121.181 121.201 121.1C121.096 121.019 121.008 120.918 120.942 120.803C120.877 120.688 120.835 120.56 120.819 120.429C120.803 120.297 120.813 120.163 120.85 120.036C120.936 119.779 121.118 119.566 121.359 119.442C121.599 119.317 121.879 119.291 122.138 119.369C122.266 119.403 122.386 119.462 122.492 119.543C122.597 119.624 122.685 119.725 122.751 119.84C122.816 119.955 122.859 120.082 122.874 120.214C122.89 120.346 122.88 120.479 122.843 120.607Z" fill="#263238"/>
<path d="M124.322 119.454C124.154 119.543 123.599 118.731 122.541 118.367C121.483 118.003 120.525 118.261 120.458 118.093C120.419 118.014 120.626 117.83 121.046 117.701C121.613 117.541 122.216 117.563 122.771 117.762C123.322 117.95 123.799 118.309 124.131 118.787C124.367 119.146 124.4 119.42 124.322 119.454Z" fill="#263238"/>
<path d="M125.431 128.626C126.049 128.644 126.662 128.739 127.256 128.912C127.536 128.979 127.816 129.013 127.917 128.845C128.035 128.573 128.068 128.273 128.012 127.982C128.012 127.243 127.962 126.465 127.934 125.653C127.839 122.337 127.872 119.655 128.007 119.649C128.141 119.644 128.326 122.332 128.415 125.641C128.415 126.453 128.443 127.232 128.46 127.977C128.521 128.365 128.439 128.763 128.231 129.097C128.162 129.176 128.075 129.239 127.978 129.281C127.881 129.323 127.776 129.342 127.671 129.337C127.508 129.328 127.348 129.295 127.195 129.242C126.583 129.113 125.99 128.906 125.431 128.626Z" fill="#263238"/>
<path d="M121.813 141.383C118.188 140.187 114.967 138.005 112.511 135.083C112.511 135.083 113.267 141.243 121.18 143.197L121.813 141.383Z" fill="#EB996E"/>
<path d="M124.098 131.04C123.986 130.716 123.793 130.427 123.537 130.2C123.281 129.972 122.971 129.814 122.636 129.741C122.396 129.68 122.147 129.669 121.902 129.708C121.658 129.746 121.424 129.834 121.214 129.965C121.01 130.091 120.85 130.277 120.757 130.498C120.663 130.718 120.641 130.963 120.693 131.197C120.796 131.445 120.971 131.657 121.196 131.805C121.42 131.952 121.684 132.029 121.953 132.026C122.513 132.025 123.068 131.911 123.583 131.69C123.732 131.647 123.873 131.577 123.997 131.482C124.055 131.437 124.098 131.376 124.122 131.306C124.146 131.237 124.149 131.162 124.131 131.09" fill="#EB996E"/>
<path d="M125.106 116.429C124.943 116.709 123.874 116.357 122.552 116.267C121.231 116.177 120.127 116.329 120.004 116.032C119.954 115.886 120.189 115.64 120.665 115.433C121.29 115.176 121.969 115.074 122.642 115.136C123.317 115.18 123.972 115.386 124.551 115.735C124.988 116.015 125.184 116.295 125.106 116.429Z" fill="#263238"/>
<path d="M136.384 119.112C136.093 119.291 135.264 118.787 134.206 118.474C133.147 118.16 132.184 118.082 132.044 117.768C131.988 117.617 132.201 117.41 132.66 117.292C133.287 117.168 133.935 117.202 134.546 117.391C135.157 117.579 135.712 117.917 136.16 118.373C136.468 118.72 136.518 119.017 136.384 119.112Z" fill="#263238"/>
<path d="M104.24 130.48C106.323 123.502 108.409 116.521 110.495 109.536C110.921 108.102 111.414 106.573 112.607 105.672C113.799 104.77 115.244 104.72 116.655 104.692C122.753 104.565 128.844 105.167 134.799 106.484C135.079 107.901 133.853 109.25 132.475 109.715C131.098 110.18 129.608 110.012 128.163 110.029C126.719 110.045 125.134 110.303 124.154 111.373C123.174 112.442 123.006 114.262 122.02 115.449C120.34 117.488 116.773 117.057 115.087 119.106C113.816 120.657 114.158 122.925 113.738 124.885C113.262 127.125 113.262 127.125 111.498 130.385C110.428 132.389 113.116 136.22 110.439 141.187L105.243 139.709L107.522 132.037L104.431 139.233L104.24 130.48Z" fill="#263238"/>
<path d="M122.294 128.498C122.401 128.559 122.345 128.839 122.339 129.242C122.305 129.741 122.41 130.24 122.643 130.683C122.875 131.126 123.225 131.496 123.655 131.751C123.986 131.975 124.249 132.087 124.215 132.21C124.182 132.334 123.896 132.44 123.398 132.322C123.068 132.235 122.76 132.08 122.494 131.867C122.227 131.654 122.008 131.387 121.85 131.085C121.692 130.783 121.599 130.451 121.576 130.11C121.553 129.77 121.601 129.429 121.718 129.108C121.925 128.626 122.199 128.436 122.294 128.498Z" fill="#263238"/>
<path d="M120.749 111.664C120.661 111.732 120.562 111.787 120.458 111.826C120.175 111.964 119.9 112.117 119.635 112.285C118.418 113.041 117.378 114.049 116.587 115.243C115.795 116.436 115.27 117.787 115.048 119.201C114.914 120.199 114.914 121.211 115.048 122.209C115.214 123.298 115.28 124.4 115.244 125.501C115.208 126.076 115.09 126.641 114.891 127.181C114.682 127.687 114.433 128.176 114.147 128.643C113.57 129.465 113.17 130.397 112.971 131.381C112.862 132.284 112.886 133.197 113.043 134.092C113.161 134.949 113.312 135.772 113.368 136.483C113.525 137.658 113.349 138.853 112.859 139.933C112.707 140.216 112.519 140.478 112.299 140.711C112.136 140.862 112.047 140.935 112.041 140.924C112.321 140.608 112.56 140.258 112.752 139.882C113.184 138.818 113.325 137.659 113.161 136.522C113.088 135.794 112.926 135.005 112.797 134.148C112.625 133.225 112.593 132.281 112.702 131.348C112.92 129.287 114.908 127.775 114.942 125.513C114.977 124.428 114.915 123.343 114.757 122.27C114.617 121.248 114.617 120.212 114.757 119.19C115.033 117.458 115.765 115.83 116.879 114.475C117.621 113.567 118.528 112.808 119.551 112.235C119.825 112.076 120.112 111.94 120.407 111.826C120.512 111.754 120.627 111.699 120.749 111.664Z" fill="#263238"/>
<path d="M145.848 143.153L145.753 143.231C145.686 143.276 145.59 143.354 145.456 143.433C145.06 143.666 144.632 143.839 144.185 143.948C143.472 144.125 142.73 144.152 142.006 144.026C141.037 143.872 140.138 143.425 139.43 142.744C138.577 141.91 138.034 140.809 137.89 139.625C137.797 138.968 137.841 138.298 138.019 137.659C138.215 136.987 138.526 136.354 138.938 135.789C139.874 134.646 140.911 133.589 142.034 132.63C142.597 132.108 143.107 131.533 143.558 130.911C144.003 130.261 144.355 129.552 144.605 128.806C145.064 127.31 145.262 125.748 145.193 124.186C145.137 122.723 144.986 121.266 144.739 119.823C144.339 117.377 143.717 114.972 142.88 112.638C142.316 111.062 141.662 109.519 140.92 108.018C140.657 107.486 140.444 107.078 140.298 106.803C140.214 106.675 140.141 106.541 140.08 106.4C140.177 106.527 140.263 106.662 140.338 106.803C140.5 107.066 140.73 107.47 141.01 107.996C141.796 109.481 142.483 111.017 143.065 112.594C143.937 114.931 144.585 117.346 145.002 119.806C145.26 121.261 145.419 122.732 145.478 124.208C145.554 125.803 145.351 127.398 144.879 128.923C144.625 129.697 144.261 130.431 143.798 131.102C143.334 131.739 142.809 132.33 142.23 132.866C141.117 133.81 140.088 134.85 139.156 135.974C138.758 136.511 138.457 137.114 138.266 137.754C138.095 138.362 138.047 138.998 138.126 139.625C138.259 140.76 138.77 141.817 139.576 142.626C140.25 143.286 141.107 143.729 142.034 143.898C142.737 144.032 143.459 144.021 144.157 143.864C144.754 143.715 145.324 143.475 145.848 143.153Z" fill="#263238"/>
<path d="M98.209 135.559C98.8643 135.389 99.4767 135.084 100.007 134.663C101.395 133.43 102.251 131.705 102.392 129.853C102.513 128.582 102.546 127.304 102.493 126.028C102.412 124.545 102.527 123.057 102.835 121.604C103.024 120.817 103.327 120.062 103.736 119.364C104.171 118.625 104.778 118.003 105.506 117.55C107.023 116.62 108.866 116.665 110.546 116.088C111.365 115.801 112.101 115.319 112.691 114.682C113.258 114.051 113.765 113.366 114.203 112.638C115.099 111.227 115.961 109.743 117.327 108.864C117.984 108.446 118.723 108.177 119.495 108.074C120.209 107.978 120.931 107.948 121.651 107.985C122.924 108.084 124.204 108.073 125.475 107.951C127.31 107.699 129.056 107.004 130.56 105.924C130.965 105.628 131.354 105.31 131.725 104.972L132.011 104.703L132.117 104.614C131.684 105.143 131.183 105.614 130.627 106.014C129.124 107.144 127.363 107.881 125.503 108.158C124.222 108.292 122.931 108.314 121.645 108.226C120.29 108.226 118.75 108.226 117.473 109.094C116.196 109.962 115.339 111.367 114.443 112.79C113.997 113.536 113.479 114.237 112.898 114.884C112.282 115.551 111.513 116.058 110.658 116.362C108.933 116.956 107.096 116.922 105.679 117.796C104.349 118.7 103.429 120.092 103.12 121.671C102.809 123.099 102.687 124.562 102.756 126.022C102.805 127.31 102.76 128.6 102.622 129.881C102.457 131.773 101.551 133.524 100.102 134.753C99.7004 135.07 99.2424 135.307 98.7522 135.453C98.6251 135.489 98.4961 135.519 98.3658 135.542C98.3151 135.558 98.2618 135.564 98.209 135.559Z" fill="#455A64"/>
<path d="M103.82 112.364C104.185 112.492 104.56 112.591 104.94 112.661C105.975 112.787 107.025 112.614 107.964 112.162C109.334 111.441 110.561 110.475 111.582 109.312C112.198 108.685 112.842 108.013 113.57 107.38C114.316 106.706 115.17 106.161 116.096 105.767C117.036 105.4 118.037 105.21 119.047 105.207C119.973 105.205 120.898 105.255 121.819 105.358C122.692 105.442 123.499 105.532 124.294 105.537C125.013 105.549 125.731 105.491 126.439 105.364C127.465 105.203 128.431 104.774 129.239 104.121C129.516 103.86 129.78 103.585 130.028 103.297C129.988 103.389 129.937 103.475 129.877 103.555C129.812 103.658 129.739 103.755 129.659 103.846C129.553 103.975 129.437 104.095 129.312 104.205C128.505 104.912 127.518 105.383 126.461 105.565C125.742 105.709 125.01 105.781 124.277 105.778C123.488 105.778 122.653 105.7 121.774 105.627C120.864 105.53 119.95 105.485 119.036 105.493C118.061 105.491 117.095 105.67 116.185 106.019C114.332 106.786 112.999 108.259 111.756 109.485C110.707 110.663 109.443 111.628 108.032 112.33C107.056 112.782 105.967 112.93 104.907 112.756C104.621 112.702 104.343 112.613 104.078 112.493C103.988 112.458 103.902 112.415 103.82 112.364Z" fill="#455A64"/>
<path d="M144.336 128.066C144.474 127.723 144.566 127.364 144.61 126.997C144.662 125.992 144.383 124.999 143.815 124.169C143.166 123.049 141.962 122.108 140.741 120.915C140.083 120.293 139.533 119.566 139.111 118.765C138.702 117.885 138.466 116.934 138.417 115.965C138.288 113.977 138.63 112.118 138.585 110.432C138.649 108.941 138.216 107.472 137.353 106.254C136.75 105.45 135.877 104.891 134.894 104.681C134.523 104.627 134.148 104.618 133.774 104.653C133.865 104.612 133.961 104.586 134.06 104.574C134.337 104.536 134.618 104.536 134.894 104.574C135.927 104.748 136.857 105.303 137.498 106.131C138.366 107.134 138.814 108.724 138.837 110.432C138.859 112.14 138.562 114.01 138.691 115.948C138.736 116.885 138.96 117.805 139.352 118.658C139.754 119.436 140.282 120.142 140.914 120.747C142.102 121.934 143.328 122.931 143.972 124.107C144.546 124.978 144.805 126.02 144.706 127.058C144.67 127.336 144.591 127.606 144.47 127.859C144.434 127.933 144.389 128.003 144.336 128.066Z" fill="#455A64"/>
<path d="M94.7763 131.421C94.6529 131.363 94.5332 131.297 94.4179 131.225C94.0931 131.006 93.8009 130.742 93.5499 130.441C93.0873 129.877 92.7518 129.22 92.5663 128.514C92.3807 127.809 92.3495 127.071 92.4747 126.353C92.565 125.874 92.7254 125.412 92.9507 124.981C93.2187 124.528 93.5506 124.117 93.9363 123.76C94.8207 123.033 95.8005 122.43 96.8483 121.968C97.9872 121.481 99.0389 120.811 99.9619 119.986C100.854 119.005 101.463 117.801 101.726 116.502C102.062 115.175 102.286 113.831 102.728 112.582C103.143 111.388 103.689 110.245 104.358 109.172C105.48 107.351 106.922 105.748 108.614 104.44C109.75 103.558 110.996 102.827 112.321 102.267C112.677 102.11 113.042 101.974 113.413 101.858C113.539 101.806 113.671 101.769 113.805 101.746C113.805 101.78 113.279 101.948 112.366 102.374C111.07 102.967 109.853 103.719 108.743 104.614C107.091 105.926 105.684 107.52 104.587 109.323C103.936 110.381 103.405 111.508 103.003 112.683C102.577 113.904 102.353 115.231 102.006 116.603C101.733 117.953 101.096 119.202 100.163 120.215C99.2178 121.06 98.1393 121.743 96.9715 122.237C95.941 122.683 94.9748 123.265 94.0987 123.967C93.7292 124.305 93.4087 124.694 93.1467 125.121C92.9262 125.528 92.7677 125.966 92.6763 126.42C92.537 127.209 92.5811 128.019 92.8051 128.789C92.9768 129.372 93.258 129.918 93.6339 130.396C93.9691 130.785 94.3531 131.13 94.7763 131.421Z" fill="#263238"/>
<path d="M145.915 128.587C145.887 128.587 146.15 128.318 146.509 127.786C147.003 127.034 147.341 126.19 147.506 125.305C147.74 123.993 147.692 122.645 147.366 121.352C146.93 119.774 146.254 118.272 145.361 116.9C144.437 115.416 143.44 114.072 142.6 112.801C141.839 111.681 141.177 110.497 140.623 109.261C140.251 108.425 139.978 107.547 139.811 106.646C139.768 106.402 139.738 106.155 139.722 105.907C139.709 105.822 139.709 105.735 139.722 105.649C139.722 105.649 139.789 106.002 139.929 106.624C140.132 107.511 140.427 108.374 140.808 109.2C141.387 110.409 142.061 111.57 142.824 112.672C143.67 113.932 144.678 115.27 145.624 116.771C146.533 118.169 147.216 119.702 147.646 121.313C147.966 122.644 147.993 124.03 147.724 125.373C147.533 126.277 147.151 127.131 146.604 127.876C146.456 128.076 146.291 128.264 146.111 128.436C146.053 128.495 145.987 128.545 145.915 128.587Z" fill="#263238"/>
<path d="M87.7481 206.64L83.1505 214.642C83.1505 214.642 60.2969 206.282 46.9185 208.718C41.8281 209.642 36.3849 221.183 43.7993 228.598C51.0289 235.827 63.9593 246.053 88.2241 249.362C88.8289 249.441 98.7689 251.574 98.1529 251.501C97.5369 251.429 112.086 253.742 112.086 253.742L115.502 240.828L142.6 245.078C158.571 243.992 166.389 226.912 156.768 221.413C147.808 216.289 130.93 215.874 130.93 215.874L124.814 206.287L87.7481 206.64Z" fill="#263238"/>
<path d="M112.64 254.24C112.707 253.803 112.903 252.627 113.295 250.213C113.514 248.925 113.777 247.357 114.119 245.554C114.292 244.647 114.483 243.689 114.712 242.676C114.83 242.166 114.953 241.651 115.104 241.119C115.177 240.856 115.255 240.593 115.351 240.324C115.437 240.035 115.577 239.765 115.765 239.529L115.804 239.725C110.036 237.675 102.823 234.97 95.1401 231.728C90.4138 229.717 85.9562 227.69 82.0306 225.568C80.1584 224.592 78.3614 223.478 76.6546 222.236C75.0642 221.06 73.6418 219.884 72.309 218.876C69.677 216.793 67.269 215.449 65.4938 214.877C65.1028 214.739 64.7046 214.621 64.301 214.525C64.0085 214.443 63.7111 214.379 63.4106 214.334L62.8506 214.233L62.6602 214.189C62.7253 214.181 62.791 214.181 62.8562 214.189L63.4162 214.261C63.722 214.294 64.0251 214.349 64.3234 214.424C64.7329 214.509 65.1368 214.62 65.533 214.754C66.6243 215.108 67.6754 215.575 68.669 216.149C69.9832 216.909 71.2426 217.76 72.4378 218.697C73.7818 219.71 75.2042 220.875 76.8002 222.057C78.5026 223.285 80.294 224.386 82.1594 225.349C86.0794 227.444 90.5313 229.465 95.2521 231.47C102.93 234.707 110.131 237.434 115.883 239.512L116.045 239.573L115.922 239.708C115.765 239.921 115.645 240.16 115.569 240.413C115.474 240.671 115.395 240.934 115.317 241.192C115.166 241.713 115.037 242.233 114.919 242.732C114.684 243.74 114.483 244.697 114.303 245.599C113.945 247.402 113.665 248.959 113.43 250.247C113.195 251.535 113.004 252.515 112.87 253.215C112.803 253.557 112.752 253.82 112.707 253.993C112.69 254.077 112.668 254.159 112.64 254.24Z" fill="#455A64"/>
<path d="M151.515 222.981H151.364L150.944 222.913C150.574 222.863 150.037 222.729 149.326 222.656C147.334 222.394 145.322 222.322 143.317 222.443C140.341 222.635 137.392 223.122 134.514 223.899C132.89 224.33 131.198 224.845 129.474 225.445C127.749 226.044 125.979 226.733 124.17 227.455C122.405 228.155 120.601 228.752 118.766 229.241C116.991 229.729 115.261 230.109 113.603 230.429C110.288 231.078 107.27 231.476 104.738 231.784C102.207 232.092 100.152 232.299 98.7352 232.445L97.1 232.607L96.6744 232.641C96.6262 232.648 96.5771 232.648 96.5288 232.641H96.6688L97.0944 232.579L98.7184 232.361L104.71 231.61C107.242 231.274 110.249 230.854 113.547 230.193C115.199 229.869 116.907 229.482 118.688 228.989C120.512 228.499 122.307 227.907 124.064 227.214C125.867 226.492 127.642 225.797 129.384 225.204C131.126 224.61 132.817 224.084 134.452 223.664C137.349 222.896 140.318 222.429 143.311 222.269C145.329 222.164 147.351 222.266 149.348 222.572C150.059 222.661 150.591 222.818 150.961 222.885L151.381 222.981C151.425 222.975 151.471 222.975 151.515 222.981Z" fill="#455A64"/>
<path d="M109.762 218.333C109.762 218.523 108.552 218.831 106.519 219.022C101.211 219.456 95.869 218.886 90.7721 217.342C88.8289 216.726 87.6921 216.16 87.7481 215.975C87.8769 215.572 92.6761 216.849 98.7241 217.476C104.772 218.103 109.722 217.907 109.762 218.333Z" fill="#263238"/>
<path d="M131.188 216.065C130.895 216.167 130.596 216.248 130.292 216.306C129.938 216.377 129.589 216.467 129.244 216.574C128.841 216.692 128.376 216.815 127.878 216.994C126.7 217.388 125.545 217.846 124.417 218.366C123.152 218.971 121.785 219.688 120.391 220.517C118.029 221.958 115.763 223.552 113.609 225.288C112.78 225.949 112.114 226.498 111.66 226.878C111.433 227.086 111.187 227.273 110.927 227.438C111.129 227.204 111.348 226.985 111.582 226.783C112.019 226.374 112.663 225.803 113.48 225.103C115.606 223.309 117.868 221.682 120.245 220.237C121.559 219.452 122.915 218.738 124.305 218.098C125.446 217.581 126.619 217.138 127.816 216.77C128.32 216.602 128.791 216.49 129.205 216.39C129.555 216.294 129.91 216.219 130.269 216.166C130.572 216.106 130.879 216.072 131.188 216.065Z" fill="#455A64"/>
<path d="M105.78 227.449C105.227 227.366 104.687 227.212 104.173 226.99C102.919 226.511 101.694 225.96 100.505 225.338L96.9601 223.473C96.4559 223.241 95.9677 222.975 95.4985 222.678C96.037 222.828 96.5587 223.032 97.0553 223.289C97.9905 223.714 99.2561 224.364 100.651 225.075C102.045 225.786 103.316 226.402 104.263 226.8C105.209 227.197 105.791 227.405 105.78 227.449Z" fill="#455A64"/>
<path d="M108.25 207.603C108.295 207.603 108.216 208.443 108.132 209.793C108.048 211.142 107.97 213.007 108.009 215.068C108.048 217.129 108.199 218.988 108.334 220.343C108.44 221.067 108.509 221.796 108.541 222.527C108.467 222.348 108.418 222.159 108.395 221.967C108.317 221.597 108.227 221.054 108.132 220.382C107.89 218.628 107.751 216.861 107.718 215.09C107.685 213.322 107.754 211.553 107.925 209.793C107.998 209.115 108.065 208.572 108.127 208.197C108.143 207.994 108.185 207.795 108.25 207.603Z" fill="#455A64"/>
<path d="M110.798 208.432C110.798 208.432 110.697 208.522 110.557 208.69C110.361 208.924 110.236 209.21 110.198 209.513C110.167 209.731 110.182 209.952 110.243 210.164C110.304 210.375 110.409 210.571 110.551 210.739C110.747 210.913 110.986 211.031 111.244 211.079C111.501 211.127 111.767 211.105 112.012 211.014C112.258 210.923 112.474 210.767 112.638 210.563C112.802 210.359 112.907 210.114 112.942 209.854C112.937 209.632 112.884 209.414 112.787 209.214C112.691 209.015 112.553 208.838 112.382 208.695C112.157 208.49 111.877 208.353 111.576 208.303C111.358 208.27 111.234 208.303 111.229 208.264C111.223 208.225 111.346 208.191 111.587 208.191C111.927 208.201 112.254 208.323 112.517 208.538C112.721 208.693 112.888 208.893 113.003 209.122C113.119 209.351 113.18 209.603 113.183 209.86C113.157 210.179 113.041 210.484 112.848 210.739C112.655 210.994 112.393 211.188 112.093 211.299C111.793 211.411 111.467 211.434 111.154 211.366C110.842 211.299 110.555 211.143 110.327 210.918C110.165 210.72 110.048 210.488 109.987 210.239C109.926 209.99 109.922 209.73 109.974 209.479C110.034 209.143 110.203 208.836 110.456 208.606C110.658 208.454 110.792 208.421 110.798 208.432Z" fill="#455A64"/>
<path d="M117.753 199.209C117.628 199.411 117.482 199.599 117.316 199.769C116.896 200.268 116.447 200.743 115.972 201.191C115.269 201.86 114.521 202.48 113.732 203.045C112.761 203.733 111.741 204.349 110.68 204.887C109.613 205.411 108.509 205.855 107.376 206.214C106.448 206.503 105.501 206.727 104.542 206.886C103.9 206.999 103.251 207.072 102.599 207.105C102.361 207.128 102.121 207.128 101.882 207.105C101.882 207.049 102.896 206.993 104.509 206.679C105.455 206.491 106.39 206.248 107.309 205.951C110.459 204.922 113.362 203.25 115.832 201.04C117.053 199.954 117.708 199.175 117.753 199.209Z" fill="#263238"/>
<path d="M127.973 205.425C127.973 205.509 126.965 205.509 125.777 205.811C124.59 206.113 123.694 206.561 123.649 206.489C124.892 205.575 126.447 205.192 127.973 205.425Z" fill="#263238"/>
<g opacity="0.3">
<path opacity="0.3" d="M104.47 206.825C109.338 205.933 113.748 203.384 116.952 199.612C117.244 200.498 117.283 201.448 117.067 202.356C116.85 203.264 116.386 204.093 115.726 204.753C117.148 205.425 118.817 204.977 120.374 204.753C121.93 204.529 123.834 204.753 124.579 206.136C117.614 206.781 110.615 206.981 103.624 206.735" fill="black"/>
</g>
<path d="M90.5649 195.849C89.8631 195.184 89.045 194.654 88.1513 194.286C87.1758 193.908 86.1338 193.731 85.0881 193.765C83.81 193.811 82.5593 194.148 81.4313 194.751C78.9897 196.017 77.5113 198.178 76.4361 199.561C76.0196 200.142 75.6453 200.753 75.3161 201.387C75.2073 201.626 75.078 201.854 74.9297 202.07C75 201.817 75.0957 201.571 75.2153 201.337C75.5028 200.677 75.8476 200.043 76.2457 199.444C76.7665 198.693 77.4385 197.853 78.2113 196.935C79.0778 195.941 80.1176 195.111 81.2801 194.488C82.4492 193.866 83.7475 193.527 85.0713 193.497C86.1506 193.475 87.2226 193.679 88.2185 194.096C88.8883 194.37 89.503 194.762 90.0329 195.255C90.1801 195.384 90.315 195.527 90.4361 195.681C90.5313 195.787 90.5761 195.843 90.5649 195.849Z" fill="#263238"/>
<path d="M105.226 142.134L97.4082 143.797L101.317 158.43L115.16 161.403L124.658 154.666L125.963 146.597L117.82 143.517L105.226 142.134Z" fill="#FFBE9D"/>
<path d="M99.7209 143.198C99.7209 143.198 105.013 158.564 114.79 157.142C124.568 155.719 123.75 145.762 123.75 145.762C123.75 145.762 133.954 148.876 137.106 152.186C140.259 155.495 138.4 162.691 138.4 162.691L135.757 175.694L130 200.603C130 200.603 132.201 207.402 126.573 209.082L124.798 206.282L91.0465 207.234C91.0465 207.234 83.8281 215.555 81.5769 212.688C79.3257 209.821 77.1641 204.221 77.1641 204.221L92.6705 145.04L99.7209 143.198Z" fill="#455A64"/>
<path d="M134.441 150.22C134.715 150.377 158.403 167.58 158.403 167.58C158.403 167.58 156.544 181.737 167.923 179.486C167.923 179.486 163.331 191.324 157.115 188.838C155.345 188.132 133.511 174.317 133.511 174.317L128.88 164.455L134.441 150.22Z" fill="#455A64"/>
<path d="M99.7207 143.954C99.7207 143.954 99.1607 143.954 98.2815 144.054C93.6447 144.502 76.5311 148.047 74.9463 160.126C74.1175 166.443 73.8823 184.918 72.9863 192.662C72.9863 192.662 74.4143 203.426 74.9463 205.419C75.8927 208.97 93.0399 203.28 93.0399 203.28L93.0735 169.12L99.1999 143.97" fill="#455A64"/>
<path d="M88.8908 174.989C88.9061 175.08 88.9061 175.172 88.8908 175.263C88.8951 175.529 88.9138 175.795 88.9468 176.058C89.0685 177.018 89.3112 177.959 89.6692 178.858C90.106 180.012 90.7892 181.322 91.4388 182.823C91.7957 183.611 92.0951 184.423 92.3348 185.254C92.5748 186.15 92.7304 187.067 92.7996 187.992C92.8995 189.774 92.8527 191.56 92.6596 193.334C92.5196 194.97 92.3852 196.442 92.1836 197.669C92.0308 198.638 91.8043 199.595 91.506 200.53C91.394 200.861 91.2988 201.09 91.226 201.281C91.1974 201.37 91.1559 201.455 91.1028 201.533C91.1028 201.533 91.2092 201.163 91.3996 200.497C91.6501 199.557 91.8372 198.6 91.9596 197.635C92.1388 196.414 92.2508 194.947 92.3796 193.318C92.5511 191.555 92.5885 189.782 92.4916 188.014C92.4257 187.106 92.2757 186.207 92.0436 185.326C91.8104 184.508 91.5203 183.707 91.1756 182.93C90.526 181.434 89.8764 180.102 89.4564 178.931C89.1082 178.007 88.8932 177.038 88.818 176.053C88.795 175.786 88.795 175.518 88.818 175.252C88.8344 175.162 88.8588 175.074 88.8908 174.989Z" fill="#263238"/>
<path d="M89.6798 170.677C89.7302 170.677 89.7694 171.545 89.9654 172.917C90.2194 174.722 90.6374 176.501 91.2142 178.231C91.3878 178.741 91.567 179.228 91.7742 179.698C91.8149 179.807 91.8616 179.914 91.9142 180.018L92.1158 180.326C92.2458 180.53 92.3654 180.742 92.4742 180.958C92.8749 181.703 93.0919 182.532 93.107 183.378C93.1101 183.954 92.9977 184.525 92.7766 185.058C92.6992 185.257 92.5957 185.445 92.4686 185.618C92.7515 184.924 92.8979 184.183 92.8998 183.434C92.859 182.626 92.6329 181.838 92.239 181.132C92.1326 180.93 92.0094 180.729 91.8806 180.527L91.679 180.219C91.6111 180.104 91.5549 179.982 91.511 179.855C91.315 179.385 91.1358 178.886 90.951 178.377C90.3631 176.629 89.9687 174.823 89.775 172.99C89.6966 172.29 89.6742 171.713 89.6686 171.31C89.6477 171.099 89.6514 170.887 89.6798 170.677Z" fill="#263238"/>
<path d="M90.3634 165.547C90.3186 165.547 90.061 164.847 89.557 163.744C88.8976 162.303 88.1046 160.927 87.1882 159.634C86.2644 158.348 85.224 157.15 84.0802 156.055C83.201 155.215 82.6074 154.739 82.641 154.7C82.8027 154.777 82.9533 154.875 83.089 154.991C83.4779 155.276 83.8517 155.581 84.209 155.904C86.6156 158.037 88.5057 160.689 89.7362 163.66C89.9658 164.22 90.1338 164.696 90.229 165.026C90.2953 165.194 90.3405 165.369 90.3634 165.547Z" fill="#263238"/>
<path d="M138.898 155.512C138.91 155.966 138.872 156.421 138.786 156.867C138.686 157.702 138.54 158.85 138.411 160.121C138.282 161.392 138.176 162.546 138.103 163.386C138.095 163.84 138.038 164.292 137.935 164.735C137.871 164.284 137.858 163.828 137.896 163.374C137.896 162.529 137.986 161.37 138.12 160.093C138.254 158.816 138.428 157.662 138.579 156.839C138.636 156.386 138.743 155.941 138.898 155.512Z" fill="#263238"/>
<path d="M143.77 169.893C143.77 169.943 143.031 170.016 141.883 170.341C140.389 170.755 139.028 171.553 137.935 172.654C137.355 173.276 136.849 173.964 136.429 174.703C136.099 175.318 135.811 175.954 135.566 176.607L135.292 177.369C135.225 177.576 135.169 177.772 135.113 177.929C135.073 178.1 135.011 178.266 134.928 178.422C134.925 178.245 134.951 178.069 135.006 177.901L135.135 177.302L135.37 176.518C135.593 175.842 135.868 175.185 136.194 174.552C136.617 173.8 137.132 173.104 137.728 172.48C138.849 171.34 140.271 170.54 141.827 170.173C142.092 170.1 142.361 170.046 142.634 170.01C142.835 169.972 143.039 169.946 143.244 169.932C143.416 169.891 143.594 169.878 143.77 169.893Z" fill="#263238"/>
<path d="M159.456 185.478C159.308 185.283 159.183 185.072 159.081 184.85C158.963 184.649 158.829 184.391 158.689 184.083C158.549 183.775 158.381 183.439 158.235 183.042C157.866 182.122 157.565 181.177 157.334 180.214C157.053 179.03 156.865 177.826 156.774 176.613C156.697 175.402 156.718 174.186 156.835 172.978C156.938 171.993 157.11 171.016 157.35 170.055C157.44 169.641 157.569 169.277 157.664 168.935C157.741 168.659 157.834 168.388 157.944 168.123C158.017 167.89 158.115 167.664 158.235 167.451C158.291 167.451 157.916 168.442 157.552 170.078C157.343 171.034 157.193 172.003 157.104 172.978C157.004 174.174 156.989 175.376 157.059 176.574C157.149 177.77 157.325 178.958 157.586 180.13C157.803 181.079 158.08 182.014 158.414 182.93C159.008 184.537 159.506 185.455 159.456 185.478Z" fill="#263238"/>
<path d="M153.302 181.272C153.2 181.083 153.125 180.882 153.078 180.673C152.921 180.122 152.805 179.56 152.73 178.993C152.49 177.08 152.67 175.139 153.257 173.303C153.828 171.459 154.806 169.768 156.118 168.353C156.513 167.897 157.061 167.602 157.658 167.524C157.822 167.519 157.985 167.552 158.134 167.619C158.23 167.669 158.28 167.703 158.274 167.714C158.078 167.651 157.871 167.624 157.664 167.636C157.116 167.756 156.625 168.058 156.27 168.493C155.029 169.917 154.099 171.584 153.537 173.387C152.966 175.195 152.76 177.099 152.932 178.987C153.078 180.387 153.352 181.255 153.302 181.272Z" fill="#263238"/>
<path d="M114.79 178.483C114.773 178.71 114.726 178.934 114.65 179.15C114.591 179.408 114.516 179.662 114.426 179.911C114.318 180.246 114.193 180.575 114.051 180.897C113.698 181.743 113.271 182.556 112.774 183.327C111.555 185.228 109.96 186.859 108.087 188.121C107.327 188.636 106.523 189.084 105.685 189.459C105.366 189.608 105.039 189.739 104.705 189.851C104.46 189.953 104.207 190.035 103.949 190.098C103.734 190.172 103.513 190.225 103.288 190.254C103.288 190.198 104.206 189.946 105.595 189.274C106.41 188.878 107.192 188.419 107.936 187.902C108.838 187.261 109.684 186.545 110.467 185.763C111.232 184.963 111.927 184.1 112.545 183.182C113.045 182.428 113.485 181.636 113.861 180.813C114.505 179.407 114.734 178.466 114.79 178.483Z" fill="#263238"/>
<g opacity="0.3">
<path opacity="0.3" d="M95.3974 184.027L92.1718 172.267C92.015 171.707 91.7518 171.018 91.1638 170.912C90.8873 170.902 90.617 170.995 90.405 171.173C90.193 171.351 90.0544 171.601 90.0158 171.875C89.9374 172.445 89.9374 173.024 90.0158 173.594C90.2678 176.153 90.4694 177.889 91.6622 179.872C93.9862 183.736 92.4574 185.612 92.4574 185.612C92.6422 190.316 92.2446 196.733 90.7774 201.566L92.1606 207.396C93.471 203.061 96.467 199.449 96.971 194.947C97.3574 191.257 96.3998 187.6 95.3974 184.027Z" fill="black"/>
</g>
<g opacity="0.3">
<path opacity="0.3" d="M135.768 175.773C139.604 177.766 143.014 180.522 146.75 182.655C145.288 179.603 142.83 176.585 139.873 174.966C139.101 174.468 138.192 174.227 137.274 174.278C136.367 174.406 135.718 174.916 135.858 175.818" fill="black"/>
</g>
<g opacity="0.3">
<path opacity="0.3" d="M157.748 167.333C156.438 167.3 155.452 168.493 154.808 169.635C152.997 172.886 152.256 176.624 152.691 180.32C152.77 180.981 153.016 181.776 153.671 181.905C153.913 181.931 154.157 181.878 154.366 181.754C154.575 181.63 154.738 181.441 154.83 181.216C155.01 180.766 155.085 180.282 155.049 179.799C155.049 177.559 154.892 175.291 155.217 173.079C155.542 170.867 156.376 168.627 158.017 167.109" fill="black"/>
</g>
<path d="M98.5166 171.539H98.651L99.0374 171.511L100.555 171.433L106.289 171.17L126.601 170.307H126.735V170.436C126.903 177.268 127.099 185.13 127.295 193.452V194.286V194.432H127.2C118.832 194.528 110.479 195.153 102.19 196.302H102.084L102.056 196.196C100.449 190.31 99.449 184.276 99.071 178.186C98.9366 175.98 98.9142 174.266 98.9142 173.068C98.9142 172.508 98.9142 172.026 98.9142 171.718V171.377C98.9142 171.298 98.9142 171.259 98.9142 171.259C98.9191 171.298 98.9191 171.338 98.9142 171.377V171.724C98.9142 172.038 98.9142 172.491 98.9142 173.068C98.9142 174.25 98.987 175.98 99.1382 178.175C99.5676 184.249 100.599 190.265 102.218 196.134L102.078 196.039C110.402 194.857 118.793 194.215 127.2 194.118L127.054 194.27V193.435C126.858 185.114 126.679 177.251 126.494 170.419L126.629 170.548L106.312 171.304L100.572 171.494L99.0542 171.539H98.5334H98.5166Z" fill="white"/>
<path d="M105.92 188.513C105.842 188.513 105.142 184.744 104.358 180.062C103.574 175.381 103.003 171.578 103.081 171.562C103.159 171.545 103.859 175.33 104.643 180.018C105.427 184.705 105.976 188.502 105.92 188.513Z" fill="white"/>
<path d="M106.738 195.737C106.437 194.741 106.229 193.719 106.116 192.685C105.91 191.663 105.797 190.624 105.78 189.582C106.082 190.58 106.29 191.604 106.402 192.64C106.615 193.659 106.728 194.696 106.738 195.737Z" fill="white"/>
<path d="M111.565 184.766C111.485 184.602 111.432 184.426 111.408 184.246C111.324 183.91 111.218 183.411 111.1 182.801C110.865 181.574 110.602 179.872 110.411 177.979C110.221 176.086 110.148 174.362 110.131 173.118C110.131 172.491 110.131 171.998 110.131 171.64C110.126 171.452 110.143 171.264 110.182 171.08C110.272 171.746 110.319 172.418 110.322 173.09C110.389 174.334 110.495 176.047 110.686 177.934C110.876 179.822 111.106 181.518 111.285 182.75C111.418 183.416 111.512 184.089 111.565 184.766Z" fill="white"/>
<path d="M110.926 194.986C110.62 193.684 110.409 192.36 110.293 191.027C110.077 189.707 109.961 188.372 109.946 187.034C110.252 188.337 110.463 189.66 110.579 190.994C110.795 192.314 110.912 193.649 110.926 194.986Z" fill="white"/>
<path d="M117.255 194.533C117.196 194.228 117.158 193.919 117.143 193.609L116.924 191.089C116.739 188.966 116.465 186.049 116.095 182.795C115.726 179.541 115.323 176.635 115.02 174.524C114.875 173.505 114.751 172.659 114.662 172.021C114.605 171.716 114.571 171.407 114.561 171.097C114.659 171.392 114.73 171.696 114.774 172.004C114.891 172.564 115.043 173.437 115.222 174.49C115.58 176.601 116.011 179.53 116.387 182.761C116.762 185.993 116.997 188.921 117.131 191.077C117.193 192.141 117.238 193.004 117.255 193.603C117.284 193.912 117.284 194.224 117.255 194.533Z" fill="white"/>
<path d="M122.641 194.835C122.601 194.523 122.586 194.209 122.597 193.894C122.597 193.239 122.597 192.371 122.597 191.33C122.597 189.168 122.518 186.178 122.367 182.885C122.216 179.592 121.981 176.607 121.807 174.451C121.717 173.415 121.645 172.553 121.589 171.903C121.549 171.591 121.532 171.277 121.538 170.962C121.621 171.265 121.675 171.574 121.701 171.886C121.79 172.486 121.897 173.359 122.014 174.434C122.249 176.585 122.507 179.57 122.669 182.868C122.832 186.166 122.849 189.162 122.815 191.33C122.815 192.41 122.776 193.29 122.748 193.894C122.735 194.21 122.7 194.525 122.641 194.835Z" fill="white"/>
<g opacity="0.3">
<path opacity="0.3" d="M103.73 190.294C104.608 190.853 105.646 191.105 106.682 191.01C107.711 190.917 108.717 190.654 109.661 190.232C110.946 189.753 112.105 188.987 113.049 187.992C113.966 186.852 114.548 185.479 114.729 184.027C114.915 182.577 114.963 181.113 114.874 179.654C114.88 179.59 114.864 179.527 114.83 179.474C114.809 179.453 114.785 179.437 114.758 179.425C114.731 179.414 114.702 179.408 114.673 179.408C114.644 179.408 114.615 179.414 114.588 179.425C114.561 179.437 114.536 179.453 114.516 179.474C114.433 179.56 114.373 179.666 114.342 179.782C113.485 182.222 112.058 184.422 110.179 186.198C108.3 187.975 106.024 189.277 103.54 189.997" fill="black"/>
</g>
<path d="M100.264 237.199L96.8423 230.782L89.1479 194.768C89.1479 194.768 82.0695 190.702 76.2679 199.612C76.0383 199.97 84.2423 225.764 86.5327 232.938L86.8519 239.803C86.8519 239.803 86.4487 247.929 86.8519 248.64C87.2125 249.138 87.7051 249.526 88.2743 249.76C88.2743 249.76 87.9719 251.793 90.3071 252C90.3071 252 90.5087 254.24 92.2335 253.932C92.7024 253.875 93.1537 253.719 93.5574 253.473C93.961 253.228 94.3077 252.899 94.5743 252.51C94.5743 252.51 94.5743 255.349 96.0975 255.046C97.6207 254.744 97.8671 253.523 98.1471 253.12C98.4271 252.717 98.7519 248.545 98.7519 248.545L98.7239 241.668L102.689 244.882C103.809 245.442 105.517 246.159 106.469 245.302L100.264 237.199Z" fill="#FFBE9D"/>
<path d="M98.7296 241.315C98.9903 242.533 99.0658 243.782 98.9536 245.022C98.9088 245.974 98.8696 246.842 98.8304 247.638C98.8428 248.001 98.809 248.364 98.7296 248.718C98.5734 247.489 98.5509 246.246 98.6624 245.011C98.7632 242.973 98.64 241.326 98.7296 241.315Z" fill="#EB996E"/>
<path d="M94.3616 246.109C94.5856 248.37 94.6155 250.646 94.4512 252.913C94.2272 250.651 94.1972 248.375 94.3616 246.109Z" fill="#EB996E"/>
<path d="M90.6993 247.357C90.9573 248.938 90.8011 250.559 90.2457 252.061C90.1673 252.061 90.3689 251.003 90.4865 249.709C90.5143 248.922 90.5853 248.137 90.6993 247.357Z" fill="#EB996E"/>
<path d="M88.3417 246.562C88.4358 247.593 88.3332 248.633 88.0392 249.625C87.9407 249.115 87.9407 248.59 88.0392 248.08C88.0466 247.56 88.1491 247.045 88.3417 246.562Z" fill="#EB996E"/>
<path d="M164.899 113.221L165.963 115.164L167.906 116.228L165.963 117.292L164.899 119.235L163.835 117.292L161.892 116.228L163.835 115.164L164.899 113.221Z" fill="#F2575D"/>
<path d="M172 86.6096L173.103 86.5368L173.994 85.876L174.066 86.9848L174.727 87.8752L173.618 87.948L172.728 88.6032L172.655 87.5L172 86.6096Z" fill="#F2575D"/>
<path d="M351.122 174.978L352.225 174.905L353.115 174.244L353.188 175.353L353.849 176.243L352.74 176.316L351.85 176.971L351.777 175.868L351.122 174.978Z" fill="#F2575D"/>
<path d="M224.948 119.689L226.051 119.616L226.947 118.961L227.02 120.064L227.675 120.955L226.572 121.027L225.676 121.683L225.609 120.579L224.948 119.689Z" fill="#F2575D"/>
<path d="M231.679 72.3689L232.782 72.2961L233.673 71.6409L233.746 72.7441L234.401 73.6345L233.298 73.7073L232.407 74.3681L232.334 73.2593L231.679 72.3689Z" fill="#F2575D"/>
<path d="M197.771 101.735L199.451 100.767L200.342 99.0474L201.311 100.727L203.036 101.623L201.356 102.587L200.459 104.311L199.491 102.631L197.771 101.735Z" fill="#F2575D"/>
<path d="M338.919 197.221L340.599 196.252L341.49 194.533L342.459 196.213L344.178 197.103L342.498 198.072L341.607 199.791L340.639 198.111L338.919 197.221Z" fill="#F2575D"/>
<path d="M330.48 166.505L332.16 165.536L333.056 163.817L334.025 165.497L335.744 166.387L334.064 167.356L333.168 169.081L332.205 167.395L330.48 166.505Z" fill="#F2575D"/>
</svg>
