<svg width="375" height="280" viewBox="0 0 375 280" fill="none" xmlns="http://www.w3.org/2000/svg">
<path d="M19.715 178.746H24.1838V173.69H19.715V178.746Z" fill="#FAFAFA"/>
<path d="M71.1961 258.306C71.0897 258.306 71.0057 241.752 71.0057 221.346C71.0057 200.939 71.0897 184.386 71.1961 184.386C71.3026 184.386 71.3866 200.934 71.3866 221.346C71.3866 241.758 71.2802 258.306 71.1961 258.306Z" fill="#E0E0E0"/>
<path d="M87.1561 241.926H79.7753V250.27H87.1561V241.926Z" fill="#FAFAFA"/>
<path d="M343.249 121.845C343.055 120.922 343.055 119.968 343.249 119.045C343.444 119.968 343.444 120.922 343.249 121.845Z" fill="#EBEBEB"/>
<path d="M343.249 127.445C343.055 126.522 343.055 125.568 343.249 124.645C343.444 125.568 343.444 126.522 343.249 127.445Z" fill="#EBEBEB"/>
<path d="M343.249 133.045C343.055 132.122 343.055 131.168 343.249 130.245C343.444 131.168 343.444 132.122 343.249 133.045Z" fill="#EBEBEB"/>
<path d="M343.249 138.645C343.055 137.721 343.055 136.768 343.249 135.845C343.444 136.768 343.444 137.721 343.249 138.645Z" fill="#EBEBEB"/>
<path d="M343.249 144.245C343.055 143.321 343.055 142.368 343.249 141.445C343.444 142.368 343.444 143.321 343.249 144.245Z" fill="#EBEBEB"/>
<path d="M160.438 123.53C160.591 123.682 160.728 123.849 160.847 124.029C161.121 124.41 161.474 124.88 161.888 125.451C162.756 126.655 163.943 128.324 165.248 130.183C166.553 132.042 167.712 133.728 168.541 134.96C168.933 135.52 169.258 136.035 169.515 136.422C169.641 136.599 169.751 136.786 169.846 136.982C169.69 136.832 169.553 136.665 169.437 136.483L168.395 135.066C167.527 133.862 166.34 132.188 165.035 130.334C163.731 128.481 162.577 126.79 161.748 125.558L160.774 124.096C160.64 123.921 160.527 123.731 160.438 123.53Z" fill="#E0E0E0"/>
<path d="M56.4062 250.51C56.4609 250.44 56.5061 250.363 56.5406 250.281C56.6246 250.096 56.731 249.872 56.8598 249.603C57.1398 249.015 57.515 248.153 57.9798 247.083C58.8871 244.938 60.0575 241.942 61.2951 238.61C62.5327 235.278 63.6751 232.277 64.5375 230.121L65.5735 227.567C65.6799 227.287 65.7751 227.058 65.8479 226.873C65.9207 226.688 65.9375 226.626 65.9263 226.621C65.8741 226.692 65.8309 226.769 65.7975 226.85L65.4783 227.522C65.1983 228.116 64.8175 228.978 64.3583 230.048C63.4455 232.187 62.2807 235.189 61.0431 238.515C59.8055 241.842 58.663 244.849 57.795 247.01C57.375 248.058 57.0223 248.92 56.7646 249.558C56.6526 249.838 56.563 250.068 56.4902 250.258C56.4536 250.339 56.4255 250.424 56.4062 250.51Z" fill="#263238"/>
<path d="M149.814 258.826H71.8791C62.4655 258.787 54.5191 250.757 54.5471 241.338L55.3759 45.052C55.3847 42.8117 55.8348 40.5952 56.7006 38.529C57.5664 36.4628 58.8309 34.5874 60.4217 33.0101C62.0126 31.4327 63.8987 30.1844 65.9722 29.3362C68.0457 28.4881 70.266 28.0569 72.5063 28.0672L150.8 28.4312C153.039 28.4407 155.254 28.8913 157.319 29.7571C159.384 30.623 161.258 31.8871 162.834 33.4774C164.41 35.0676 165.658 36.9529 166.505 39.0253C167.353 41.0978 167.784 43.317 167.773 45.556L166.945 241.842C166.936 244.082 166.486 246.298 165.62 248.365C164.754 250.431 163.49 252.306 161.899 253.884C160.308 255.461 158.422 256.709 156.348 257.557C154.275 258.405 152.055 258.837 149.814 258.826Z" fill="#263238"/>
<path d="M150.693 35.8848L135.512 35.84C135.017 35.8487 134.528 35.9549 134.075 36.1524C133.621 36.3499 133.21 36.6349 132.866 36.9912C132.523 37.3474 132.252 37.7678 132.071 38.2285C131.89 38.6892 131.801 39.181 131.81 39.676V42.4311C131.827 43.4303 131.446 44.3952 130.752 45.1143C130.058 45.8334 129.108 46.248 128.109 46.2672L98.5182 46.1272C98.0232 46.1141 97.5356 46.0036 97.0834 45.802C96.6311 45.6005 96.223 45.3118 95.8823 44.9524C95.5417 44.593 95.2752 44.1701 95.0981 43.7077C94.921 43.2453 94.8367 42.7525 94.8502 42.2576V39.508C94.8743 38.5077 94.5014 37.5385 93.813 36.8123C93.1246 36.0862 92.1767 35.6621 91.1766 35.6328H85.8398L72.551 35.5712C70.9823 35.5645 69.4278 35.8669 67.976 36.4611C66.5243 37.0552 65.2038 37.9295 64.0899 39.034C62.9761 40.1385 62.0907 41.4516 61.4843 42.8983C60.8779 44.345 60.5624 45.8969 60.5558 47.4656L59.7438 239.014C59.7304 242.181 60.9752 245.223 63.2047 247.473C65.4341 249.722 68.4656 250.994 71.6326 251.009L149.769 251.367C151.339 251.375 152.894 251.074 154.347 250.48C155.8 249.887 157.121 249.013 158.236 247.908C159.35 246.803 160.236 245.49 160.843 244.042C161.449 242.595 161.764 241.042 161.77 239.473L162.56 47.88C162.572 44.7173 161.329 41.6788 159.105 39.4304C156.881 37.182 153.856 35.907 150.693 35.8848Z" fill="#F5F5F5"/>
<path d="M117.53 215.163C117.441 217.476 117.357 219.643 117.284 221.452H128.484L127.112 214.553L117.53 215.163Z" fill="#F5F5F5"/>
<path d="M71.9128 218.047L72.008 221.452H116.164C116.237 219.537 116.321 217.42 116.405 215.236L71.9128 218.047Z" fill="#F5F5F5"/>
<path d="M127.7 214.519L129.078 221.446H149.775L149.523 213.142L127.7 214.519Z" fill="#F5F5F5"/>
<path d="M118.65 117.645L122.565 94.9592L112.317 94.1976V117.645H118.65Z" fill="#F5F5F5"/>
<path d="M70.9886 205.453L59.867 209.81L59.8334 217.689L71.319 216.961L70.9886 205.453Z" fill="#F5F5F5"/>
<path d="M70.9384 203.683L70.3336 182.554H70.3224V175.101L60.0072 176.193L59.8728 208.006L70.9328 203.672L70.9384 203.683Z" fill="#F5F5F5"/>
<path d="M70.3221 158.469L60.0909 157.114L60.0181 174.507L70.3221 173.415V158.469Z" fill="#F5F5F5"/>
<path d="M146.589 175.414L146.158 181.474L134.073 182.773L135.008 187.566L148.722 186.53L148.521 179.659L149.613 175.112L146.589 175.414Z" fill="#F5F5F5"/>
<path d="M124.805 188.334L134.442 187.606L132.342 176.854L123.931 177.705L124.805 188.334Z" fill="#F5F5F5"/>
<path d="M124.9 189.454L125.634 198.419L126.938 210.717L127.476 213.41L149.49 212.022L148.756 187.65L124.9 189.454Z" fill="#F5F5F5"/>
<path d="M87.0104 147.112L87.856 148.562L70.8824 158.48V181.972L88.8024 180.701L123.36 177.201L122.094 161.806L89.1048 157.494L89.3232 155.814L121.954 160.076L119.815 134.019L87.5144 137.122L87.408 136.002L119.72 132.899L118.6 119.302H87.52L60.2424 124.264L60.108 155.4L70.4288 156.8L87.0104 147.112ZM72.6184 179.71C72.6184 179.71 72.7472 160.345 72.6184 159.622L86.4728 152.253L88.2704 178.724L72.6184 179.71Z" fill="#F5F5F5"/>
<path d="M145.452 175.532L132.902 176.798L133.854 181.67L145.105 180.46L145.452 175.532Z" fill="#F5F5F5"/>
<path d="M117.687 211.014C117.648 212.033 117.609 213.041 117.575 214.038L126.916 213.444L126.434 211.036L117.687 211.014Z" fill="#F5F5F5"/>
<path d="M97.5663 117.645L99.2127 110.18H111.757V94.1584L72.5399 91.252V106.299L60.2927 109.071L60.2367 122.578L87.3575 117.645H97.5663Z" fill="#F5F5F5"/>
<path d="M123.735 73.052L123.399 71.68L138.374 65.7552L128.635 46.2C128.45 46.23 128.263 46.245 128.075 46.2448L111.527 46.1664L111.975 73.5336L123.735 73.052Z" fill="#F5F5F5"/>
<path d="M146.426 62.5632V35.868L135.512 35.84C135.017 35.8487 134.528 35.9549 134.075 36.1524C133.621 36.3499 133.21 36.6349 132.866 36.9912C132.523 37.3474 132.252 37.7678 132.071 38.2285C131.89 38.6892 131.801 39.181 131.81 39.676V42.4312C131.81 43.0464 131.665 43.6528 131.386 44.2015C131.108 44.7502 130.705 45.2257 130.209 45.5896L139.953 65.156L146.426 62.5632Z" fill="#F5F5F5"/>
<path d="M90.1349 63.7112L88.8693 35.5992H85.8397L73.9957 35.5432L68.9557 60.6816L90.1349 63.7112ZM87.4357 38.4496L87.8389 61.3424L72.0973 59.0408L75.5413 38.4496H87.4357Z" fill="#F5F5F5"/>
<path d="M90.7061 63.7952V64.0304C90.7061 66.2256 90.7733 70.1904 90.8069 74.396L111.432 73.556L110.984 46.1664L98.5013 46.1048C98.0063 46.0917 97.5188 45.9812 97.0665 45.7797C96.6142 45.5781 96.2061 45.2894 95.8655 44.93C95.5248 44.5706 95.2583 44.1477 95.0812 43.6853C94.9041 43.2229 94.8199 42.7301 94.8333 42.2352V39.4856C94.8574 38.4853 94.4845 37.5161 93.7961 36.7899C93.1077 36.0638 92.1599 35.6397 91.1597 35.6104H89.4181L90.6837 63.7952H90.7061Z" fill="#F5F5F5"/>
<path d="M67.2872 60.4296L72.2824 35.5376C69.1626 35.5932 66.1886 36.8679 63.9969 39.0889C61.8052 41.3098 60.5701 44.3006 60.556 47.4208L60.5 59.8304L60.556 59.4664L67.2872 60.4296Z" fill="#F5F5F5"/>
<path d="M70.8597 91.1287L60.3709 90.3503L60.2981 107.346L70.8597 104.955V91.1287Z" fill="#F5F5F5"/>
<path d="M67.1751 60.9784L60.4999 60.0208L60.3823 87.5448L61.8215 87.6512L67.1751 60.9784Z" fill="#F5F5F5"/>
<path d="M88.3601 203.358L88.5337 181.266L70.8881 182.515L71.5153 204.159L88.3601 203.358Z" fill="#F5F5F5"/>
<path d="M91.608 198.24L116.595 210.213C116.898 202.373 117.155 195.093 117.155 194.606L117.715 194.578L117.984 194.051C118.337 194.225 118.337 194.225 118.152 199.562C118.046 202.535 117.9 206.494 117.749 210.454H126.39L125.118 198.447L123.438 177.727L90.7848 181.02L91.608 198.24Z" fill="#F5F5F5"/>
<path d="M152.866 161.594L152.581 158.676L122.626 161.795L123.886 177.145L149.753 174.535L152.866 161.594Z" fill="#F5F5F5"/>
<path d="M111.757 111.86H100.562L99.2856 117.645H111.757V111.86Z" fill="#F5F5F5"/>
<path d="M148.241 113.814L120.213 111.877L119.093 118.496L120.274 132.866L149.831 130.021L148.241 113.814ZM121.243 118.485L122.75 114.307L147.093 115.847L148.498 127.798L122.066 130.934L121.243 118.485Z" fill="#F5F5F5"/>
<path d="M151.147 143.847L149.915 131.141L120.341 133.98L121.456 147.504L151.147 143.847Z" fill="#F5F5F5"/>
<path d="M71.3527 218.086L59.8783 218.809L59.8334 218.064L59.8167 221.446H71.4479L71.3527 218.086Z" fill="#F5F5F5"/>
<path d="M162.375 56.252L162.543 56.6832L162.56 47.88C162.572 44.7134 161.327 41.6716 159.097 39.4225C156.868 37.1735 153.838 35.9011 150.671 35.8848H146.947V62.3616L162.375 56.252Z" fill="#F5F5F5"/>
<path d="M116.573 210.846L91.0646 198.621L90.163 181.11L89.099 181.216L88.9142 203.896L71.5262 204.719V205.223L71.8622 216.916L116.433 214.116C116.489 213.024 116.533 211.932 116.573 210.846ZM72.6182 206.164L96.9558 204.484L112.787 211.826L72.6182 213.998V206.164Z" fill="#F5F5F5"/>
<path d="M155.123 85.68L156.17 79.492C147.02 76.2272 146.387 66.6848 146.415 63.812L140.445 66.1752L149.433 84.224L155.123 85.68Z" fill="#F5F5F5"/>
<path d="M122.486 160.121L134.924 158.827L132.477 147.84L121.59 149.184L122.486 160.121Z" fill="#F5F5F5"/>
<path d="M148.28 95.144H125.051L123.125 94.9984L120.498 110.214L148.073 112.118L147.434 105.504L150.15 95.7376L148.28 95.144Z" fill="#F5F5F5"/>
<path d="M147.714 92.344L148.005 85.064L138.877 66.7352L124.72 72.3352L129.587 92.316L147.714 92.344ZM138.323 68.9864L146.689 84.9016L145.48 89.8632L131.166 89.3032L127.588 74.2504L138.323 68.9864Z" fill="#F5F5F5"/>
<path d="M151.326 179.95L151.757 194.214L161.821 193.648L161.854 194.208L151.774 194.774L152.284 211.842L161.804 211.238L161.871 212.358L152.317 212.962L152.575 221.446H161.849L162.05 173.858L152.564 174.815L151.326 179.95Z" fill="#F5F5F5"/>
<path d="M90.1519 64.2768L68.8383 61.2192L63.5071 87.7744L90.2471 89.7568C90.3535 85.68 90.2583 73.1248 90.1519 64.2768Z" fill="#F5F5F5"/>
<path d="M125.208 92.344H128.433L123.869 73.6064L112.009 74.0936L112.294 91.3864L125.208 92.344Z" fill="#F5F5F5"/>
<path d="M90.7904 89.796L111.729 91.3472L111.449 74.116L90.8184 74.956C90.88 80.7856 90.88 87.0016 90.7904 89.796Z" fill="#F5F5F5"/>
<path d="M151.309 145.522L133.031 147.773L135.489 158.766L152.418 157.007L151.309 145.522Z" fill="#F5F5F5"/>
<path d="M156.266 78.904L157.436 71.96L162.476 72.352L162.543 57.3944L146.981 63.5544C146.662 74.0768 153.275 77.7784 156.266 78.904Z" fill="#F5F5F5"/>
<path d="M150.273 105.75L150.906 112.314L162.308 113.103L162.364 99.5904L152.821 96.5776L150.273 105.75Z" fill="#F5F5F5"/>
<path d="M155.694 161.79L152.704 174.238L162.05 173.292L162.106 160.238C159.239 159.482 156.736 158.866 155.386 158.609L155.694 161.79Z" fill="#F5F5F5"/>
<path d="M149.389 92.5568L162.375 96.6616L162.409 89.2752L149.652 85.9768L149.389 92.5568Z" fill="#F5F5F5"/>
<path d="M155.224 156.901C156.271 157.058 158.254 157.461 162.112 158.497L162.235 129.937L152.715 130.855L155.224 156.901Z" fill="#F5F5F5"/>
<path d="M152.597 129.758L162.241 128.828L162.297 114.789L151.069 114.01L152.597 129.758Z" fill="#F5F5F5"/>
<path d="M157.34 79.2568C159.018 79.777 160.721 80.2125 162.442 80.5616V73.472L158.337 73.1528L157.34 79.2568Z" fill="#F5F5F5"/>
<path d="M156.215 85.9376L162.414 87.5392L162.442 81.1384C160.835 80.8136 159.082 80.3768 157.246 79.8168L156.215 85.9376Z" fill="#F5F5F5"/>
<path d="M71.3529 218.081L71.4481 221.441H72.0081L71.9129 218.036L116.405 215.236C116.321 217.42 116.237 219.537 116.164 221.452H117.284C117.357 219.643 117.441 217.476 117.53 215.163L127.134 214.553L128.506 221.452H129.066L127.689 214.519L149.529 213.142L149.781 221.452H152.581L152.323 212.962L161.877 212.358L161.81 211.238L152.29 211.842L151.78 194.774L161.86 194.214L161.826 193.654L151.746 194.214L151.315 179.95L152.553 174.815L162.039 173.858V173.298L152.693 174.244L155.683 161.795L155.375 158.614C156.725 158.872 159.228 159.488 162.095 160.244V158.48C158.237 157.461 156.254 157.041 155.207 156.884L152.687 130.855L162.207 129.937V128.817L152.564 129.746L151.035 113.999L162.235 114.778V113.098L150.834 112.308L150.201 105.745L152.749 96.572L162.269 99.5848V96.656L149.282 92.5512L149.546 85.9712L162.302 89.2696V87.5336L156.103 85.932L157.134 79.8112C158.993 80.3712 160.723 80.808 162.33 81.1328V80.5728C160.609 80.2237 158.906 79.7882 157.229 79.268L158.254 73.164L162.358 73.4832V72.3632L157.318 71.9712L156.148 78.9152C153.158 77.7952 146.544 74.088 146.863 63.56L162.426 57.4V56.6888L162.258 56.2576L146.869 62.3504V35.8736H146.309V62.5688L139.824 65.1392L130.08 45.5728C129.618 45.9061 129.082 46.1232 128.518 46.2056L138.256 65.7608L123.399 71.68L123.735 73.052L111.975 73.5336L111.527 46.1664H110.967L111.415 73.556L90.7905 74.396C90.7569 70.1736 90.7121 66.2256 90.6897 64.0304V63.7952L89.4241 35.6104H88.8641L90.1297 63.7224L68.9449 60.6816L73.9849 35.5432H72.5401H72.2713L67.2761 60.4352L60.5561 59.472L60.5001 59.836V60.0264L67.1753 60.984L61.8217 87.6568L60.3825 87.5504V90.3504L70.8713 91.1288V104.955L60.3097 107.346V109.071L72.5569 106.271V91.28L111.757 94.1864V110.214H99.2129L97.5665 117.673H87.3577L60.2369 122.606V124.314L87.5201 119.325H118.589L119.709 132.922L87.3969 136.024L87.5033 137.144L119.804 134.042L121.943 160.098L89.3121 155.837L89.0937 157.517L122.083 161.829L123.36 177.201L88.8249 180.684L70.9049 181.955V158.48L87.8785 148.579L87.0329 147.129L70.4289 156.8L60.0801 155.422V157.102L70.3225 158.48V173.426L60.0185 174.518V176.198L70.3337 175.106V182.56L70.9441 203.689L59.8841 208.023V209.826L71.0057 205.47L71.3361 216.978L59.8505 217.706V218.081L59.8953 218.826L71.3529 218.081ZM117.575 214.038C117.609 213.041 117.648 212.033 117.687 211.014H126.434L126.916 213.422L117.575 214.038ZM127.476 213.41L126.916 210.717L125.611 198.397L124.878 189.437L148.734 187.634L149.467 211.999L127.476 213.41ZM132.88 176.798L145.435 175.532L145.082 180.46L133.832 181.67L132.88 176.798ZM132.32 176.854L134.42 187.606L124.782 188.334L123.909 177.694L132.32 176.854ZM148.7 186.53L134.986 187.566L134.05 182.773L146.135 181.474L146.566 175.414L149.59 175.112L148.498 179.659L148.7 186.53ZM132.46 147.84L134.907 158.827L122.47 160.121L121.574 149.184L132.46 147.84ZM135.473 158.766L133.014 147.773L151.293 145.533L152.413 157.018L135.473 158.766ZM148.056 112.118L120.482 110.208L123.108 94.9984L125.034 95.144H148.269L150.134 95.7376L147.44 105.504L148.056 112.118ZM146.376 63.7728C146.348 66.6624 146.981 76.2048 156.131 79.4528L155.123 85.68L149.434 84.2072L140.446 66.136L146.376 63.7728ZM138.838 66.7576L148 85.0864L147.709 92.3664H129.587L124.721 72.3856L138.838 66.7576ZM123.83 73.6064L128.394 92.344H125.208L112.294 91.392L112.009 74.0936L123.83 73.6064ZM111.41 74.116L111.69 91.3472L90.7513 89.796C90.8409 86.996 90.8241 80.7856 90.7513 74.956L111.41 74.116ZM68.7993 61.236L90.1129 64.2936C90.2193 73.1416 90.3145 85.6856 90.2081 89.7736L63.4681 87.7912L68.7993 61.236ZM122.526 94.976L118.606 117.662H112.317V94.1976L122.526 94.976ZM100.523 111.882H111.723V117.662H99.2801L100.523 111.882ZM119.003 118.513L120.123 111.894L148.151 113.831L149.719 130.038L120.162 132.882L119.003 118.513ZM149.848 131.158L151.08 143.864L121.4 147.526L120.28 133.997L149.848 131.158ZM122.559 161.812L152.514 158.693L152.799 161.61L149.686 174.552L123.819 177.162L122.559 161.812ZM125.012 198.486L126.283 210.493H117.71C117.861 206.534 118.006 202.574 118.113 199.601C118.298 194.264 118.298 194.264 117.945 194.09L117.676 194.617L117.116 194.645C117.116 195.11 116.875 202.429 116.556 210.252L91.6081 198.24L90.7233 181.031L123.36 177.761L125.012 198.486ZM88.4665 181.283L88.2929 203.375L71.4481 204.176L70.8209 182.532L88.4665 181.283ZM71.4761 205.251V204.747L88.8641 203.924L89.0489 181.244L90.1129 181.138L91.0145 198.649L116.522 210.874C116.483 211.96 116.438 213.052 116.399 214.138L71.8289 216.938L71.4761 205.251Z" fill="white"/>
<path d="M96.9558 204.456L72.6182 206.158V213.976L112.793 211.798L96.9558 204.456Z" fill="#EBEBEB"/>
<path d="M147.093 115.847L122.749 114.307L121.243 118.485L122.066 130.934L148.498 127.798L147.093 115.847Z" fill="#EBEBEB"/>
<path d="M71.6325 251.009L149.769 251.367C151.339 251.375 152.894 251.074 154.347 250.48C155.8 249.887 157.121 249.013 158.236 247.908C159.35 246.803 160.236 245.49 160.843 244.042C161.449 242.595 161.764 241.042 161.77 239.473L161.849 221.452H59.8165L59.7605 235.082V239.372C59.8391 242.474 61.1224 245.424 63.3385 247.596C65.5546 249.768 68.5294 250.992 71.6325 251.009Z" fill="#EBEBEB"/>
<path d="M87.8393 61.3424L87.4361 38.4496H75.5472L72.0977 59.0408L87.8393 61.3424Z" fill="#EBEBEB"/>
<path d="M145.48 89.8633L146.69 84.9017L138.323 68.9865L127.588 74.2729L131.166 89.3256L145.48 89.8633Z" fill="#EBEBEB"/>
<path d="M72.6182 159.6C72.747 160.322 72.6182 179.687 72.6182 179.687L88.2981 178.702L86.5005 152.23L72.6182 159.6Z" fill="#EBEBEB"/>
<path d="M124.81 175.347L123.981 163.346L150.822 159.897V161.969L147.574 173.006L124.81 175.347Z" fill="#EBEBEB"/>
<path d="M104.958 75.8184C104.958 76.4652 104.767 77.0975 104.407 77.6353C104.048 78.1731 103.537 78.5923 102.94 78.8398C102.342 79.0874 101.684 79.1521 101.05 79.0259C100.416 78.8997 99.8329 78.5883 99.3755 78.1309C98.9181 77.6735 98.6066 77.0908 98.4804 76.4564C98.3543 75.822 98.419 75.1644 98.6665 74.5668C98.9141 73.9693 99.3332 73.4585 99.8711 73.0991C100.409 72.7398 101.041 72.548 101.688 72.548C102.555 72.548 103.387 72.8925 104.001 73.5059C104.614 74.1192 104.958 74.951 104.958 75.8184Z" fill="#F2575D"/>
<g opacity="0.6">
<path opacity="0.6" d="M104.953 75.6784C104.981 76.3248 104.817 76.9651 104.481 77.5182C104.145 78.0713 103.653 78.5124 103.066 78.7856C102.48 79.0588 101.825 79.1519 101.186 79.0531C100.546 78.9543 99.9507 78.6681 99.474 78.2305C98.9973 77.793 98.6611 77.2239 98.5079 76.5953C98.3547 75.9666 98.3914 75.3067 98.6135 74.6989C98.8355 74.0912 99.2328 73.5629 99.7551 73.181C100.277 72.7991 100.901 72.5808 101.548 72.5536C102.414 72.5171 103.258 72.8257 103.897 73.4116C104.535 73.9975 104.915 74.8127 104.953 75.6784Z" fill="white"/>
</g>
<path d="M101.688 77.8792C102.888 77.8792 103.861 76.9064 103.861 75.7064C103.861 74.5064 102.888 73.5336 101.688 73.5336C100.488 73.5336 99.5153 74.5064 99.5153 75.7064C99.5153 76.9064 100.488 77.8792 101.688 77.8792Z" fill="#F2575D"/>
<path d="M152.217 206.382C152.212 206.658 152.127 206.925 151.971 207.152C151.815 207.379 151.596 207.555 151.341 207.658C151.086 207.761 150.806 207.787 150.536 207.732C150.267 207.676 150.019 207.543 149.825 207.348C149.631 207.153 149.498 206.905 149.444 206.635C149.39 206.365 149.417 206.086 149.521 205.831C149.625 205.576 149.802 205.357 150.029 205.203C150.257 205.048 150.525 204.963 150.8 204.96C150.987 204.958 151.173 204.993 151.346 205.064C151.519 205.135 151.677 205.239 151.809 205.372C151.941 205.505 152.045 205.662 152.115 205.836C152.185 206.009 152.22 206.195 152.217 206.382Z" fill="#F2575D"/>
<path d="M149.982 205.929L149.641 198.089L126.054 199.237C125.435 199.265 124.82 199.134 124.267 198.856L90.8072 181.955C90.4264 181.762 90.1032 181.472 89.8702 181.114C89.6372 180.756 89.5026 180.343 89.48 179.917L84.9216 91.5824C84.9106 91.3731 84.9444 91.1639 85.0207 90.9688C85.097 90.7737 85.214 90.597 85.364 90.4508C85.514 90.3045 85.6935 90.1919 85.8905 90.1205C86.0875 90.0491 86.2975 90.0205 86.5064 90.0368L100.848 91.0952V75.4152H102.528V91.308C102.532 91.5109 102.494 91.7126 102.417 91.9004C102.34 92.0882 102.225 92.2583 102.08 92.4C101.929 92.5367 101.752 92.6415 101.56 92.7079C101.367 92.7743 101.163 92.801 100.96 92.7864L86.6296 91.728L91.1712 179.833C91.1794 179.963 91.2214 180.089 91.2931 180.198C91.3648 180.307 91.4637 180.395 91.58 180.454L125.04 197.366C125.333 197.514 125.659 197.584 125.986 197.568L149.775 196.409C150.169 196.392 150.553 196.531 150.845 196.795C150.991 196.927 151.109 197.086 151.193 197.264C151.277 197.442 151.324 197.635 151.332 197.831L151.674 205.856L149.982 205.929Z" fill="#F2575D"/>
<path d="M87.6655 134.182C90.0036 134.182 91.8991 132.286 91.8991 129.948C91.8991 127.61 90.0036 125.714 87.6655 125.714C85.3273 125.714 83.4319 127.61 83.4319 129.948C83.4319 132.286 85.3273 134.182 87.6655 134.182Z" fill="#F2575D"/>
<path d="M87.6657 132.888C89.2894 132.888 90.6057 131.572 90.6057 129.948C90.6057 128.324 89.2894 127.008 87.6657 127.008C86.042 127.008 84.7257 128.324 84.7257 129.948C84.7257 131.572 86.042 132.888 87.6657 132.888Z" fill="#FAFAFA"/>
<path d="M87.6655 133.101C87.0417 133.102 86.4316 132.918 85.9124 132.572C85.3931 132.226 84.9882 131.734 84.7487 131.158C84.5092 130.582 84.446 129.948 84.567 129.336C84.688 128.724 84.9878 128.162 85.4285 127.721C85.8692 127.279 86.431 126.978 87.0427 126.856C87.6545 126.734 88.2887 126.796 88.8651 127.035C89.4415 127.273 89.9343 127.677 90.2809 128.196C90.6276 128.714 90.8127 129.324 90.8127 129.948C90.8112 130.783 90.4793 131.583 89.8896 132.174C89.2999 132.764 88.5002 133.098 87.6655 133.101ZM87.6655 127.215C87.1247 127.214 86.5958 127.373 86.1457 127.673C85.6956 127.973 85.3444 128.399 85.1367 128.898C84.929 129.398 84.8741 129.947 84.9789 130.478C85.0837 131.008 85.3436 131.496 85.7255 131.878C86.1075 132.261 86.5944 132.522 87.1247 132.628C87.6549 132.734 88.2047 132.68 88.7044 132.473C89.2041 132.267 89.6312 131.916 89.9317 131.467C90.2323 131.017 90.3927 130.489 90.3927 129.948C90.3912 129.225 90.1036 128.531 89.5926 128.019C89.0816 127.507 88.3888 127.218 87.6655 127.215Z" fill="#F2575D"/>
<path d="M112.602 112.19H92.4423C91.9715 112.19 91.52 112.377 91.1871 112.71C90.8541 113.043 90.6671 113.495 90.6671 113.966V121.246C90.6671 121.716 90.8541 122.168 91.1871 122.501C91.52 122.834 91.9715 123.021 92.4423 123.021H92.6775V124.762L94.6991 123.021H112.619C113.09 123.021 113.541 122.834 113.874 122.501C114.207 122.168 114.394 121.716 114.394 121.246V113.966C114.394 113.731 114.348 113.499 114.258 113.282C114.167 113.066 114.035 112.869 113.868 112.704C113.702 112.539 113.504 112.409 113.287 112.321C113.069 112.232 112.837 112.188 112.602 112.19Z" fill="#F2575D"/>
<g opacity="0.4">
<path opacity="0.4" d="M112.602 112.19H92.4423C91.9715 112.19 91.52 112.377 91.1871 112.71C90.8541 113.043 90.6671 113.495 90.6671 113.966V121.246C90.6671 121.716 90.8541 122.168 91.1871 122.501C91.52 122.834 91.9715 123.021 92.4423 123.021H92.6775V124.762L94.6991 123.021H112.619C113.09 123.021 113.541 122.834 113.874 122.501C114.207 122.168 114.394 121.716 114.394 121.246V113.966C114.394 113.731 114.348 113.499 114.258 113.282C114.167 113.066 114.035 112.869 113.868 112.704C113.702 112.539 113.504 112.409 113.287 112.321C113.069 112.232 112.837 112.188 112.602 112.19Z" fill="white"/>
</g>
<path d="M95.2031 117.499C95.1942 117.259 95.2573 117.021 95.3845 116.816C95.5116 116.611 95.6969 116.45 95.9167 116.351C96.1364 116.252 96.3806 116.222 96.618 116.263C96.8553 116.304 97.075 116.415 97.2489 116.581C97.4228 116.748 97.5429 116.963 97.594 117.198C97.645 117.434 97.6247 117.679 97.5354 117.903C97.4462 118.126 97.2922 118.318 97.0932 118.454C96.8942 118.59 96.6592 118.663 96.4183 118.664C96.261 118.672 96.1037 118.647 95.9562 118.592C95.8086 118.537 95.6739 118.452 95.5601 118.343C95.4464 118.234 95.3561 118.103 95.2947 117.958C95.2333 117.813 95.2022 117.657 95.2031 117.499ZM97.2975 117.499C97.2986 117.324 97.2475 117.152 97.1507 117.006C97.0539 116.859 96.9158 116.745 96.7539 116.677C96.592 116.61 96.4136 116.592 96.2415 116.626C96.0693 116.66 95.9111 116.744 95.7871 116.868C95.663 116.992 95.5786 117.15 95.5446 117.322C95.5107 117.495 95.5287 117.673 95.5963 117.835C95.664 117.997 95.7783 118.135 95.9246 118.232C96.071 118.328 96.2428 118.38 96.4183 118.378C96.5348 118.382 96.6509 118.362 96.7593 118.319C96.8678 118.277 96.9662 118.212 97.0487 118.13C97.1311 118.047 97.1957 117.949 97.2385 117.84C97.2813 117.732 97.3014 117.616 97.2975 117.499Z" fill="white"/>
<path d="M99.8397 117.779C99.8461 117.895 99.8281 118.012 99.7868 118.12C99.7456 118.229 99.6821 118.328 99.6004 118.411C99.5186 118.494 99.4205 118.559 99.3122 118.601C99.204 118.644 99.088 118.663 98.9717 118.658C98.853 118.664 98.7347 118.641 98.6273 118.59C98.5198 118.539 98.4265 118.463 98.3557 118.367V118.642H98.0533V116.222H98.3669V117.174C98.4394 117.085 98.5318 117.013 98.6368 116.965C98.7418 116.918 98.8565 116.895 98.9717 116.9C99.088 116.895 99.204 116.915 99.3122 116.957C99.4205 117 99.5186 117.065 99.6004 117.147C99.6821 117.23 99.7456 117.329 99.7868 117.438C99.8281 117.547 99.8461 117.663 99.8397 117.779ZM99.5261 117.779C99.5174 117.671 99.4773 117.567 99.4108 117.481C99.3442 117.395 99.254 117.33 99.1512 117.295C99.0484 117.259 98.9375 117.254 98.832 117.281C98.7265 117.307 98.6309 117.364 98.557 117.444C98.4831 117.523 98.4341 117.623 98.4159 117.73C98.3976 117.837 98.411 117.948 98.4544 118.047C98.4978 118.147 98.5693 118.232 98.6602 118.292C98.7511 118.352 98.8574 118.384 98.9661 118.384C99.0455 118.387 99.1246 118.374 99.1983 118.344C99.2721 118.315 99.3387 118.27 99.3937 118.213C99.4488 118.156 99.4911 118.088 99.5178 118.013C99.5445 117.938 99.555 117.858 99.5485 117.779H99.5261Z" fill="white"/>
<path d="M99.7 119.185L99.8007 118.944C99.8737 119.002 99.9652 119.032 100.058 119.028C100.221 119.028 100.316 118.922 100.316 118.726V116.917H100.624V118.72C100.631 118.795 100.621 118.871 100.595 118.942C100.57 119.013 100.529 119.078 100.475 119.131C100.422 119.185 100.357 119.226 100.286 119.251C100.215 119.277 100.139 119.287 100.064 119.28C99.9357 119.287 99.8085 119.253 99.7 119.185ZM100.26 116.385C100.26 116.358 100.265 116.331 100.276 116.306C100.286 116.281 100.302 116.259 100.321 116.24C100.34 116.221 100.363 116.207 100.388 116.197C100.413 116.187 100.44 116.182 100.467 116.183C100.494 116.182 100.521 116.186 100.546 116.195C100.572 116.204 100.595 116.218 100.615 116.236C100.635 116.254 100.651 116.277 100.662 116.301C100.673 116.326 100.679 116.352 100.68 116.379C100.681 116.407 100.676 116.435 100.665 116.461C100.655 116.487 100.639 116.51 100.619 116.53C100.599 116.549 100.575 116.564 100.549 116.574C100.523 116.584 100.495 116.588 100.467 116.586C100.44 116.588 100.412 116.584 100.386 116.574C100.36 116.564 100.337 116.549 100.317 116.529C100.297 116.51 100.282 116.486 100.272 116.46C100.263 116.434 100.258 116.407 100.26 116.379V116.385Z" fill="white"/>
<path d="M102.774 117.88H101.374C101.381 117.955 101.403 118.027 101.439 118.093C101.474 118.16 101.523 118.218 101.581 118.265C101.64 118.312 101.707 118.347 101.779 118.367C101.851 118.388 101.927 118.393 102.002 118.384C102.095 118.387 102.187 118.37 102.273 118.335C102.359 118.299 102.437 118.245 102.5 118.177L102.674 118.378C102.545 118.506 102.383 118.595 102.206 118.634C102.029 118.672 101.845 118.659 101.675 118.596C101.505 118.533 101.357 118.423 101.248 118.278C101.139 118.133 101.074 117.96 101.061 117.779C101.056 117.663 101.075 117.548 101.117 117.44C101.159 117.332 101.223 117.234 101.304 117.151C101.385 117.069 101.483 117.004 101.59 116.961C101.698 116.918 101.813 116.897 101.929 116.9C102.044 116.897 102.159 116.917 102.266 116.961C102.373 117.005 102.47 117.071 102.55 117.154C102.631 117.237 102.692 117.336 102.732 117.445C102.771 117.554 102.788 117.669 102.78 117.785C102.781 117.817 102.779 117.849 102.774 117.88ZM101.374 117.656H102.494C102.494 117.507 102.435 117.365 102.33 117.26C102.225 117.155 102.083 117.096 101.934 117.096C101.786 117.096 101.643 117.155 101.538 117.26C101.433 117.365 101.374 117.507 101.374 117.656Z" fill="white"/>
<path d="M103.054 117.779C103.052 117.66 103.074 117.542 103.119 117.432C103.165 117.322 103.232 117.222 103.318 117.14C103.404 117.057 103.506 116.993 103.617 116.952C103.729 116.911 103.848 116.893 103.967 116.9C104.106 116.891 104.244 116.92 104.368 116.984C104.491 117.048 104.595 117.145 104.667 117.264L104.432 117.421C104.38 117.343 104.311 117.279 104.228 117.235C104.146 117.191 104.055 117.168 103.961 117.169C103.81 117.183 103.67 117.254 103.568 117.366C103.466 117.478 103.409 117.625 103.409 117.776C103.409 117.928 103.466 118.075 103.568 118.187C103.67 118.299 103.81 118.37 103.961 118.384C104.054 118.385 104.146 118.363 104.228 118.32C104.31 118.277 104.38 118.214 104.432 118.138L104.667 118.289C104.595 118.408 104.492 118.506 104.368 118.571C104.245 118.636 104.106 118.666 103.967 118.658C103.848 118.665 103.73 118.646 103.618 118.605C103.507 118.563 103.405 118.499 103.32 118.417C103.234 118.334 103.167 118.235 103.121 118.126C103.075 118.016 103.052 117.898 103.054 117.779Z" fill="white"/>
<path d="M106.067 118.541C105.957 118.621 105.823 118.662 105.686 118.658C105.61 118.671 105.532 118.665 105.458 118.641C105.384 118.618 105.317 118.577 105.262 118.522C105.208 118.467 105.167 118.4 105.143 118.327C105.119 118.253 105.114 118.175 105.126 118.098V117.146H104.829V116.894H105.126V116.514H105.44V116.894H105.933V117.146H105.44V118.082C105.434 118.119 105.436 118.158 105.447 118.194C105.458 118.231 105.478 118.264 105.503 118.292C105.529 118.321 105.561 118.342 105.597 118.356C105.632 118.37 105.671 118.376 105.709 118.373C105.795 118.374 105.88 118.347 105.949 118.294L106.067 118.541Z" fill="white"/>
<path d="M106.386 116.379C106.387 116.352 106.393 116.325 106.404 116.3C106.415 116.275 106.431 116.253 106.451 116.234C106.471 116.216 106.494 116.201 106.519 116.191C106.545 116.181 106.572 116.177 106.599 116.178C106.626 116.176 106.653 116.18 106.678 116.189C106.704 116.198 106.727 116.212 106.747 116.231C106.767 116.249 106.783 116.271 106.794 116.295C106.805 116.32 106.811 116.347 106.812 116.374C106.812 116.43 106.789 116.484 106.749 116.524C106.71 116.564 106.655 116.586 106.599 116.586C106.543 116.586 106.488 116.564 106.449 116.524C106.409 116.484 106.386 116.43 106.386 116.374V116.379ZM106.442 116.939H106.756V118.664H106.442V116.939Z" fill="white"/>
<path d="M108.878 116.917L108.122 118.642H107.803L107.047 116.917H107.378L107.938 118.3L108.542 116.917H108.878Z" fill="white"/>
<path d="M110.676 117.88H109.276C109.283 117.955 109.305 118.027 109.34 118.093C109.376 118.16 109.424 118.218 109.483 118.265C109.541 118.312 109.609 118.347 109.681 118.367C109.753 118.388 109.829 118.393 109.903 118.384C109.996 118.387 110.089 118.37 110.175 118.335C110.261 118.299 110.338 118.245 110.401 118.177L110.569 118.378C110.485 118.473 110.38 118.547 110.263 118.596C110.145 118.644 110.019 118.666 109.892 118.658C109.772 118.667 109.651 118.65 109.538 118.61C109.425 118.57 109.321 118.506 109.234 118.423C109.146 118.341 109.077 118.241 109.03 118.13C108.984 118.019 108.96 117.9 108.962 117.779C108.958 117.663 108.977 117.548 109.019 117.44C109.06 117.332 109.124 117.234 109.205 117.151C109.287 117.069 109.384 117.004 109.492 116.961C109.599 116.918 109.714 116.897 109.83 116.9C109.946 116.897 110.061 116.917 110.168 116.961C110.275 117.005 110.372 117.071 110.452 117.154C110.532 117.237 110.594 117.336 110.633 117.445C110.673 117.554 110.689 117.669 110.681 117.785C110.682 117.817 110.68 117.848 110.676 117.88ZM109.276 117.656H110.396C110.396 117.507 110.337 117.365 110.232 117.26C110.127 117.155 109.984 117.096 109.836 117.096C109.687 117.096 109.545 117.155 109.44 117.26C109.335 117.365 109.276 117.507 109.276 117.656Z" fill="white"/>
<path d="M105.944 64.8368C105.949 64.1903 105.804 63.5513 105.521 62.97C105.238 62.3887 104.824 61.8809 104.312 61.4862C103.8 61.0916 103.203 60.8209 102.569 60.6953C101.935 60.5697 101.28 60.5926 100.656 60.7623C100.032 60.9319 99.4559 61.2437 98.9726 61.6733C98.4893 62.1028 98.112 62.6383 97.8703 63.238C97.6285 63.8377 97.5288 64.4852 97.5791 65.1298C97.6293 65.7744 97.8281 66.3987 98.1599 66.9536C98.3223 67.2224 98.5239 67.4184 98.7199 67.704L101.156 70.924C101.226 71.0179 101.318 71.0941 101.423 71.1466C101.528 71.1991 101.643 71.2264 101.761 71.2264C101.878 71.2264 101.994 71.1991 102.099 71.1466C102.204 71.0941 102.295 71.0179 102.365 70.924L104.757 67.7544C104.975 67.4974 105.179 67.2281 105.367 66.948C105.744 66.3081 105.943 65.5793 105.944 64.8368ZM101.755 66.64C101.389 66.6411 101.032 66.5337 100.727 66.3313C100.422 66.1289 100.184 65.8407 100.044 65.5031C99.903 65.1655 99.8656 64.7938 99.9363 64.4349C100.007 64.0761 100.183 63.7463 100.441 63.4873C100.699 63.2283 101.028 63.0517 101.387 62.9799C101.746 62.9082 102.117 62.9445 102.455 63.0842C102.793 63.2239 103.082 63.4607 103.286 63.7647C103.489 64.0688 103.597 64.4263 103.597 64.792C103.597 65.2812 103.404 65.7504 103.058 66.0968C102.713 66.4432 102.244 66.6385 101.755 66.64Z" fill="#F2575D"/>
<path d="M78.8065 229.964H78.0281V229.678H79.9097V229.964H79.1201V231.958H78.7953L78.8065 229.964Z" fill="#263238"/>
<path d="M79.8815 231.095C79.8793 230.918 79.9298 230.744 80.0266 230.595C80.1235 230.446 80.2623 230.33 80.4255 230.26C80.5887 230.19 80.7689 230.171 80.9433 230.203C81.1176 230.236 81.2783 230.32 81.405 230.444C81.5316 230.569 81.6185 230.728 81.6546 230.902C81.6908 231.075 81.6745 231.256 81.6079 231.42C81.5413 231.585 81.4273 231.726 81.2805 231.825C81.1336 231.925 80.9605 231.979 80.7831 231.98C80.6645 231.986 80.5458 231.968 80.4347 231.926C80.3236 231.884 80.2224 231.819 80.1377 231.736C80.0529 231.653 79.9863 231.553 79.9422 231.442C79.8981 231.332 79.8774 231.214 79.8815 231.095ZM81.3599 231.095C81.3599 230.941 81.2988 230.794 81.1901 230.685C81.0814 230.577 80.934 230.516 80.7803 230.516C80.6266 230.516 80.4791 230.577 80.3704 230.685C80.2617 230.794 80.2007 230.941 80.2007 231.095C80.2007 231.249 80.2617 231.396 80.3704 231.505C80.4791 231.614 80.6266 231.675 80.7803 231.675C80.934 231.675 81.0814 231.614 81.1901 231.505C81.2988 231.396 81.3599 231.249 81.3599 231.095Z" fill="#263238"/>
<path d="M83.0792 231.84C82.9732 231.925 82.8399 231.969 82.704 231.963C82.6278 231.975 82.5501 231.968 82.477 231.944C82.4038 231.92 82.3374 231.879 82.2829 231.824C82.2285 231.77 82.1876 231.703 82.1634 231.63C82.1393 231.557 82.1326 231.479 82.144 231.403V230.457H81.8528V230.199H82.144V229.824H82.48V230.199H82.9728V230.457H82.48V231.392C82.4739 231.43 82.4765 231.468 82.4875 231.505C82.4985 231.541 82.5177 231.575 82.5436 231.603C82.5695 231.631 82.6014 231.653 82.637 231.667C82.6725 231.681 82.7107 231.686 82.7488 231.683C82.8377 231.682 82.924 231.653 82.9952 231.599L83.0792 231.84Z" fill="#263238"/>
<path d="M84.8261 230.916V231.958H84.5293V231.734C84.4631 231.817 84.3774 231.883 84.2799 231.926C84.1823 231.969 84.0757 231.988 83.9693 231.98C83.5773 231.98 83.3309 231.773 83.3309 231.47C83.3309 231.168 83.5101 230.966 84.0197 230.966H84.5181V230.905C84.5181 230.642 84.3669 230.485 84.0533 230.485C83.8498 230.478 83.6507 230.546 83.4933 230.675L83.3589 230.44C83.565 230.285 83.8181 230.206 84.0757 230.216C84.1737 230.199 84.2742 230.205 84.3694 230.233C84.4647 230.262 84.5521 230.312 84.6247 230.38C84.6974 230.448 84.7534 230.531 84.7884 230.624C84.8233 230.717 84.8362 230.817 84.8261 230.916ZM84.5125 231.431V231.19H84.0309C83.7229 231.19 83.6333 231.314 83.6333 231.459C83.6333 231.605 83.7733 231.739 84.0141 231.739C84.1191 231.747 84.2238 231.722 84.3134 231.666C84.4029 231.611 84.4726 231.529 84.5125 231.431Z" fill="#263238"/>
<path d="M85.4028 229.544H85.7164V231.958H85.4028V229.544Z" fill="#263238"/>
<path d="M88.8136 229.544V231.958H88.5168V231.683C88.4459 231.779 88.3528 231.856 88.2455 231.908C88.1381 231.96 88.0198 231.984 87.9008 231.98C87.679 231.962 87.472 231.862 87.3211 231.698C87.1701 231.535 87.0863 231.321 87.0863 231.098C87.0863 230.876 87.1701 230.661 87.3211 230.498C87.472 230.334 87.679 230.234 87.9008 230.216C88.0166 230.211 88.1319 230.234 88.2371 230.283C88.3423 230.331 88.4343 230.405 88.5056 230.496V229.544H88.8136ZM88.5056 231.095C88.4958 230.987 88.4548 230.884 88.3877 230.799C88.3205 230.714 88.23 230.65 88.1272 230.615C88.0245 230.58 87.9138 230.576 87.8087 230.603C87.7036 230.63 87.6086 230.687 87.5352 230.767C87.4618 230.847 87.4133 230.947 87.3954 231.054C87.3776 231.161 87.3913 231.271 87.4347 231.37C87.4782 231.469 87.5496 231.554 87.6403 231.614C87.731 231.673 87.8371 231.705 87.9456 231.706C88.0235 231.706 88.1007 231.69 88.1722 231.659C88.2436 231.628 88.3078 231.582 88.3605 231.524C88.4132 231.467 88.4533 231.399 88.4783 231.325C88.5033 231.251 88.5126 231.173 88.5056 231.095Z" fill="#263238"/>
<path d="M89.351 229.701C89.3509 229.673 89.3565 229.646 89.3672 229.62C89.378 229.595 89.3938 229.572 89.4136 229.552C89.4334 229.533 89.457 229.518 89.4827 229.508C89.5085 229.498 89.5361 229.493 89.5637 229.494C89.5934 229.489 89.6238 229.49 89.6528 229.498C89.6818 229.506 89.7087 229.521 89.7317 229.54C89.7546 229.559 89.7731 229.584 89.7857 229.611C89.7984 229.638 89.8049 229.668 89.8049 229.698C89.8049 229.728 89.7984 229.758 89.7857 229.785C89.7731 229.812 89.7546 229.837 89.7317 229.856C89.7087 229.876 89.6818 229.89 89.6528 229.898C89.6238 229.906 89.5934 229.907 89.5637 229.902C89.5365 229.903 89.5094 229.899 89.484 229.889C89.4586 229.879 89.4353 229.864 89.4156 229.846C89.3958 229.827 89.3799 229.805 89.3688 229.78C89.3578 229.755 89.3517 229.728 89.351 229.701ZM89.4069 230.233H89.7206V231.958H89.4069V230.233Z" fill="#263238"/>
<path d="M90.0957 231.778L90.2301 231.526C90.4095 231.645 90.62 231.707 90.8349 231.706C91.1261 231.706 91.2437 231.622 91.2437 231.476C91.2437 231.084 90.1237 231.42 90.1237 230.737C90.1237 230.423 90.4037 230.216 90.8461 230.216C91.0651 230.214 91.281 230.268 91.4733 230.373L91.3389 230.619C91.1893 230.527 91.0161 230.48 90.8405 230.485C90.5661 230.485 90.4373 230.586 90.4373 230.72C90.4373 231.129 91.5573 230.798 91.5573 231.465C91.5573 231.778 91.2717 231.98 90.8125 231.98C90.5589 231.985 90.3094 231.915 90.0957 231.778Z" fill="#263238"/>
<path d="M92.9181 231.84C92.8107 231.927 92.6751 231.97 92.5373 231.963C92.4612 231.975 92.3834 231.968 92.3103 231.944C92.2372 231.92 92.1708 231.879 92.1163 231.824C92.0619 231.77 92.0209 231.703 91.9968 231.63C91.9727 231.557 91.966 231.479 91.9773 231.403V230.457H91.6805V230.199H91.9997V229.824H92.3133V230.199H92.8061V230.457H92.3133V231.392C92.3073 231.43 92.3099 231.468 92.3209 231.505C92.3319 231.541 92.3511 231.575 92.377 231.603C92.4029 231.631 92.4348 231.653 92.4703 231.667C92.5059 231.681 92.5441 231.686 92.5821 231.683C92.6695 231.683 92.7543 231.653 92.8229 231.599L92.9181 231.84Z" fill="#263238"/>
<path d="M94.6656 230.916V231.958H94.3688V231.734C94.3023 231.817 94.2166 231.883 94.1191 231.926C94.0216 231.968 93.9151 231.987 93.8088 231.98C93.4224 231.98 93.1704 231.773 93.1704 231.47C93.1704 231.168 93.3496 230.966 93.8648 230.966H94.3632V230.905C94.3632 230.642 94.2064 230.485 93.8984 230.485C93.6952 230.481 93.497 230.548 93.3384 230.675L93.2096 230.44C93.4157 230.285 93.6688 230.206 93.9264 230.216C94.0235 230.201 94.1228 230.208 94.2166 230.238C94.3104 230.267 94.3962 230.317 94.4676 230.385C94.5389 230.452 94.5939 230.535 94.6282 230.628C94.6625 230.72 94.6753 230.818 94.6656 230.916ZM94.352 231.431V231.19H93.8704C93.5568 231.19 93.4728 231.314 93.4728 231.459C93.4728 231.605 93.6128 231.739 93.8536 231.739C93.9586 231.747 94.0633 231.722 94.1529 231.666C94.2424 231.611 94.3121 231.529 94.352 231.431Z" fill="#263238"/>
<path d="M96.8777 230.966V231.958H96.5697V231C96.5697 230.664 96.3961 230.496 96.0993 230.496C96.024 230.489 95.9482 230.499 95.8771 230.525C95.806 230.55 95.7415 230.591 95.6881 230.645C95.6346 230.698 95.5936 230.763 95.5679 230.834C95.5422 230.905 95.5324 230.981 95.5393 231.056V231.941H95.2257V230.216H95.5225V230.479C95.5969 230.386 95.6927 230.311 95.8019 230.263C95.9111 230.214 96.0304 230.192 96.1497 230.199C96.2514 230.189 96.3542 230.201 96.4501 230.237C96.5461 230.272 96.6326 230.329 96.7029 230.403C96.7733 230.477 96.8257 230.567 96.856 230.664C96.8863 230.762 96.8937 230.865 96.8777 230.966Z" fill="#263238"/>
<path d="M97.3088 231.095C97.3063 230.976 97.3284 230.858 97.3738 230.748C97.4193 230.638 97.487 230.538 97.5727 230.456C97.6585 230.373 97.7604 230.309 97.8721 230.268C97.9837 230.227 98.1027 230.209 98.2216 230.216C98.3616 230.208 98.501 230.239 98.6252 230.304C98.7494 230.369 98.8538 230.466 98.9272 230.586L98.6864 230.737C98.6345 230.66 98.5644 230.597 98.4823 230.554C98.4002 230.511 98.3087 230.489 98.216 230.49C98.0649 230.505 97.9247 230.575 97.8226 230.688C97.7205 230.8 97.664 230.946 97.664 231.098C97.664 231.25 97.7205 231.396 97.8226 231.509C97.9247 231.621 98.0649 231.691 98.216 231.706C98.3087 231.707 98.4002 231.685 98.4823 231.642C98.5644 231.599 98.6345 231.536 98.6864 231.459L98.9272 231.605C98.854 231.725 98.7499 231.823 98.6258 231.889C98.5016 231.955 98.362 231.987 98.2216 231.98C98.1025 231.986 97.9833 231.968 97.8716 231.926C97.76 231.884 97.6581 231.82 97.5725 231.736C97.4868 231.653 97.4192 231.554 97.3738 231.443C97.3285 231.333 97.3063 231.215 97.3088 231.095Z" fill="#263238"/>
<path d="M100.853 231.202H99.4534C99.4604 231.276 99.4822 231.349 99.5178 231.415C99.5533 231.481 99.6018 231.539 99.6603 231.586C99.7188 231.633 99.7861 231.668 99.8584 231.689C99.9306 231.709 100.006 231.715 100.081 231.706C100.174 231.709 100.266 231.692 100.352 231.656C100.438 231.62 100.516 231.567 100.579 231.498L100.753 231.7C100.666 231.793 100.56 231.866 100.442 231.915C100.324 231.963 100.197 231.985 100.069 231.98C99.949 231.989 99.828 231.972 99.7143 231.931C99.6006 231.89 99.4967 231.826 99.4092 231.743C99.3217 231.66 99.2525 231.559 99.2062 231.447C99.1598 231.336 99.1372 231.216 99.1398 231.095C99.1352 230.979 99.1544 230.864 99.1962 230.756C99.238 230.648 99.3016 230.55 99.383 230.467C99.4644 230.385 99.5619 230.32 99.6693 230.277C99.7768 230.233 99.892 230.213 100.008 230.216C100.124 230.212 100.239 230.233 100.347 230.278C100.454 230.322 100.551 230.388 100.632 230.472C100.712 230.556 100.774 230.655 100.813 230.765C100.852 230.874 100.868 230.991 100.859 231.106C100.86 231.138 100.858 231.17 100.853 231.202ZM99.4534 230.978H100.573C100.573 230.829 100.514 230.687 100.409 230.582C100.304 230.477 100.162 230.418 100.013 230.418C99.8649 230.418 99.7225 230.477 99.6175 230.582C99.5124 230.687 99.4534 230.829 99.4534 230.978Z" fill="#263238"/>
<path d="M80.8559 234.517V239.949H79.5959V235.525H78.5095V234.517H80.8559Z" fill="#263238"/>
<path d="M83.2696 239.254C83.2576 239.524 83.1869 239.788 83.0624 240.027L82.6144 241.147H81.8472L82.1888 239.915C82.059 239.862 81.9489 239.77 81.8737 239.652C81.7985 239.533 81.7618 239.394 81.7688 239.254C81.7688 239.055 81.8478 238.865 81.9886 238.724C82.1293 238.583 82.3202 238.504 82.5192 238.504C82.7182 238.504 82.9091 238.583 83.0498 238.724C83.1905 238.865 83.2696 239.055 83.2696 239.254Z" fill="#263238"/>
<path d="M85.8401 234.517V239.949H84.5521V235.525H83.4657V234.517H85.8401Z" fill="#263238"/>
<path d="M86.7581 237.233C86.7581 235.441 87.7493 234.433 89.0877 234.433C90.4261 234.433 91.4173 235.452 91.4173 237.233C91.4173 239.014 90.4317 240.033 89.0877 240.033C87.7437 240.033 86.7581 239.025 86.7581 237.233ZM90.1517 237.233C90.1517 236.001 89.7149 235.486 89.0877 235.486C88.4605 235.486 88.0293 236.001 88.0293 237.233C88.0293 238.465 88.4661 238.98 89.0877 238.98C89.7093 238.98 90.1517 238.47 90.1517 237.233Z" fill="#263238"/>
<path d="M92.0281 237.233C92.0281 235.441 93.0249 234.433 94.3633 234.433C95.7017 234.433 96.6929 235.452 96.6929 237.233C96.6929 239.014 95.7073 240.033 94.3633 240.033C93.0193 240.033 92.0281 239.025 92.0281 237.233ZM95.4273 237.233C95.4273 236.001 94.9905 235.486 94.3633 235.486C93.7361 235.486 93.3049 236.001 93.3049 237.233C93.3049 238.465 93.7417 238.98 94.3633 238.98C94.9849 238.98 95.4273 238.47 95.4273 237.233Z" fill="#263238"/>
<path d="M106.817 237.558V239.949H105.608V237.748C105.608 237.07 105.305 236.757 104.813 236.757C104.32 236.757 103.889 237.11 103.889 237.877V239.971H102.679V237.77C102.679 237.093 102.393 236.779 101.889 236.779C101.385 236.779 100.971 237.132 100.971 237.899V239.994H99.7615V235.76H100.915V236.242C101.08 236.057 101.283 235.911 101.511 235.815C101.738 235.718 101.984 235.672 102.231 235.682C102.499 235.667 102.767 235.723 103.007 235.843C103.247 235.962 103.453 236.142 103.603 236.365C103.786 236.144 104.016 235.968 104.277 235.849C104.538 235.731 104.823 235.674 105.109 235.682C106.106 235.71 106.817 236.286 106.817 237.558Z" fill="#263238"/>
<path d="M75.1688 235.15C75.7612 232.631 74.1986 230.107 71.6787 229.515C69.1587 228.923 66.6356 230.485 66.0432 233.005C65.4507 235.525 67.0133 238.048 69.5333 238.641C72.0532 239.233 74.5763 237.67 75.1688 235.15Z" fill="#F2575D"/>
<path d="M68.7149 234.942C69.1136 234.885 69.5163 234.861 69.9189 234.87C70.6861 234.87 71.7837 234.83 73.0941 234.819L72.9989 235.026C72.6237 234.601 72.2261 234.13 71.8005 233.643L71.7277 233.559L71.8005 233.464L72.9821 231.991L73.0941 232.226H72.5341H68.6869L68.8213 232.098C68.8213 233.52 68.7877 234.718 68.7653 235.558C68.7746 236.002 68.7484 236.446 68.6869 236.886C68.629 236.446 68.6028 236.002 68.6085 235.558C68.6085 234.718 68.5693 233.52 68.5581 232.098V231.969H68.6869H72.5341H73.3685L73.1781 232.204L71.9853 233.677V233.498L73.1613 234.898L73.3405 235.105H73.0661C71.7557 235.105 70.6581 235.071 69.8909 235.054C69.4964 235.051 69.103 235.014 68.7149 234.942Z" fill="#FAFAFA"/>
<path d="M146.443 226.089H132.275C131.555 226.089 130.864 226.375 130.355 226.884C129.845 227.394 129.559 228.085 129.559 228.805V239.96C129.561 240.679 129.847 241.369 130.357 241.877C130.866 242.385 131.556 242.67 132.275 242.67H132.633V245.33L135.719 242.67H146.443C147.162 242.67 147.852 242.385 148.362 241.877C148.871 241.369 149.158 240.679 149.159 239.96V228.805C149.159 228.085 148.873 227.394 148.364 226.884C147.854 226.375 147.163 226.089 146.443 226.089Z" fill="#F2575D"/>
<path d="M133.625 231.207V236.93C133.625 236.99 133.648 237.047 133.69 237.089C133.732 237.131 133.789 237.154 133.849 237.154H145.844C145.873 237.154 145.902 237.147 145.929 237.135C145.956 237.123 145.98 237.106 146.001 237.085C146.021 237.064 146.037 237.038 146.047 237.011C146.058 236.983 146.063 236.954 146.062 236.925L146.034 234.83C146.035 234.784 146.021 234.739 145.995 234.702L144.27 232.4C144.251 232.372 144.225 232.35 144.194 232.334C144.164 232.319 144.131 232.31 144.097 232.31H142.114C142.056 232.31 142 232.288 141.958 232.247C141.916 232.206 141.892 232.15 141.89 232.092V231.224C141.891 231.195 141.886 231.166 141.875 231.139C141.865 231.112 141.849 231.087 141.828 231.066C141.808 231.045 141.784 231.028 141.757 231.017C141.73 231.006 141.701 231 141.672 231H133.832C133.778 231.004 133.728 231.027 133.69 231.065C133.652 231.103 133.629 231.154 133.625 231.207Z" fill="#FAFAFA"/>
<path d="M142.45 232.798V234.64C142.45 234.674 142.464 234.707 142.488 234.731C142.512 234.755 142.545 234.769 142.579 234.769L145.228 234.724C145.251 234.723 145.273 234.716 145.293 234.703C145.312 234.691 145.327 234.673 145.338 234.653C145.348 234.632 145.353 234.609 145.351 234.586C145.349 234.563 145.342 234.541 145.329 234.522L144.08 232.686C144.069 232.668 144.053 232.653 144.034 232.643C144.016 232.633 143.995 232.628 143.974 232.63L142.562 232.669C142.531 232.672 142.501 232.687 142.48 232.711C142.46 232.735 142.449 232.766 142.45 232.798Z" fill="#F2575D"/>
<path d="M146.303 237.328H133.384V237.726H146.303V237.328Z" fill="#FAFAFA"/>
<path d="M137.657 237.479C137.658 237.733 137.583 237.982 137.443 238.194C137.302 238.405 137.102 238.571 136.868 238.668C136.633 238.766 136.375 238.792 136.126 238.743C135.876 238.694 135.647 238.571 135.468 238.392C135.288 238.212 135.166 237.983 135.116 237.734C135.067 237.484 135.093 237.226 135.191 236.991C135.288 236.757 135.454 236.557 135.665 236.416C135.877 236.276 136.126 236.201 136.38 236.202C136.719 236.202 137.043 236.337 137.283 236.576C137.522 236.816 137.657 237.141 137.657 237.479Z" fill="#F2575D"/>
<path d="M137.13 237.479C137.131 237.629 137.088 237.776 137.005 237.901C136.922 238.026 136.804 238.124 136.666 238.182C136.528 238.24 136.375 238.256 136.228 238.227C136.081 238.198 135.946 238.125 135.84 238.019C135.734 237.913 135.661 237.778 135.632 237.631C135.603 237.484 135.619 237.331 135.677 237.193C135.735 237.055 135.832 236.936 135.958 236.854C136.083 236.771 136.23 236.728 136.38 236.729C136.579 236.729 136.77 236.808 136.91 236.949C137.051 237.089 137.13 237.28 137.13 237.479Z" fill="#FAFAFA"/>
<path d="M141.884 237.154C141.851 237.154 141.823 235.771 141.823 234.069C141.823 232.366 141.823 230.983 141.884 230.983C141.946 230.983 141.94 232.366 141.94 234.069C141.94 235.771 141.912 237.154 141.884 237.154Z" fill="#F2575D"/>
<path d="M144.64 237.479C144.64 237.732 144.565 237.979 144.425 238.189C144.284 238.398 144.085 238.562 143.852 238.659C143.618 238.755 143.362 238.781 143.114 238.731C142.866 238.682 142.639 238.561 142.46 238.382C142.282 238.203 142.16 237.976 142.111 237.728C142.061 237.481 142.087 237.224 142.183 236.991C142.28 236.757 142.444 236.558 142.654 236.418C142.864 236.277 143.11 236.202 143.363 236.202C143.702 236.202 144.026 236.337 144.266 236.576C144.505 236.816 144.64 237.141 144.64 237.479Z" fill="#F2575D"/>
<path d="M144.08 237.479C144.081 237.629 144.037 237.776 143.955 237.901C143.873 238.026 143.755 238.124 143.617 238.182C143.479 238.24 143.327 238.255 143.18 238.227C143.033 238.198 142.897 238.127 142.791 238.021C142.685 237.916 142.612 237.781 142.583 237.634C142.553 237.488 142.568 237.335 142.625 237.197C142.682 237.058 142.779 236.94 142.903 236.857C143.027 236.773 143.174 236.729 143.324 236.729C143.523 236.729 143.715 236.808 143.856 236.948C143.998 237.089 144.078 237.28 144.08 237.479Z" fill="#FAFAFA"/>
<path d="M143.346 235.122C143.346 235.155 143.161 235.178 142.937 235.178C142.713 235.178 142.529 235.178 142.529 235.122C142.529 235.066 142.713 235.06 142.937 235.06C143.161 235.06 143.346 235.088 143.346 235.122Z" fill="#F2575D"/>
<path d="M276.99 141.193C276.99 141.193 286.023 142.716 286.751 142.912C287.479 143.108 290.341 144.463 290.486 145.337C290.562 146.484 290.562 147.634 290.486 148.781C290.486 148.781 289.966 149.201 289.646 148.361C289.432 147.544 289.34 146.701 289.372 145.858L287.77 145.242L288.644 146.793L288.79 150.427C288.79 150.427 287.67 150.326 287.451 149.458C287.314 148.854 287.242 148.236 287.238 147.616L286.074 146.63L286.947 147.812L287.238 150.427C287.238 150.427 286.387 150.707 286.118 150.125C285.922 149.37 285.824 148.592 285.827 147.812L282.534 146.658L280.356 147.874L276.285 145.6L276.99 141.193Z" fill="#FFBE9D"/>
<path d="M245.362 118.866C245.406 119.045 256.248 133.986 256.248 133.986L278.032 140.762L277.041 148.943L250.346 143.567L240.87 132.692L245.362 118.866Z" fill="#F2575D"/>
<g opacity="0.2">
<path opacity="0.2" d="M245.362 118.866C245.406 119.045 256.248 133.986 256.248 133.986L278.032 140.762L277.041 148.943L250.346 143.567L240.87 132.692L245.362 118.866Z" fill="black"/>
</g>
<path d="M207.416 139.412H162.907C161.964 139.412 161.199 140.177 161.199 141.12V146.379C161.199 147.322 161.964 148.087 162.907 148.087H207.416C208.359 148.087 209.124 147.322 209.124 146.379V141.12C209.124 140.177 208.359 139.412 207.416 139.412Z" fill="#F5F5F5"/>
<path d="M207.421 148.086C207.421 148.086 207.517 148.086 207.701 148.047C208.058 147.982 208.383 147.803 208.629 147.538C208.875 147.272 209.029 146.934 209.068 146.574C209.068 146.048 209.068 145.421 209.068 144.726C209.068 144.032 209.068 143.254 209.068 142.408C209.068 141.982 209.068 141.54 209.068 141.081C209.06 140.854 209.007 140.63 208.911 140.424C208.815 140.218 208.677 140.034 208.508 139.882C208.324 139.727 208.108 139.614 207.875 139.552C207.627 139.498 207.372 139.481 207.119 139.502H205.484H201.928L162.946 139.546C162.728 139.546 162.513 139.591 162.313 139.679C162.113 139.767 161.934 139.895 161.787 140.056C161.642 140.219 161.531 140.409 161.462 140.616C161.392 140.823 161.366 141.042 161.384 141.26C161.384 142.201 161.384 143.136 161.384 144.06V146.16C161.373 146.374 161.392 146.589 161.44 146.798C161.524 147.101 161.696 147.372 161.934 147.577C162.172 147.781 162.466 147.91 162.778 147.946C162.974 147.946 163.215 147.946 163.439 147.946H173.788L191.31 147.98L203.126 148.025L206.341 148.053H207.175H207.461H207.175H206.341L203.126 148.081L191.31 148.126L173.788 148.159H163.4C163.17 148.159 162.957 148.159 162.705 148.159C162.462 148.13 162.226 148.054 162.011 147.935C161.797 147.816 161.608 147.656 161.457 147.464C161.305 147.272 161.192 147.051 161.126 146.815C161.066 146.581 161.043 146.339 161.059 146.098V144.021C161.059 143.097 161.059 142.162 161.059 141.221C161.044 140.967 161.079 140.712 161.163 140.472C161.247 140.232 161.377 140.011 161.546 139.821C161.72 139.629 161.931 139.476 162.168 139.372C162.404 139.268 162.66 139.215 162.918 139.216L201.9 139.261H207.091C207.36 139.25 207.629 139.272 207.892 139.328C208.148 139.398 208.385 139.524 208.586 139.698C208.776 139.862 208.929 140.063 209.036 140.29C209.143 140.517 209.201 140.763 209.208 141.014C209.208 141.473 209.208 141.921 209.208 142.346C209.208 143.192 209.208 143.965 209.208 144.665C209.208 145.365 209.208 145.975 209.18 146.524C209.118 146.988 208.874 147.409 208.502 147.694C208.276 147.864 208.01 147.974 207.729 148.014C207.631 148.054 207.527 148.079 207.421 148.086Z" fill="#263238"/>
<path d="M328.272 258.929C340.904 258.323 350.652 247.591 350.045 234.959C349.438 222.327 338.706 212.579 326.074 213.185C313.443 213.792 303.694 224.524 304.301 237.156C304.908 249.788 315.64 259.536 328.272 258.929Z" fill="#263238"/>
<path d="M304.285 235.67C304.285 235.67 304.285 235.71 304.285 235.732C304.234 241.781 306.579 247.604 310.807 251.93C315.035 256.256 320.803 258.733 326.852 258.82C332.9 258.908 338.738 256.598 343.089 252.396C347.44 248.194 349.952 242.441 350.076 236.393C350.076 236.393 350.076 236.354 350.076 236.331L304.285 235.67Z" fill="#263238"/>
<path d="M311.1 235.827C311.054 239.007 311.952 242.129 313.68 244.798C315.408 247.467 317.889 249.564 320.809 250.824C323.729 252.083 326.956 252.448 330.084 251.873C333.211 251.298 336.098 249.808 338.379 247.593C340.66 245.377 342.232 242.534 342.898 239.425C343.563 236.315 343.291 233.078 342.117 230.123C340.942 227.168 338.918 224.627 336.3 222.823C333.681 221.018 330.587 220.031 327.407 219.985C323.144 219.923 319.031 221.558 315.973 224.529C312.915 227.5 311.162 231.564 311.1 235.827Z" fill="#FAFAFA"/>
<path d="M327.407 219.985C323.144 219.923 319.031 221.558 315.973 224.529C312.915 227.5 311.162 231.564 311.1 235.827L343.25 236.292C343.311 232.029 341.676 227.916 338.705 224.858C335.734 221.8 331.67 220.047 327.407 219.985Z" fill="#E0E0E0"/>
<path d="M317.383 235.917C317.354 237.854 317.901 239.756 318.953 241.382C320.006 243.009 321.517 244.287 323.296 245.054C325.075 245.822 327.041 246.045 328.946 245.694C330.852 245.344 332.611 244.437 334 243.087C335.39 241.738 336.348 240.006 336.754 238.112C337.159 236.217 336.994 234.245 336.278 232.445C335.563 230.644 334.33 229.097 332.735 227.997C331.14 226.898 329.254 226.296 327.317 226.268C324.721 226.231 322.215 227.226 320.352 229.035C318.489 230.845 317.421 233.32 317.383 235.917Z" fill="#263238"/>
<path d="M316.308 202.485C316.308 202.485 339.75 195.395 349.443 220.864L300.387 236.062L316.308 202.485Z" fill="#F2575D"/>
<path d="M186.995 258.932C199.627 258.325 209.375 247.593 208.768 234.961C208.162 222.329 197.43 212.581 184.798 213.188C172.166 213.794 162.418 224.526 163.024 237.158C163.631 249.79 174.363 259.538 186.995 258.932Z" fill="#263238"/>
<path d="M163.002 235.67C163.002 235.67 163.002 235.71 163.002 235.732C162.951 241.781 165.296 247.604 169.524 251.93C173.753 256.256 179.521 258.733 185.569 258.82C191.618 258.908 197.455 256.598 201.807 252.396C206.158 248.194 208.67 242.441 208.793 236.393V236.32L163.002 235.67Z" fill="#263238"/>
<path d="M169.84 235.827C169.794 239.007 170.691 242.129 172.42 244.798C174.148 247.467 176.629 249.564 179.549 250.824C182.469 252.083 185.696 252.448 188.824 251.873C191.951 251.298 194.838 249.808 197.119 247.593C199.4 245.377 200.972 242.534 201.638 239.425C202.303 236.315 202.031 233.078 200.857 230.123C199.682 227.168 197.658 224.627 195.04 222.823C192.421 221.018 189.327 220.031 186.147 219.985C181.884 219.923 177.771 221.558 174.713 224.529C171.655 227.5 169.902 231.564 169.84 235.827Z" fill="#FAFAFA"/>
<path d="M186.125 219.985C181.865 219.929 177.758 221.567 174.705 224.537C171.652 227.507 169.902 231.568 169.84 235.827L201.99 236.292C202.02 234.179 201.633 232.081 200.852 230.118C200.071 228.154 198.911 226.364 197.437 224.85C195.964 223.335 194.206 222.126 192.265 221.291C190.324 220.456 188.238 220.013 186.125 219.985Z" fill="#E0E0E0"/>
<path d="M176.101 235.917C176.072 237.854 176.618 239.756 177.671 241.382C178.723 243.009 180.235 244.287 182.013 245.054C183.792 245.822 185.759 246.045 187.664 245.694C189.569 245.344 191.328 244.437 192.718 243.087C194.108 241.738 195.066 240.006 195.471 238.112C195.877 236.217 195.711 234.245 194.996 232.445C194.281 230.644 193.048 229.097 191.452 227.997C189.857 226.898 187.972 226.296 186.035 226.268C183.438 226.231 180.933 227.226 179.07 229.035C177.207 230.845 176.139 233.32 176.101 235.917Z" fill="#263238"/>
<path d="M218.465 226.867C218.336 226.934 206.413 225.025 206.413 225.025C205.769 225.866 204.948 226.557 204.009 227.048C203.07 227.54 202.035 227.82 200.976 227.87C195.824 228.116 190.789 228.346 186.416 228.542C184.462 228.629 182.622 229.487 181.299 230.928C179.977 232.369 179.279 234.276 179.36 236.23C179.438 238.085 180.212 239.843 181.526 241.154C182.84 242.465 184.6 243.235 186.455 243.309L211.84 244.311C216.012 244.474 221.556 241.942 224.16 238.678L218.465 226.867Z" fill="#455A64"/>
<path d="M156.165 216.72C156.165 216.72 155.078 194.404 176.05 189.756V186.894H249.511V193.76C249.511 193.76 238.731 206.746 242.231 217.526C245.731 228.306 246.851 229.41 246.851 229.41H288.661C291.96 224.773 293.799 219.256 293.941 213.567C294.165 204.103 290.234 187.925 287.294 177.582C284.64 168.146 282.96 160.283 282.96 160.283L295.504 156.1C295.504 156.1 318.716 186.48 319.662 188.16C320.609 189.84 323.834 193.85 323.078 202.574C322.322 211.299 301.44 238.213 295.963 241.248C290.486 244.283 285.536 244.474 280.602 245.23C276.324 245.89 244.673 245.454 236.39 245.325C233.512 245.307 230.69 244.524 228.214 243.057C225.739 241.556 223.88 239.07 221.825 234.993L217.44 226.458L156.165 216.72Z" fill="#F2575D"/>
<path d="M161.787 215.186L152.536 229.678C152.261 230.08 152.125 230.56 152.148 231.046C152.17 231.533 152.35 231.998 152.661 232.373C152.972 232.747 153.396 233.01 153.869 233.122C154.343 233.234 154.84 233.189 155.286 232.994C156.437 232.479 157.489 231.766 158.394 230.888C162.622 226.862 170.154 216.255 170.154 216.255L161.787 215.186Z" fill="#455A64"/>
<path d="M228.142 217.795C228.142 217.795 228.142 217.722 228.198 217.582L228.383 216.972C228.605 216.188 228.768 215.389 228.87 214.581C229.18 211.589 228.685 208.569 227.436 205.834C226.596 203.945 225.443 202.213 224.026 200.71C222.398 198.992 220.508 197.545 218.426 196.42C216.119 195.174 213.65 194.254 211.09 193.687C208.33 193.092 205.513 192.801 202.69 192.819C199.879 192.84 197.073 193.047 194.29 193.441C191.579 193.805 188.981 194.253 186.528 194.813C182.174 195.738 177.976 197.29 174.068 199.422C171.444 200.878 169.046 202.71 166.951 204.859C166.211 205.621 165.679 206.254 165.327 206.685L164.929 207.183C164.886 207.242 164.838 207.297 164.783 207.346C165.401 206.431 166.098 205.573 166.867 204.781C168.944 202.591 171.337 200.724 173.967 199.242C177.882 197.072 182.096 195.491 186.472 194.55C188.925 193.99 191.512 193.525 194.251 193.155C197.056 192.758 199.884 192.549 202.718 192.528C205.556 192.509 208.389 192.804 211.163 193.407C213.748 193.994 216.239 194.936 218.566 196.207C220.677 197.348 222.592 198.819 224.239 200.564C225.666 202.093 226.823 203.854 227.66 205.772C228.904 208.544 229.372 211.602 229.015 214.62C228.898 215.432 228.71 216.232 228.455 217.011C228.366 217.269 228.299 217.465 228.243 217.616C228.214 217.679 228.18 217.738 228.142 217.795Z" fill="#263238"/>
<path d="M223.914 212.8C223.88 212.8 224.031 212.447 224.188 211.809C224.398 210.89 224.426 209.939 224.272 209.009C224.054 207.642 223.591 206.325 222.906 205.122C222.518 204.403 222.064 203.72 221.55 203.084C221.013 202.392 220.403 201.759 219.73 201.197C218.42 200.118 216.945 199.256 215.362 198.643C214.067 198.135 212.724 197.76 211.353 197.523C210.426 197.367 209.491 197.26 208.553 197.204C208.208 197.199 207.864 197.173 207.522 197.126C207.612 197.112 207.702 197.112 207.791 197.126C207.965 197.126 208.222 197.126 208.558 197.126C209.496 197.139 210.431 197.216 211.358 197.355C212.751 197.555 214.118 197.906 215.435 198.402C217.059 199.014 218.572 199.886 219.915 200.984C220.601 201.561 221.224 202.209 221.774 202.916C222.289 203.57 222.745 204.269 223.135 205.005C223.828 206.237 224.281 207.59 224.468 208.992C224.607 209.938 224.548 210.903 224.294 211.826C224.228 212.074 224.138 212.316 224.026 212.548C224 212.637 223.963 212.722 223.914 212.8Z" fill="#F5F5F5"/>
<g opacity="0.4">
<path opacity="0.4" d="M209.527 193.234C213.481 193.956 217.245 195.48 220.587 197.714C223.947 199.945 226.535 203.16 227.996 206.92C229.463 210.694 229.245 215.695 227.699 218.82L232.89 219.251C234.637 213.422 232.739 206.27 228.539 201.706C226.136 199.045 223.204 196.915 219.93 195.452C216.656 193.989 213.113 193.226 209.527 193.211" fill="black"/>
</g>
<path d="M207.87 147.65H162.459C159.805 147.65 157.654 149.801 157.654 152.454V182.106C157.654 184.76 159.805 186.911 162.459 186.911H207.87C210.523 186.911 212.674 184.76 212.674 182.106V152.454C212.674 149.801 210.523 147.65 207.87 147.65Z" fill="#455A64"/>
<path d="M212.674 156.408C212.674 156.492 200.304 156.554 185.049 156.554C169.795 156.554 157.419 156.492 157.419 156.408C157.419 156.324 169.784 156.262 185.049 156.262C200.315 156.262 212.674 156.33 212.674 156.408Z" fill="#263238"/>
<path d="M249.478 189.51C249.478 189.588 232.963 189.655 212.602 189.655C192.24 189.655 175.726 189.588 175.726 189.51C175.726 189.431 192.235 189.364 212.602 189.364C232.969 189.364 249.478 189.431 249.478 189.51Z" fill="#263238"/>
<path d="M249.511 186.911C250.26 185.963 250.722 184.82 250.844 183.618C250.956 181.776 250.116 179.469 248.128 179.469H222.76C220.786 179.469 218.893 180.253 217.497 181.649C216.102 183.044 215.318 184.937 215.318 186.911H249.511Z" fill="#455A64"/>
<path d="M282.96 160.283L278.547 151.082C277.958 149.819 277.861 148.382 278.275 147.051C278.69 145.721 279.585 144.592 280.787 143.886L293.981 136.018C294.669 135.605 295.457 135.386 296.26 135.386H299.11L300.23 153.983L295.84 155.68L298.64 160.205L282.96 160.283Z" fill="#F2575D"/>
<path d="M299.15 136.08C299.15 136.08 303.663 137.116 304.229 144.071C304.794 151.026 300.247 153.199 300.247 153.199L299.15 136.08Z" fill="#EBEBEB"/>
<path d="M284.5 147.476C284.5 147.476 275.377 151.799 274.263 152.516C273.49 153.009 272.829 153.871 273.434 155.389C274.465 157.97 278.732 155.54 278.732 155.54L287.227 151.295C287.227 151.295 290.492 149.755 289.282 147.823C287.933 145.662 284.5 147.476 284.5 147.476Z" fill="#263238"/>
<path d="M271.587 145.902C271.587 145.902 280.16 147.37 280.888 147.582C281.616 147.795 284.472 149.134 284.618 150.007C284.693 151.154 284.693 152.305 284.618 153.451C284.618 153.451 284.103 153.871 283.778 153.031C283.567 152.212 283.474 151.368 283.503 150.522L281.902 149.906L282.775 151.458L282.921 155.098C282.921 155.098 281.801 154.997 281.588 154.123C281.451 153.521 281.379 152.905 281.375 152.286L280.205 151.295L281.079 152.477L281.375 155.098C281.375 155.098 280.524 155.372 280.255 154.79C280.058 154.035 279.961 153.257 279.964 152.477L276.671 151.329L274.493 152.544L271.066 150.64L271.587 145.902Z" fill="#FFBE9D"/>
<path d="M284.937 133.963C284.937 137.435 283.341 140.246 281.375 140.246C279.409 140.246 277.813 137.446 277.813 133.963C277.813 130.48 279.404 127.68 281.375 127.68C283.346 127.68 284.937 130.48 284.937 133.963Z" fill="#263238"/>
<path d="M281.958 138.281L283.918 145.068C284.275 144.888 284.561 144.591 284.727 144.226C284.893 143.862 284.929 143.451 284.83 143.063C284.338 140.739 284.058 139.087 283.52 137.049C283.453 136.847 281.958 138.281 281.958 138.281Z" fill="#263238"/>
<g opacity="0.4">
<path opacity="0.4" d="M243.2 220.399C243.01 219.839 242.808 219.279 242.64 218.68C242.472 218.081 242.259 217.56 242.114 217C241.888 216.16 241.723 215.305 241.621 214.441C238.317 227.881 243.362 237.362 252.02 238.028C264.676 239.002 280.104 239.708 286.342 238.073C297.716 235.088 301.888 225.602 302.885 224.039C303.882 222.477 312.926 205.94 307.365 190.019C301.804 174.098 292.161 157.192 292.161 157.192L282.96 160.283C282.96 160.283 284.64 168.123 287.311 177.554C290.251 187.897 294.182 204.075 293.958 213.539C293.816 219.228 291.977 224.745 288.678 229.382H246.874C246.874 229.382 245.978 228.486 243.217 220.422" fill="black"/>
</g>
<path d="M154.496 213.237L154.793 210.045L231.11 218.837C232.13 218.957 233.114 219.284 234.003 219.798C234.892 220.313 235.667 221.003 236.279 221.827C236.892 222.652 237.329 223.593 237.565 224.592C237.801 225.592 237.83 226.629 237.65 227.64L237.309 229.572L158.349 218.098C157.204 217.941 156.163 217.348 155.445 216.442C154.727 215.536 154.387 214.388 154.496 213.237Z" fill="#F2575D"/>
<g opacity="0.6">
<path opacity="0.6" d="M154.496 213.237L154.793 210.045L231.11 218.837C232.13 218.957 233.114 219.284 234.003 219.798C234.892 220.313 235.667 221.003 236.279 221.827C236.892 222.652 237.329 223.593 237.565 224.592C237.801 225.592 237.83 226.629 237.65 227.64L237.309 229.572L158.349 218.098C157.204 217.941 156.163 217.348 155.445 216.442C154.727 215.536 154.387 214.388 154.496 213.237Z" fill="black"/>
</g>
<g opacity="0.3">
<path opacity="0.3" d="M302.885 234.584C302.885 234.584 319.685 216.104 323.151 201.578C324.893 201.568 326.632 201.697 328.354 201.964C328.354 201.964 318.419 228.973 302.885 234.584Z" fill="black"/>
</g>
<path d="M322.905 195.07C322.948 195.222 322.978 195.378 322.994 195.535C323.039 195.843 323.129 196.297 323.185 196.885C323.349 198.564 323.305 200.256 323.056 201.925C322.661 204.389 321.907 206.781 320.816 209.026C319.485 211.758 318.001 214.413 316.369 216.978C313.442 221.658 310.154 226.103 306.536 230.272C305.169 231.89 304.038 233.178 303.254 234.063L302.347 235.077C302.244 235.197 302.134 235.311 302.017 235.418C302.1 235.285 302.195 235.159 302.302 235.043L303.17 233.99L306.379 230.143C309.941 225.942 313.197 221.492 316.123 216.826C317.756 214.27 319.251 211.629 320.603 208.914C321.68 206.691 322.434 204.327 322.843 201.891C323.1 200.247 323.174 198.579 323.061 196.918C323.022 196.33 322.95 195.877 322.927 195.563C322.903 195.4 322.896 195.235 322.905 195.07Z" fill="#263238"/>
<path d="M293.863 234.45C292.901 233.713 292.001 232.901 291.17 232.019C290.273 231.207 289.442 230.325 288.683 229.382C290.544 230.929 292.276 232.623 293.863 234.45Z" fill="#263238"/>
<path d="M244.001 233.884C244.271 233.021 244.69 232.212 245.239 231.493C245.706 230.719 246.302 230.031 247.003 229.46C247.064 229.522 246.297 230.44 245.479 231.655C244.662 232.87 244.079 233.918 244.001 233.884Z" fill="#263238"/>
<path d="M211.723 244.552C212.641 243.714 213.415 242.73 214.013 241.64C214.64 240.45 215.021 239.145 215.133 237.804C215.303 236.169 215.017 234.519 214.307 233.037C213.598 231.554 212.492 230.297 211.112 229.404C210 228.648 208.747 228.125 207.427 227.864C206.205 227.643 204.954 227.626 203.726 227.814C203.805 227.78 203.887 227.755 203.972 227.741C204.215 227.677 204.462 227.629 204.711 227.595C205.628 227.473 206.557 227.495 207.467 227.662C208.823 227.902 210.115 228.419 211.263 229.18C212.698 230.091 213.847 231.388 214.579 232.923C215.311 234.457 215.596 236.166 215.402 237.854C215.273 239.231 214.861 240.565 214.192 241.774C213.752 242.587 213.185 243.325 212.512 243.958C212.336 244.133 212.149 244.296 211.952 244.446C211.88 244.49 211.803 244.526 211.723 244.552Z" fill="#263238"/>
<path d="M183.84 238.7C183.648 237.817 183.556 236.916 183.566 236.012C183.469 235.111 183.469 234.203 183.566 233.302C183.845 235.087 183.932 236.897 183.823 238.7H183.84Z" fill="#263238"/>
<path d="M185.878 238.706C185.459 236.932 185.228 235.118 185.19 233.296C185.445 234.173 185.608 235.074 185.677 235.984C185.839 236.882 185.907 237.794 185.878 238.706Z" fill="#263238"/>
<path d="M217.356 186.911C217.356 186.99 208.077 187.057 196.636 187.057C185.195 187.057 175.916 186.99 175.916 186.911C175.916 186.833 185.195 186.766 196.636 186.766C208.077 186.766 217.356 186.827 217.356 186.911Z" fill="#263238"/>
<path d="M187.307 186.883C187.222 186.883 187.161 176.243 187.161 163.15C187.161 150.058 187.2 139.44 187.307 139.44C187.413 139.44 187.452 150.08 187.452 163.178C187.452 176.277 187.385 186.883 187.307 186.883Z" fill="#263238"/>
<path d="M181.6 186.844C181.522 186.844 181.919 176.204 182.49 163.123C183.062 150.041 183.61 139.407 183.666 139.412C183.722 139.418 183.353 150.052 182.782 163.134C182.21 176.215 181.706 186.85 181.6 186.844Z" fill="#263238"/>
<path d="M168.771 251.608C168.68 251.532 168.598 251.448 168.524 251.356C168.379 251.188 168.138 250.947 167.875 250.606C167.1 249.655 166.409 248.639 165.808 247.57C163.781 244.032 162.723 240.021 162.739 235.943C162.756 231.865 163.847 227.864 165.903 224.342C166.511 223.277 167.21 222.267 167.992 221.323C168.261 220.982 168.502 220.763 168.653 220.573C168.804 220.382 168.894 220.321 168.899 220.332C168.844 220.433 168.776 220.527 168.698 220.612C168.563 220.797 168.334 221.043 168.082 221.396C165.209 225.055 163.478 229.48 163.106 234.117C162.733 238.755 163.736 243.399 165.987 247.47C166.567 248.54 167.228 249.564 167.964 250.533C168.211 250.886 168.435 251.138 168.569 251.322C168.703 251.507 168.782 251.597 168.771 251.608Z" fill="#455A64"/>
<path d="M248.996 208.942L248.822 209.266L245.44 215.6L240.713 220.147L250.161 232.725L258.029 231.42C258.029 231.42 257.149 229.622 253.196 229.275L251.701 221.76L257.25 213.158" fill="#455A64"/>
<path d="M240.725 220.164L250.172 232.742L258.04 231.437L256.959 230.401L250.502 231.106L241.733 219.195L240.725 220.164Z" fill="#E0E0E0"/>
<path d="M252.58 225.837C252.535 225.926 252.02 225.742 251.46 225.865C250.9 225.988 250.447 226.307 250.374 226.24C250.301 226.173 250.654 225.646 251.393 225.518C252.132 225.389 252.642 225.764 252.58 225.837Z" fill="#263238"/>
<path d="M252.16 224C252.093 224.067 251.661 223.664 251.04 223.642C250.418 223.619 249.92 223.994 249.869 223.922C249.819 223.849 249.909 223.748 250.11 223.586C250.383 223.387 250.714 223.284 251.051 223.294C251.389 223.303 251.713 223.428 251.969 223.647C252.121 223.804 252.16 223.955 252.16 224Z" fill="#263238"/>
<path d="M251.796 221.564C251.718 221.626 251.37 221.217 250.794 221.116C250.217 221.015 249.752 221.278 249.674 221.194C249.595 221.11 249.724 221.032 249.931 220.914C250.205 220.77 250.519 220.721 250.823 220.776C251.128 220.83 251.405 220.986 251.611 221.217C251.802 221.396 251.835 221.542 251.796 221.564Z" fill="#263238"/>
<path d="M253.588 219.352C253.504 219.397 253.207 218.988 252.664 218.753C252.121 218.518 251.628 218.551 251.606 218.456C251.583 218.361 252.166 218.131 252.81 218.456C253.454 218.781 253.683 219.324 253.588 219.352Z" fill="#263238"/>
<path d="M254.35 217.566C254.31 217.594 254.002 217.325 253.526 216.854L252.72 216.02C252.537 215.857 252.379 215.668 252.25 215.46C252.212 215.385 252.19 215.303 252.184 215.22C252.178 215.136 252.189 215.052 252.216 214.973C252.248 214.882 252.306 214.803 252.382 214.745C252.459 214.687 252.551 214.654 252.647 214.648C252.934 214.652 253.213 214.742 253.448 214.906C253.653 215.037 253.841 215.193 254.008 215.37C254.286 215.677 254.491 216.043 254.607 216.44C254.755 216.799 254.755 217.201 254.607 217.56C254.55 217.214 254.472 216.872 254.372 216.535C254.235 216.191 254.032 215.876 253.773 215.611C253.62 215.46 253.449 215.328 253.263 215.219C253.085 215.103 252.881 215.032 252.67 215.012C252.64 215.012 252.612 215.022 252.588 215.039C252.564 215.056 252.545 215.08 252.535 215.107C252.505 215.181 252.505 215.263 252.535 215.337C252.644 215.517 252.776 215.683 252.927 215.83L253.694 216.72C253.957 216.965 254.178 217.251 254.35 217.566Z" fill="#263238"/>
<path d="M254.669 217.751C254.629 217.751 254.59 217.336 254.937 216.793C255.174 216.434 255.519 216.162 255.923 216.015C256.326 215.869 256.766 215.857 257.177 215.981C257.222 216.01 257.261 216.049 257.29 216.095C257.319 216.14 257.338 216.191 257.345 216.244C257.353 216.335 257.333 216.427 257.289 216.507C257.227 216.619 257.145 216.72 257.049 216.804C256.893 216.955 256.724 217.091 256.545 217.213C256.242 217.417 255.909 217.571 255.559 217.672C255.246 217.799 254.901 217.824 254.573 217.745C254.573 217.689 254.937 217.655 255.481 217.437C255.793 217.313 256.089 217.149 256.36 216.95C256.52 216.832 256.67 216.701 256.808 216.558C256.876 216.498 256.934 216.428 256.981 216.351C257.009 216.272 256.981 216.295 256.981 216.278C256.905 216.245 256.823 216.228 256.741 216.227C256.642 216.219 256.543 216.219 256.444 216.227C256.252 216.244 256.063 216.29 255.884 216.362C255.581 216.48 255.313 216.672 255.105 216.922C254.941 217.188 254.795 217.465 254.669 217.751Z" fill="#263238"/>
<path d="M246.963 218.882C246.994 219.066 246.969 219.256 246.892 219.427C246.815 219.598 246.689 219.742 246.53 219.841C246.371 219.94 246.186 219.989 245.999 219.983C245.812 219.977 245.631 219.916 245.478 219.807C245.326 219.697 245.21 219.546 245.144 219.37C245.078 219.195 245.065 219.004 245.108 218.822C245.151 218.639 245.246 218.474 245.383 218.346C245.52 218.218 245.692 218.134 245.877 218.103C246.124 218.064 246.376 218.124 246.579 218.27C246.783 218.415 246.92 218.635 246.963 218.882Z" fill="#E0E0E0"/>
<path d="M277.668 214.99L280.194 231.386L300.617 228.351C300.203 226.419 289.059 224.073 289.059 224.073L287.871 213.5L277.668 214.99Z" fill="#455A64"/>
<path d="M282.613 224.129C282.425 224.217 282.276 224.372 282.195 224.563C282.115 224.754 282.108 224.969 282.176 225.165C282.259 225.355 282.411 225.506 282.601 225.588C282.791 225.67 283.005 225.677 283.201 225.607C283.403 225.512 283.562 225.343 283.646 225.136C283.731 224.928 283.733 224.697 283.654 224.487C283.549 224.296 283.373 224.153 283.164 224.089C282.954 224.025 282.729 224.046 282.534 224.146" fill="#E0E0E0"/>
<path d="M280.194 231.386L280.003 229.706L299.654 227.416C299.654 227.416 300.622 227.679 300.617 228.334L280.194 231.386Z" fill="#E0E0E0"/>
<path d="M289.372 223.922C289.372 224.022 288.896 224.14 288.448 224.532C288 224.924 287.809 225.383 287.709 225.361C287.608 225.338 287.675 224.734 288.218 224.269C288.761 223.804 289.383 223.826 289.372 223.922Z" fill="#263238"/>
<path d="M291.646 224.487C291.685 224.582 291.276 224.812 291.002 225.288C290.727 225.764 290.694 226.218 290.593 226.229C290.492 226.24 290.346 225.669 290.699 225.109C291.052 224.549 291.629 224.392 291.646 224.487Z" fill="#263238"/>
<path d="M293.247 226.867C293.157 226.906 292.945 226.425 293.118 225.842C293.292 225.26 293.729 224.969 293.785 225.047C293.841 225.126 293.594 225.462 293.454 225.943C293.314 226.425 293.342 226.845 293.247 226.867Z" fill="#263238"/>
<path d="M288.834 221.542C288.834 221.637 288.33 221.57 287.77 221.687C287.21 221.805 286.801 222.057 286.734 221.979C286.667 221.9 287.042 221.48 287.698 221.346C288.353 221.211 288.873 221.452 288.834 221.542Z" fill="#263238"/>
<path d="M288 219.19C287.678 219.33 287.323 219.38 286.975 219.335C286.596 219.325 286.22 219.268 285.855 219.167C285.632 219.114 285.413 219.045 285.2 218.96C285.075 218.915 284.96 218.849 284.858 218.764C284.781 218.705 284.727 218.62 284.704 218.526C284.682 218.431 284.693 218.331 284.735 218.243C284.774 218.166 284.832 218.099 284.902 218.047C284.971 217.996 285.053 217.961 285.138 217.947C285.266 217.927 285.396 217.927 285.525 217.947C285.752 217.963 285.978 218.005 286.197 218.07C286.564 218.174 286.914 218.335 287.233 218.546C287.793 218.915 287.989 219.263 287.955 219.291C287.921 219.319 287.636 219.05 287.104 218.759C286.792 218.59 286.458 218.464 286.113 218.383C285.911 218.33 285.705 218.299 285.497 218.288C285.273 218.288 285.088 218.288 285.049 218.395C285.009 218.501 285.049 218.445 285.088 218.507C285.165 218.565 285.25 218.612 285.34 218.647C285.532 218.733 285.728 218.81 285.928 218.876C286.269 218.985 286.619 219.062 286.975 219.106C287.318 219.109 287.661 219.137 288 219.19Z" fill="#263238"/>
<path d="M287.882 219.352C287.849 219.352 287.597 219.044 287.462 218.406C287.401 218.035 287.401 217.656 287.462 217.286C287.498 217.061 287.555 216.84 287.63 216.625C287.664 216.484 287.733 216.354 287.831 216.247C287.929 216.14 288.053 216.06 288.19 216.014C288.281 216.003 288.374 216.017 288.457 216.056C288.54 216.094 288.611 216.156 288.661 216.233C288.731 216.346 288.786 216.469 288.823 216.597C288.892 216.82 288.926 217.052 288.924 217.286C288.924 217.676 288.828 218.061 288.644 218.406C288.325 218.966 287.927 219.173 287.916 219.139C287.905 219.106 288.19 218.854 288.42 218.299C288.553 217.981 288.615 217.636 288.599 217.291C288.594 217.091 288.558 216.893 288.493 216.703C288.431 216.49 288.325 216.328 288.246 216.362C288.168 216.395 287.994 216.563 287.938 216.748C287.862 216.94 287.804 217.139 287.765 217.342C287.701 217.687 287.686 218.039 287.72 218.389C287.77 218.96 287.933 219.33 287.882 219.352Z" fill="#263238"/>
<path d="M261.602 176.473L244.09 214.631L255.654 221.575L279.869 175.661" fill="#263238"/>
<path d="M290.48 222.443L277.92 224.459L270.399 179.581L233.243 182.274C232.26 182.343 231.273 182.25 230.32 182C219.887 179.138 221.298 165.833 222.306 163.699L273.72 162.226C276.413 162.148 279.041 163.066 281.1 164.806C283.158 166.545 284.502 168.982 284.875 171.651L290.48 222.443Z" fill="#263238"/>
<path d="M221.786 165.805L221.97 146.832C221.97 146.832 219.523 134.512 218.795 129.646C217.675 122.119 216.13 118.541 228.461 113.193L231.16 112.151L235.332 112.207C240.305 112.582 245.546 117.079 245.67 120.047L250.48 162.814L221.786 165.805Z" fill="#F2575D"/>
<path d="M222.558 117.6C222.558 117.6 219.075 125.093 219.758 131.919L232.734 144.374C235.64 147.61 239.28 148.988 243.934 149.268L270.78 152.202L271.525 145.18L246 137.945C244.981 137.754 244.471 136.696 243.693 136.013L222.558 117.6Z" fill="#F2575D"/>
<path d="M220.458 119.762C220.609 119.618 220.783 119.5 220.973 119.414C221.526 119.171 222.111 119.007 222.709 118.927C223.67 118.77 224.65 118.77 225.61 118.927C225.907 118.981 226.194 119.079 226.461 119.218C226.735 119.39 226.998 119.577 227.251 119.778C227.766 120.182 228.287 120.646 228.819 121.15C229.894 122.153 230.913 123.424 232.106 124.712C233.299 126 234.604 127.383 236.026 128.834C237.449 130.284 238.977 131.802 240.613 133.37C241.436 134.154 242.293 134.949 243.183 135.727C243.637 136.097 244.085 136.534 244.516 136.942C244.922 137.363 245.435 137.665 246 137.816L271.575 145.04L271.693 145.074V145.197C271.642 145.695 271.581 146.227 271.525 146.77C271.329 148.635 271.133 150.483 270.965 152.219V152.365H270.819L259.44 151.099L254.064 150.511L248.917 149.99C247.237 149.806 245.619 149.615 244.045 149.386C242.508 149.197 240.995 148.846 239.532 148.338C238.183 147.825 236.906 147.138 235.735 146.294C234.615 145.505 233.562 144.682 232.593 143.87C228.757 140.599 225.941 137.67 223.986 135.677C223.017 134.674 222.273 133.885 221.774 133.347L221.214 132.731L221.029 132.513C221.029 132.513 221.102 132.574 221.237 132.709C221.371 132.843 221.567 133.05 221.797 133.308L224.037 135.604C226.013 137.57 228.853 140.476 232.694 143.718C233.663 144.519 234.699 145.337 235.825 146.115C236.988 146.941 238.253 147.615 239.588 148.12C241.041 148.616 242.543 148.957 244.068 149.139C245.641 149.363 247.265 149.554 248.934 149.733L254.081 150.237L259.457 150.825L270.825 152.062L270.662 152.191C270.847 150.455 271.043 148.607 271.222 146.737C271.284 146.177 271.34 145.662 271.39 145.163L271.497 145.32L245.961 138.068C245.337 137.913 244.77 137.585 244.325 137.122C243.872 136.69 243.463 136.287 242.998 135.901C242.097 135.117 241.251 134.316 240.428 133.532C238.793 131.958 237.269 130.43 235.853 128.974C234.436 127.518 233.137 126.129 231.933 124.824C230.729 123.519 229.743 122.254 228.679 121.251C228.189 120.766 227.673 120.308 227.133 119.879C226.889 119.674 226.631 119.487 226.361 119.319C226.107 119.181 225.833 119.085 225.549 119.034C224.604 118.861 223.637 118.845 222.687 118.989C222.092 119.056 221.51 119.204 220.957 119.431C220.782 119.529 220.616 119.639 220.458 119.762Z" fill="#263238"/>
<path d="M227.162 95.6928L228.461 114.173C228.564 115.626 229.215 116.985 230.281 117.978C231.347 118.97 232.75 119.522 234.206 119.521C234.994 119.521 235.773 119.359 236.496 119.046C237.219 118.733 237.87 118.275 238.408 117.7C238.947 117.125 239.362 116.446 239.627 115.705C239.893 114.963 240.003 114.175 239.952 113.389C239.834 111.63 239.734 110.191 239.734 110.191C239.734 110.191 244.214 109.497 244.258 105.022C244.292 102.441 243.844 96.5832 243.463 92.092C243.338 90.6249 242.666 89.2586 241.579 88.2647C240.493 87.2707 239.072 86.7219 237.6 86.7272H234.895C233.794 86.7941 232.717 87.0809 231.728 87.5706C230.739 88.0604 229.858 88.7432 229.137 89.5788C228.417 90.4144 227.87 91.3859 227.531 92.436C227.192 93.486 227.066 94.5934 227.162 95.6928Z" fill="#FFBE9D"/>
<path d="M239.739 110.118C237.675 110.157 235.646 109.582 233.91 108.466C233.91 108.466 235.287 111.681 239.75 111.266L239.739 110.118Z" fill="#EB996E"/>
<path d="M242.461 97.832C242.462 97.9985 242.399 98.159 242.284 98.2793C242.169 98.3996 242.011 98.4702 241.845 98.476C241.764 98.4837 241.683 98.4752 241.606 98.451C241.529 98.4269 241.458 98.3876 241.396 98.3354C241.335 98.2832 241.284 98.2192 241.248 98.1472C241.211 98.0751 241.189 97.9966 241.184 97.916C241.182 97.749 241.246 97.5879 241.361 97.4667C241.475 97.3455 241.633 97.2737 241.8 97.2664C241.962 97.2541 242.123 97.3067 242.247 97.4127C242.371 97.5187 242.448 97.6695 242.461 97.832Z" fill="#263238"/>
<path d="M242.696 96.572C242.612 96.656 242.136 96.2976 241.442 96.2976C240.747 96.2976 240.254 96.6448 240.176 96.5608C240.098 96.4768 240.221 96.3704 240.445 96.2136C240.74 96.0063 241.092 95.8966 241.453 95.9C241.811 95.8991 242.161 96.013 242.45 96.2248C242.64 96.3816 242.73 96.5328 242.696 96.572Z" fill="#263238"/>
<path d="M236.01 97.832C236.013 97.9989 235.95 98.1602 235.834 98.2809C235.719 98.4015 235.56 98.4716 235.394 98.476C235.313 98.4837 235.232 98.4752 235.155 98.451C235.078 98.4269 235.007 98.3876 234.945 98.3354C234.884 98.2832 234.833 98.2192 234.797 98.1472C234.76 98.0751 234.738 97.9966 234.733 97.916C234.731 97.749 234.795 97.5879 234.909 97.4667C235.024 97.3455 235.182 97.2737 235.349 97.2664C235.511 97.2541 235.672 97.3067 235.796 97.4127C235.92 97.5187 235.997 97.6695 236.01 97.832Z" fill="#263238"/>
<path d="M235.92 96.7008C235.841 96.7848 235.36 96.4264 234.666 96.4264C233.971 96.4264 233.478 96.7736 233.406 96.6896C233.333 96.6056 233.445 96.4992 233.669 96.3424C233.964 96.135 234.316 96.0254 234.677 96.0288C235.034 96.0263 235.384 96.1381 235.673 96.348C235.92 96.5104 235.981 96.6616 235.92 96.7008Z" fill="#263238"/>
<path d="M238.434 101.797C238.798 101.683 239.174 101.616 239.554 101.595C239.728 101.595 239.896 101.539 239.924 101.422C239.943 101.24 239.901 101.057 239.806 100.901L239.28 99.568C238.797 98.4369 238.408 97.2682 238.115 96.0736C238.684 97.1639 239.167 98.2966 239.56 99.4616L240.053 100.806C240.165 101.017 240.199 101.261 240.148 101.494C240.122 101.557 240.083 101.612 240.032 101.657C239.982 101.702 239.922 101.734 239.857 101.752C239.76 101.777 239.66 101.79 239.56 101.791C239.187 101.84 238.808 101.842 238.434 101.797Z" fill="#263238"/>
<path d="M236.413 102.273C236.525 102.273 236.525 103.012 237.163 103.538C237.802 104.065 238.597 103.986 238.603 104.098C238.608 104.21 238.423 104.238 238.087 104.25C237.651 104.255 237.227 104.106 236.889 103.83C236.572 103.56 236.371 103.179 236.329 102.766C236.278 102.48 236.362 102.267 236.413 102.273Z" fill="#263238"/>
<path d="M236.116 94.0072C236.049 94.1921 235.365 94.1081 234.559 94.2033C233.753 94.2985 233.097 94.5225 232.991 94.3545C232.885 94.1865 233.058 94.0969 233.321 93.9177C233.671 93.6944 234.068 93.5546 234.481 93.509C234.893 93.4633 235.311 93.5131 235.701 93.6545C235.998 93.7721 236.149 93.9176 236.116 94.0072Z" fill="#263238"/>
<path d="M242.438 94.584C242.321 94.7408 241.845 94.584 241.279 94.584C240.713 94.584 240.226 94.6848 240.114 94.5224C240.002 94.36 240.142 94.2872 240.355 94.1416C240.635 93.9578 240.967 93.8676 241.301 93.884C241.634 93.891 241.957 94.0005 242.225 94.1976C242.427 94.3488 242.494 94.5056 242.438 94.584Z" fill="#263238"/>
<path d="M228.668 99.0528C228.59 99.0192 225.594 98.14 225.695 101.198C225.795 104.255 228.836 103.527 228.842 103.438C228.847 103.348 228.668 99.0528 228.668 99.0528Z" fill="#FFBE9D"/>
<path d="M227.867 102.312C227.867 102.312 227.817 102.351 227.727 102.396C227.599 102.445 227.458 102.445 227.33 102.396C227.129 102.277 226.964 102.107 226.851 101.903C226.738 101.7 226.681 101.47 226.686 101.237C226.669 100.975 226.711 100.713 226.809 100.47C226.834 100.373 226.883 100.284 226.95 100.209C227.017 100.135 227.101 100.079 227.195 100.044C227.256 100.027 227.322 100.031 227.38 100.057C227.438 100.082 227.486 100.127 227.514 100.184C227.559 100.268 227.542 100.33 227.559 100.335C227.576 100.341 227.621 100.279 227.593 100.156C227.574 100.079 227.528 100.012 227.464 99.9656C227.421 99.9355 227.373 99.914 227.322 99.9025C227.271 99.891 227.219 99.8896 227.167 99.8984C227.039 99.9235 226.919 99.9824 226.82 100.069C226.722 100.156 226.648 100.267 226.607 100.391C226.485 100.659 226.431 100.954 226.45 101.248C226.443 101.52 226.516 101.789 226.662 102.019C226.808 102.25 227.019 102.432 227.268 102.542C227.35 102.563 227.436 102.566 227.52 102.55C227.603 102.533 227.682 102.498 227.75 102.446C227.867 102.385 227.878 102.318 227.867 102.312Z" fill="#EB996E"/>
<path d="M226.96 98.9463C227.251 98.9275 227.541 98.9878 227.801 99.121C228.06 99.2541 228.278 99.455 228.433 99.7023C228.629 100.139 228.673 100.632 228.869 101.069C228.954 101.293 229.109 101.485 229.31 101.615C229.512 101.745 229.75 101.807 229.989 101.791C230.148 101.741 230.291 101.65 230.403 101.527C230.515 101.404 230.593 101.254 230.628 101.091C230.692 100.766 230.692 100.431 230.628 100.106C230.449 98.6775 230.152 97.2663 230.096 95.8271C229.976 94.3832 230.29 92.9364 230.997 91.6719C231.356 91.0456 231.878 90.528 232.507 90.174C233.136 89.8201 233.849 89.643 234.57 89.6615C235.522 89.7399 236.39 90.2215 237.337 90.3671C237.898 90.4407 238.47 90.3857 239.007 90.2062C239.544 90.0267 240.034 89.7275 240.439 89.3312C240.618 89.1808 240.805 89.0405 240.999 88.9112C240.987 88.5731 240.876 88.246 240.68 87.9703C238.804 86.2343 235.433 85.7304 232.957 86.3744C231.7 86.6841 230.526 87.2639 229.515 88.0733C228.505 88.8827 227.682 89.9024 227.105 91.0615C226.041 93.3799 226.355 96.5999 226.943 98.9463" fill="#263238"/>
<path d="M243.513 91.3976C243.513 91.3976 231.787 87.6232 226.713 97.7704C226.322 96.4943 226.067 95.1803 225.952 93.8504C225.952 92.9432 226.512 87.528 232.067 85.8256C232.067 85.848 240.461 82.6448 243.513 91.3976Z" fill="#F2575D"/>
<path d="M233.434 91.6497C233.642 91.9864 233.926 92.2701 234.262 92.4784C234.599 92.6866 234.98 92.8136 235.374 92.8495C235.768 92.8853 236.166 92.829 236.534 92.6849C236.903 92.5408 237.234 92.313 237.499 92.0193C237.615 92.3109 237.819 92.5589 238.083 92.7285C238.347 92.898 238.658 92.9805 238.971 92.9645C239.284 92.9484 239.585 92.8345 239.83 92.6389C240.075 92.4432 240.253 92.1756 240.338 91.8737C240.651 92.2247 241.032 92.5086 241.458 92.7081C241.678 92.8014 241.921 92.8251 242.154 92.7761C242.387 92.727 242.6 92.6075 242.763 92.4337C242.897 92.2309 242.961 91.9901 242.946 91.7477C242.931 91.5052 242.837 91.2743 242.679 91.0897C242.362 90.722 241.952 90.4456 241.492 90.2889C240.102 89.6783 238.576 89.4464 237.068 89.6169C235.552 89.799 234.164 90.5544 233.187 91.7281" fill="#263238"/>
<g opacity="0.4">
<path opacity="0.4" d="M243.513 91.3977C242.536 90.3745 241.198 89.772 239.784 89.7177C236.323 89.5665 229.849 91.5096 226.713 97.7817C226.322 96.5055 226.067 95.1915 225.952 93.8617C225.952 92.9545 226.512 87.5392 232.067 85.8368C232.067 85.848 240.461 82.6448 243.513 91.3977Z" fill="black"/>
</g>
<path d="M227.201 96.5832C228.979 93.9351 231.31 91.7036 234.033 90.0424C236.732 88.3624 241.19 86.6824 244.259 85.876C245.169 85.5751 246.133 85.4739 247.087 85.5792C247.561 85.6393 248.01 85.8319 248.38 86.135C248.75 86.4381 249.028 86.8393 249.181 87.2928C249.472 88.452 247.417 90.2384 246.448 90.9384C245.503 91.5706 244.523 92.1502 243.514 92.6744C243.514 92.6744 243.542 90.524 240.103 90.0816C235.427 89.4824 227.201 96.5832 227.201 96.5832Z" fill="#F2575D"/>
<g opacity="0.3">
<path opacity="0.3" d="M223.073 134.691C224.283 137.609 225.504 141.21 227.257 143.836C229.009 146.462 231.35 148.798 234.262 149.996C237.925 151.531 242.253 151.777 245.893 150.209C246.19 150.08 246.773 149.918 246.717 149.599C246.717 149.599 245.513 149.458 245.137 149.397C237.785 148.176 236.984 147.28 233.461 144.48C231.266 142.75 226.4 137.502 223.073 134.691Z" fill="black"/>
</g>
<path d="M246.459 155.938C246.385 156.177 246.281 156.407 246.151 156.621C245.825 157.227 245.426 157.791 244.964 158.301C243.406 159.934 241.446 161.13 239.28 161.767C237.122 162.382 234.893 162.715 232.65 162.758C231.793 162.792 231.098 162.798 230.622 162.798C230.374 162.808 230.125 162.797 229.878 162.764C230.12 162.708 230.368 162.68 230.617 162.68L232.638 162.551C234.858 162.449 237.058 162.092 239.196 161.487C241.325 160.854 243.261 159.699 244.83 158.127C245.441 157.451 245.987 156.718 246.459 155.938Z" fill="#263238"/>
<path d="M278.138 225.798C278.114 225.743 278.099 225.684 278.094 225.624C278.094 225.495 278.038 225.322 277.993 225.109C277.909 224.638 277.786 223.989 277.634 223.126C277.326 221.379 276.895 218.887 276.358 215.813C275.31 209.619 273.866 201.09 272.27 191.671C271.558 187.404 270.881 183.327 270.259 179.603L270.405 179.721L254.327 180.88L249.713 181.194L248.481 181.266H248.167H248.055H248.162L248.481 181.227L249.707 181.115L254.316 180.723L270.382 179.441H270.506V179.564C271.133 183.288 271.822 187.365 272.538 191.626C274.101 201.051 275.512 209.586 276.542 215.785C277.035 218.865 277.438 221.385 277.724 223.11L278.026 225.109C278.06 225.322 278.082 225.495 278.099 225.624C278.119 225.68 278.133 225.738 278.138 225.798Z" fill="#455A64"/>
<path d="M274.168 175.582C274.218 175.65 273.238 176.49 272.13 177.621C271.021 178.752 270.192 179.743 270.125 179.687C271.157 178.041 272.537 176.64 274.168 175.582Z" fill="#455A64"/>
<path d="M239.84 113.775C239.84 113.775 239.873 113.837 239.907 113.96C239.963 114.142 239.998 114.33 240.013 114.52C240.079 115.211 239.987 115.908 239.745 116.558C239.383 117.531 238.739 118.373 237.897 118.978C236.845 119.698 235.578 120.038 234.307 119.941C233.041 119.855 231.828 119.399 230.818 118.63C230.004 118.005 229.329 117.218 228.836 116.318C228.501 115.718 228.245 115.078 228.074 114.414C228.018 114.178 227.979 113.994 227.962 113.854C227.945 113.714 227.962 113.658 227.962 113.658C228.222 114.541 228.577 115.393 229.021 116.2C229.527 117.054 230.195 117.801 230.986 118.401C231.965 119.125 233.131 119.553 234.346 119.633C235.554 119.725 236.758 119.412 237.768 118.742C238.574 118.172 239.2 117.383 239.571 116.469C239.825 115.849 239.945 115.183 239.924 114.514C239.885 114.044 239.84 113.786 239.84 113.775Z" fill="#263238"/>
<path d="M247.742 138.23C247.678 138.049 247.637 137.861 247.619 137.67C247.557 137.228 247.484 136.69 247.395 136.069C247.21 134.641 246.969 132.804 246.706 130.771C246.443 128.738 246.252 126.851 246.146 125.462C246.084 124.785 246.045 124.23 246.023 123.85C245.996 123.653 245.996 123.453 246.023 123.256C246.081 123.438 246.12 123.626 246.14 123.816C246.202 124.258 246.275 124.79 246.359 125.418C246.538 126.846 246.767 128.682 247.019 130.715C247.271 132.748 247.49 134.635 247.624 136.018C247.686 136.702 247.731 137.25 247.759 137.637C247.776 137.835 247.771 138.034 247.742 138.23Z" fill="#263238"/>
</svg>
