<svg width="40" height="23" viewBox="0 0 40 23" fill="none" xmlns="http://www.w3.org/2000/svg">
<path d="M13 9V5C13 4.20435 12.6839 3.44129 12.1213 2.87868C11.5587 2.31607 10.7956 2 10 2L6 11V22H17.28C17.7623 22.0055 18.2304 21.8364 18.5979 21.524C18.9654 21.2116 19.2077 20.7769 19.28 20.3L20.66 11.3C20.7035 11.0134 20.6842 10.7207 20.6033 10.4423C20.5225 10.1638 20.3821 9.90629 20.1919 9.68751C20.0016 9.46873 19.7661 9.29393 19.5016 9.17522C19.2371 9.0565 18.9499 8.99672 18.66 9H13ZM6 22H3C2.46957 22 1.96086 21.7893 1.58579 21.4142C1.21071 21.0391 1 20.5304 1 20V13C1 12.4696 1.21071 11.9609 1.58579 11.5858C1.96086 11.2107 2.46957 11 3 11H6" fill="white"/>
<path d="M6 22H3C2.46957 22 1.96086 21.7893 1.58579 21.4142C1.21071 21.0391 1 20.5304 1 20V13C1 12.4696 1.21071 11.9609 1.58579 11.5858C1.96086 11.2107 2.46957 11 3 11H6M13 9V5C13 4.20435 12.6839 3.44129 12.1213 2.87868C11.5587 2.31607 10.7956 2 10 2L6 11V22H17.28C17.7623 22.0055 18.2304 21.8364 18.5979 21.524C18.9654 21.2116 19.2077 20.7769 19.28 20.3L20.66 11.3C20.7035 11.0134 20.6842 10.7207 20.6033 10.4423C20.5225 10.1638 20.3821 9.90629 20.1919 9.68751C20.0016 9.46873 19.7661 9.29393 19.5016 9.17522C19.2371 9.0565 18.9499 8.99672 18.66 9H13Z" stroke="black" stroke-width="2" stroke-linecap="round" stroke-linejoin="round"/>
<path d="M39.0747 0.925312C38.7815 0.631961 38.4333 0.399254 38.0502 0.240486C37.667 0.0817183 37.2563 0 36.8415 0C36.4268 0 36.0161 0.0817183 35.6329 0.240486C35.2497 0.399254 34.9016 0.631961 34.6084 0.925312L33.9998 1.53383L33.3913 0.925312C32.7991 0.333041 31.9958 0.000306995 31.1582 0.000307001C30.3206 0.000307007 29.5173 0.333041 28.925 0.925312C28.3327 1.51758 28 2.32087 28 3.15847C28 3.99607 28.3327 4.79936 28.925 5.39163L29.5335 6.00015L33.9998 10.4665L38.4662 6.00015L39.0747 5.39163C39.368 5.09842 39.6007 4.75028 39.7595 4.36711C39.9183 3.98394 40 3.57324 40 3.15847C40 2.74371 39.9183 2.33301 39.7595 1.94984C39.6007 1.56666 39.368 1.21853 39.0747 0.925312V0.925312Z" fill="#E93821"/>
</svg>
