<svg width="24" height="24" viewBox="0 0 24 24" fill="none" xmlns="http://www.w3.org/2000/svg">
<g clip-path="url(#clip0)">
<path d="M22.009 8.57509C21.9218 8.48785 21.8013 8.43774 21.6776 8.43774C21.5543 8.43774 21.4333 8.48785 21.3461 8.57509C21.259 8.66228 21.2088 8.78321 21.2088 8.90649C21.2088 9.02978 21.259 9.15071 21.3461 9.23785C21.4333 9.32504 21.5543 9.37524 21.6776 9.37524C21.8013 9.37524 21.9218 9.32509 22.009 9.23785C22.0966 9.15071 22.1467 9.02978 22.1467 8.90649C22.1467 8.78321 22.0966 8.66228 22.009 8.57509Z" fill="black"/>
<path d="M23.8624 0.137297C23.7745 0.0494062 23.6552 0 23.5309 0L11.9999 0.000609375C11.741 0.000609375 11.5312 0.210516 11.5312 0.469359V1.80984L7.08795 3.00042C6.83787 3.06745 6.68946 3.32447 6.75649 3.5745L9.05932 12.1687L7.06718 14.1608C6.81363 13.7906 6.38791 13.5471 5.90637 13.5471H1.40651C0.631102 13.5471 0.000305176 14.178 0.000305176 14.9533V22.5938C0.000305176 23.3692 0.631102 24 1.40651 24H5.90641C6.56515 24 7.1193 23.5446 7.27118 22.9322L7.82852 23.4182C8.25879 23.7934 8.81004 24 9.38093 24H23.5309C23.7898 24 23.9997 23.7901 23.9997 23.5313V0.46875C23.9996 0.344438 23.9503 0.225187 23.8624 0.137297ZM7.78334 3.78464L11.5312 2.78039V4.51734L11.217 4.60153C11.0969 4.63373 10.9946 4.71225 10.9324 4.81992C10.8702 4.92759 10.8534 5.05552 10.8856 5.17561C11.0657 5.84784 10.6654 6.54127 9.99312 6.72141C9.87288 6.75366 9.77037 6.83231 9.70826 6.94022C9.64615 7.04808 9.62941 7.17623 9.6619 7.29642L11.489 14.0623H10.5483L10.0634 12.1655C10.048 12.1051 10.021 12.0495 9.98487 12.0011L7.78334 3.78464ZM11.5312 6.66698V10.6223L10.6762 7.45664C11.0334 7.27223 11.3256 6.99633 11.5312 6.66698ZM18.2654 23.0625H9.38084C9.03654 23.0625 8.70405 22.9379 8.44455 22.7116L7.31257 21.7244V15.2413L9.35904 13.1948L9.7302 14.647C9.78326 14.8545 9.97015 14.9996 10.1843 14.9996L19.4001 15.0002C19.762 15.0002 20.0564 15.2946 20.0564 15.6564C20.0564 16.0183 19.762 16.3127 19.4001 16.3127H14.6779C14.4191 16.3127 14.2092 16.5226 14.2092 16.7814C14.2092 17.0403 14.4191 17.2502 14.6779 17.2502H20.8673C21.2292 17.2502 21.5236 17.5446 21.5236 17.9064C21.5236 18.2683 21.2292 18.5627 20.8673 18.5627H14.6779C14.4191 18.5627 14.2092 18.7726 14.2092 19.0314C14.2092 19.2903 14.4191 19.5002 14.6779 19.5002H19.8643C20.2262 19.5002 20.5206 19.7946 20.5206 20.1564C20.5206 20.5183 20.2262 20.8127 19.8643 20.8127H14.6779C14.4191 20.8127 14.2092 21.0226 14.2092 21.2814C14.2092 21.5403 14.4191 21.7502 14.6779 21.7502H18.2654C18.6273 21.7502 18.9217 22.0446 18.9217 22.4064C18.9216 22.7681 18.6273 23.0625 18.2654 23.0625ZM23.0622 23.0625H19.7172C19.8081 22.8622 19.8591 22.6402 19.8591 22.4062C19.8591 22.1723 19.8081 21.9503 19.7172 21.75H19.8643C20.7431 21.75 21.458 21.0351 21.458 20.1563C21.458 19.9 21.3969 19.6578 21.2889 19.443C21.9637 19.2577 22.461 18.6391 22.461 17.9063C22.461 17.5508 22.3439 17.2222 22.1464 16.9569V11.016C22.1464 10.7571 21.9365 10.5472 21.6776 10.5472C21.4188 10.5472 21.2089 10.7571 21.2089 11.016V16.35C21.0987 16.3258 20.9845 16.3127 20.8672 16.3127H20.8519C20.9427 16.1124 20.9938 15.8903 20.9938 15.6564C20.9938 14.7776 20.2789 14.0627 19.4001 14.0627H18.6466C19.4467 13.7196 20.0086 12.9243 20.0086 12C20.0086 10.763 19.0023 9.75666 17.7653 9.75666C16.5284 9.75666 15.522 10.763 15.522 12C15.522 12.9243 16.084 13.7196 16.8841 14.0627H14.3217V5.14983C15.1591 4.96734 15.8199 4.30664 16.0023 3.46922H19.5283C19.7107 4.30664 20.3715 4.96734 21.2089 5.14983V6.60717C21.2089 11.016 21 12 21.6776 10.5472C21.9365 10.5472 22.1464 11.2748 22.1464 11.016L22.1464 4.73133C22.1464 4.47248 21.9364 4.26258 21.6776 4.26258C20.9816 4.26258 20.4155 3.69637 20.4155 3.00047C20.4155 2.74163 20.2056 2.53172 19.9468 2.53172H15.5839C15.325 2.53172 15.1151 2.74163 15.1151 3.00047C15.1151 3.69642 14.5489 4.26258 13.853 4.26258C13.5942 4.26258 13.3843 4.47248 13.3843 4.73133V14.0627H12.4687V0.938016L23.0622 0.9375V23.0625ZM17.7654 13.3058C17.0454 13.3058 16.4596 12.72 16.4596 12C16.4596 11.28 17.0454 10.6942 17.7654 10.6942C18.4854 10.6942 19.0712 11.28 19.0712 12C19.0712 12.72 18.4855 13.3058 17.7654 13.3058Z" fill="#BB6BD9"/>
</g>
<defs>
<clipPath id="clip0">
<rect width="24" height="24" fill="white"/>
</clipPath>
</defs>
</svg>
