<svg width="24" height="24" viewBox="0 0 24 24" fill="none" xmlns="http://www.w3.org/2000/svg">
<g clip-path="url(#clip0)">
<path d="M12.5063 11.5164C12.5023 11.5123 12.5012 11.5068 12.4972 11.5028L8.48447 7.49004V4.96868C8.48447 4.78189 8.41031 4.60339 8.2785 4.47153L4.05975 0.205948C3.85926 0.00551089 3.55645 -0.0556141 3.29343 0.0535578C3.03046 0.162026 2.85946 0.418855 2.85946 0.703105V2.81248H0.703211C0.419008 2.81243 0.162179 2.98339 0.0537106 3.2464C-0.0554614 3.50937 0.00496055 3.81153 0.206148 4.01271L4.47178 8.27829C4.60364 8.41015 4.78214 8.48431 4.96889 8.48431H7.49025L11.5029 12.497C11.507 12.501 11.5125 12.5022 11.5166 12.5061C11.7903 12.7674 12.2062 12.7708 12.4836 12.5061C12.7757 12.2273 12.7691 11.7918 12.5063 11.5164Z" fill="#2D9CDB"/>
<path d="M12 0.000244141C10.2009 0.000244141 8.49988 0.457978 6.96809 1.17296L9.125 3.32987C10.0303 3.02884 10.9951 2.85962 12.0001 2.85962C17.04 2.85957 21.1406 6.9602 21.1406 12.0002C21.1406 17.0401 17.04 21.1407 12 21.1407C6.96003 21.1407 2.85945 17.0401 2.85945 12.0002C2.85945 10.9952 3.02872 10.0303 3.3297 9.12507L1.17279 6.96817C0.457904 8.49999 0.00012207 10.201 0.00012207 12.0002C0.00012207 18.5912 5.40899 24.0001 12 24.0001C18.5911 24.0001 24 18.5912 24 12.0002C24 5.4091 18.5912 0.000244141 12 0.000244141Z" fill="#2D9CDB"/>
<path d="M12 5.67188C11.2568 5.67188 10.5537 5.82422 9.89067 6.06061V6.90783L11.5162 8.53331C11.6758 8.511 11.8343 8.48438 12 8.48438C13.9385 8.48438 15.5157 10.0616 15.5157 12C15.5157 13.9384 13.9385 15.5156 12 15.5156C10.0616 15.5156 8.48442 13.9384 8.48442 12C8.48442 11.8342 8.51104 11.6757 8.53336 11.5161L6.90792 9.89058H6.0607C5.82431 10.5536 5.67197 11.2567 5.67197 12C5.67197 15.4895 8.51058 18.328 12 18.328C15.4895 18.328 18.3282 15.4895 18.3282 12C18.3282 8.51044 15.4896 5.67188 12 5.67188Z" fill="#2D9CDB"/>
</g>
<defs>
<clipPath id="clip0">
<rect width="24" height="24" fill="white"/>
</clipPath>
</defs>
</svg>
